<?xml version="1.0" standalone="yes"?>
<svg xmlns="http://www.w3.org/2000/svg" width="250" height="250">
<path style="fill:#e9d8f2; stroke:none;" d="M0 0L0 250C4.0321 250 9.70384 250.838 12.2269 246.852C15.2778 242.032 11.6988 229.559 11.1698 224C10.0327 212.051 11.5157 195.267 15.7106 184C26.3313 155.474 55.1708 155.464 74.686 138.15C78.5969 134.68 77.101 129.497 77.9722 125C79.9835 114.619 85.5456 111.335 95 109C92.1067 96.3488 86.449 85.0858 86.1088 72.0039C85.9853 67.2554 90.0157 64.6824 89.8912 59.9846C89.7113 53.1968 84.8729 44.3713 87.6921 37.9105C90.0817 32.4343 96.0761 30.4846 98.973 25.6752C103.026 18.9457 101.141 13.0564 109.001 7.96913C127.085 -3.7359 153.369 8.88687 162.12 27C167.81 38.7792 162.256 54.5961 162 67L166 72L162 68L160 85L159 80L158 80C158 93.4449 156.103 102.621 151 115C164.357 115.111 172.629 119.76 172 134C192.463 144.782 218.551 148.271 230.558 171.001C239.803 188.502 235.568 213.189 237.415 232C238.159 239.58 241.588 249.724 250 250L250 0L0 0z"/>
<path style="fill:#c09486; stroke:none;" d="M119 3L119 4L129 4L119 3M116.667 4.33333L117.333 4.66667L116.667 4.33333z"/>
<path style="fill:#8a6353; stroke:none;" d="M99 28C102.231 25.852 103.272 22.0158 106.263 19.5324C112.832 14.079 131.238 8.54633 136 17C131.721 17.0005 127.694 16.2642 125 20L138 32C126.953 35.502 115.89 27.2873 106.015 30.6844C93.2687 35.0692 92.0902 57.3479 88 68C92.5903 71.8235 92 76.4193 92 82L89 80L95 110L96 110L96 107C104.854 111.036 109.957 118.614 116 126L101 114L100 117C107.154 119.117 110.513 126.994 119 128.535C140.855 132.504 156.946 110.68 157 91L156 91C155.711 104.576 137.146 120.905 125 126L112.482 116.985L104 105L104 104L106 101L117 105L113 98L126 92C119.967 87.3428 106.67 87.5136 103.211 96.0231C101.931 99.1737 103.498 103.55 103 107C90.1453 95.4696 93.0551 68.8691 97.784 54C99.235 49.4375 99.1388 42.9252 102.573 39.3179C108.95 32.6184 122.177 37.5618 130 36.6358C134.521 36.1006 139.49 33.1594 144 35.2184C148.192 37.1323 151.175 41.5317 154 45L155 45L158 43L156 46L155 46L158 70C165.773 61.1096 163.067 42.182 164 31L163 31L162 34L161 34L160 31L156 32L154 41C146.666 33.6866 141.008 29.8777 141 19C147.591 19.3608 154.9 24.1628 158 30L159 30C159 26.482 156.423 23.1059 160 24C156.168 16.7703 145.924 9.03873 138 7C134.343 10.2673 131.309 8.34856 130 4C120.862 4 107.327 4.57706 102.457 14.0154C100.248 18.2961 100.912 23.4867 99 28z"/>
<path style="fill:#c09486; stroke:none;" d="M130 4C131.181 10.8624 136.161 9.14941 141 7L130 4M113.667 5.33333L114.333 5.66667L113.667 5.33333M111.667 6.33333L112.333 6.66667L111.667 6.33333M109.667 7.33333L110.333 7.66667L109.667 7.33333M141 7L142 8L141 7M107 8L108 9L107 8z"/>
<path style="fill:#9c6cb4; stroke:none;" d="M131 8L132 9L131 8z"/>
<path style="fill:#c09486; stroke:none;" d="M142 8L143 9L142 8M143 9L144 10L143 9z"/>
<path style="fill:#4e302f; stroke:none;" d="M142 10L143 11L142 10z"/>
<path style="fill:#c09486; stroke:none;" d="M145 10L146 11L145 10z"/>
<path style="fill:#4e302f; stroke:none;" d="M107 11L106 17L112 14L112 13L107 11M90 60L91 60C93.3636 50.8876 96.1552 33.9155 107.004 30.9568C117.379 28.1273 126.965 36.6562 138 32L125 20L136 17C132.649 7.2672 112.525 14.17 106.263 18.8742C101.549 22.4159 88.3318 35.308 87.6034 41C86.8689 46.7392 89.9993 53.881 90 60z"/>
<path style="fill:#c09486; stroke:none;" d="M147 11L148 12L147 11M148 12L149 13L148 12M102 13L103 14L102 13M149 13L150 14L149 13z"/>
<path style="fill:#9c6cb4; stroke:none;" d="M142 14L141 16L143 16L142 14z"/>
<path style="fill:#c09486; stroke:none;" d="M101 15L102 16L101 15z"/>
<path style="fill:#4e302f; stroke:none;" d="M148 15L152 19L148 15z"/>
<path style="fill:#c09486; stroke:none;" d="M151 15L152 16L151 15M139 18L144 17L139 18z"/>
<path style="fill:#9c6cb4; stroke:none;" d="M144 16L145 17L144 16z"/>
<path style="fill:#c09486; stroke:none;" d="M153 16L154 17L153 16z"/>
<path style="fill:#9c6cb4; stroke:none;" d="M138 17L139 18L138 17M140 17L141 18L140 17z"/>
<path style="fill:#4e302f; stroke:none;" d="M144 17L144 18L147 18L144 17z"/>
<path style="fill:#c09486; stroke:none;" d="M154 17L155 18L154 17M100 18L100 26L101 26L100 18z"/>
<path style="fill:#9c6cb4; stroke:none;" d="M133 18L134 19L133 18z"/>
<path style="fill:#c09486; stroke:none;" d="M134 18L133 23L137 27L136 24L139 23L134 18z"/>
<path style="fill:#9c6cb4; stroke:none;" d="M136 18L137 19L136 18z"/>
<path style="fill:#c09486; stroke:none;" d="M156 18L157 19L156 18z"/>
<path style="fill:#4e302f; stroke:none;" d="M141 19C141.001 29.6747 145.267 34.8541 154 41L156 32L160 31L161 34L162 34L159 23L158 23L159 30C154.942 23.8159 148.458 19.1803 141 19z"/>
<path style="fill:#c09486; stroke:none;" d="M157 19L158 20L157 19z"/>
<path style="fill:#9c6cb4; stroke:none;" d="M133 20L134 21L133 20M138 20L139 21L138 20z"/>
<path style="fill:#c09486; stroke:none;" d="M158 20L159 21L158 20z"/>
<path style="fill:#9c6cb4; stroke:none;" d="M132.333 21.6667L132.667 22.3333L132.333 21.6667z"/>
<path style="fill:#c09486; stroke:none;" d="M153 21L153 22L156 23L153 21M159.333 21.6667L159.667 22.3333L159.333 21.6667z"/>
<path style="fill:#9c6cb4; stroke:none;" d="M154 22L155 23L154 22M134 23L135 24L134 23M137 23L138 24L137 23M136 24L137 25L136 24z"/>
<path style="fill:#c09486; stroke:none;" d="M160 24L162 26L160 24z"/>
<path style="fill:#9c6cb4; stroke:none;" d="M137.333 25.6667L137.667 26.3333L137.333 25.6667z"/>
<path style="fill:#8a6353; stroke:none;" d="M160 25L161 26L160 25z"/>
<path style="fill:#c09486; stroke:none;" d="M99 26L100 27L99 26z"/>
<path style="fill:#9c6cb4; stroke:none;" d="M135 26L136 27L135 26z"/>
<path style="fill:#8a6353; stroke:none;" d="M161 26L162 27L161 26z"/>
<path style="fill:#c09486; stroke:none;" d="M96 29L99 28L96 29M162 27L163 28L162 27z"/>
<path style="fill:#8a6353; stroke:none;" d="M97 28L98 29L97 28M162.333 28.6667L162.667 29.3333L162.333 28.6667z"/>
<path style="fill:#c09486; stroke:none;" d="M94 29L88 36L94 29z"/>
<path style="fill:#8a6353; stroke:none;" d="M92 33L97 29L92 33z"/>
<path style="fill:#c09486; stroke:none;" d="M163.333 29.6667L163.667 30.3333L163.333 29.6667z"/>
<path style="fill:#8a6353; stroke:none;" d="M91 33L92 34L91 33M90 34L91 35L90 34z"/>
<path style="fill:#9c6cb4; stroke:none;" d="M139.667 34.3333L140.333 34.6667L139.667 34.3333z"/>
<path style="fill:#c09486; stroke:none;" d="M103 106C104.322 92.6748 111.838 84.4674 126 91L119 99L113 98L118 106L107 102L109 114L122 124L125 122L126 125L152 105L156 90L157 90L157 97L158 97L158 80L159 80L160 85C165.655 81.6495 160.047 73.9512 162 68L166 72L162 67L162 63L161 63L157 70C157.22 59.2797 157.076 37.7373 143 34.8264C137.839 33.7591 132.323 36.9674 127.001 36.5394C120.116 35.9855 106.948 33.9186 101.894 39.8627C99.253 42.968 99.7592 48.2315 98.4645 52C94.1848 64.4571 88.0439 98.5024 103 106z"/>
<path style="fill:#9c6cb4; stroke:none;" d="M143 34L144 35L143 34z"/>
<path style="fill:#c09486; stroke:none;" d="M163 34L163 37L164 37L163 34z"/>
<path style="fill:#8a6353; stroke:none;" d="M89 35L87 40L88 40L89 35z"/>
<path style="fill:#9c6cb4; stroke:none;" d="M134 35L134 36L137 36L134 35M145 35L146 36L145 35M110 36L111 37L110 36M120 36L121 37L120 36M131 36L132 37L131 36z"/>
<path style="fill:#c09486; stroke:none;" d="M87 37L88 38L87 37z"/>
<path style="fill:#9c6cb4; stroke:none;" d="M103 37L104 38L103 37z"/>
<path style="fill:#e9d8f2; stroke:none;" d="M117 47L117 48L112 49L113 52C115.868 54.5865 117.768 58.9071 121.115 60.7971C126.463 63.8166 133.527 61.7856 132 55L148 53L146 51L147 49L145 49L149 44L149 42C141.373 36.1446 124.316 36.0121 115.319 40.5995C111.348 42.6239 114.235 46.0819 117 47z"/>
<path style="fill:#9c6cb4; stroke:none;" d="M102 38L103 39L102 38M101 40L102 41L101 40z"/>
<path style="fill:#c09486; stroke:none;" d="M86 41L87 42L86 41z"/>
<path style="fill:#9c6cb4; stroke:none;" d="M151 41L152 42L151 41z"/>
<path style="fill:#c09486; stroke:none;" d="M146 42L147 43L146 42M163 42L163 53L164 53L163 42z"/>
<path style="fill:#8a6353; stroke:none;" d="M87.3333 43.6667L87.6667 44.3333L87.3333 43.6667z"/>
<path style="fill:#c09486; stroke:none;" d="M156 43L156 47L157 47L156 43z"/>
<path style="fill:#9c6cb4; stroke:none;" d="M157 43L158 44L157 43M153 44L154 45L153 44M155 44L154 46L156 46L155 44z"/>
<path style="fill:#c09486; stroke:none;" d="M87.3333 45.6667L87.6667 46.3333L87.3333 45.6667z"/>
<path style="fill:#9c6cb4; stroke:none;" d="M158 45L159 46L158 45z"/>
<path style="fill:#8a6353; stroke:none;" d="M88 46L89 53L90 53L88 46z"/>
<path style="fill:#9c6cb4; stroke:none;" d="M157 46L158 47L157 46M99 47L99 50L100 50L99 47M156 47L157 48L156 47z"/>
<path style="fill:#c09486; stroke:none;" d="M121 48L121 49L126 49L121 48M88 49L89 50L88 49M115 49L115 50L123 51L115 49z"/>
<path style="fill:#4e302f; stroke:none;" d="M161 50L161 53L162 53L161 50z"/>
<path style="fill:#9c6cb4; stroke:none;" d="M98 51L99 52L98 51z"/>
<path style="fill:#c09486; stroke:none;" d="M89 53L89 57L90 57L89 53z"/>
<path style="fill:#9c6cb4; stroke:none;" d="M102 54L102 55L105 55L102 54M155 53L156 54L155 53z"/>
<path style="fill:#c09486; stroke:none;" d="M162 53L162 61L163 61L162 53z"/>
<path style="fill:#8a6353; stroke:none;" d="M103 54L102 59L111 54L103 54z"/>
<path style="fill:#9c6cb4; stroke:none;" d="M97 55L98 56L97 55M111 55L112 56L111 55z"/>
<path style="fill:#e9d8f2; stroke:none;" d="M151 55L150 60L142 59L142 60L152 63L154 70C155.298 64.5293 155.112 59.124 151 55z"/>
<path style="fill:#9c6cb4; stroke:none;" d="M156 55L157 56L156 55z"/>
<path style="fill:#4e302f; stroke:none;" d="M160 55L160 58L161 58L160 55z"/>
<path style="fill:#9c6cb4; stroke:none;" d="M110 56L111 57L110 56M105.667 57.3333L106.333 57.6667L105.667 57.3333M103 58L104 59L103 58M157.333 58.6667L157.667 59.3333L157.333 58.6667M95 59L96 60L95 59z"/>
<path style="fill:#8a6353; stroke:none;" d="M102 68L102 69C108.396 71.2721 110.735 63.0522 117 70C122.091 67.0517 117.775 62.0524 112.999 61.615C108.091 61.1655 104.708 64.4697 102 68z"/>
<path style="fill:#9c6cb4; stroke:none;" d="M107 62L108 63L107 62M116 62L117 63L116 62M138.667 62.3333L139.333 62.6667L138.667 62.3333z"/>
<path style="fill:#4e302f; stroke:none;" d="M91 63L92 70L93 70L91 63z"/>
<path style="fill:#9c6cb4; stroke:none;" d="M105 63L106 64L105 63M117 63L118 64L117 63M135 63L133 67L140 65L140 64L135 63z"/>
<path style="fill:#8a6353; stroke:none;" d="M135 64L135 65L145 66C142.448 62.6474 138.795 62.9101 135 64z"/>
<path style="fill:#9c6cb4; stroke:none;" d="M142 63L143 64L142 63M157 63L157 66L158 66L157 63M118 64L119 65L118 64M141.333 64.6667L141.667 65.3333L141.333 64.6667z"/>
<path style="fill:#c09486; stroke:none;" d="M88.6667 65.3333L89.3333 65.6667L88.6667 65.3333z"/>
<path style="fill:#e9d8f2; stroke:none;" d="M125 65C124.782 70.3265 122.109 80.8827 124.353 85.6674C126.43 90.0974 133.709 85.5689 136.83 85.3928C143.885 84.9947 145.635 90.8945 154 88L155 73L154 73L155 77C148.295 70.5092 144.638 76.994 137.005 75.1065C131.785 73.8158 129.168 68.0226 125 65z"/>
<path style="fill:#9c6cb4; stroke:none;" d="M145 65L146 66L145 65z"/>
<path style="fill:#c09486; stroke:none;" d="M86 66L87 87L88 87L89 85C89.9833 87.9498 90.4869 88.6217 88 88L92 93L89 80L92 82C92 75.3579 92.8238 69.2941 86 66z"/>
<path style="fill:#9c6cb4; stroke:none;" d="M103 66L104 67L103 66M108 66L107 68L108 66z"/>
<path style="fill:#c09486; stroke:none;" d="M107 69L111 66L107 69z"/>
<path style="fill:#9c6cb4; stroke:none;" d="M111 66L113 68L111 66M114 66L115 67L114 66M120 66L121 67L120 66M102 67L103 68L102 67z"/>
<path style="fill:#8a6353; stroke:none;" d="M109 68L109 69L113 70L112 67L109 68z"/>
<path style="fill:#9c6cb4; stroke:none;" d="M115 67L116 68L115 67M143 67L144 68L143 67M160 67L161 68L160 67M120 68L121 69L120 68z"/>
<path style="fill:#8a6353; stroke:none;" d="M138 68L138 70L140 70L138 68z"/>
<path style="fill:#9c6cb4; stroke:none;" d="M139 68L140 69L139 68z"/>
<path style="fill:#e9d8f2; stroke:none;" d="M142 68L143 69L142 68z"/>
<path style="fill:#8a6353; stroke:none;" d="M144 68L145 69L144 68z"/>
<path style="fill:#9c6cb4; stroke:none;" d="M159 68L160 69L159 68M102 69L103 70L102 69M107 69L107 70L110 70L107 69M113 69L114 70L113 69M116 69L116 71L118 71L116 69M119 69L120 70L119 69M140 69L141 70L140 69M144 69L145 70L144 69M157 69L158 70L157 69M103 70L104 71L103 70M120 70L120 72L122 72L122 70L120 70M94 71L94 74L95 74L94 71M104 71L105 72L104 71M157.333 71.6667L157.667 72.3333L157.333 71.6667z"/>
<path style="fill:#e9d8f2; stroke:none;" d="M142 72L143 73L142 72z"/>
<path style="fill:#9c6cb4; stroke:none;" d="M120 74L121 75L120 74z"/>
<path style="fill:#e9d8f2; stroke:none;" d="M106 87L107 87L114 77C106.146 75.3687 101.418 78.1915 106 87z"/>
<path style="fill:#8a6353; stroke:none;" d="M158 76L159 77L158 76z"/>
<path style="fill:#9c6cb4; stroke:none;" d="M158.667 77.3333L159.333 77.6667L158.667 77.3333M94 80L95 81L94 80z"/>
<path style="fill:#8a6353; stroke:none;" d="M88 85L89 89L90 89L88 85z"/>
<path style="fill:#9c6cb4; stroke:none;" d="M117 87L117 88L120 88L117 87M114 88L115 89L114 88M121 88L122 89L121 88z"/>
<path style="fill:#8a6353; stroke:none;" d="M128 89L128 90L132 88L128 89z"/>
<path style="fill:#9c6cb4; stroke:none;" d="M132.333 88.6667L132.667 89.3333L132.333 88.6667z"/>
<path style="fill:#e9d8f2; stroke:none;" d="M137 88L137 90L139 90L137 88z"/>
<path style="fill:#9c6cb4; stroke:none;" d="M122 89L123 90L122 89M127 89L128 90L127 89M123.667 90.3333L124.333 90.6667L123.667 90.3333M142 90L143 91L142 90M156 90L157 91L156 90M106 91L107 92L106 91M108 91L108 92L111 92L108 91M105 92L106 93L105 92M125 92L126 93L125 92M144 92L145 93L144 92M123.333 93.6667L123.667 94.3333L123.333 93.6667z"/>
<path style="fill:#c09486; stroke:none;" d="M92 94L92 99L93 99L92 94z"/>
<path style="fill:#8a6353; stroke:none;" d="M146 94L147 95L146 94z"/>
<path style="fill:#9c6cb4; stroke:none;" d="M120 95L119 97L121 97L120 95M142 96L142 97L145 97L142 96M146.333 96.6667L146.667 97.3333L146.333 96.6667z"/>
<path style="fill:#4e302f; stroke:none;" d="M108 98L115 104L112 97L108 98z"/>
<path style="fill:#9c6cb4; stroke:none;" d="M116 97L116 98L119 99L116 97M134 97L135 100L136 100L136 97L134 97z"/>
<path style="fill:#8a6353; stroke:none;" d="M135 98L138 101L137 98L140 101L145 97L135 98z"/>
<path style="fill:#9c6cb4; stroke:none;" d="M102 98L103 99L102 98M120 98L121 99L120 98z"/>
<path style="fill:#4e302f; stroke:none;" d="M137 98L137 104L140 98L137 98z"/>
<path style="fill:#9c6cb4; stroke:none;" d="M144.333 99.6667L144.667 100.333L144.333 99.6667z"/>
<path style="fill:#c09486; stroke:none;" d="M156 99L156 102L157 102L156 99z"/>
<path style="fill:#e9d8f2; stroke:none;" d="M117 100C120.335 105.342 129.276 106.573 135 105L136 101L117 100z"/>
<path style="fill:#c09486; stroke:none;" d="M135 100L137 102L137 100L135 100z"/>
<path style="fill:#9c6cb4; stroke:none;" d="M141 100L142 101L141 100M103 101L104 102L103 101M106.333 101.667L106.667 102.333L106.333 101.667M140 101L141 102L140 101M108.333 102.667L108.667 103.333L108.333 102.667z"/>
<path style="fill:#8a6353; stroke:none;" d="M136 102L137 103L136 102M139 102L140 103L139 102z"/>
<path style="fill:#9c6cb4; stroke:none;" d="M153 102L154 103L153 102z"/>
<path style="fill:#c09486; stroke:none;" d="M93 103L94 104L93 103z"/>
<path style="fill:#9c6cb4; stroke:none;" d="M99 103L100 104L99 103M103 103L104 104L103 103M105 103L106 106L105 103M136 103L137 104L136 103M109 104L109 105L113 106L113 105L109 104M137.667 104.333L138.333 104.667L137.667 104.333z"/>
<path style="fill:#e9d8f2; stroke:none;" d="M141.333 104.667L141.667 105.333L141.333 104.667z"/>
<path style="fill:#9c6cb4; stroke:none;" d="M150 104L149 106L151 106L150 104M152 104L153 105L152 104z"/>
<path style="fill:#c09486; stroke:none;" d="M155.333 104.667L155.667 105.333L155.333 104.667z"/>
<path style="fill:#9c6cb4; stroke:none;" d="M103 105L104 106L103 105M115 105L115 106L118 106L115 105M101.667 106.333L102.333 106.667L101.667 106.333M148 106L149 107L148 106z"/>
<path style="fill:#4e302f; stroke:none;" d="M96 107L83 114C85.709 124.121 93.4695 132.987 102 139L101 114C105.53 118.918 109.197 124.383 116 126C111.651 118.238 104.699 109.712 96 107z"/>
<path style="fill:#9c6cb4; stroke:none;" d="M106 107L107 108L106 107M144.667 108.333L145.333 108.667L144.667 108.333z"/>
<path style="fill:#c09486; stroke:none;" d="M154 108L155 109L154 108M93.6667 109.333L94.3333 109.667L93.6667 109.333z"/>
<path style="fill:#9c6cb4; stroke:none;" d="M107 109L108 110L107 109z"/>
<path style="fill:#e9d8f2; stroke:none;" d="M139 109L140 110L139 109z"/>
<path style="fill:#c09486; stroke:none;" d="M85 111L85 112L90 111L85 111z"/>
<path style="fill:#9c6cb4; stroke:none;" d="M90 110L91 111L90 110z"/>
<path style="fill:#8a6353; stroke:none;" d="M91 110L91 111L94 111L91 110z"/>
<path style="fill:#9c6cb4; stroke:none;" d="M108 110L109 111L108 110z"/>
<path style="fill:#e9d8f2; stroke:none;" d="M130 111L130 112L135 110L130 111z"/>
<path style="fill:#9c6cb4; stroke:none;" d="M143 110L144 111L143 110z"/>
<path style="fill:#4e302f; stroke:none;" d="M142 119L151 110L142 119z"/>
<path style="fill:#c09486; stroke:none;" d="M153 110L154 111L153 110z"/>
<path style="fill:#8a6353; stroke:none;" d="M87.6667 111.333L88.3333 111.667L87.6667 111.333z"/>
<path style="fill:#c09486; stroke:none;" d="M152 111L153 112L152 111M83 112L81 116L82 116L83 112z"/>
<path style="fill:#8a6353; stroke:none;" d="M84.6667 112.333L85.3333 112.667L84.6667 112.333z"/>
<path style="fill:#9c6cb4; stroke:none;" d="M109 112L110 113L109 112M142 112L143 113L142 112M151 112L152 113L151 112z"/>
<path style="fill:#8a6353; stroke:none;" d="M83 113L84 114L83 113M82 114C79.1829 126.444 95.4235 133.999 98 146L101 146L100 140L105 143L102 121L101 121L102 139L82 114z"/>
<path style="fill:#9c6cb4; stroke:none;" d="M109 114L110 115L109 114M121 114L122 115L121 114z"/>
<path style="fill:#8a6353; stroke:none;" d="M122 114L121 115L124 117L122 114z"/>
<path style="fill:#9c6cb4; stroke:none;" d="M123 114L124 117L125 117L125 114L123 114M140 114L141 115L140 114z"/>
<path style="fill:#c09486; stroke:none;" d="M101 117L104.742 140.532L123 153L112 148L121 154L121 155L106 154L106 155L119 159C115.759 159.865 97.3758 163.829 101 168L100 170L100 171L101 171C108.015 165.658 117.355 169.111 125 171C118.145 173.23 101.436 170.226 100 179L98 179L97 163L96 163L104 250L106 250L104 226L105 226L108 250L147 250C148.665 228.141 149.197 204.818 146.13 183C145.406 177.844 144.64 164.482 141.117 160.745C138.381 157.842 128.899 158.31 125 158L125 156L142.258 155.397L146 142L147 142L152 250L153 250L153 216L154 216L155 250L190 250C189.988 245.533 192.009 237.423 187 236L192 227L193 227L196 234L197 231L194 228L197 229L203 207L208 210L216 198L212 214L224 207C221.417 214.554 219.071 221.427 213 227L213 228C220.304 227.24 225.463 224.716 227 217L228 217L228 225L229 225L230 220C236.15 228.303 234.352 244.953 244 250C241.996 244.112 238.418 238.246 237.688 232C235.451 212.871 240.002 187.755 230.558 170.004C219.349 148.937 192.512 141.913 172 134C173.191 126.842 171.398 119.224 164 117L164 118L166 120L155 131L154 131L150 120L155 125L157 125L158 121L151 116L163 117C148.039 109.046 142.967 125.42 130 128.582C116.562 131.858 111.177 122.431 101 117z"/>
<path style="fill:#9c6cb4; stroke:none;" d="M111 115L112 116L111 115M139 115L140 116L139 115M101 116L102 117L101 116M121 116L122 117L121 116M151 116L158 121L157 125L155 125L150 120L157 128L163 122L160 121L161 117L151 116M112 117L113 118L112 117M123 117L124 118L123 117M137 117L138 118L137 117z"/>
<path style="fill:#8a6353; stroke:none;" d="M156 117L158 120L156 117M161 117L160 121L161 121C162.564 118.393 163.587 118.65 163 121L164 121L165 118L161 117z"/>
<path style="fill:#9c6cb4; stroke:none;" d="M163 117L164 118L163 117z"/>
<path style="fill:#c09486; stroke:none;" d="M80.3333 118.667L80.6667 119.333L80.3333 118.667z"/>
<path style="fill:#9c6cb4; stroke:none;" d="M113 118L114 119L113 118M136 118L137 119L136 118M165.333 118.667L165.667 119.333L165.333 118.667M101.333 119.667L101.667 120.333L101.333 119.667M115 119L116 120L115 119M134 119L135 120L134 119M144 119L145 120L144 119z"/>
<path style="fill:#4e302f; stroke:none;" d="M161 121L164 119L161 121z"/>
<path style="fill:#9c6cb4; stroke:none;" d="M80 120L81 128L78 129L78 131L81 136L78 134C77.5081 140.38 81.5555 143.174 85 148L75 139L74 139L74 146L71 144C68.7139 148.923 63.2528 150.873 59 147L58 147L56 150C48.0836 150.316 39.0608 156.184 33.2585 161.359C5.60162 186.026 13.9964 217.381 14 250L42 250C41.9343 248.102 38.8369 229.253 43 236C49.6168 237.227 50.7472 244.201 51 250L81 250L88 240L91 241L91 240L91 239L72 226L62 205L61 205L58 207L52.6474 195.981L47 179L60 174L61 178L64 178L65 175L69 175L69 179L72 179L71 177C75.4215 175.828 79.4195 169.364 83.8758 170.083C88.7103 170.862 91.233 179.026 92.1566 183C95.3344 196.673 96.0449 212.903 97.7145 227C98.6385 234.801 94.3335 249.679 104 250L96 163L97 163L98 179L100 179C102.716 169.659 118.097 174.724 125 171C118.523 168.933 106.359 164.836 101 171L100 171L101 168C100.426 162.567 114.721 160.537 119 159L106 155L106 154L121 155L121 154L112 148L117 151L117 150L105 141L105 143L100 140C100.265 144.84 101.558 147.809 106 150L106 151L100 150L102 154L98 155C96.9624 139.706 92.6331 129.881 80 120M116 120L117 121L116 120M164 120L165 121L164 120M118 121L119 122L118 121M133 121L134 122L133 121z"/>
<path style="fill:#4e302f; stroke:none;" d="M138 121L139 122L138 121z"/>
<path style="fill:#c09486; stroke:none;" d="M78 122L79 123L78 122z"/>
<path style="fill:#9c6cb4; stroke:none;" d="M119.667 122.333L120.333 122.667L119.667 122.333M122 123L127 126L125 122L122 123M132 122L133 123L132 122M141 122L142 123L141 122z"/>
<path style="fill:#8a6353; stroke:none;" d="M150 122L154 130L155 130L152 122L150 122M78 123C78.0642 125.993 77.9461 127.346 81 128L80 123L78 123z"/>
<path style="fill:#9c6cb4; stroke:none;" d="M130 123L131 124L130 123M140 123L141 124L140 123z"/>
<path style="fill:#c09486; stroke:none;" d="M77 124L77 127L78 127L77 124z"/>
<path style="fill:#9c6cb4; stroke:none;" d="M128 124L129 125L128 124M138 124L139 125L138 124M136 125L137 126L136 125z"/>
<path style="fill:#4e302f; stroke:none;" d="M152 125L154 129L155 129L152 125z"/>
<path style="fill:#9c6cb4; stroke:none;" d="M114 127L115 128L114 127M133 127L134 128L133 127M118 128L119 129L118 128M131 128L132 129L131 128z"/>
<path style="fill:#c09486; stroke:none;" d="M78 129L79 130L78 129z"/>
<path style="fill:#e9d8f2; stroke:none;" d="M139 146L140 146L143 145L144 145L145 129C133.695 129.37 138.917 138.461 139 146z"/>
<path style="fill:#9c6cb4; stroke:none;" d="M153 129L154 130L153 129M155 129L156 130L155 129M154 130L155 131L154 130z"/>
<path style="fill:#8a6353; stroke:none;" d="M78 131L81 136L78 131z"/>
<path style="fill:#c09486; stroke:none;" d="M77 132L77 137L78 137L77 132z"/>
<path style="fill:#4e302f; stroke:none;" d="M78 132L79 133L78 132z"/>
<path style="fill:#c09486; stroke:none;" d="M139 132L139 134L141 134L141 132L139 132z"/>
<path style="fill:#e9d8f2; stroke:none;" d="M155 132L153 136L157 135L155 132M165 132L163 135L165 132z"/>
<path style="fill:#9c6cb4; stroke:none;" d="M102 133L103 134L102 133M169 133L171 137L172 137L169 133z"/>
<path style="fill:#e9d8f2; stroke:none;" d="M158 139L162 137L158 139z"/>
<path style="fill:#c09486; stroke:none;" d="M76 137L74 138L74 139L76 137z"/>
<path style="fill:#8a6353; stroke:none;" d="M76 138C75.7984 143.817 79.7889 146.451 85 148L78 138L76 138M81 138L82 141L86 140L84 142L88 144C86.8427 140.099 84.941 138.804 81 138M89 138L90 139L89 138z"/>
<path style="fill:#e9d8f2; stroke:none;" d="M152.333 138.667L152.667 139.333L152.333 138.667z"/>
<path style="fill:#c09486; stroke:none;" d="M73 139L74 140L73 139z"/>
<path style="fill:#4e302f; stroke:none;" d="M83 139L86 141L86 140L83 139M98 139L99 140L98 139z"/>
<path style="fill:#9c6cb4; stroke:none;" d="M103 139L104 140L103 139z"/>
<path style="fill:#e9d8f2; stroke:none;" d="M167 139L168 140L167 139z"/>
<path style="fill:#c09486; stroke:none;" d="M70 140L71 141L70 140z"/>
<path style="fill:#8a6353; stroke:none;" d="M71 142C66.2668 142.323 61.377 144.811 59 149C64.0851 149.542 69.3904 149.68 71 144L74 146L74 140L71 142M91 140L92 146L89 145C88.179 149.924 90.2505 151.465 95 152L93 148C95.4391 144.452 94.5797 142.195 91 140z"/>
<path style="fill:#9c6cb4; stroke:none;" d="M146 140L147 141L146 140z"/>
<path style="fill:#c09486; stroke:none;" d="M68 141L69 142L68 141z"/>
<path style="fill:#9c6cb4; stroke:none;" d="M70 141L71 142L70 141z"/>
<path style="fill:#c09486; stroke:none;" d="M66.6667 142.333L67.3333 142.667L66.6667 142.333z"/>
<path style="fill:#9c6cb4; stroke:none;" d="M93.3333 142.667L93.6667 143.333L93.3333 142.667z"/>
<path style="fill:#4e302f; stroke:none;" d="M98 142L99 143L98 142z"/>
<path style="fill:#9c6cb4; stroke:none;" d="M146 142C144.633 145.751 144.78 151.628 142.258 154.682C138.751 158.929 129.823 156.013 125 156L125 158L140.448 160.742L145.999 183L147 250L152 250L149.039 177L146 142z"/>
<path style="fill:#e9d8f2; stroke:none;" d="M164.333 142.667L164.667 143.333L164.333 142.667z"/>
<path style="fill:#c09486; stroke:none;" d="M64.6667 143.333L65.3333 143.667L64.6667 143.333M63 144L64 145L63 144z"/>
<path style="fill:#4e302f; stroke:none;" d="M80 144L81 145L80 144z"/>
<path style="fill:#c09486; stroke:none;" d="M61 145L62 146L61 145z"/>
<path style="fill:#4e302f; stroke:none;" d="M99 145L99 150L100 150L99 145z"/>
<path style="fill:#8a6353; stroke:none;" d="M111 145L121 152L111 145z"/>
<path style="fill:#9c6cb4; stroke:none;" d="M112.667 145.333L113.333 145.667L112.667 145.333M194 145L194 147L196 147L194 145z"/>
<path style="fill:#c09486; stroke:none;" d="M58.6667 146.333L59.3333 146.667L58.6667 146.333z"/>
<path style="fill:#8a6353; stroke:none;" d="M74 146L75 147L74 146z"/>
<path style="fill:#9c6cb4; stroke:none;" d="M92 146L93 147L92 146z"/>
<path style="fill:#c09486; stroke:none;" d="M56.6667 147.333L57.3333 147.667L56.6667 147.333z"/>
<path style="fill:#4e302f; stroke:none;" d="M90 147L94 151L90 147z"/>
<path style="fill:#8a6353; stroke:none;" d="M101 147L100 150L106 151L106 150L101 147z"/>
<path style="fill:#c09486; stroke:none;" d="M54.6667 148.333L55.3333 148.667L54.6667 148.333M51 151L54 150L51 151z"/>
<path style="fill:#8a6353; stroke:none;" d="M55 149L56 150L55 149M98 149L100 152L98 149M52 150L53 151L52 150z"/>
<path style="fill:#9c6cb4; stroke:none;" d="M120 150L121 151L120 150z"/>
<path style="fill:#c09486; stroke:none;" d="M48.6667 151.333L49.3333 151.667L48.6667 151.333z"/>
<path style="fill:#4e302f; stroke:none;" d="M98 151L101 154L98 151z"/>
<path style="fill:#8a6353; stroke:none;" d="M107.667 151.333L108.333 151.667L107.667 151.333z"/>
<path style="fill:#9c6cb4; stroke:none;" d="M118.667 151.333L119.333 151.667L118.667 151.333M120 153L123 153L122 151L120 153z"/>
<path style="fill:#c09486; stroke:none;" d="M46.6667 152.333L47.3333 152.667L46.6667 152.333z"/>
<path style="fill:#8a6353; stroke:none;" d="M97 152L98 153L97 152z"/>
<path style="fill:#c09486; stroke:none;" d="M44.6667 153.333L45.3333 153.667L44.6667 153.333z"/>
<path style="fill:#8a6353; stroke:none;" d="M101 153L102 154L101 153z"/>
<path style="fill:#9c6cb4; stroke:none;" d="M150 155L150 156L157 154L150 155z"/>
<path style="fill:#c09486; stroke:none;" d="M42 154L43 155L42 154z"/>
<path style="fill:#8a6353; stroke:none;" d="M98.6667 154.333L99.3333 154.667L98.6667 154.333z"/>
<path style="fill:#c09486; stroke:none;" d="M40.6667 155.333L41.3333 155.667L40.6667 155.333M37 158L40 156L37 158z"/>
<path style="fill:#8a6353; stroke:none;" d="M98 156L98 158L100 158L98 156z"/>
<path style="fill:#c09486; stroke:none;" d="M35.6667 158.333L36.3333 158.667L35.6667 158.333z"/>
<path style="fill:#4e302f; stroke:none;" d="M98 158L99 160L100 160L101 158L98 158z"/>
<path style="fill:#8a6353; stroke:none;" d="M101 158L102 159L101 158z"/>
<path style="fill:#9c6cb4; stroke:none;" d="M153.333 158.667L153.667 159.333L153.333 158.667z"/>
<path style="fill:#c09486; stroke:none;" d="M34 159L33 161L35 161L34 159z"/>
<path style="fill:#8a6353; stroke:none;" d="M86 159L86 160L92 160L86 159M98 159L99 160L98 159M100 159L101 160L100 159z"/>
<path style="fill:#9c6cb4; stroke:none;" d="M119.667 159.333L120.333 159.667L119.667 159.333z"/>
<path style="fill:#8a6353; stroke:none;" d="M99 160L100 161L99 160z"/>
<path style="fill:#c09486; stroke:none;" d="M32 161L31 163L33 163L32 161M30 163L31 164L30 163M29 164L30 165L29 164M28 165L29 166L28 165M27 166L26 169L27 166z"/>
<path style="fill:#9c6cb4; stroke:none;" d="M151 166L151 170L152 170L151 166z"/>
<path style="fill:#c09486; stroke:none;" d="M25.3333 169.667L25.6667 170.333L25.3333 169.667M72 179L69 179L69 178L69 175L65 175L64 178L61 178L60 174L47 179L52.135 195.981L58 207L61 205L62 205L72 226C77.3596 231.007 83.1511 238.754 91 239L91 240L91 241L88 240L81 250L98 250C95.9438 227.923 97.7254 202.914 91.9398 181C91.023 177.527 89.0133 171.791 85.6065 169.944C81.3547 167.64 72.4658 175.43 72 179M24 171L25 172L24 171M23.3333 172.667L23.6667 173.333L23.3333 172.667z"/>
<path style="fill:#9c6cb4; stroke:none;" d="M227 173L231 186L232 186L229 173L227 173z"/>
<path style="fill:#c09486; stroke:none;" d="M22 174L21 176L23 176L22 174M19 176L19 178L21 176L19 176M42 176L41 179L44 179L42 176M18 178L19 179L18 178M17.3333 179.667L17.6667 180.333L17.3333 179.667M16.3333 181.667L16.6667 182.333L16.3333 181.667M15 184L16 185L15 184M14.3333 187.667L14.6667 188.333L14.3333 187.667M13 192L13 196L14 196L13 192M28 193L30 199L31 199L32 197L32 196L28 193z"/>
<path style="fill:#8a6353; stroke:none;" d="M14 196L15 197L14 196z"/>
<path style="fill:#9c6cb4; stroke:none;" d="M232 197C232.139 203.749 230.938 220.085 237 224C236.995 216.269 236.891 203.215 232 197z"/>
<path style="fill:#c09486; stroke:none;" d="M25 198L34 216L35 216C33.5134 209.577 30.8657 201.585 25 198z"/>
<path style="fill:#9c6cb4; stroke:none;" d="M153 198L153 204L154 204L153 198M214 198L208 210L203 207L197 229L194 228L196 234L193 227L192 227L187 236C191.522 238.204 189.947 245.397 190 250L196 250L199.175 226L207 215L208 215C206.703 223.655 199.453 242.491 215 243L209 250L242 250L230 220L229 225L228 225L228 217L227 217C224.645 224.096 220.047 226.635 213 228L213 227C219.885 222.696 222.077 214.412 224 207L212 214C215.338 208.353 217.184 204.676 216 198L214 198M100 199L100 204L101 204L100 199z"/>
<path style="fill:#c09486; stroke:none;" d="M32.3333 200.667L32.6667 201.333L32.3333 200.667M12 202L12 207L13 207L12 202z"/>
<path style="fill:#9c6cb4; stroke:none;" d="M153 207L154 208L153 207M65 210L66 211L65 210z"/>
<path style="fill:#c09486; stroke:none;" d="M11 212L11 227L12 227L11 212z"/>
<path style="fill:#9c6cb4; stroke:none;" d="M102 213L103 224L104 224L102 213z"/>
<path style="fill:#8a6353; stroke:none;" d="M207 215L199 225L205 218L206 218L206 222L207 222L207 215z"/>
<path style="fill:#9c6cb4; stroke:none;" d="M153 216L153 250C158.205 245.452 155.545 222.064 153 216z"/>
<path style="fill:#c09486; stroke:none;" d="M211 216L212 217L211 216z"/>
<path style="fill:#8a6353; stroke:none;" d="M40 217C40.6259 223.111 43.4054 229.982 49 233C48.0598 226.634 46.0761 219.989 40 217z"/>
<path style="fill:#c09486; stroke:none;" d="M216 217L217 218L216 217z"/>
<path style="fill:#9c6cb4; stroke:none;" d="M230 217L231 218L230 217z"/>
<path style="fill:#4e302f; stroke:none;" d="M205 218C197.825 229.285 199.014 237.34 196 250L206 250L207 244L205.613 236.039L200 228C203.956 225.971 206.698 222.498 205 218z"/>
<path style="fill:#c09486; stroke:none;" d="M212.333 218.667L212.667 219.333L212.333 218.667z"/>
<path style="fill:#8a6353; stroke:none;" d="M12.3333 222.667L12.6667 223.333L12.3333 222.667z"/>
<path style="fill:#4e302f; stroke:none;" d="M42 222L43 223L42 222z"/>
<path style="fill:#8a6353; stroke:none;" d="M205 223L206 224L205 223M204.333 224.667L204.667 225.333L204.333 224.667z"/>
<path style="fill:#c09486; stroke:none;" d="M28.3333 226.667L28.6667 227.333L28.3333 226.667z"/>
<path style="fill:#9c6cb4; stroke:none;" d="M104 226L106 250L108 250L104 226M194 226L195 227L194 226z"/>
<path style="fill:#8a6353; stroke:none;" d="M198 226L199 227L198 226M203 226L204 227L203 226M202 227C200.415 229.499 200.486 230.396 203 232L202 227z"/>
<path style="fill:#c09486; stroke:none;" d="M211 229L213 231L213 229L211 229z"/>
<path style="fill:#8a6353; stroke:none;" d="M198 231L199 232L198 231M203 232L204 233L203 232M42 250L44 250C43.7965 247.505 42.0033 242.707 43.3272 240.466C46.4422 235.193 49.8609 248.313 50 250L51 250C50.8749 243.97 50.1661 236.674 43 236C42.3848 233.144 39.5561 232.418 39.3333 236.028C39.0414 240.76 41.7442 245.316 42 250M204 233L205 234L204 233z"/>
<path style="fill:#c09486; stroke:none;" d="M12 234L12 239L13 239L12 234z"/>
<path style="fill:#8a6353; stroke:none;" d="M205 234L207 244L206 250L215 243L205 234M197.333 235.667L197.667 236.333L197.333 235.667z"/>
<path style="fill:#c09486; stroke:none;" d="M195 236L196 237L195 236z"/>
<path style="fill:#4e302f; stroke:none;" d="M44 250L50 250C49.9152 248.061 47.2458 234.311 43.1173 239.662C41.3781 241.916 43.6535 247.427 44 250z"/>
<path style="fill:#c09486; stroke:none;" d="M13 239L13 245L14 245L13 239M195 240L195 244L196 244L195 240z"/>
<path style="fill:#8a6353; stroke:none;" d="M196 244L196 249L197 249L196 244z"/>
<path style="fill:#c09486; stroke:none;" d="M13 246L10 250L13 246M194.333 247.667L194.667 248.333L194.333 247.667z"/>
<path style="fill:#8a6353; stroke:none;" d="M11 250L14 248L11 250z"/>
</svg>
