<?xml version="1.0" standalone="yes"?>
<svg xmlns="http://www.w3.org/2000/svg" width="250" height="250">
<path style="fill:#f2f1f5; stroke:none;" d="M0 0L0 250L250 250L250 0L0 0z"/>
<path style="fill:#9976a8; stroke:none;" d="M87 30L88 31L87 30z"/>
<path style="fill:#6f6a7d; stroke:none;" d="M84 31L84 32L94 31L84 31z"/>
<path style="fill:#9976a8; stroke:none;" d="M94 30L95 31L94 30M83 31L84 32L83 31z"/>
<path style="fill:#34303d; stroke:none;" d="M86 31L87 32L86 31M80 34L80 35L85 37C81.1408 37.1573 78.3148 38.2098 77 42L82 41C87.4274 95.5154 84 152.037 84 207L83 207L83 204L82 204L82 214L77 214L77 218L85 219L85 223L80 223C86.4881 229.663 95.7393 227.092 104 227.004C122.045 226.811 139.956 227 158 227C164.81 227 176.198 229.126 181.297 223.442C184.687 219.664 184 213.678 184 209L184 175L183 175L182 179L167 167L162 168C161.612 165.036 159.853 164.84 157 165L156 161L149 162C147.351 157.963 145.525 155.797 141 156L142 151L148 156L149 153L131 138L130 138L130 208L129 208L129 187L128 187L128 215L123 215C124.322 218.997 127.046 219.389 131 219C126.044 227.159 92.2526 227.661 87.4568 218.906C84.8513 214.15 86 207.23 86 202L86 167L87 167C92.7852 180.801 107.912 186.989 122 187C123.358 174.068 123 161.047 123 148C123 143.912 124.853 136.04 120 135L120 134L123 132L105 134L105 133L112 132L112 131L108 130L108 129L123 131L123 83L122 83L122 87C108.147 80.0488 95.0935 88.2191 89 101C82.9167 86.606 86 67.3376 86 52C86 46.6674 84.4957 38.0734 90.1088 34.9267C94.4857 32.4731 101.663 36.307 106 37.5756C115.796 40.441 128.082 42.411 136.985 47.4174C140.403 49.3396 141.965 52.8089 145 55C143.415 50.4646 141.352 46.8267 136.996 44.4174C123.416 36.9068 94.5896 26.974 80 34z"/>
<path style="fill:#6f6a7d; stroke:none;" d="M96 31L97 32L96 31z"/>
<path style="fill:#9976a8; stroke:none;" d="M97.6667 31.3333L98.3333 31.6667L97.6667 31.3333M81 32L82 33L81 32z"/>
<path style="fill:#6f6a7d; stroke:none;" d="M82 32L83 33L82 32M99 32L100 33L99 32z"/>
<path style="fill:#9976a8; stroke:none;" d="M100 32L101 33L100 32z"/>
<path style="fill:#6f6a7d; stroke:none;" d="M80 33L81 34L80 33z"/>
<path style="fill:#9976a8; stroke:none;" d="M85 33L86 34L85 33z"/>
<path style="fill:#6f6a7d; stroke:none;" d="M91.6667 33.3333L92.3333 33.6667L91.6667 33.3333M102 33L103 34L102 33z"/>
<path style="fill:#9976a8; stroke:none;" d="M103.667 33.3333L104.333 33.6667L103.667 33.3333z"/>
<path style="fill:#6f6a7d; stroke:none;" d="M79.3333 34.6667L79.6667 35.3333L79.3333 34.6667M81 34L81 35L85 37L81 34z"/>
<path style="fill:#9976a8; stroke:none;" d="M89 34L90 35L89 34z"/>
<path style="fill:#f2f1f5; stroke:none;" d="M86 62L87 62C93.1068 53.9023 98.7352 50.5525 108 47C106.999 36.3437 125.334 42.8141 124 53L142 54C138.87 43.1175 112.901 39.6779 103 36.8596C99.1936 35.776 93.1732 32.8627 89.3943 35.1937C83.0541 39.1045 86 55.615 86 62z"/>
<path style="fill:#9976a8; stroke:none;" d="M94.6667 34.3333L95.3333 34.6667L94.6667 34.3333z"/>
<path style="fill:#6f6a7d; stroke:none;" d="M106 34L107 35L106 34z"/>
<path style="fill:#9976a8; stroke:none;" d="M107 34L108 35L107 34M78 35L78 37L80 37L78 35M80 35L80 36L83 36L80 35M98 35L99 36L98 35z"/>
<path style="fill:#6f6a7d; stroke:none;" d="M99 35L100 36L99 35M109 35L110 36L109 35z"/>
<path style="fill:#9976a8; stroke:none;" d="M110.667 35.3333L111.333 35.6667L110.667 35.3333M87 36L88 37L87 36M101 36L102 37L101 36z"/>
<path style="fill:#6f6a7d; stroke:none;" d="M102 36L103 37L102 36M112 36L113 37L112 36z"/>
<path style="fill:#9976a8; stroke:none;" d="M113.667 36.3333L114.333 36.6667L113.667 36.3333M81 37L82 38L81 37z"/>
<path style="fill:#6f6a7d; stroke:none;" d="M83 37L83 45L84 45L83 37z"/>
<path style="fill:#9976a8; stroke:none;" d="M105 37L106 38L105 37z"/>
<path style="fill:#6f6a7d; stroke:none;" d="M115.667 37.3333L116.333 37.6667L115.667 37.3333z"/>
<path style="fill:#9976a8; stroke:none;" d="M117 37L118 38L117 37M77 38L78 39L77 38z"/>
<path style="fill:#6f6a7d; stroke:none;" d="M78 38L79 39L78 38z"/>
<path style="fill:#9976a8; stroke:none;" d="M86 38L87 39L86 38M108 38L109 39L108 38z"/>
<path style="fill:#6f6a7d; stroke:none;" d="M109 38L110 39L109 38M119 38L120 39L119 38z"/>
<path style="fill:#9976a8; stroke:none;" d="M120 38L121 39L120 38M111 39L112 40L111 39z"/>
<path style="fill:#6f6a7d; stroke:none;" d="M112 39L113 40L112 39M122 39L123 40L122 39z"/>
<path style="fill:#9976a8; stroke:none;" d="M123 39L124 40L123 39M109 40L110 41L109 40M114.667 40.3333L115.333 40.6667L114.667 40.3333z"/>
<path style="fill:#6f6a7d; stroke:none;" d="M125 40L126 41L125 40z"/>
<path style="fill:#9976a8; stroke:none;" d="M126.667 40.3333L127.333 40.6667L126.667 40.3333M76 41L76 46L77 46L76 41z"/>
<path style="fill:#6f6a7d; stroke:none;" d="M76 52L77 52L77 49L82 48L82 153C82 168.341 78.654 188.297 83 203C76.1408 202.743 77.0006 208.678 77 214L82 214L82 204L83 204L83 207L84 207L84 104L82 41C76.1989 42.2621 76.329 46.8435 76 52z"/>
<path style="fill:#34303d; stroke:none;" d="M108 41C108.285 49.7005 115.903 49.986 123 52C125.299 43.2936 114.79 41.5928 108 41z"/>
<path style="fill:#9976a8; stroke:none;" d="M112.667 41.3333L113.333 41.6667L112.667 41.3333M117.667 41.3333L118.333 41.6667L117.667 41.3333z"/>
<path style="fill:#6f6a7d; stroke:none;" d="M128 41L129 42L128 41z"/>
<path style="fill:#9976a8; stroke:none;" d="M129.667 41.3333L130.333 41.6667L129.667 41.3333M107 42L108 43L107 42z"/>
<path style="fill:#6f6a7d; stroke:none;" d="M115 42L116 43L115 42z"/>
<path style="fill:#9976a8; stroke:none;" d="M116 42L117 43L116 42M121 42L122 43L121 42z"/>
<path style="fill:#6f6a7d; stroke:none;" d="M122 42L123 43L122 42M132 42L133 43L132 42z"/>
<path style="fill:#9976a8; stroke:none;" d="M133 42L134 43L133 42z"/>
<path style="fill:#6f6a7d; stroke:none;" d="M107 43L108 44L107 43M118 43L119 44L118 43z"/>
<path style="fill:#9976a8; stroke:none;" d="M119 43L120 44L119 43M124.667 43.3333L125.333 43.6667L124.667 43.3333z"/>
<path style="fill:#6f6a7d; stroke:none;" d="M135 43L136 44L135 43z"/>
<path style="fill:#9976a8; stroke:none;" d="M136 43L137 44L136 43M107.333 44.6667L107.667 45.3333L107.333 44.6667M122 44L123 45L122 44M128 44L129 45L128 44z"/>
<path style="fill:#6f6a7d; stroke:none;" d="M137 44L138 45L137 44z"/>
<path style="fill:#9976a8; stroke:none;" d="M138 44L139 45L138 44M123 45L124 46L123 45M131 45L132 46L131 45z"/>
<path style="fill:#6f6a7d; stroke:none;" d="M132 45L133 46L132 45M139 45L140 46L139 45z"/>
<path style="fill:#9976a8; stroke:none;" d="M134 46L135 47L134 46z"/>
<path style="fill:#6f6a7d; stroke:none;" d="M135 46L136 47L135 46M140 46L141 47L140 46z"/>
<path style="fill:#9976a8; stroke:none;" d="M86 84L87 84C94.3788 70.1647 107.114 63.0534 122 70C122.262 64.9681 123.535 61.5827 128 59L127 61L128 61L129 58L125 59L131 55L131 54L124 51C118.101 51.0521 112.745 47.4646 107 47.6744C86.1812 48.4347 86 68.7972 86 84M124 47L124 51L125 51L124 47M137 47L138 48L137 47z"/>
<path style="fill:#6f6a7d; stroke:none;" d="M141 47L142 48L141 47z"/>
<path style="fill:#9976a8; stroke:none;" d="M76 48L77 49L76 48M81 48L77 49L76 106L76 215L77 215C77.0005 210.315 76.0694 203.828 82 203L82 94C82 81.0087 86.0067 59.9316 81 48z"/>
<path style="fill:#6f6a7d; stroke:none;" d="M139 48L140 49L139 48z"/>
<path style="fill:#9976a8; stroke:none;" d="M142 48L143 49L142 48z"/>
<path style="fill:#6f6a7d; stroke:none;" d="M114 49L115 50L114 49z"/>
<path style="fill:#9976a8; stroke:none;" d="M140 49L141 50L140 49z"/>
<path style="fill:#6f6a7d; stroke:none;" d="M141 50L142 51L141 50M143 50L144 51L143 50M121 51L122 52L121 51M142 52L143 53L142 52z"/>
<path style="fill:#9976a8; stroke:none;" d="M144 52L145 53L144 52M133 53L134 54L133 53z"/>
<path style="fill:#6f6a7d; stroke:none;" d="M134 53L125 59L126 59L127 57L129 64L130 64L130 58C137.366 55.1205 141.349 55.9697 149 57L134 53z"/>
<path style="fill:#9976a8; stroke:none;" d="M135 53L135 54L141 54L135 53M142.333 53.6667L142.667 54.3333L142.333 53.6667z"/>
<path style="fill:#6f6a7d; stroke:none;" d="M144 53L145 54L144 53M131 54L132 55L131 54z"/>
<path style="fill:#34303d; stroke:none;" d="M132 54L127 56L127 57L132 54z"/>
<path style="fill:#6f6a7d; stroke:none;" d="M128.667 55.3333L129.333 55.6667L128.667 55.3333z"/>
<path style="fill:#9976a8; stroke:none;" d="M132 55L133 56L132 55M130 58L130 68L131 68C133.661 54.8485 145.889 59.9113 155 62L155 63L143 60L143 61C149.414 66.1553 150.669 70.6902 147 78L152 68L160 73L160 75L151 79L151 80L154 80C162.622 70.3092 169.751 97.4069 154 90C156.888 93.4545 158.959 94.0278 163 92L162 104L163 104L164 99L165 99L165 108L173 111L172 114C175.483 114.415 181.623 122.394 183 116L184 116L184 136L185 136C185 118.34 185.263 100.658 184.995 83C184.904 76.9862 183.934 67.2517 177 66L177 64L175 63L171 64L172 62L171 62L168 63L168 61L164 62L165 60L164 60L161 61L161 59L157 60L158 58L157 58C154.05 58.9833 153.378 59.4869 154 57L150 56L130 58M146 55L147 56L146 55M131 56L132 57L131 56z"/>
<path style="fill:#34303d; stroke:none;" d="M126 57L127 58L126 57z"/>
<path style="fill:#6f6a7d; stroke:none;" d="M150 57L150 58L153 58L150 57M139 58L139 62C143.513 62.2033 144.601 65.0119 146 69L149 68L149 74L150 74C149.861 68.0737 148.372 63.9398 143 61L143 60L155 63L139 58M153 58L153 59L156 59L153 58z"/>
<path style="fill:#f2f1f5; stroke:none;" d="M124 60L124 61L128 60L124 60z"/>
<path style="fill:#6f6a7d; stroke:none;" d="M131 68L128 68L128 64L122 64L122 73L127 71L128 120L129 208L130 208L130 138L131 138L148 156L142 151L141 156C145.258 156.079 146.956 158.509 149 162L156 161L157 165C159.51 164.498 162.645 165.421 162 168L167 167C170.294 173.22 175.583 176.565 182 179L183 175L184 175L184 213L185 213L184 116L183 116L183 119L172 114L173 111L165 108L165 99L164 99L161 103C155.028 110.146 142.417 104.633 135 102L137 92L135 84L134 84L134 95L133 95C133 85.1963 130.326 70.7582 135 62L135 65L138 62L135 62L138 60C133.169 59.3482 131.461 63.8733 131 68z"/>
<path style="fill:#34303d; stroke:none;" d="M138 59L136 63L139 62C134.331 72.268 134.586 79.0027 135 90L136 90L139 85L135 91L135 102C142.258 105.648 158.449 111.106 162 101L163 93C156.332 94.3825 153.557 90.0283 152 84L147 85L149 68L146 69L138 59z"/>
<path style="fill:#6f6a7d; stroke:none;" d="M157.667 59.3333L158.333 59.6667L157.667 59.3333z"/>
<path style="fill:#34303d; stroke:none;" d="M128 60L123 65L128 64L128 68L129 68L128 60z"/>
<path style="fill:#6f6a7d; stroke:none;" d="M161.667 60.3333L162.333 60.6667L161.667 60.3333M124 61L125 62L124 61z"/>
<path style="fill:#9976a8; stroke:none;" d="M135 61L136 62L135 61z"/>
<path style="fill:#6f6a7d; stroke:none;" d="M164.667 61.3333L165.333 61.6667L164.667 61.3333M79 62L78 70C81.3142 67.8496 81.3033 65.0571 79 62z"/>
<path style="fill:#9976a8; stroke:none;" d="M134 62L133 95L134 95L134 62M138 62L139 63L138 62z"/>
<path style="fill:#6f6a7d; stroke:none;" d="M168.667 62.3333L169.333 62.6667L168.667 62.3333z"/>
<path style="fill:#9976a8; stroke:none;" d="M79 63L79 69L80 69L79 63z"/>
<path style="fill:#34303d; stroke:none;" d="M135 63L136 64L135 63z"/>
<path style="fill:#9976a8; stroke:none;" d="M137 63L136 69L137 69L137 63z"/>
<path style="fill:#6f6a7d; stroke:none;" d="M155 63L156 64L155 63M171.667 63.3333L172.333 63.6667L171.667 63.3333M157 64L160 67L157 64M175 64L176 65L175 64z"/>
<path style="fill:#34303d; stroke:none;" d="M135 65L136 66L135 65z"/>
<path style="fill:#6f6a7d; stroke:none;" d="M137 65L138 66L137 65M177 65L178 66L177 65M134 66L134 72L135 72L136 66L134 66z"/>
<path style="fill:#f2f1f5; stroke:none;" d="M155 66L158 72L155 66z"/>
<path style="fill:#501f97; stroke:none;" d="M89 101C97.3803 88.6168 106.622 81.2783 122 87C122.625 82.0572 124.288 75.7865 121.682 71.1335C118.19 64.8992 106.49 66.3907 101 68.6343C88.7278 73.6498 81.9119 89.1858 89 101z"/>
<path style="fill:#6f6a7d; stroke:none;" d="M153 67L154 68L153 67M152 68L147 78L147 85L152 84C151.544 78.5607 154.821 75.7998 160 75L160 73L152 68M160 68L161 69L160 68M142 70L143 71L142 70M161 70L161 73L162 73L161 70z"/>
<path style="fill:#9976a8; stroke:none;" d="M120 131L120 132L123 132L123 200L122 200L122 194L106 190L106 192L86 179C86.0019 196.281 107.095 201.988 122 202L122 216L123 216L123 204L127 205C132.212 176.924 128 144.561 128 116C128 102.119 130.935 84.3109 127 71C121.212 73.3266 123 80.7041 123 86L123 119C123 123.394 124.037 128.383 120 131M129 72L130 73L129 72z"/>
<path style="fill:#6f6a7d; stroke:none;" d="M162 74L162 78L163 78L162 74M183 75L184 76L183 75M134 76L135 77L134 76M154 79L159 77L154 79M80 77L80 90L81 90L80 77z"/>
<path style="fill:#f2f1f5; stroke:none;" d="M153 77L154 78L153 77z"/>
<path style="fill:#34303d; stroke:none;" d="M156.228 78.0864C150.412 81.0481 154.073 93.7189 160.722 91.338C167.029 89.0795 162.831 74.724 156.228 78.0864z"/>
<path style="fill:#6f6a7d; stroke:none;" d="M160 77L161 78L160 77M161 78L162 79L161 78z"/>
<path style="fill:#f2f1f5; stroke:none;" d="M152 79L151 81L153 81L152 79z"/>
<path style="fill:#6f6a7d; stroke:none;" d="M134 80L135 81L134 80M153 80L154 81L153 80z"/>
<path style="fill:#9976a8; stroke:none;" d="M151 81L152 86L153 86L151 81z"/>
<path style="fill:#6f6a7d; stroke:none;" d="M134 82L135 83L134 82M163 82L164 83L163 82M158 83L155 84L155 85L158 87L159 87L158 83M86 84L87 85L86 84M139 84L140 85L139 84M137 85L136 87L137 85z"/>
<path style="fill:#9976a8; stroke:none;" d="M138 85L139 86L138 85M137 86L136 91L137 91L137 86z"/>
<path style="fill:#6f6a7d; stroke:none;" d="M139 86L140 87L139 86M152 86L154 88L154 86L152 86M137 88L138 89L137 88z"/>
<path style="fill:#9976a8; stroke:none;" d="M153 88L154 89L153 88z"/>
<path style="fill:#6f6a7d; stroke:none;" d="M163.333 88.6667L163.667 89.3333L163.333 88.6667M153.667 89.3333L154.333 89.6667L153.667 89.3333M155 90L156 91L155 90M142.333 91.6667L142.667 92.3333L142.333 91.6667M156 91L157 92L156 91M158 92L158 93L161 93L158 92M162 92L163 93L162 92M156 93L157 94L156 93M161 93L162 94L161 93M80 94L80 107L81 107L80 94M162 94C160.191 97.4337 159.674 99.591 163 102L162 94z"/>
<path style="fill:#34303d; stroke:none;" d="M161 97L162 98L161 97z"/>
<path style="fill:#6f6a7d; stroke:none;" d="M141 101L142 102L141 101M78 107L79 108L78 107M124 107L125 108L124 107M126 107L126 128L127 128L126 107z"/>
<path style="fill:#501f97; stroke:none;" d="M92 111L93 112L92 111M93 113L103 125L93 113z"/>
<path style="fill:#6f6a7d; stroke:none;" d="M100 123L101 124L100 123M101 124L102 125L101 124M102 125L104 127L104 125L102 125z"/>
<path style="fill:#9976a8; stroke:none;" d="M104 126L105 127L104 126M105 127L108 129L108 128L105 127z"/>
<path style="fill:#6f6a7d; stroke:none;" d="M106 127L107 128L106 127M124 128L125 129L124 128z"/>
<path style="fill:#9976a8; stroke:none;" d="M108 129L108 130L120 134L120 133L108 129z"/>
<path style="fill:#6f6a7d; stroke:none;" d="M109 130L110 131L109 130M112 130L113 131L112 130M117 131L117 132L120 133L117 131z"/>
<path style="fill:#9976a8; stroke:none;" d="M160 131L158 136L160 131z"/>
<path style="fill:#6f6a7d; stroke:none;" d="M107 132L109 134L109 132L107 132z"/>
<path style="fill:#9976a8; stroke:none;" d="M109 132L110 133L109 132z"/>
<path style="fill:#f2f1f5; stroke:none;" d="M110 132L110 133L117 133L110 132z"/>
<path style="fill:#6f6a7d; stroke:none;" d="M105 133L106 134L105 133z"/>
<path style="fill:#9976a8; stroke:none;" d="M106.667 133.333L107.333 133.667L106.667 133.333z"/>
<path style="fill:#6f6a7d; stroke:none;" d="M117 133L118 134L117 133M103 134L104 135L103 134z"/>
<path style="fill:#9976a8; stroke:none;" d="M104 134L105 135L104 134z"/>
<path style="fill:#6f6a7d; stroke:none;" d="M120 134L121 135L120 134z"/>
<path style="fill:#9976a8; stroke:none;" d="M121 134L122 135L121 134z"/>
<path style="fill:#6f6a7d; stroke:none;" d="M122 134L123 135L122 134M101 135L100 137L102 137L101 135z"/>
<path style="fill:#9976a8; stroke:none;" d="M102 135L103 136L102 135z"/>
<path style="fill:#34303d; stroke:none;" d="M155 154L160 153L156 136C148.833 139.858 151.74 148.187 155 154z"/>
<path style="fill:#9976a8; stroke:none;" d="M156 136C157.429 141.036 158.103 146.366 163 149L164 138L156 136z"/>
<path style="fill:#6f6a7d; stroke:none;" d="M99 137L100 138L99 137M156 137L156 140L157 140L156 137M98 138L99 139L98 138M97 139L98 140L97 139M96 140L97 141L96 140M157.333 141.667L157.667 142.333L157.333 141.667M79 142L80 143L79 142M131 142C131 146.543 133.842 152.948 137 149L141 152L131 142z"/>
<path style="fill:#34303d; stroke:none;" d="M79 143L80 144L79 143z"/>
<path style="fill:#6f6a7d; stroke:none;" d="M158 144L158 147L159 147L158 144z"/>
<path style="fill:#9976a8; stroke:none;" d="M163 149L164 150L163 149z"/>
<path style="fill:#34303d; stroke:none;" d="M150 155L150 158L155 159L155 158L150 155z"/>
<path style="fill:#6f6a7d; stroke:none;" d="M145 158L146 159L145 158z"/>
<path style="fill:#34303d; stroke:none;" d="M157 158L157 161L160 160L160 159L157 158M160 162L163 160L160 162M164 163L165 164L164 163M168 165L172 167L172 166L168 165z"/>
<path style="fill:#6f6a7d; stroke:none;" d="M86 167C86 181.415 92.8592 186.902 106 192L106 190L122 194L122 200L123 200L123 183L122 183L122 187C105.586 186.942 96.8778 177.72 86 167M166 168L168 171L166 168z"/>
<path style="fill:#34303d; stroke:none;" d="M171 169L172 170L171 169M173 169L174 170L173 169M178 172L179 175L180 175L181 172L178 172M182 172L182 174L184 172L182 172z"/>
<path style="fill:#6f6a7d; stroke:none;" d="M178 178L179 179L178 178z"/>
<path style="fill:#f2f1f5; stroke:none;" d="M86 189C86 197.385 82.8317 213.996 88.6528 220.721C94.8468 227.877 116.271 224 125 224L124 220L129 220L129 219L123 219L122 202C107.497 201.95 98.6642 193.801 86 189z"/>
<path style="fill:#34303d; stroke:none;" d="M82 202L83 203L82 202z"/>
<path style="fill:#6f6a7d; stroke:none;" d="M127 202L126 205L123 204L123 215L128 215L127 202M83 209L83 217L84 217L83 209M129 209L129 217L130 217L129 209z"/>
<path style="fill:#9976a8; stroke:none;" d="M184 213L184 217L185 217L184 213M86 217L87 218L86 217M77 218L78 219L77 218z"/>
<path style="fill:#6f6a7d; stroke:none;" d="M78 218L78 219L83 219L78 218M123 218L124 219L123 218M83.6667 219.333L84.3333 219.667L83.6667 219.333z"/>
<path style="fill:#9976a8; stroke:none;" d="M87 219L88 220L87 219z"/>
<path style="fill:#6f6a7d; stroke:none;" d="M130 219L129 221L131 221L130 219M183 219L184 220L183 219z"/>
<path style="fill:#9976a8; stroke:none;" d="M78 220L78 222L84 222L84 220L78 220M124 220L124 222L130 222L124 220M183 220L184 221L183 220z"/>
<path style="fill:#6f6a7d; stroke:none;" d="M85 221L86 222L85 221M88 221L89 222L88 221M131 221L134 226L129 226L129 227L139 227L139 226L131 221M79 222L79 223L85 223L79 222M125 222L125 223L130 223L125 222M182 222L183 223L182 222z"/>
<path style="fill:#9976a8; stroke:none;" d="M79 223L80 224L79 223z"/>
<path style="fill:#6f6a7d; stroke:none;" d="M86 223L92 227L92 226L86 223M91 223L92 224L91 223z"/>
<path style="fill:#9976a8; stroke:none;" d="M92 223L93 224L92 223M125 223L126 224L125 223M80 224L81 225L80 224z"/>
<path style="fill:#6f6a7d; stroke:none;" d="M180 224C169.443 230.467 151.087 227 139 227L139 228C149.332 228 159.668 228.072 170 228C173.451 227.976 179.31 228.097 180 224z"/>
<path style="fill:#9976a8; stroke:none;" d="M181 224L182 225L181 224M81 225L82 226L81 225M180 225L181 226L180 225z"/>
<path style="fill:#6f6a7d; stroke:none;" d="M83 226L83 227L88 228L83 226z"/>
<path style="fill:#9976a8; stroke:none;" d="M179 226L180 227L179 226M85 227L86 228L85 227z"/>
<path style="fill:#6f6a7d; stroke:none;" d="M94.6667 227.333L95.3333 227.667L94.6667 227.333M97 227L97 228L125 228L97 227z"/>
<path style="fill:#9976a8; stroke:none;" d="M176.667 227.333L177.333 227.667L176.667 227.333z"/>
</svg>
