<?xml version="1.0" standalone="yes"?>
<svg xmlns="http://www.w3.org/2000/svg" width="250" height="250">
<path style="fill:#f6f2fb; stroke:none;" d="M0 0L0 250L250 250L250 0L0 0z"/>
<path style="fill:#b0a6de; stroke:none;" d="M124 14.4637C107.367 17.376 89.8878 16 73 16C65.2575 16 55.3789 15.1219 49.5332 21.3403C40.705 30.7312 45.0184 53.0865 45 65C44.9405 103.579 45 142.305 45 181C45 193.764 40.301 218.011 50.2137 227.775C59.2795 236.706 78.4058 233 90 233C115.75 233 141.179 235 167 235C177.027 235 188.117 236.318 198 234.535C213.974 231.654 214 219.37 214 206L214 135L214 54C214 44.3646 216.952 29.0524 210.442 21.1049C205.028 14.4957 195.811 14.246 188 14.0501C167.717 13.5415 143.977 10.9659 124 14.4637z"/>
<path style="fill:#b35bb9; stroke:none;" d="M120 16L121 17L120 16z"/>
<path style="fill:#55329a; stroke:none;" d="M121.667 16.3333L122.333 16.6667L121.667 16.3333z"/>
<path style="fill:#19133b; stroke:none;" d="M123 16.4398C109.334 18.6578 109 29.5607 109 41L109 113L109 195C109 204.612 106.094 219.801 112.8 227.671C118.288 234.11 128.418 233 136 233C156.059 233 179.297 236.257 199 232.532C211.944 230.085 212.608 219.022 212.92 208C213.626 183.038 213 157.973 213 133L213 53C213 43.8495 215.295 28.5285 208.606 21.2137C202.89 14.9627 192.654 16 185 16C165.01 16 142.728 13.2379 123 16.4398z"/>
<path style="fill:#55329a; stroke:none;" d="M198 16L198 17L201 17L198 16M117 17L118 18L117 17M203 17L204 18L203 17M115 18L116 19L115 18M205 18L206 19L205 18M114 19L115 20L114 19z"/>
<path style="fill:#b35bb9; stroke:none;" d="M207 19L208 20L207 19z"/>
<path style="fill:#55329a; stroke:none;" d="M120 20L121 21L120 20z"/>
<path style="fill:#b35bb9; stroke:none;" d="M121 20L122 21L121 20z"/>
<path style="fill:#b0a6de; stroke:none;" d="M113 34L136 28L134 20C122.951 20 113.121 20.6194 113 34z"/>
<path style="fill:#55329a; stroke:none;" d="M134 20L135 21L134 20z"/>
<path style="fill:#b0a6de; stroke:none;" d="M187 20L184 28L208 33C207.688 20.0965 197.346 20 187 20z"/>
<path style="fill:#b35bb9; stroke:none;" d="M199 20L200 21L199 20z"/>
<path style="fill:#55329a; stroke:none;" d="M200 20L201 21L200 20z"/>
<path style="fill:#b35bb9; stroke:none;" d="M208 20L209 21L208 20z"/>
<path style="fill:#55329a; stroke:none;" d="M112 21L113 22L112 21z"/>
<path style="fill:#b35bb9; stroke:none;" d="M118 21L119 22L118 21M134 21L134 24L135 24L134 21z"/>
<path style="fill:#55329a; stroke:none;" d="M203 21L204 22L203 21z"/>
<path style="fill:#b35bb9; stroke:none;" d="M209 21L210 22L209 21z"/>
<path style="fill:#55329a; stroke:none;" d="M111 22L112 23L111 22M116 22L117 23L116 22M186.333 22.6667L186.667 23.3333L186.333 22.6667z"/>
<path style="fill:#b35bb9; stroke:none;" d="M204 22L205 23L204 22M110 23L111 24L110 23z"/>
<path style="fill:#55329a; stroke:none;" d="M115 23L116 24L115 23z"/>
<path style="fill:#b35bb9; stroke:none;" d="M205 23L206 24L205 23z"/>
<path style="fill:#55329a; stroke:none;" d="M210 23L211 24L210 23z"/>
<path style="fill:#f6f2fb; stroke:none;" d="M61.6667 24.3333L62.3333 24.6667L61.6667 24.3333M68 24L68 25C73.7048 26.0591 82.13 25.1836 86.6057 29.4329C92.5874 35.112 92.3235 57.2862 85.8665 62.4861C80.6032 66.7247 69.4757 65.9957 63 66L63 67C70.502 67 82.4653 69.2689 88.6566 64.1458C96.1129 57.9761 93 41.5885 93 33L92 33L92 35C89.8326 21.8401 78.8533 24 68 24z"/>
<path style="fill:#55329a; stroke:none;" d="M110 24L111 25L110 24M114 24L115 25L114 24z"/>
<path style="fill:#b35bb9; stroke:none;" d="M186 24L187 25L186 24M206 24L207 25L206 24z"/>
<path style="fill:#f6f2fb; stroke:none;" d="M54 31L55 31L60 26L54 31M90 25L92 27L90 25z"/>
<path style="fill:#b35bb9; stroke:none;" d="M135 25L136 26L135 25z"/>
<path style="fill:#55329a; stroke:none;" d="M185 25L186 26L185 25M211 25L212 26L211 25M109 26L110 27L109 26M113 26L114 27L113 26M136 26L137 27L136 26M184 26L185 27L184 26z"/>
<path style="fill:#b35bb9; stroke:none;" d="M207 26L208 27L207 26M61 27L62 28L61 27z"/>
<path style="fill:#55329a; stroke:none;" d="M60 28L60 29L68 29L60 28z"/>
<path style="fill:#b35bb9; stroke:none;" d="M65 27L66 28L65 27M113 43C136.014 33.4187 156.941 26.937 182 32.8843C191.59 35.1603 199.765 40.0827 209 43L209 30L208 30L208 33C185.932 26.7376 157.937 24.7061 135 27.7546C124.246 29.1839 113.01 30.7083 113 43z"/>
<path style="fill:#55329a; stroke:none;" d="M138 27L139 28L138 27M182 27L183 28L182 27z"/>
<path style="fill:#b35bb9; stroke:none;" d="M59 28L60 29L59 28z"/>
<path style="fill:#b0a6de; stroke:none;" d="M89 28L90 29L89 28z"/>
<path style="fill:#55329a; stroke:none;" d="M208.333 28.6667L208.667 29.3333L208.333 28.6667z"/>
<path style="fill:#b35bb9; stroke:none;" d="M212 28L213 29L212 28z"/>
<path style="fill:#55329a; stroke:none;" d="M58 29L59 30L58 29z"/>
<path style="fill:#19133b; stroke:none;" d="M59.3179 30.0278C52.6622 34.4712 60.9687 45.6069 67.7716 40.3958C75.3491 34.5914 66.4893 25.2401 59.3179 30.0278z"/>
<path style="fill:#f6f2fb; stroke:none;" d="M93 29L94 30L93 29z"/>
<path style="fill:#55329a; stroke:none;" d="M112 29L112 44L113 44L112 29M212 29L212 33L213 33L212 29z"/>
<path style="fill:#b35bb9; stroke:none;" d="M57 30L58 31L57 30z"/>
<path style="fill:#55329a; stroke:none;" d="M69 30L70 31L69 30z"/>
<path style="fill:#b0a6de; stroke:none;" d="M90 30L91 31L90 30z"/>
<path style="fill:#b35bb9; stroke:none;" d="M108 30L108 33L109 33L108 30z"/>
<path style="fill:#b0a6de; stroke:none;" d="M113 51C133.237 41.8466 156.658 35.4613 179 40.2106C189.67 42.4788 198.717 48.0378 209 51C208.963 40.5025 200.025 37.9001 191 35.0285C172.284 29.0739 151.829 28.4487 133 34.3472C123.417 37.3494 112.644 39.5594 113 51z"/>
<path style="fill:#b35bb9; stroke:none;" d="M70 31L71 32L70 31z"/>
<path style="fill:#f6f2fb; stroke:none;" d="M53 32L53 35L54 35L53 32z"/>
<path style="fill:#b35bb9; stroke:none;" d="M56 32L57 33L56 32z"/>
<path style="fill:#f6f2fb; stroke:none;" d="M80 32L79 35L80 35L80 32M94 32L94 59L95 59L94 32z"/>
<path style="fill:#55329a; stroke:none;" d="M56 33L56 37L57 37L56 33M62 34L62 35L66 36L65 33L62 34M108 33L108 37L109 37L108 33z"/>
<path style="fill:#b35bb9; stroke:none;" d="M71.3333 34.6667L71.6667 35.3333L71.3333 34.6667z"/>
<path style="fill:#55329a; stroke:none;" d="M70 37L71 38L70 37z"/>
<path style="fill:#b35bb9; stroke:none;" d="M108.333 37.6667L108.667 38.3333L108.333 37.6667z"/>
<path style="fill:#55329a; stroke:none;" d="M212.333 37.6667L212.667 38.3333L212.333 37.6667M57 38L58 39L57 38z"/>
<path style="fill:#b35bb9; stroke:none;" d="M70 38L71 39L70 38z"/>
<path style="fill:#55329a; stroke:none;" d="M69 39L70 40L69 39M108 39L108 210L109 210L109 90C109 75.7001 113.506 52.1208 108 39z"/>
<path style="fill:#b35bb9; stroke:none;" d="M113 51L113 45L112 45L113 60C132.648 54.3398 149.539 44.2339 171 47.3002C184.895 49.2855 195.884 57.9989 209 61C208.999 47.5102 197.695 45.0328 186 41.7099C163.574 35.3376 132.908 38.438 113 51M58 40L59 41L58 40z"/>
<path style="fill:#55329a; stroke:none;" d="M68 40L69 41L68 40M60 41L61 42L60 41z"/>
<path style="fill:#b35bb9; stroke:none;" d="M67 41L68 42L67 41M62 42L62 43L65 43L62 42z"/>
<path style="fill:#f6f2fb; stroke:none;" d="M78 42C77.0477 45.5945 77.3326 47.3819 80 50L78 43C82.4716 52.6092 88.9571 42.9273 78 42z"/>
<path style="fill:#55329a; stroke:none;" d="M113 60L113 52L112 52L112 66C144.988 53.2745 181.995 63.7559 198.63 97C204.648 109.028 201.608 122.795 207 134L204 138L205 138C210.779 131.68 209 123.143 209 115L209 61C196.699 56.5222 186.226 49.8008 173 47.4637C151.851 43.7267 131.973 52.1007 113 60z"/>
<path style="fill:#b35bb9; stroke:none;" d="M61 48L62 49L61 48z"/>
<path style="fill:#55329a; stroke:none;" d="M62 48L62 49L65 49L62 48z"/>
<path style="fill:#b35bb9; stroke:none;" d="M65 48L66 49L65 48z"/>
<path style="fill:#f6f2fb; stroke:none;" d="M106 48L107 49L106 48z"/>
<path style="fill:#b35bb9; stroke:none;" d="M59 49L60 50L59 49z"/>
<path style="fill:#19133b; stroke:none;" d="M60.1481 50.0285C53.0667 54.1794 59.3354 66.0197 66.9414 61.9684C75.194 57.5725 68.0453 45.3995 60.1481 50.0285z"/>
<path style="fill:#55329a; stroke:none;" d="M67 49L68 50L67 49M58 50L59 51L58 50z"/>
<path style="fill:#b35bb9; stroke:none;" d="M57 51L58 52L57 51z"/>
<path style="fill:#55329a; stroke:none;" d="M69 51L70 52L69 51z"/>
<path style="fill:#b35bb9; stroke:none;" d="M70 52L71 53L70 52M56 53L57 54L56 53z"/>
<path style="fill:#55329a; stroke:none;" d="M56 54L56 58L57 58L56 54M62 55L63 56L62 55z"/>
<path style="fill:#b35bb9; stroke:none;" d="M71.3333 55.6667L71.6667 56.3333L71.3333 55.6667z"/>
<path style="fill:#f6f2fb; stroke:none;" d="M53.3333 57.6667L53.6667 58.3333L53.3333 57.6667z"/>
<path style="fill:#b35bb9; stroke:none;" d="M56 58L57 59L56 58z"/>
<path style="fill:#55329a; stroke:none;" d="M57 59L58 60L57 59z"/>
<path style="fill:#b35bb9; stroke:none;" d="M70 59L71 60L70 59z"/>
<path style="fill:#55329a; stroke:none;" d="M69 60L70 61L69 60z"/>
<path style="fill:#f6f2fb; stroke:none;" d="M93 60L92 63L93 60z"/>
<path style="fill:#b35bb9; stroke:none;" d="M130 60L130 61L133 61L130 60z"/>
<path style="fill:#b0a6de; stroke:none;" d="M114 65L114 66L159 67C162.885 71.6422 172.681 74.1061 178 77.7454C191.329 86.8655 201.669 102.702 203 119C206.485 110.616 199.183 97.0402 194.771 90C176.374 60.6474 144.537 56.8366 114 65z"/>
<path style="fill:#b35bb9; stroke:none;" d="M147.667 60.3333L148.333 60.6667L147.667 60.3333M58 61L59 62L58 61z"/>
<path style="fill:#55329a; stroke:none;" d="M68 61L69 62L68 61z"/>
<path style="fill:#b35bb9; stroke:none;" d="M124 61L124 62L127 62L124 61M153.667 61.3333L154.333 61.6667L153.667 61.3333z"/>
<path style="fill:#f6f2fb; stroke:none;" d="M55 62L57 64L55 62z"/>
<path style="fill:#55329a; stroke:none;" d="M60 62L61 63L60 62z"/>
<path style="fill:#b35bb9; stroke:none;" d="M67 62L68 63L67 62M121.667 62.3333L122.333 62.6667L121.667 62.3333M157 62L158 63L157 62M62 63L62 64L65 64L62 63z"/>
<path style="fill:#f6f2fb; stroke:none;" d="M80 63L81 64L80 63z"/>
<path style="fill:#b35bb9; stroke:none;" d="M118 63L119 64L118 63M160 63L161 64L160 63z"/>
<path style="fill:#f6f2fb; stroke:none;" d="M91 64L92 65L91 64z"/>
<path style="fill:#b35bb9; stroke:none;" d="M115.667 64.3333L116.333 64.6667L115.667 64.3333M113 65L113 80C130.006 74.6092 141.98 81.9232 157 88.74C163.455 91.6694 170.64 91.3314 177 94.8002C195.659 104.976 196.839 122.899 192 141L191 141C193.397 122.034 180.292 100.973 161 95.6343C154.86 93.9349 148.236 95.6966 142 95C142 97.7334 137.183 98.6157 135 101C130.858 105.524 127.484 111.87 127 118L128 118C130.077 113.279 134.185 106.557 140.17 106.728C146.39 106.907 152.031 113.63 155.674 118C165.257 129.494 181.412 149.737 162 159L162 160C172.391 159.784 180.03 155.32 188 149C182.985 185.463 138.099 183.372 113 174C112.873 176.965 111.265 181.74 113.042 184.351C115.489 187.944 123.064 188.798 127 189.54C141.561 192.286 156.708 190.371 170 183.627C198.271 169.28 203.779 143.433 205 115L204 115L204 119L203 119C202.277 102.421 191.59 86.1105 178 77.0756C172.104 73.1558 164.343 71.2264 159 67L137 64.0394L113 65M163 64L164 65L163 64z"/>
<path style="fill:#f6f2fb; stroke:none;" d="M59 65L60 66L59 65z"/>
<path style="fill:#b35bb9; stroke:none;" d="M168 66L169 67L168 66M173 69L174 70L173 69M175 70L176 71L175 70z"/>
<path style="fill:#55329a; stroke:none;" d="M112 71L113 109L134 101.896L159 90L159 89C144.21 82.87 129.668 72.9666 113 80L112 71z"/>
<path style="fill:#b35bb9; stroke:none;" d="M179 73L180 74L179 73M191 85L192 86L191 85M194 89L195 90L194 89M154 90L154 91L158 91L154 90z"/>
<path style="fill:#b0a6de; stroke:none;" d="M143 95L143 96C169.665 92.6301 193.148 113.779 191 141C201.979 127.261 193.252 104.593 180 95.966C168.848 88.7063 154.532 88.9232 143 95z"/>
<path style="fill:#b35bb9; stroke:none;" d="M150.667 91.3333L151.333 91.6667L150.667 91.3333M195 91L196 92L195 91M148 92L149 93L148 92M145 93L146 94L145 93M197 94L198 95L197 94z"/>
<path style="fill:#b0a6de; stroke:none;" d="M141.667 96.3333L142.333 96.6667L141.667 96.3333z"/>
<path style="fill:#b35bb9; stroke:none;" d="M198 96L199 97L198 96z"/>
<path style="fill:#b0a6de; stroke:none;" d="M140 97L141 98L140 97z"/>
<path style="fill:#b35bb9; stroke:none;" d="M199.333 98.6667L199.667 99.3333L199.333 98.6667M200 101L201 102L200 101M201.333 103.667L201.667 104.333L201.333 103.667z"/>
<path style="fill:#55329a; stroke:none;" d="M132 104L133 105L132 104M131 105L132 106L131 105M128 118L127 116L126 116L127 121C116.502 130.176 136.946 150.731 142 157C131.739 154.529 119.154 152.63 114 142L113 142L112 180L113 180L113 174C136.805 186.013 185.121 183.961 188 149C179.197 154.015 172.586 159.538 162 160C166.594 157.167 171.509 154.219 172.556 148.424C173.367 143.931 169.948 139.723 167.921 136C162.451 125.954 154.741 110.635 143.015 106.88C135.444 104.455 129.915 111.554 128 118z"/>
<path style="fill:#b35bb9; stroke:none;" d="M202.333 106.667L202.667 107.333L202.333 106.667z"/>
<path style="fill:#f6f2fb; stroke:none;" d="M101 113L101 114L94 113L103 134C108.95 130.133 108.876 113.907 101 113L104 107C100.511 107.447 95.1741 111.745 101 113z"/>
<path style="fill:#55329a; stroke:none;" d="M130 107L131 108L130 107z"/>
<path style="fill:#19133b; stroke:none;" d="M203 107L204 108L203 107z"/>
<path style="fill:#55329a; stroke:none;" d="M129.333 108.667L129.667 109.333L129.333 108.667M128.333 110.667L128.667 111.333L128.333 110.667z"/>
<path style="fill:#b35bb9; stroke:none;" d="M203.333 110.667L203.667 111.333L203.333 110.667z"/>
<path style="fill:#19133b; stroke:none;" d="M204 112L205 113L204 112z"/>
<path style="fill:#55329a; stroke:none;" d="M127.333 113.667L127.667 114.333L127.333 113.667z"/>
<path style="fill:#b35bb9; stroke:none;" d="M90 114L91 115L90 114z"/>
<path style="fill:#55329a; stroke:none;" d="M87 126L88 126C92.5424 122.993 96.6151 125.689 99 130L100 130L94 114C87.3372 115.378 87.0173 119.984 87 126z"/>
<path style="fill:#b0a6de; stroke:none;" d="M94 115L95 116L94 115z"/>
<path style="fill:#b35bb9; stroke:none;" d="M94 116L95 117L94 116z"/>
<path style="fill:#b0a6de; stroke:none;" d="M95 117L96 118L95 117z"/>
<path style="fill:#19133b; stroke:none;" d="M205.333 117.667L205.667 118.333L205.333 117.667z"/>
<path style="fill:#b35bb9; stroke:none;" d="M95 118L96 119L95 118z"/>
<path style="fill:#b0a6de; stroke:none;" d="M96.3333 119.667L96.6667 120.333L96.3333 119.667z"/>
<path style="fill:#b35bb9; stroke:none;" d="M126 120L127 121L126 120z"/>
<path style="fill:#b0a6de; stroke:none;" d="M204 120L204 130L205 130L204 120M97 122L98 123L97 122z"/>
<path style="fill:#19133b; stroke:none;" d="M206 122L207 123L206 122z"/>
<path style="fill:#b35bb9; stroke:none;" d="M97 123L98 124L97 123z"/>
<path style="fill:#19133b; stroke:none;" d="M88 124C88.9487 132.734 93.3173 133.6 101 133C98.1427 126.204 95.2113 124.304 88 124z"/>
<path style="fill:#b0a6de; stroke:none;" d="M98 124L99 125L98 124z"/>
<path style="fill:#b35bb9; stroke:none;" d="M98 125L99 126L98 125M87 126L88 127L87 126z"/>
<path style="fill:#b0a6de; stroke:none;" d="M99.3333 126.667L99.6667 127.333L99.3333 126.667z"/>
<path style="fill:#55329a; stroke:none;" d="M88 128L89 129L88 128z"/>
<path style="fill:#b0a6de; stroke:none;" d="M100.333 128.667L100.667 129.333L100.333 128.667z"/>
<path style="fill:#19133b; stroke:none;" d="M206.333 128.667L206.667 129.333L206.333 128.667z"/>
<path style="fill:#55329a; stroke:none;" d="M89 130L90 131L89 130z"/>
<path style="fill:#b35bb9; stroke:none;" d="M100 130L101 131L100 130z"/>
<path style="fill:#55329a; stroke:none;" d="M90 131L91 132L90 131M100 131L101 132L100 131z"/>
<path style="fill:#b0a6de; stroke:none;" d="M101.333 131.667L101.667 132.333L101.333 131.667z"/>
<path style="fill:#19133b; stroke:none;" d="M205 131L205 135L206 135L205 131z"/>
<path style="fill:#b35bb9; stroke:none;" d="M96 133L97 134L96 133z"/>
<path style="fill:#55329a; stroke:none;" d="M100.667 133.333L101.333 133.667L100.667 133.333M208.333 136.667L208.667 137.333L208.333 136.667z"/>
<path style="fill:#b0a6de; stroke:none;" d="M203 137L204 138L203 137z"/>
<path style="fill:#55329a; stroke:none;" d="M203.333 140.667L203.667 141.333L203.333 140.667z"/>
<path style="fill:#b0a6de; stroke:none;" d="M190 141L185 150L186 150L190 141z"/>
<path style="fill:#55329a; stroke:none;" d="M207 143L208 147L209 147L207 143M202.333 144.667L202.667 145.333L202.333 144.667M201 147L202 148L201 147M208.333 148.667L208.667 149.333L208.333 148.667M200 150L201 151L200 150M199 152L200 153L199 152M198 154L199 155L198 154M197 156L198 157L197 156M196 158L197 159L196 158M194 161L195 162L194 161M192 164L193 165L192 164M191 165L192 166L191 165M187 170L188 171L187 170M186 171L187 172L186 171M185 172L186 173L185 172M184 173L185 174L184 173M180 176L181 177L180 176M179 177L180 178L179 177M176 179L177 180L176 179M175 180L176 181L175 180M173 181L174 182L173 181M113 185L113 208L114 208L113 204L126 214L129 213L128 215L131 214C134.379 218.458 142.761 218.593 148 219.41C162.921 221.735 179.906 219.936 194 214.539C198.154 212.949 204.516 211.18 207.397 207.61C210.911 203.253 209 193.318 209 188C194.532 195.207 184.394 206.324 167 206.541C159.545 206.634 152.273 203.184 145 203L134 190L113 185M165 185L166 186L165 185M163 186L164 187L163 186M160 187L161 188L160 187M157 188L158 189L157 188M153 189L154 190L153 189z"/>
<path style="fill:#19133b; stroke:none;" d="M128 190L129 191L128 190z"/>
<path style="fill:#55329a; stroke:none;" d="M145 190L145 191L149 191L145 190z"/>
<path style="fill:#b35bb9; stroke:none;" d="M113 204C114.805 209.773 121.551 211.706 127 213L127 212L113 204z"/>
<path style="fill:#55329a; stroke:none;" d="M115 208L116 209L115 208M117 209L118 210L117 209z"/>
<path style="fill:#b35bb9; stroke:none;" d="M108.333 210.667L108.667 211.333L108.333 210.667z"/>
<path style="fill:#55329a; stroke:none;" d="M119 210L120 211L119 210M212.333 210.667L212.667 211.333L212.333 210.667M121 211L122 212L121 211M108 212L108 216L109 216L108 212M123.667 212.333L124.333 212.667L123.667 212.333z"/>
<path style="fill:#b35bb9; stroke:none;" d="M127.667 213.333L128.333 213.667L127.667 213.333M130 214L131 215L130 214M108 216L108 219L109 219L108 216z"/>
<path style="fill:#55329a; stroke:none;" d="M207 216C198.118 221.165 186.396 227.466 176 228L176 229C184.072 229 213.555 232.115 207 216M212 216L212 220L213 220L212 216z"/>
<path style="fill:#b35bb9; stroke:none;" d="M212 220L213 221L212 220M47 221L48 222L47 221z"/>
<path style="fill:#55329a; stroke:none;" d="M109.333 221.667L109.667 222.333L109.333 221.667z"/>
<path style="fill:#b35bb9; stroke:none;" d="M48 223L49 224L48 223z"/>
<path style="fill:#55329a; stroke:none;" d="M211 223L212 224L211 223M110 224L111 225L110 224z"/>
<path style="fill:#b35bb9; stroke:none;" d="M49 225L52 228L49 225M110 225L111 226L110 225z"/>
<path style="fill:#55329a; stroke:none;" d="M210 225L211 226L210 225M111 226L112 227L111 226M112 227L113 228L112 227z"/>
<path style="fill:#b35bb9; stroke:none;" d="M209 227L210 228L209 227z"/>
<path style="fill:#55329a; stroke:none;" d="M208 228L209 229L208 228M114 229L115 230L114 229z"/>
<path style="fill:#b35bb9; stroke:none;" d="M207 229L208 230L207 229z"/>
<path style="fill:#55329a; stroke:none;" d="M115 230L116 231L115 230M205 230L206 231L205 230z"/>
<path style="fill:#b35bb9; stroke:none;" d="M206 230L207 231L206 230z"/>
<path style="fill:#55329a; stroke:none;" d="M117 231L118 232L117 231M203 231L204 232L203 231z"/>
<path style="fill:#b35bb9; stroke:none;" d="M204 231L205 232L204 231M120 232L121 233L120 232z"/>
<path style="fill:#55329a; stroke:none;" d="M121.667 232.333L122.333 232.667L121.667 232.333M199.667 232.333L200.333 232.667L199.667 232.333z"/>
<path style="fill:#b35bb9; stroke:none;" d="M201 232L202 233L201 232z"/>
</svg>
