<?xml version="1.0" standalone="yes"?>
<svg xmlns="http://www.w3.org/2000/svg" width="250" height="250">
<path style="fill:#f0f1f2; stroke:none;" d="M0 0L0 250L250 250L250 184C237.864 185.792 225.63 191.457 214 195.333C181.873 206.042 147.437 219.469 113 217.961C87.4735 216.843 60.5 211.921 36 204.706C31.2326 203.302 18.6252 200.44 18.1173 194.17C17.5684 187.394 36.3109 184.409 41 184L41 182C33.3986 181.379 15.4659 179.896 10.963 172.876C9.09409 169.962 11.5901 167.045 11.5748 163.996C11.5523 159.504 8.86478 155.676 9 151C22.4235 158.149 39.1765 158.635 54 158L54 159L51 159L51 160L55 158L75 159L86 153L86 152C68.9173 157.415 47.4036 153.237 30 150.729C23.9444 149.857 15.6571 145.645 10 147L11 123L42 125.015L97 128L111 124L111 123L83.8449 125.026L69 120L69 119L76 118L76 117L64.4282 119.248L53 118L53 115L70 116L73 114L85 107L85 110C82.034 111.218 78.3971 113.363 82 116L82 115L80 114L83 111C86.8207 111 90.7557 109.977 90 113L92 116L94 121L95 121L95 116L102 113L101 110L103 112L104 112C115.523 105.018 129.637 99.7917 143 97.8704C151.163 96.6967 160.982 96.492 155 107L159 103L160 103L164 106L163 113L170 116L193 115L193 116L186 115L186 116L188 116L188 117L183 117L183 118L192 119L195 116L193 120L196 119L196 122L200 121L200 126L201 127C208.078 127.965 208.755 142.288 209 148L210 148L210.039 124L209.092 115.319L196 115L196 114C202.785 112.923 208.204 108.218 215 106.68C229.932 103.3 250 110.478 250 90L224 94L226 99C218.164 99 218.48 95.2881 213 92C209.788 90.0726 204.859 94.5653 206 90L204 91L204 90L213 70L214 70L207 86L208 86C212.256 75.7766 217.915 61.3385 230 59L230 58L222 60L222 59L241 57L241 58L235 58L235 59L245 58L245 59L242 59L242 60L249 59L249 60L247 60L247 61C252.061 59.9154 250 50.2879 250 46L250 0L0 0z"/>
<path style="fill:#96999c; stroke:none;" d="M175 56L175 57L204 57L175 56M163 57L163 58L170 58L163 57z"/>
<path style="fill:#6f7377; stroke:none;" d="M170 57L170 58L173 58L173 59L167 62L167 63L178 58L170 57z"/>
<path style="fill:#505459; stroke:none;" d="M167 63L167 62L173 59L173 58C167.984 58.1565 156.578 58.6041 155 64L143 65L141 67L141 68L153 67C150.428 71.8881 147.954 79.8974 143.61 83.3966C137.801 88.075 118.472 86 111 86L111 87L163.91 86.6836L192.996 85.5664L204 77L204 76L201 75L201 74L206 74C205.475 70.8491 206.601 68.4002 209 69L214 62L215 58L179.001 57.3796L167 63z"/>
<path style="fill:#6f7377; stroke:none;" d="M207 57L207 58L210 58L207 57z"/>
<path style="fill:#96999c; stroke:none;" d="M210 57L210 58L215 58L210 57z"/>
<path style="fill:#6f7377; stroke:none;" d="M215 57L216 58L215 57z"/>
<path style="fill:#96999c; stroke:none;" d="M216 57L215 60L216 57M225 59L241 58C237.011 56.326 228.01 55.5559 225 59M124 66C124 69.0309 121.723 69.0717 119 69L112 74L106 82C108.628 80.6862 114.149 75.4034 113 80C127.957 72.1617 142.129 61.9032 159 59L150 59L130 63L124 66z"/>
<path style="fill:#6f7377; stroke:none;" d="M113 80C112.349 76.3309 107.681 80.599 106 82L106 79L105 79L100 87L114 88L114 87L111 87L111 86L139 70L136 77L133 80L117 85L117 86L143.61 83.9722L153 67L141 68L141 67L143 65L155 64C157.681 59.6172 163.236 59.6053 168 59C162.358 56.6333 156.487 59.1847 151 60.9105C137.935 65.0193 124.307 72.0128 113 80M183 58L183 59L186 59L183 58M194 58L194 59L209 60L194 58z"/>
<path style="fill:#121212; stroke:none;" d="M215 58L216 59L215 58z"/>
<path style="fill:#96999c; stroke:none;" d="M223.333 58.6667L223.667 59.3333L223.333 58.6667z"/>
<path style="fill:#6f7377; stroke:none;" d="M224 58L225 59L224 58z"/>
<path style="fill:#96999c; stroke:none;" d="M240 59L240 60L245 59L240 59z"/>
<path style="fill:#121212; stroke:none;" d="M214 59L213 61L214 59z"/>
<path style="fill:#6f7377; stroke:none;" d="M222 59L223 60L222 59z"/>
<path style="fill:#96999c; stroke:none;" d="M226 59L227 60L226 59z"/>
<path style="fill:#6f7377; stroke:none;" d="M218 68L225 71L225 72C215.367 72.034 216.649 75.8145 217 84L218 84C220.339 79.6 223.022 77.5548 228 77L229 71C234.336 71.6142 247.776 85.2126 240 89L240 90C242.993 89.9358 244.346 90.0539 245 87L246 87L250 90L247 71L250 72C249.999 65.8551 250.338 62.2889 244 60L245 66C240.158 54.4547 222.867 57.6781 218 68z"/>
<path style="fill:#96999c; stroke:none;" d="M245 60L245 61L249 60L245 60z"/>
<path style="fill:#6f7377; stroke:none;" d="M214 60L215 61L214 60z"/>
<path style="fill:#96999c; stroke:none;" d="M220 60L218 63L220 60z"/>
<path style="fill:#6f7377; stroke:none;" d="M221 60L222 61L221 60z"/>
<path style="fill:#96999c; stroke:none;" d="M224 60L225 61L224 60z"/>
<path style="fill:#505459; stroke:none;" d="M225 60L226 61L225 60M239 60L240 65L241 65L239 60z"/>
<path style="fill:#96999c; stroke:none;" d="M243 60L244 66L245 66L243 60z"/>
<path style="fill:#121212; stroke:none;" d="M212 61L208 68L212 61z"/>
<path style="fill:#6f7377; stroke:none;" d="M220 61L221 62L220 61z"/>
<path style="fill:#96999c; stroke:none;" d="M241 61L241 64L242 64L241 61M248.667 61.3333L249.333 61.6667L248.667 61.3333z"/>
<path style="fill:#505459; stroke:none;" d="M151.667 62.3333L152.333 62.6667L151.667 62.3333z"/>
<path style="fill:#6f7377; stroke:none;" d="M219 62L220 63L219 62z"/>
<path style="fill:#96999c; stroke:none;" d="M221 62L222 63L221 62z"/>
<path style="fill:#6f7377; stroke:none;" d="M139 63L140 64L139 63M156 63L157 64L156 63M159 66L163 63L159 66M173 63L173 64L177 64L173 63z"/>
<path style="fill:#96999c; stroke:none;" d="M212 63L213 64L212 63z"/>
<path style="fill:#6f7377; stroke:none;" d="M218 63L219 64L218 63z"/>
<path style="fill:#96999c; stroke:none;" d="M237 63L239 70L240 70L237 63M247 63L248 64L247 63z"/>
<path style="fill:#6f7377; stroke:none;" d="M127 71L138 65L127 71M211 64L212 65L211 64M217 64L218 65L217 64z"/>
<path style="fill:#96999c; stroke:none;" d="M219 64L220 65L219 64M232 64L233 66L234 66L235 64L232 64M242 64L242 67L243 67L242 64M215 67L218 65L215 67z"/>
<path style="fill:#6f7377; stroke:none;" d="M125 66L126 67L125 66M156 66L157 69L158 69L158 66L156 66z"/>
<path style="fill:#96999c; stroke:none;" d="M210 66L211 67L210 66M235 66L236 67L235 66z"/>
<path style="fill:#505459; stroke:none;" d="M241.333 66.6667L241.667 67.3333L241.333 66.6667z"/>
<path style="fill:#96999c; stroke:none;" d="M245 66L246 71L247 71L245 66z"/>
<path style="fill:#6f7377; stroke:none;" d="M123.667 67.3333L124.333 67.6667L123.667 67.3333z"/>
<path style="fill:#96999c; stroke:none;" d="M150 67L152 69L152 67L150 67z"/>
<path style="fill:#6f7377; stroke:none;" d="M209 67L210 68L209 67M215 67L216 68L215 67z"/>
<path style="fill:#96999c; stroke:none;" d="M217 67L218 68L217 67z"/>
<path style="fill:#6f7377; stroke:none;" d="M121.333 68.6667L121.667 69.3333L121.333 68.6667z"/>
<path style="fill:#505459; stroke:none;" d="M122 68L123 69L122 68z"/>
<path style="fill:#121212; stroke:none;" d="M207 68L205 73L206 73L207 68z"/>
<path style="fill:#96999c; stroke:none;" d="M214.667 68.3333L215.333 68.6667L214.667 68.3333z"/>
<path style="fill:#505459; stroke:none;" d="M217 68L215 92L216 92C216.006 83.0947 213.827 72.132 225 72L217 68z"/>
<path style="fill:#96999c; stroke:none;" d="M243 68L244 72L245 72L243 68z"/>
<path style="fill:#505459; stroke:none;" d="M120 69L121 70L120 69z"/>
<path style="fill:#96999c; stroke:none;" d="M141 69L142 70L141 69z"/>
<path style="fill:#6f7377; stroke:none;" d="M159 85L168 85L171 74L168 75L176 72L176 73L172 73L172 74L179 74L179 73L179 71C166.637 67.5259 161.161 72.4418 159 85z"/>
<path style="fill:#96999c; stroke:none;" d="M208 69L209 70L208 69z"/>
<path style="fill:#6f7377; stroke:none;" d="M214 69L215 70L214 69z"/>
<path style="fill:#96999c; stroke:none;" d="M216 69L217 70L216 69z"/>
<path style="fill:#6f7377; stroke:none;" d="M118.333 70.6667L118.667 71.3333L118.333 70.6667z"/>
<path style="fill:#505459; stroke:none;" d="M119 70L120 71L119 70z"/>
<path style="fill:#96999c; stroke:none;" d="M113 85L113 86L133 80L136 77L139 70L113 85z"/>
<path style="fill:#6f7377; stroke:none;" d="M207 70L208 71L207 70z"/>
<path style="fill:#96999c; stroke:none;" d="M213 70L212 72L214 72L213 70M215 70L216 71L215 70z"/>
<path style="fill:#505459; stroke:none;" d="M242 70L242 73L243 73L242 70M117 71L118 72L117 71z"/>
<path style="fill:#6f7377; stroke:none;" d="M215 71L216 72L215 71z"/>
<path style="fill:#505459; stroke:none;" d="M226.667 71.3333L227.333 71.6667L226.667 71.3333M229 71L229 72L234 72L229 71z"/>
<path style="fill:#96999c; stroke:none;" d="M240 71L240 74L241 74L240 71M247 71L250 76L247 71z"/>
<path style="fill:#6f7377; stroke:none;" d="M115 72L116 73L115 72z"/>
<path style="fill:#505459; stroke:none;" d="M116 72L117 73L116 72z"/>
<path style="fill:#96999c; stroke:none;" d="M168 75L176 73C172.629 71.6396 170.476 72.4713 168 75M177.667 72.3333L178.333 72.6667L177.667 72.3333M206 72L207 73L206 72z"/>
<path style="fill:#6f7377; stroke:none;" d="M212 72L213 73L212 72M214 72L215 73L214 72z"/>
<path style="fill:#96999c; stroke:none;" d="M228 77L237 79C235.468 73.4027 230.235 69.0924 228 77z"/>
<path style="fill:#505459; stroke:none;" d="M113 75L116 74L113 75z"/>
<path style="fill:#6f7377; stroke:none;" d="M182 73L183 74L182 73z"/>
<path style="fill:#121212; stroke:none;" d="M194 73L192 76L194 73M197 75L200 74L197 75M204 73L201 74L201 75C203.199 75.2299 204.819 75.366 204 73z"/>
<path style="fill:#96999c; stroke:none;" d="M207 73L208 74L207 73M211.667 73.3333L212.333 73.6667L211.667 73.3333z"/>
<path style="fill:#505459; stroke:none;" d="M243 73L243 77L244 77L243 73z"/>
<path style="fill:#6f7377; stroke:none;" d="M114 74L115 75L114 74z"/>
<path style="fill:#96999c; stroke:none;" d="M163 74L164 75L163 74z"/>
<path style="fill:#6f7377; stroke:none;" d="M211 74L212 75L211 74M213.333 74.6667L213.667 75.3333L213.333 74.6667z"/>
<path style="fill:#505459; stroke:none;" d="M111.667 75.3333L112.333 75.6667L111.667 75.3333z"/>
<path style="fill:#96999c; stroke:none;" d="M147 75L148 76L147 75z"/>
<path style="fill:#6f7377; stroke:none;" d="M204 75L205 76L204 75z"/>
<path style="fill:#96999c; stroke:none;" d="M206 75L207 76L206 75M208 75L209 76L208 75M210.667 75.3333L211.333 75.6667L210.667 75.3333z"/>
<path style="fill:#6f7377; stroke:none;" d="M231 75L231 77L233 77L231 75M108 77L108 78L112 77L108 77z"/>
<path style="fill:#121212; stroke:none;" d="M110 76L111 77L110 76z"/>
<path style="fill:#6f7377; stroke:none;" d="M131 76L131 78L133 76L131 76M181 76L180 83C183.302 81.1455 184.555 79.8127 184 76L181 76z"/>
<path style="fill:#121212; stroke:none;" d="M202 76C194.573 86.8663 188.427 84.5066 177 87L177 88L196 90L202 76z"/>
<path style="fill:#f0f1f2; stroke:none;" d="M204 76L203 79L204 76z"/>
<path style="fill:#96999c; stroke:none;" d="M205 76L201 80L201 81L203 80L203 81L200 82L200 86L196 89L196 90L202 90C203.677 85.5114 207.527 80.6645 205 76z"/>
<path style="fill:#6f7377; stroke:none;" d="M210 76L211 77L210 76z"/>
<path style="fill:#96999c; stroke:none;" d="M212 76L214 82L214 76L212 76M241 76L241 80L242 80L241 76M248 76L249 77L248 76z"/>
<path style="fill:#121212; stroke:none;" d="M109 77L110 78L109 77z"/>
<path style="fill:#6f7377; stroke:none;" d="M114 77L115 78L114 77M186 77C186.064 79.9934 185.946 81.3456 189 82L186 77z"/>
<path style="fill:#96999c; stroke:none;" d="M203 77L204 78L203 77M209.667 77.3333L210.333 77.6667L209.667 77.3333M217 87L223 87L223 86L220 80L225 78C219.877 77.3089 217.777 82.7141 217 87z"/>
<path style="fill:#f0f1f2; stroke:none;" d="M220 80L221 86L243 84C237.376 76.8387 227.721 75.6762 220 80z"/>
<path style="fill:#96999c; stroke:none;" d="M106 78L107 79L106 78z"/>
<path style="fill:#121212; stroke:none;" d="M107 78L106 80L107 78z"/>
<path style="fill:#505459; stroke:none;" d="M108 78L109 79L108 78z"/>
<path style="fill:#6f7377; stroke:none;" d="M202 78L203 79L202 78M209 78L210 79L209 78z"/>
<path style="fill:#505459; stroke:none;" d="M244 78L244 83L245 83L244 78M107 79L108 80L107 79z"/>
<path style="fill:#96999c; stroke:none;" d="M208.667 79.3333L209.333 79.6667L208.667 79.3333z"/>
<path style="fill:#6f7377; stroke:none;" d="M211 79L207 91L214 93L215 93L215 80L214 80L214 86L209 88L211 79z"/>
<path style="fill:#96999c; stroke:none;" d="M238 79L239 80L238 79z"/>
<path style="fill:#505459; stroke:none;" d="M104 80L102 84L106 80L104 80z"/>
<path style="fill:#96999c; stroke:none;" d="M111 80L112 81L111 80z"/>
<path style="fill:#6f7377; stroke:none;" d="M169 81L169 85C173.318 84.9609 176.682 84.968 179 81L169 81z"/>
<path style="fill:#96999c; stroke:none;" d="M187 80L188 81L187 80z"/>
<path style="fill:#f0f1f2; stroke:none;" d="M202 80L201 83L202 80z"/>
<path style="fill:#6f7377; stroke:none;" d="M208 80L209 81L208 80z"/>
<path style="fill:#505459; stroke:none;" d="M211 80L209 88L214 86L211 80z"/>
<path style="fill:#96999c; stroke:none;" d="M240 80L241 81L240 80M102 81L103 82L102 81z"/>
<path style="fill:#121212; stroke:none;" d="M103 81L104 82L103 81z"/>
<path style="fill:#505459; stroke:none;" d="M200 81L201 82L200 81z"/>
<path style="fill:#96999c; stroke:none;" d="M207.667 81.3333L208.333 81.6667L207.667 81.3333z"/>
<path style="fill:#121212; stroke:none;" d="M215 81L216 82L215 81z"/>
<path style="fill:#96999c; stroke:none;" d="M241 81L242 82L241 81z"/>
<path style="fill:#6f7377; stroke:none;" d="M101 82L102 83L101 82z"/>
<path style="fill:#121212; stroke:none;" d="M102 82L103 83L102 82z"/>
<path style="fill:#96999c; stroke:none;" d="M104 82L105 83L104 82z"/>
<path style="fill:#6f7377; stroke:none;" d="M207 82L208 83L207 82z"/>
<path style="fill:#96999c; stroke:none;" d="M209 82L210 83L209 82z"/>
<path style="fill:#121212; stroke:none;" d="M216 82L216.643 95.3773L223 94.7863L243 86L217 87L216 82z"/>
<path style="fill:#96999c; stroke:none;" d="M242 82L243 83L242 82z"/>
<path style="fill:#505459; stroke:none;" d="M100 83L101 84L100 83z"/>
<path style="fill:#121212; stroke:none;" d="M101 83L102 84L101 83z"/>
<path style="fill:#96999c; stroke:none;" d="M103 83L104 84L103 83z"/>
<path style="fill:#6f7377; stroke:none;" d="M193 83L193 84L196 84L193 83z"/>
<path style="fill:#505459; stroke:none;" d="M199 83L200 84L199 83z"/>
<path style="fill:#f0f1f2; stroke:none;" d="M200 83L201 84L200 83z"/>
<path style="fill:#96999c; stroke:none;" d="M206 83L204 91L206 90L214 93L206 87L208 88L208 83L206 83M98 84L97 86L98 84z"/>
<path style="fill:#121212; stroke:none;" d="M96 88L101 85L96 88z"/>
<path style="fill:#96999c; stroke:none;" d="M208 84L209 85L208 84M232 84L232 85L243 85L242 89L243 89L244 84L232 84z"/>
<path style="fill:#505459; stroke:none;" d="M99 85L97 88L107 88L107 87L99 85z"/>
<path style="fill:#6f7377; stroke:none;" d="M198 85L199 86L198 85z"/>
<path style="fill:#f0f1f2; stroke:none;" d="M199 85L200 86L199 85z"/>
<path style="fill:#6f7377; stroke:none;" d="M206 85L207 86L206 85z"/>
<path style="fill:#96999c; stroke:none;" d="M225 85L226 86L225 85z"/>
<path style="fill:#6f7377; stroke:none;" d="M226 85L226 86L235 86L226 85z"/>
<path style="fill:#505459; stroke:none;" d="M235 85L235 86L238 86L235 85z"/>
<path style="fill:#6f7377; stroke:none;" d="M238.667 85.3333L239.333 85.6667L238.667 85.3333z"/>
<path style="fill:#505459; stroke:none;" d="M240 85L240 86L243 86L240 85M245 85L246 86L245 85z"/>
<path style="fill:#6f7377; stroke:none;" d="M96 86L97 87L96 86z"/>
<path style="fill:#96999c; stroke:none;" d="M99 86L100 87L99 86z"/>
<path style="fill:#121212; stroke:none;" d="M163 86L163 87L167 87L163 86z"/>
<path style="fill:#505459; stroke:none;" d="M197 86L198 87L197 86z"/>
<path style="fill:#6f7377; stroke:none;" d="M223.667 86.3333L224.333 86.6667L223.667 86.3333z"/>
<path style="fill:#505459; stroke:none;" d="M95 87L94 89L96 89L95 87z"/>
<path style="fill:#6f7377; stroke:none;" d="M98 87L96 88L96 89L98 87z"/>
<path style="fill:#96999c; stroke:none;" d="M108.667 87.3333L109.333 87.6667L108.667 87.3333M114 87L114 88L124 88L114 87M154 87L154 88L163 88L154 87z"/>
<path style="fill:#6f7377; stroke:none;" d="M163 87L163 88L167 88L163 87z"/>
<path style="fill:#121212; stroke:none;" d="M173.667 87.3333L174.333 87.6667L173.667 87.3333z"/>
<path style="fill:#505459; stroke:none;" d="M183 88L183 89L188 89L183 88M188 87L189 88L188 87z"/>
<path style="fill:#f0f1f2; stroke:none;" d="M198 87L199 88L198 87M206.333 87.6667L206.667 88.3333L206.333 87.6667z"/>
<path style="fill:#505459; stroke:none;" d="M242 87L243 88L242 87M245 87L247 90L245 87z"/>
<path style="fill:#96999c; stroke:none;" d="M98 88L98 89L102 89L98 88M177 88L177 89L182 89L177 88z"/>
<path style="fill:#6f7377; stroke:none;" d="M182 88L183 89L182 88z"/>
<path style="fill:#505459; stroke:none;" d="M196 88L197 89L196 88z"/>
<path style="fill:#f0f1f2; stroke:none;" d="M197 88L198 89L197 88z"/>
<path style="fill:#505459; stroke:none;" d="M218.333 88.6667L218.667 89.3333L218.333 88.6667z"/>
<path style="fill:#96999c; stroke:none;" d="M93.6667 89.3333L94.3333 89.6667L93.6667 89.3333M187 89L187 90L191 90L187 89z"/>
<path style="fill:#6f7377; stroke:none;" d="M191.667 89.3333L192.333 89.6667L191.667 89.3333z"/>
<path style="fill:#505459; stroke:none;" d="M193.667 89.3333L194.333 89.6667L193.667 89.3333M239 89L240 90L239 89z"/>
<path style="fill:#96999c; stroke:none;" d="M202 90L203 91L202 90z"/>
<path style="fill:#505459; stroke:none;" d="M210.667 90.3333L211.333 90.6667L210.667 90.3333M232 90L232 91L235 91L232 90z"/>
<path style="fill:#6f7377; stroke:none;" d="M235.667 90.3333L236.333 90.6667L235.667 90.3333z"/>
<path style="fill:#96999c; stroke:none;" d="M237.667 90.3333L238.333 90.6667L237.667 90.3333M226 92L226 93L233 92L226 92z"/>
<path style="fill:#505459; stroke:none;" d="M225 92L226 93L225 92M214 93L215 94L214 93M224 93L225 94L224 93z"/>
<path style="fill:#6f7377; stroke:none;" d="M214 94L215 95L214 94M223 94L224 95L223 94z"/>
<path style="fill:#505459; stroke:none;" d="M215 95L216 96L215 95M222 95L223 96L222 95z"/>
<path style="fill:#96999c; stroke:none;" d="M223 95L220 99L226 99L223 95z"/>
<path style="fill:#505459; stroke:none;" d="M216 96L217 97L216 96z"/>
<path style="fill:#6f7377; stroke:none;" d="M221 96L222 97L221 96z"/>
<path style="fill:#96999c; stroke:none;" d="M145 97L145 98L149 98L145 97z"/>
<path style="fill:#6f7377; stroke:none;" d="M149 97L149 98L154 98L149 97z"/>
<path style="fill:#96999c; stroke:none;" d="M154.667 97.3333L155.333 97.6667L154.667 97.3333M217 97L218 98L217 97z"/>
<path style="fill:#6f7377; stroke:none;" d="M218.667 97.3333L219.333 97.6667L218.667 97.3333z"/>
<path style="fill:#96999c; stroke:none;" d="M34 99L34 100L38 101L39 101L41 99L34 99z"/>
<path style="fill:#6f7377; stroke:none;" d="M40 98L41 99L40 98z"/>
<path style="fill:#96999c; stroke:none;" d="M105 98L106 99L105 98M138 98L138 99L141 99L138 98z"/>
<path style="fill:#6f7377; stroke:none;" d="M141.667 98.3333L142.333 98.6667L141.667 98.3333z"/>
<path style="fill:#505459; stroke:none;" d="M113 107L113 108L135 102L133 105C139.693 101.031 144.174 99.5479 152 101L146 109L146 112L149 112L150 111C151.023 106.919 155.646 103.116 151 100L153 99C140.987 93.9591 124.571 104.258 113 107z"/>
<path style="fill:#121212; stroke:none;" d="M151 99L151 100C154.166 103.668 151.309 106.426 149 110C154.212 107.561 161.606 97.2491 151 99z"/>
<path style="fill:#505459; stroke:none;" d="M156 98L158 100L156 98z"/>
<path style="fill:#96999c; stroke:none;" d="M157 98L158 99L157 98z"/>
<path style="fill:#6f7377; stroke:none;" d="M36 99L36 102L38 99L36 99z"/>
<path style="fill:#96999c; stroke:none;" d="M135.667 99.3333L136.333 99.6667L135.667 99.3333z"/>
<path style="fill:#6f7377; stroke:none;" d="M137 99L138 100L137 99z"/>
<path style="fill:#96999c; stroke:none;" d="M31 100L32 101L31 100z"/>
<path style="fill:#6f7377; stroke:none;" d="M32.3333 100.667L32.6667 101.333L32.3333 100.667z"/>
<path style="fill:#505459; stroke:none;" d="M33 100L33 101L36 102L33 100z"/>
<path style="fill:#96999c; stroke:none;" d="M99 100L85 106L85 109L100 101L99 100M101 100L102 101L101 100M131 100L132 101L131 100z"/>
<path style="fill:#6f7377; stroke:none;" d="M132 100L133 101L132 100z"/>
<path style="fill:#121212; stroke:none;" d="M137 101L137 103L151 102L143 107L145 109L139 109L147 111L152 101L137 101z"/>
<path style="fill:#96999c; stroke:none;" d="M158.333 100.667L158.667 101.333L158.333 100.667M29 101L29 104L31 104L31 105L30 106L36 103L36 102L29 101z"/>
<path style="fill:#6f7377; stroke:none;" d="M30 101L31 102L30 101z"/>
<path style="fill:#505459; stroke:none;" d="M31 101L32 102L31 101z"/>
<path style="fill:#6f7377; stroke:none;" d="M34 101L35 102L34 101z"/>
<path style="fill:#96999c; stroke:none;" d="M128 101L129 102L128 101z"/>
<path style="fill:#6f7377; stroke:none;" d="M129 101L130 102L129 101z"/>
<path style="fill:#505459; stroke:none;" d="M157 101L158 102L157 101z"/>
<path style="fill:#96999c; stroke:none;" d="M196 114L196 115L208.388 115.333L210.014 124L210 148L209 148C208.88 142.21 208.436 127.381 201 127L200 126L200 121L197 121C200.948 135.529 207.867 146.954 208 163L238 156.884L250 152L214 160C218.304 150.954 224.63 147.205 234 144.735C239.51 143.282 248.841 143.676 250 137L218 144L224 139L222 138L222 137C224.983 137.524 228.502 138.585 229 135L233 134L239 135L239 134L237 134L237 133L243 132L246 133L250 132L248 106L250 106L250 105L247 104L250 101L215 106.467L196 114M27 102L26 104L27 102z"/>
<path style="fill:#505459; stroke:none;" d="M21 109L22 110L31 105L31 104L30 103L21 109z"/>
<path style="fill:#96999c; stroke:none;" d="M124.667 102.333L125.333 102.667L124.667 102.333z"/>
<path style="fill:#6f7377; stroke:none;" d="M126 102L127 103L126 102z"/>
<path style="fill:#121212; stroke:none;" d="M97 120L141 116C140.012 111.391 136.368 113.333 134 116L135 108L138 106L133 107L135 102C123.381 103.975 102.476 108.507 97 120z"/>
<path style="fill:#505459; stroke:none;" d="M143 102L144 103L143 102z"/>
<path style="fill:#96999c; stroke:none;" d="M141 103L146 106L144 103L149 103L141 103z"/>
<path style="fill:#f0f1f2; stroke:none;" d="M149 102L144 103L144 104C145.963 104.505 150.167 104.93 149 102z"/>
<path style="fill:#6f7377; stroke:none;" d="M150 102L151 103L150 102M157 102L158 103L157 102z"/>
<path style="fill:#121212; stroke:none;" d="M28 103L29 104L28 103z"/>
<path style="fill:#96999c; stroke:none;" d="M122 103L123 104L122 103z"/>
<path style="fill:#6f7377; stroke:none;" d="M123 103L124 104L123 103z"/>
<path style="fill:#96999c; stroke:none;" d="M134 104L134 105L138 104L134 104z"/>
<path style="fill:#505459; stroke:none;" d="M138 103L141 105L138 103z"/>
<path style="fill:#6f7377; stroke:none;" d="M140 103L141 104L140 103z"/>
<path style="fill:#96999c; stroke:none;" d="M150 103L151 104L150 103M157 103L158 104L157 103M159 103L152 111L150 110L149 113L146 115L143 117L138 119L134 118L135 120L134 120L117 120L117 121L124 121L124 122L97 122L97 120L94 121L92 116C92.3027 113.556 92.4368 112.972 90 113L83 111L82 115L82 116L79 115L85 110L85 107L73 114L70 116L53 115L53 118L64.439 119.583L76 117L76 118L69 119L69 120C84.55 126.32 94.9555 122.966 111 123L111 124C106.428 124.361 99.8024 124.034 97 128L139 127L145 129L145 130C136.651 131.393 142.338 145.513 138.822 151.945C135.468 158.081 119.091 156.45 113 155C112.666 147.751 102.329 150 97 150L108 145C104.614 138.287 94.722 139.531 88 139L88 138L102 136C98.7585 127.905 85.7829 128.021 78 128L84 133L85 135L84 137L86 137L88 142L89 145L90 148L90 149L88 152L75 159L55 158C59.5051 164.949 74.8076 160.652 81.9954 162.433C87.3324 163.755 89.2072 168.117 84 171L84 172C106.851 175.377 129.562 178.351 153 174L158 146L164 133C167.584 131.376 169.809 128.573 166 126L171 126L178 119L188 117L188 116L186 116L186 115L193 116L193 115L170 116L163 113L164 110L164 106L159 103z"/>
<path style="fill:#f0f1f2; stroke:none;" d="M247 103L247 104L250 104L247 103z"/>
<path style="fill:#6f7377; stroke:none;" d="M29 104L30 105L29 104z"/>
<path style="fill:#96999c; stroke:none;" d="M119 104L120 105L119 104z"/>
<path style="fill:#6f7377; stroke:none;" d="M120 104L121 105L120 104z"/>
<path style="fill:#f0f1f2; stroke:none;" d="M134 105L134 106L138 105L134 105z"/>
<path style="fill:#96999c; stroke:none;" d="M147.667 104.333L148.333 104.667L147.667 104.333z"/>
<path style="fill:#505459; stroke:none;" d="M149 104L150 105L149 104z"/>
<path style="fill:#96999c; stroke:none;" d="M156 104L157 105L156 104z"/>
<path style="fill:#6f7377; stroke:none;" d="M247 104L247 105L250 105L247 104z"/>
<path style="fill:#121212; stroke:none;" d="M27 105L28 106L27 105z"/>
<path style="fill:#96999c; stroke:none;" d="M117 105L118 106L117 105z"/>
<path style="fill:#6f7377; stroke:none;" d="M118 105L119 106L118 105M133 105L134 106L133 105z"/>
<path style="fill:#505459; stroke:none;" d="M135.667 105.333L136.333 105.667L135.667 105.333z"/>
<path style="fill:#96999c; stroke:none;" d="M137 105L137 106L140 106L137 105z"/>
<path style="fill:#6f7377; stroke:none;" d="M140 105L141 106L140 105z"/>
<path style="fill:#f0f1f2; stroke:none;" d="M141.667 105.333L142.333 105.667L141.667 105.333z"/>
<path style="fill:#505459; stroke:none;" d="M146.667 105.333L147.333 105.667L146.667 105.333M155 105L156 106L155 105z"/>
<path style="fill:#f0f1f2; stroke:none;" d="M240 105L240 106L246 106L240 105z"/>
<path style="fill:#96999c; stroke:none;" d="M22 106L23 107L22 106z"/>
<path style="fill:#121212; stroke:none;" d="M24 106L25 107L24 106z"/>
<path style="fill:#96999c; stroke:none;" d="M28 106L29 107L28 106M110 106L111 107L110 106M114 106L115 107L114 106z"/>
<path style="fill:#6f7377; stroke:none;" d="M115 106L116 107L115 106z"/>
<path style="fill:#505459; stroke:none;" d="M133 106L134 107L133 106M137 107L137 108L139 107L138 110L135 108L137 112L133 112L133 113L136 112L135 114L143 112L143 111L139 109L145 109L137 107z"/>
<path style="fill:#121212; stroke:none;" d="M140 106L141 107L140 106z"/>
<path style="fill:#6f7377; stroke:none;" d="M142.667 106.333L143.333 106.667L142.667 106.333z"/>
<path style="fill:#505459; stroke:none;" d="M144 106L145 107L144 106z"/>
<path style="fill:#6f7377; stroke:none;" d="M154 106L155 107L154 106z"/>
<path style="fill:#f0f1f2; stroke:none;" d="M231 106L231 107L239 107L231 106M248.667 106.333L249.333 106.667L248.667 106.333z"/>
<path style="fill:#96999c; stroke:none;" d="M27 107L28 108L27 107M108 107L109 108L108 107M112 107L113 108L112 107z"/>
<path style="fill:#505459; stroke:none;" d="M111 117C118.549 116.046 124.684 115.326 127 107C121.088 108.49 114.178 111.61 111 117z"/>
<path style="fill:#6f7377; stroke:none;" d="M138 107L137 110L138 107z"/>
<path style="fill:#505459; stroke:none;" d="M153 107L154 108L153 107z"/>
<path style="fill:#f0f1f2; stroke:none;" d="M219 107L219 108L223 108L219 107z"/>
<path style="fill:#6f7377; stroke:none;" d="M24 108L20 109L18 114L24 108z"/>
<path style="fill:#96999c; stroke:none;" d="M25 108L26 109L25 108M103 109L103 110L107 109L103 109M108 110L111 109L108 110z"/>
<path style="fill:#505459; stroke:none;" d="M111 108L112 109L111 108z"/>
<path style="fill:#6f7377; stroke:none;" d="M152 108L153 109L152 108z"/>
<path style="fill:#f0f1f2; stroke:none;" d="M153 108L154 109L153 108M213 108L213 113L214 113L218 109L213 108z"/>
<path style="fill:#121212; stroke:none;" d="M21 109L22 110L21 109z"/>
<path style="fill:#96999c; stroke:none;" d="M24 109L25 110L24 109z"/>
<path style="fill:#505459; stroke:none;" d="M109 109L110 110L109 109z"/>
<path style="fill:#6f7377; stroke:none;" d="M151 109L152 110L151 109z"/>
<path style="fill:#f0f1f2; stroke:none;" d="M210 109L207 111L207 112L212 112L210 109z"/>
<path style="fill:#96999c; stroke:none;" d="M19 110L20 111L19 110z"/>
<path style="fill:#505459; stroke:none;" d="M20 110L21 111L20 110z"/>
<path style="fill:#96999c; stroke:none;" d="M23 110L24 111L23 110M74 110L75 111L74 110M101 110L101 114L102 114L103 110L101 110M106 110L107 111L106 110z"/>
<path style="fill:#505459; stroke:none;" d="M107 110L108 111L107 110z"/>
<path style="fill:#6f7377; stroke:none;" d="M135 110L137 112L137 110L135 110z"/>
<path style="fill:#121212; stroke:none;" d="M148 110L149 111L148 110z"/>
<path style="fill:#f0f1f2; stroke:none;" d="M151 110L152 111L151 110z"/>
<path style="fill:#96999c; stroke:none;" d="M21.6667 111.333L22.3333 111.667L21.6667 111.333M46 116L54 111L46 116M94 116L101 112L94 116M104 111L105 112L104 111z"/>
<path style="fill:#505459; stroke:none;" d="M105 111L106 112L105 111z"/>
<path style="fill:#6f7377; stroke:none;" d="M143 111L143 112L146 112L146 111L143 111z"/>
<path style="fill:#96999c; stroke:none;" d="M144 111L145 112L144 111z"/>
<path style="fill:#121212; stroke:none;" d="M147 111L148 112L147 111z"/>
<path style="fill:#f0f1f2; stroke:none;" d="M150 111L151 112L150 111z"/>
<path style="fill:#96999c; stroke:none;" d="M18 112L19 113L18 112z"/>
<path style="fill:#505459; stroke:none;" d="M51 112L52 113L51 112z"/>
<path style="fill:#96999c; stroke:none;" d="M69.3333 112.667L69.6667 113.333L69.3333 112.667z"/>
<path style="fill:#f0f1f2; stroke:none;" d="M86 112L86 113L89 114L86 112z"/>
<path style="fill:#6f7377; stroke:none;" d="M103 112L104 113L103 112z"/>
<path style="fill:#96999c; stroke:none;" d="M134 115L136 112L134 115z"/>
<path style="fill:#6f7377; stroke:none;" d="M141 112L142 113L141 112z"/>
<path style="fill:#96999c; stroke:none;" d="M141 114L144 112L141 114z"/>
<path style="fill:#121212; stroke:none;" d="M144 114L147 113L144 114z"/>
<path style="fill:#f0f1f2; stroke:none;" d="M148 112L149 113L148 112z"/>
<path style="fill:#96999c; stroke:none;" d="M17 113L16 116C18.1579 115.022 18.5007 114.812 17 113z"/>
<path style="fill:#6f7377; stroke:none;" d="M50 113L51 114L50 113z"/>
<path style="fill:#505459; stroke:none;" d="M102 113L103 114L102 113M143.333 113.667L143.667 114.333L143.333 113.667M145 113L146 114L145 113z"/>
<path style="fill:#f0f1f2; stroke:none;" d="M147 113L148 114L147 113z"/>
<path style="fill:#96999c; stroke:none;" d="M42.6667 114.333L43.3333 114.667L42.6667 114.333z"/>
<path style="fill:#6f7377; stroke:none;" d="M47 114L48 115L47 114z"/>
<path style="fill:#96999c; stroke:none;" d="M99 114L95 116L95 117L95 118L99 114z"/>
<path style="fill:#6f7377; stroke:none;" d="M100 114L101 115L100 114M133 114L134 115L133 114z"/>
<path style="fill:#505459; stroke:none;" d="M141.333 114.667L141.667 115.333L141.333 114.667z"/>
<path style="fill:#121212; stroke:none;" d="M142 114L143 115L142 114z"/>
<path style="fill:#f0f1f2; stroke:none;" d="M145 114L146 115L145 114z"/>
<path style="fill:#96999c; stroke:none;" d="M171 114L172 115L171 114z"/>
<path style="fill:#f0f1f2; stroke:none;" d="M85.6667 115.333L86.3333 115.667L85.6667 115.333z"/>
<path style="fill:#505459; stroke:none;" d="M99 115L100 116L99 115M134 115L135 116L134 115M139 115L138 117L139 115z"/>
<path style="fill:#6f7377; stroke:none;" d="M142 115L143 116L142 115z"/>
<path style="fill:#f0f1f2; stroke:none;" d="M144 115L145 116L144 115z"/>
<path style="fill:#96999c; stroke:none;" d="M195 115L196 116L195 115M203 115L204 126L205 126L205 115L203 115M14 116L14 118L16 118L16 116L14 116M52 116L53 117L52 116z"/>
<path style="fill:#f0f1f2; stroke:none;" d="M89 116L89 118L91 118L91 116L89 116z"/>
<path style="fill:#505459; stroke:none;" d="M98 116L99 117L98 116z"/>
<path style="fill:#6f7377; stroke:none;" d="M139 116L140 117L139 116z"/>
<path style="fill:#f0f1f2; stroke:none;" d="M141.667 116.333L142.333 116.667L141.667 116.333z"/>
<path style="fill:#96999c; stroke:none;" d="M193 116L192 120L195 116L193 116M47 117L48 118L47 117z"/>
<path style="fill:#505459; stroke:none;" d="M97 117L98 118L97 117M101 117L100 119L102 119L101 117M125 119L125 120L133 119L125 119M136 117L137 118L136 117z"/>
<path style="fill:#6f7377; stroke:none;" d="M137 117L138 118L137 117z"/>
<path style="fill:#f0f1f2; stroke:none;" d="M140 117L141 118L140 117M172 117L171 119L172 117z"/>
<path style="fill:#96999c; stroke:none;" d="M29 118L30 119L29 118z"/>
<path style="fill:#6f7377; stroke:none;" d="M96.3333 118.667L96.6667 119.333L96.3333 118.667z"/>
<path style="fill:#505459; stroke:none;" d="M113 118L113 119L121 119L113 118M122 118L122 119L125 119L122 118z"/>
<path style="fill:#6f7377; stroke:none;" d="M133 118L134 119L133 118z"/>
<path style="fill:#f0f1f2; stroke:none;" d="M136.667 118.333L137.333 118.667L136.667 118.333M179 118L180 119L179 118z"/>
<path style="fill:#505459; stroke:none;" d="M183 118L183 119L189 119L183 118z"/>
<path style="fill:#96999c; stroke:none;" d="M189.667 118.333L190.333 118.667L189.667 118.333M197 118L199 120L197 118M208 118L209 119L208 118z"/>
<path style="fill:#6f7377; stroke:none;" d="M128 119L129 120L128 119z"/>
<path style="fill:#f0f1f2; stroke:none;" d="M133.667 119.333L134.333 119.667L133.667 119.333M178 119L179 120L178 119z"/>
<path style="fill:#505459; stroke:none;" d="M180 119L181 120L180 119z"/>
<path style="fill:#121212; stroke:none;" d="M153 175C139.78 175.273 126.206 177.378 113 176.957C92.4993 176.303 71.5955 171.898 51 169.831C42.3055 168.958 33.5801 167.533 25 165.905C21.6688 165.273 17.402 163.225 14.1474 165.042C9.21527 167.796 10.5238 173.818 15.0231 175.891C23.1463 179.634 35.12 181.275 44 182L44 184C38.9254 184.678 31.1298 189.185 37.1528 194.502C41.3195 198.179 47.8105 199.504 53 201C76.4947 207.773 101.597 212.239 126 213.91C169.038 216.858 209.377 192.864 250 182L250 163L246 163L250 155L207 164C207 146.384 198.387 101.447 172.184 124.819C159.217 136.386 155.084 158.6 153 175z"/>
<path style="fill:#505459; stroke:none;" d="M191 119L192 120L191 119z"/>
<path style="fill:#96999c; stroke:none;" d="M194 119L195 122L196 122L196 119L194 119z"/>
<path style="fill:#6f7377; stroke:none;" d="M97 120L98 121L97 120z"/>
<path style="fill:#505459; stroke:none;" d="M98 120L98 121L113 121L98 120z"/>
<path style="fill:#6f7377; stroke:none;" d="M113 120L113 121L117 121L113 120z"/>
<path style="fill:#f0f1f2; stroke:none;" d="M124 120L124 121L129 121L124 120z"/>
<path style="fill:#505459; stroke:none;" d="M178 120L179 121L178 120M193 120L194 121L193 120z"/>
<path style="fill:#96999c; stroke:none;" d="M196 120L197 121L196 120M208 120L209 121L208 120z"/>
<path style="fill:#f0f1f2; stroke:none;" d="M97.6667 121.333L98.3333 121.667L97.6667 121.333M112 123L124 122C120.479 120.522 114.661 119.955 112 123M174 121L175 122L174 121z"/>
<path style="fill:#505459; stroke:none;" d="M176 121L177 122L176 121M194 121L195 122L194 121z"/>
<path style="fill:#f0f1f2; stroke:none;" d="M80.3333 122.667L80.6667 123.333L80.3333 122.667M173 122L171 125L173 122z"/>
<path style="fill:#6f7377; stroke:none;" d="M196 122L197 123L196 122z"/>
<path style="fill:#96999c; stroke:none;" d="M11 123L12 124L11 123z"/>
<path style="fill:#f0f1f2; stroke:none;" d="M153.667 123.333L154.333 123.667L153.667 123.333M156 123L157 124L156 123z"/>
<path style="fill:#6f7377; stroke:none;" d="M173 123L174 124L173 123z"/>
<path style="fill:#f0f1f2; stroke:none;" d="M198 123L199 124L198 123z"/>
<path style="fill:#121212; stroke:none;" d="M11 124L10 138L15 125L11 124z"/>
<path style="fill:#6f7377; stroke:none;" d="M13 124L14 125L13 124z"/>
<path style="fill:#96999c; stroke:none;" d="M14 124L15 125L14 124M16 124L15 127L16 127L16 124z"/>
<path style="fill:#6f7377; stroke:none;" d="M17 124L17 125L25 125L17 124z"/>
<path style="fill:#96999c; stroke:none;" d="M25 124L25 125L31 125L25 124z"/>
<path style="fill:#f0f1f2; stroke:none;" d="M161 124L162 125L161 124z"/>
<path style="fill:#6f7377; stroke:none;" d="M172 124L173 125L172 124z"/>
<path style="fill:#96999c; stroke:none;" d="M10.3333 125.667L10.6667 126.333L10.3333 125.667z"/>
<path style="fill:#505459; stroke:none;" d="M16 125L17 126L16 125z"/>
<path style="fill:#121212; stroke:none;" d="M17.419 126.028C11.5605 129.928 11.3764 144.81 18.044 147.657C32.0685 153.644 51.0699 151.749 66 153.17C72.0447 153.745 80.3978 154.995 85.6782 150.91C91.3043 146.559 82.6205 131.676 77.9568 129.178C66.2887 122.93 46.8422 127.052 34 125.83C29.3806 125.391 21.6136 123.235 17.419 126.028z"/>
<path style="fill:#505459; stroke:none;" d="M31 125L31 126L37 126L31 125z"/>
<path style="fill:#6f7377; stroke:none;" d="M37 125L37 126L40 126L37 125z"/>
<path style="fill:#96999c; stroke:none;" d="M40 125L40 126L48 126L40 125z"/>
<path style="fill:#f0f1f2; stroke:none;" d="M167.667 125.333L168.333 125.667L167.667 125.333z"/>
<path style="fill:#6f7377; stroke:none;" d="M171 125L172 126L171 125z"/>
<path style="fill:#505459; stroke:none;" d="M198 125L199 126L198 125z"/>
<path style="fill:#96999c; stroke:none;" d="M201 125L202 126L201 125z"/>
<path style="fill:#505459; stroke:none;" d="M14 126L16 128L14 126M54 126L54 127L60 127L54 126z"/>
<path style="fill:#6f7377; stroke:none;" d="M60 126L60 127L63 127L60 126z"/>
<path style="fill:#96999c; stroke:none;" d="M63 126L63 127L71 127L63 126M78 126L78 127L84 127L78 126M87 126L88 127L87 126z"/>
<path style="fill:#f0f1f2; stroke:none;" d="M105 126L105 127L110 127L105 126z"/>
<path style="fill:#6f7377; stroke:none;" d="M166 126L166 127L170 128L166 126z"/>
<path style="fill:#505459; stroke:none;" d="M199 126L200 127L199 126z"/>
<path style="fill:#6f7377; stroke:none;" d="M10 127L11 128L10 127M14 127L14 130L15 130L14 127z"/>
<path style="fill:#505459; stroke:none;" d="M70 127L70 128L73 128L70 127z"/>
<path style="fill:#6f7377; stroke:none;" d="M73 127L74 128L73 127z"/>
<path style="fill:#96999c; stroke:none;" d="M74.6667 127.333L75.3333 127.667L74.6667 127.333M95 127L96 128L95 127z"/>
<path style="fill:#f0f1f2; stroke:none;" d="M98.6667 127.333L99.3333 127.667L98.6667 127.333z"/>
<path style="fill:#6f7377; stroke:none;" d="M127 127L127 128L131 128L127 127z"/>
<path style="fill:#505459; stroke:none;" d="M131 127L131 128L134 128L131 127z"/>
<path style="fill:#6f7377; stroke:none;" d="M134.667 127.333L135.333 127.667L134.667 127.333z"/>
<path style="fill:#f0f1f2; stroke:none;" d="M138 127L139 128L138 127M145 127L145 128L148 128L145 127z"/>
<path style="fill:#6f7377; stroke:none;" d="M157 127L157 128L165 128L157 127M200 127L201 128L200 127z"/>
<path style="fill:#505459; stroke:none;" d="M10 128L10 133L11 133L10 128z"/>
<path style="fill:#6f7377; stroke:none;" d="M77 128L78 129L77 128M86 128L86 129L96 130L86 128z"/>
<path style="fill:#505459; stroke:none;" d="M92 128L92 129L100 131C100 127.751 104.285 129 107 129L92 128z"/>
<path style="fill:#121212; stroke:none;" d="M99 129L103 136L89 138L89 139L132 144L132 149L113 150C116.438 153.262 132.869 157.404 136.711 154.377C141.223 150.824 142.43 132.561 137.486 129.028C134.853 127.146 130.048 128 127 128C117.617 128 108.33 128.923 99 129z"/>
<path style="fill:#505459; stroke:none;" d="M138 128L139 129L138 128z"/>
<path style="fill:#6f7377; stroke:none;" d="M145 128L145 129L155 129L145 128z"/>
<path style="fill:#f0f1f2; stroke:none;" d="M161 128L161 129L164 129L161 128M167 128L168 129L167 128z"/>
<path style="fill:#505459; stroke:none;" d="M200 128L201 129L200 128M139 129L139 132L140 132L139 129z"/>
<path style="fill:#6f7377; stroke:none;" d="M140 129L140 130L145 130L140 129M201 129L202 130L201 129z"/>
<path style="fill:#505459; stroke:none;" d="M13 130L13 132L15 130L13 130z"/>
<path style="fill:#f0f1f2; stroke:none;" d="M140 130L141 131L140 130z"/>
<path style="fill:#505459; stroke:none;" d="M167 130L168 131L167 130z"/>
<path style="fill:#f0f1f2; stroke:none;" d="M249 130L250 131L249 130z"/>
<path style="fill:#6f7377; stroke:none;" d="M166 131L167 132L166 131M202 131L203 132L202 131z"/>
<path style="fill:#f0f1f2; stroke:none;" d="M246 133L243 132L237 133L237 134L239 134L239 135L233 134L229 135C229 138.824 224.832 137.224 222 137L222 138L224 139L218 144C224.496 142.66 245.019 141.774 248.953 136.405C250.772 133.922 248.419 130.445 246 133z"/>
<path style="fill:#6f7377; stroke:none;" d="M13 132L13 135L14 135L13 132M100 132L101 133L100 132z"/>
<path style="fill:#505459; stroke:none;" d="M202 132L203 133L202 132z"/>
<path style="fill:#f0f1f2; stroke:none;" d="M241 132L242 133L241 132z"/>
<path style="fill:#6f7377; stroke:none;" d="M82 133L83 134L82 133z"/>
<path style="fill:#f0f1f2; stroke:none;" d="M83 133L84 134L83 133z"/>
<path style="fill:#505459; stroke:none;" d="M101 133L102 134L101 133z"/>
<path style="fill:#f0f1f2; stroke:none;" d="M164 133L165 134L164 133z"/>
<path style="fill:#505459; stroke:none;" d="M165 133L166 134L165 133z"/>
<path style="fill:#6f7377; stroke:none;" d="M203 134L204 135L203 134z"/>
<path style="fill:#505459; stroke:none;" d="M13 135L14 138L13 135M83 135L84 136L83 135z"/>
<path style="fill:#f0f1f2; stroke:none;" d="M84 135L85 136L84 135z"/>
<path style="fill:#505459; stroke:none;" d="M102 135L103 136L102 135M164 135L165 136L164 135M203 135L204 136L203 135z"/>
<path style="fill:#6f7377; stroke:none;" d="M95.6667 136.333L96.3333 136.667L95.6667 136.333z"/>
<path style="fill:#505459; stroke:none;" d="M97.6667 136.333L98.3333 136.667L97.6667 136.333z"/>
<path style="fill:#6f7377; stroke:none;" d="M140 136L140 145L141 145L140 136M163 136L164 137L163 136z"/>
<path style="fill:#f0f1f2; stroke:none;" d="M225 136L225 137L228 137L225 136z"/>
<path style="fill:#96999c; stroke:none;" d="M12 137L13 138L12 137z"/>
<path style="fill:#6f7377; stroke:none;" d="M84 137L85 138L84 137z"/>
<path style="fill:#f0f1f2; stroke:none;" d="M85 137L86 138L85 137z"/>
<path style="fill:#6f7377; stroke:none;" d="M91 137L92 138L91 137z"/>
<path style="fill:#505459; stroke:none;" d="M92 137L93 138L92 137z"/>
<path style="fill:#f0f1f2; stroke:none;" d="M162 137L163 138L162 137z"/>
<path style="fill:#505459; stroke:none;" d="M163 137L164 138L163 137z"/>
<path style="fill:#6f7377; stroke:none;" d="M204 137L205 138L204 137z"/>
<path style="fill:#505459; stroke:none;" d="M10 138L10 141L11 141L10 138z"/>
<path style="fill:#f0f1f2; stroke:none;" d="M11 138L12 142L13 142L13 138L11 138z"/>
<path style="fill:#505459; stroke:none;" d="M88 138L89 139L88 138z"/>
<path style="fill:#6f7377; stroke:none;" d="M162 138L163 139L162 138z"/>
<path style="fill:#505459; stroke:none;" d="M204.333 138.667L204.667 139.333L204.333 138.667z"/>
<path style="fill:#f0f1f2; stroke:none;" d="M213 143L216 144L222 139L213 143z"/>
<path style="fill:#6f7377; stroke:none;" d="M85 139L86 140L85 139M92 139L92 140L100 140L92 139z"/>
<path style="fill:#505459; stroke:none;" d="M100 139L100 140L104 140L100 139z"/>
<path style="fill:#6f7377; stroke:none;" d="M104 139L105 140L104 139z"/>
<path style="fill:#505459; stroke:none;" d="M162 139L163 140L162 139M178 139L179 140L178 139z"/>
<path style="fill:#6f7377; stroke:none;" d="M179 139L180 140L179 139z"/>
<path style="fill:#96999c; stroke:none;" d="M176 140L178 148L179 148L180 141L184 140L176 140z"/>
<path style="fill:#6f7377; stroke:none;" d="M184 139L185 140L184 139z"/>
<path style="fill:#505459; stroke:none;" d="M185 139L186 140L185 139M200 139L201 140L200 139M85 140L86 141L85 140z"/>
<path style="fill:#6f7377; stroke:none;" d="M105 140L106 141L105 140M161 140L162 141L161 140z"/>
<path style="fill:#505459; stroke:none;" d="M175 140L176 141L175 140z"/>
<path style="fill:#f0f1f2; stroke:none;" d="M177 140L177 141L180 141L177 140M183 142L187 141L183 142z"/>
<path style="fill:#96999c; stroke:none;" d="M183 147L184 147L184 142C188.689 142.987 199.159 149.455 195 155L196 156L199 152L198 150L190 143L190 141L188 140C184.326 141.558 183.308 143.028 183 147z"/>
<path style="fill:#6f7377; stroke:none;" d="M188 140L189 141L188 140z"/>
<path style="fill:#121212; stroke:none;" d="M10 141L12 144L10 141z"/>
<path style="fill:#96999c; stroke:none;" d="M11 141L12 142L11 141z"/>
<path style="fill:#505459; stroke:none;" d="M106 141L107 142L106 141z"/>
<path style="fill:#f0f1f2; stroke:none;" d="M160 141L161 142L160 141z"/>
<path style="fill:#505459; stroke:none;" d="M161 141L162 142L161 141M173 141L174 142L173 141z"/>
<path style="fill:#96999c; stroke:none;" d="M174 141L174 144L175 144L174 141z"/>
<path style="fill:#f0f1f2; stroke:none;" d="M175.667 141.333L176.333 141.667L175.667 141.333z"/>
<path style="fill:#6f7377; stroke:none;" d="M180 141L181 142L180 141z"/>
<path style="fill:#505459; stroke:none;" d="M181 141L182 153L183 153L181 141z"/>
<path style="fill:#6f7377; stroke:none;" d="M182 141L183 142L182 141z"/>
<path style="fill:#f0f1f2; stroke:none;" d="M188 141L189 142L188 141z"/>
<path style="fill:#505459; stroke:none;" d="M190 141L191 142L190 141M201 141L203 143L201 141z"/>
<path style="fill:#6f7377; stroke:none;" d="M248 141L249 142L248 141z"/>
<path style="fill:#505459; stroke:none;" d="M249 141L250 142L249 141z"/>
<path style="fill:#96999c; stroke:none;" d="M12 142L10 147L14 146L12 142z"/>
<path style="fill:#505459; stroke:none;" d="M86 142L87 143L86 142z"/>
<path style="fill:#f0f1f2; stroke:none;" d="M87 142L88 143L87 142z"/>
<path style="fill:#505459; stroke:none;" d="M107 142L108 143L107 142z"/>
<path style="fill:#6f7377; stroke:none;" d="M172 142L173 143L172 142z"/>
<path style="fill:#f0f1f2; stroke:none;" d="M165 152L166 152L175 143C170.276 142.9 166.999 148.146 165 152z"/>
<path style="fill:#6f7377; stroke:none;" d="M176 142L176 143L178 145L179 145L176 142z"/>
<path style="fill:#121212; stroke:none;" d="M180 142L180 158L181 158L182 142L180 142M184 142L184 143L193 153L192 153L184 145L189 156L185 156L185 157L195 154L195 150L184 142z"/>
<path style="fill:#505459; stroke:none;" d="M185.667 142.333L186.333 142.667L185.667 142.333z"/>
<path style="fill:#f0f1f2; stroke:none;" d="M190 142L191 143L190 142z"/>
<path style="fill:#6f7377; stroke:none;" d="M205.333 142.667L205.667 143.333L205.333 142.667M243 142L244 143L243 142z"/>
<path style="fill:#505459; stroke:none;" d="M244.667 142.333L245.333 142.667L244.667 142.333z"/>
<path style="fill:#121212; stroke:none;" d="M214 160L245 153L245 152L224 156C228.944 151.222 243.164 147.744 250 147L250 142C236.301 143.194 220.344 146.666 214 160z"/>
<path style="fill:#6f7377; stroke:none;" d="M108.333 143.667L108.667 144.333L108.333 143.667z"/>
<path style="fill:#505459; stroke:none;" d="M109.667 143.333L110.333 143.667L109.667 143.333M160 143L161 144L160 143z"/>
<path style="fill:#96999c; stroke:none;" d="M171 143L172 144L171 143z"/>
<path style="fill:#505459; stroke:none;" d="M175 143L176 144L175 143z"/>
<path style="fill:#121212; stroke:none;" d="M172 154L168 157C178.028 159.937 177.404 150.549 178 143C171.893 144.836 170.58 147.949 172 154z"/>
<path style="fill:#505459; stroke:none;" d="M184.333 143.667L184.667 144.333L184.333 143.667M187.667 143.333L188.333 143.667L187.667 143.333z"/>
<path style="fill:#f0f1f2; stroke:none;" d="M191 143L192 144L191 143z"/>
<path style="fill:#6f7377; stroke:none;" d="M239 143L240 144L239 143z"/>
<path style="fill:#505459; stroke:none;" d="M240 143L240 144L243 144L240 143M10 144L11 145L10 144z"/>
<path style="fill:#6f7377; stroke:none;" d="M11 144L12 145L11 144M13 144L14 145L13 144z"/>
<path style="fill:#96999c; stroke:none;" d="M109.667 144.333L110.333 144.667L109.667 144.333z"/>
<path style="fill:#6f7377; stroke:none;" d="M111 144L111 145L130 145L111 144z"/>
<path style="fill:#505459; stroke:none;" d="M106 147L98 147L98 148L103 148L103 149L99 149L99 150L132 149L132 144L106 147M169 144L170 145L169 144z"/>
<path style="fill:#96999c; stroke:none;" d="M170 144L171 145L170 144M172 144L173 145L172 144z"/>
<path style="fill:#505459; stroke:none;" d="M173 144L174 145L173 144z"/>
<path style="fill:#6f7377; stroke:none;" d="M185 144L185 145L191 151L192 151L185 144z"/>
<path style="fill:#505459; stroke:none;" d="M189 144L191 146L189 144z"/>
<path style="fill:#6f7377; stroke:none;" d="M190 144L191 145L190 144z"/>
<path style="fill:#505459; stroke:none;" d="M205 144L205 149L206 149L205 144z"/>
<path style="fill:#6f7377; stroke:none;" d="M234 144L235 145L234 144z"/>
<path style="fill:#505459; stroke:none;" d="M235.667 144.333L236.333 144.667L235.667 144.333M87 145L88 146L87 145z"/>
<path style="fill:#f0f1f2; stroke:none;" d="M88 145L89 146L88 145z"/>
<path style="fill:#6f7377; stroke:none;" d="M104.667 145.333L105.333 145.667L104.667 145.333z"/>
<path style="fill:#96999c; stroke:none;" d="M169 145L170 146L169 145z"/>
<path style="fill:#6f7377; stroke:none;" d="M171 145L172 146L171 145z"/>
<path style="fill:#505459; stroke:none;" d="M180 145L179 150L180 150L180 145z"/>
<path style="fill:#6f7377; stroke:none;" d="M191 145L192 146L191 145z"/>
<path style="fill:#f0f1f2; stroke:none;" d="M193 145L194 146L193 145z"/>
<path style="fill:#6f7377; stroke:none;" d="M231 145L232 146L231 145z"/>
<path style="fill:#505459; stroke:none;" d="M232.667 145.333L233.333 145.667L232.667 145.333M15 146L17 148L15 146z"/>
<path style="fill:#6f7377; stroke:none;" d="M100 146L101 147L100 146z"/>
<path style="fill:#121212; stroke:none;" d="M105 146L106 147L105 146M115 146L116 147L115 146M124 146L125 147L124 146z"/>
<path style="fill:#f0f1f2; stroke:none;" d="M158 146L159 147L158 146z"/>
<path style="fill:#505459; stroke:none;" d="M159 146L160 147L159 146M167 146L168 147L167 146z"/>
<path style="fill:#96999c; stroke:none;" d="M168 146L169 147L168 146z"/>
<path style="fill:#6f7377; stroke:none;" d="M170 146L171 147L170 146M179 146L180 147L179 146z"/>
<path style="fill:#505459; stroke:none;" d="M187 146L188 147L187 146M189 146L190 147L189 146M192 146L193 147L192 146M227.667 146.333L228.333 146.667L227.667 146.333M248 146L224 156L247 153L250 151L248 146z"/>
<path style="fill:#96999c; stroke:none;" d="M15 147L16 148L15 147z"/>
<path style="fill:#121212; stroke:none;" d="M97 148L97 149L103 149L97 148z"/>
<path style="fill:#6f7377; stroke:none;" d="M103 149L103 150L127 149C120.276 145.425 109.983 146.636 103 149M128 147L128 148L131 148L128 147z"/>
<path style="fill:#96999c; stroke:none;" d="M167 147L168 148L167 147M169 147L167 150L169 147z"/>
<path style="fill:#505459; stroke:none;" d="M170 147L168 154L165 157L169 158L172 154L170 147M177 147L177 151L178 151L177 147z"/>
<path style="fill:#f0f1f2; stroke:none;" d="M183 147L184 148L183 147z"/>
<path style="fill:#505459; stroke:none;" d="M184 147L184 150L186 149L186 148L184 147M188 147L189 148L188 147z"/>
<path style="fill:#6f7377; stroke:none;" d="M193 147L194 148L193 147z"/>
<path style="fill:#f0f1f2; stroke:none;" d="M195 147L196 150L197 150L195 147z"/>
<path style="fill:#505459; stroke:none;" d="M196 147L197 148L196 147z"/>
<path style="fill:#6f7377; stroke:none;" d="M224 147L225 148L224 147z"/>
<path style="fill:#505459; stroke:none;" d="M225.667 147.333L226.333 147.667L225.667 147.333z"/>
<path style="fill:#96999c; stroke:none;" d="M17.6667 148.333L18.3333 148.667L17.6667 148.333z"/>
<path style="fill:#505459; stroke:none;" d="M19.6667 148.333L20.3333 148.667L19.6667 148.333z"/>
<path style="fill:#6f7377; stroke:none;" d="M88 148L89 149L88 148z"/>
<path style="fill:#f0f1f2; stroke:none;" d="M89 148L90 149L89 148z"/>
<path style="fill:#6f7377; stroke:none;" d="M158 148L159 149L158 148z"/>
<path style="fill:#96999c; stroke:none;" d="M166 148L167 149L166 148z"/>
<path style="fill:#f0f1f2; stroke:none;" d="M178 148L178 152L179 152L178 148z"/>
<path style="fill:#96999c; stroke:none;" d="M183.333 148.667L183.667 149.333L183.333 148.667z"/>
<path style="fill:#505459; stroke:none;" d="M189 148L190 149L189 148M193 148L193 150L195 150L193 148z"/>
<path style="fill:#6f7377; stroke:none;" d="M222 148L223 149L222 148z"/>
<path style="fill:#505459; stroke:none;" d="M223 148L224 149L223 148z"/>
<path style="fill:#96999c; stroke:none;" d="M21.6667 149.333L22.3333 149.667L21.6667 149.333z"/>
<path style="fill:#6f7377; stroke:none;" d="M23 149L24 150L23 149z"/>
<path style="fill:#505459; stroke:none;" d="M24.6667 149.333L25.3333 149.667L24.6667 149.333z"/>
<path style="fill:#6f7377; stroke:none;" d="M97.6667 149.333L98.3333 149.667L97.6667 149.333z"/>
<path style="fill:#505459; stroke:none;" d="M106 149L107 150L106 149M108 149L108 150L120 150L108 149M139.333 149.667L139.667 150.333L139.333 149.667M158 149L159 150L158 149M165 149L166 150L165 149z"/>
<path style="fill:#6f7377; stroke:none;" d="M185 149L185 156L189 155L185 149z"/>
<path style="fill:#505459; stroke:none;" d="M191 149L192 150L191 149z"/>
<path style="fill:#6f7377; stroke:none;" d="M197 149L198 150L197 149M221 149L222 150L221 149z"/>
<path style="fill:#96999c; stroke:none;" d="M28 150L28 151L31 151L28 150z"/>
<path style="fill:#6f7377; stroke:none;" d="M31 150L32 151L31 150z"/>
<path style="fill:#505459; stroke:none;" d="M32 150L32 151L35 151L32 150z"/>
<path style="fill:#6f7377; stroke:none;" d="M87 150L88 151L87 150z"/>
<path style="fill:#96999c; stroke:none;" d="M165 150L166 151L165 150z"/>
<path style="fill:#6f7377; stroke:none;" d="M167 150L168 151L167 150z"/>
<path style="fill:#f0f1f2; stroke:none;" d="M183 150L183 154L184 154L183 150z"/>
<path style="fill:#505459; stroke:none;" d="M192 150L193 153L192 150z"/>
<path style="fill:#6f7377; stroke:none;" d="M195 150L196 151L195 150M206 150L207 151L206 150z"/>
<path style="fill:#505459; stroke:none;" d="M220 150L221 151L220 150z"/>
<path style="fill:#96999c; stroke:none;" d="M8 152L10 154L9 158L10 158L10 156L11 156L12 165L13 165L33 166.92L80 172L80 170C63.5201 170 46.1456 168.589 30 165.116C21.6644 163.322 15.1218 162.903 12 154L20 156L8 152M35 151L35 152L38 152L35 151z"/>
<path style="fill:#6f7377; stroke:none;" d="M38.6667 151.333L39.3333 151.667L38.6667 151.333z"/>
<path style="fill:#505459; stroke:none;" d="M40 151L40 152L43 152L40 151M85 151L86 152L85 151z"/>
<path style="fill:#f0f1f2; stroke:none;" d="M87 151L88 152L87 151z"/>
<path style="fill:#505459; stroke:none;" d="M113 151L114 152L113 151z"/>
<path style="fill:#6f7377; stroke:none;" d="M139 151L140 152L139 151M157 151L158 152L157 151M164 151L165 152L164 151z"/>
<path style="fill:#96999c; stroke:none;" d="M166 151L164 152L164 153L166 151z"/>
<path style="fill:#6f7377; stroke:none;" d="M177.333 151.667L177.667 152.333L177.333 151.667z"/>
<path style="fill:#505459; stroke:none;" d="M187 151L188 152L187 151M194 151L195 154L196 154L196 151L194 151z"/>
<path style="fill:#f0f1f2; stroke:none;" d="M197 151L198 152L197 151z"/>
<path style="fill:#505459; stroke:none;" d="M198 151L199 152L198 151M206.333 151.667L206.667 152.333L206.333 151.667M219 151L220 152L219 151z"/>
<path style="fill:#121212; stroke:none;" d="M246 151L246 152L250 152L246 151z"/>
<path style="fill:#96999c; stroke:none;" d="M45 152L45 153L50 153L45 152z"/>
<path style="fill:#6f7377; stroke:none;" d="M50.6667 152.333L51.3333 152.667L50.6667 152.333z"/>
<path style="fill:#505459; stroke:none;" d="M52 152L52 153L55 153L52 152M82 152L83 153L82 152z"/>
<path style="fill:#96999c; stroke:none;" d="M83.6667 152.333L84.3333 152.667L83.6667 152.333z"/>
<path style="fill:#6f7377; stroke:none;" d="M114 152L113 155L131 155L114 152z"/>
<path style="fill:#505459; stroke:none;" d="M115 152L116 153L115 152z"/>
<path style="fill:#f0f1f2; stroke:none;" d="M156 152L157 153L156 152z"/>
<path style="fill:#505459; stroke:none;" d="M157 152L158 153L157 152z"/>
<path style="fill:#6f7377; stroke:none;" d="M166 152L168 154L168 152L166 152z"/>
<path style="fill:#96999c; stroke:none;" d="M178 152L178 157L179 157L178 152z"/>
<path style="fill:#505459; stroke:none;" d="M184 152L187 158L187 157L184 152M188.333 152.667L188.667 153.333L188.333 152.667M218 152L219 153L218 152z"/>
<path style="fill:#6f7377; stroke:none;" d="M247 152L248 153L247 152z"/>
<path style="fill:#96999c; stroke:none;" d="M55 153L55 154L61 154L55 153z"/>
<path style="fill:#6f7377; stroke:none;" d="M61 153L61 154L64 154L61 153z"/>
<path style="fill:#505459; stroke:none;" d="M64 153L64 154L69 154L64 153M77.6667 153.333L78.3333 153.667L77.6667 153.333z"/>
<path style="fill:#6f7377; stroke:none;" d="M79 153L80 154L79 153z"/>
<path style="fill:#96999c; stroke:none;" d="M80.6667 153.333L81.3333 153.667L80.6667 153.333z"/>
<path style="fill:#505459; stroke:none;" d="M117 153L117 154L120 154L117 153M127 153L127 154L131 154L127 153z"/>
<path style="fill:#6f7377; stroke:none;" d="M138 153L139 154L138 153M163 153L164 154L163 153z"/>
<path style="fill:#f0f1f2; stroke:none;" d="M164 153L165 154L164 153z"/>
<path style="fill:#6f7377; stroke:none;" d="M165 153L166 154L165 153M182 153L182 156L183 156L182 153M196 153L197 154L196 153z"/>
<path style="fill:#f0f1f2; stroke:none;" d="M198 153L197 155L199 155L198 153z"/>
<path style="fill:#6f7377; stroke:none;" d="M217 153L218 154L217 153z"/>
<path style="fill:#505459; stroke:none;" d="M241.667 153.333L242.333 153.667L241.667 153.333z"/>
<path style="fill:#6f7377; stroke:none;" d="M243.667 153.333L244.333 153.667L243.667 153.333M9 154L10 155L9 154M12.3333 154.667L12.6667 155.333L12.3333 154.667z"/>
<path style="fill:#505459; stroke:none;" d="M131 154L133 157L131 154z"/>
<path style="fill:#6f7377; stroke:none;" d="M137 154L138 155L137 154z"/>
<path style="fill:#96999c; stroke:none;" d="M163.667 154.333L164.333 154.667L163.667 154.333M183 154L178 162L176 160L175 160L175 169L174 169L174 165L173 165L174 172L175 172L178 165L177 170L182 177L183 177L182 171L189 173L187 167L191 163L190 163L184 165C185.904 160.841 185.516 157.818 183 154z"/>
<path style="fill:#505459; stroke:none;" d="M194 154L195 155L194 154z"/>
<path style="fill:#6f7377; stroke:none;" d="M199 154L200 155L199 154z"/>
<path style="fill:#505459; stroke:none;" d="M237 154L238 155L237 154z"/>
<path style="fill:#6f7377; stroke:none;" d="M238.667 154.333L239.333 154.667L238.667 154.333M248 154L249 155L248 154z"/>
<path style="fill:#505459; stroke:none;" d="M249 154L250 155L249 154M9 155L10 156L9 155z"/>
<path style="fill:#121212; stroke:none;" d="M13 155C15.7628 163.711 24.0153 163.77 32 165.08C50.1044 168.051 68.6627 170 87 170C86.7092 161.146 77.228 162.195 70 162.015C50.9683 161.541 31.6729 158.621 13 155z"/>
<path style="fill:#505459; stroke:none;" d="M15 155L16 156L15 155z"/>
<path style="fill:#6f7377; stroke:none;" d="M16 155L17 156L16 155z"/>
<path style="fill:#96999c; stroke:none;" d="M23 155L28 157L28 156L23 155z"/>
<path style="fill:#6f7377; stroke:none;" d="M136 155L137 156L136 155M156 155L157 156L156 155z"/>
<path style="fill:#505459; stroke:none;" d="M162 155L163 156L162 155z"/>
<path style="fill:#f0f1f2; stroke:none;" d="M163 155L162 159L165 158L163 155z"/>
<path style="fill:#6f7377; stroke:none;" d="M164 155L165 156L164 155z"/>
<path style="fill:#f0f1f2; stroke:none;" d="M177 155L179 158L177 155z"/>
<path style="fill:#505459; stroke:none;" d="M187.667 155.333L188.333 155.667L187.667 155.333M192 155L193 156L192 155z"/>
<path style="fill:#96999c; stroke:none;" d="M193.333 155.667L193.667 156.333L193.333 155.667z"/>
<path style="fill:#f0f1f2; stroke:none;" d="M194.667 155.333L195.333 155.667L194.667 155.333z"/>
<path style="fill:#6f7377; stroke:none;" d="M197.333 155.667L197.667 156.333L197.333 155.667z"/>
<path style="fill:#96999c; stroke:none;" d="M198 155L197 161L200 155L198 155z"/>
<path style="fill:#6f7377; stroke:none;" d="M207.333 155.667L207.667 156.333L207.333 155.667z"/>
<path style="fill:#505459; stroke:none;" d="M216 155L217 156L216 155M233.667 155.333L234.333 155.667L233.667 155.333z"/>
<path style="fill:#6f7377; stroke:none;" d="M235 155L236 156L235 155M244 155L245 156L244 155z"/>
<path style="fill:#505459; stroke:none;" d="M245.667 155.333L246.333 155.667L245.667 155.333z"/>
<path style="fill:#6f7377; stroke:none;" d="M10 156L11 157L10 156z"/>
<path style="fill:#505459; stroke:none;" d="M13.3333 156.667L13.6667 157.333L13.3333 156.667M20.6667 156.333L21.3333 156.667L20.6667 156.333z"/>
<path style="fill:#6f7377; stroke:none;" d="M22 156L23 157L22 156M133 156L134 157L133 156z"/>
<path style="fill:#505459; stroke:none;" d="M156 156L157 157L156 156z"/>
<path style="fill:#96999c; stroke:none;" d="M162.333 156.667L162.667 157.333L162.333 156.667M164 156L165 157L164 156z"/>
<path style="fill:#505459; stroke:none;" d="M176 156L177 157L176 156z"/>
<path style="fill:#6f7377; stroke:none;" d="M189 156L190 157L189 156z"/>
<path style="fill:#96999c; stroke:none;" d="M190 156L192 158L190 156z"/>
<path style="fill:#f0f1f2; stroke:none;" d="M191.667 156.333L192.333 156.667L191.667 156.333z"/>
<path style="fill:#6f7377; stroke:none;" d="M194 156L195 157L194 156z"/>
<path style="fill:#121212; stroke:none;" d="M195 159L194 159L193 157L185 163L185 164C190.344 163.45 195.332 161.419 197 156L195 159z"/>
<path style="fill:#505459; stroke:none;" d="M215 156L216 157L215 156M217 157L217 158L223 157L217 157M228.667 156.333L229.333 156.667L228.667 156.333z"/>
<path style="fill:#6f7377; stroke:none;" d="M230 156L231 157L230 156M239.667 156.333L240.333 156.667L239.667 156.333z"/>
<path style="fill:#505459; stroke:none;" d="M241.667 156.333L242.333 156.667L241.667 156.333M10.3333 157.667L10.6667 158.333L10.3333 157.667M25.6667 157.333L26.3333 157.667L25.6667 157.333z"/>
<path style="fill:#6f7377; stroke:none;" d="M27.6667 157.333L28.3333 157.667L27.6667 157.333z"/>
<path style="fill:#96999c; stroke:none;" d="M29 157L29 158L33 158L29 157M37 158L37 159L44 159L37 158M68.6667 157.333L69.3333 157.667L68.6667 157.333M165 157L167 159L167 157L165 157z"/>
<path style="fill:#6f7377; stroke:none;" d="M167 157L168 158L167 157M176 157L177 158L176 157z"/>
<path style="fill:#505459; stroke:none;" d="M179 157L180 158L179 157M181 157L182 158L181 157z"/>
<path style="fill:#6f7377; stroke:none;" d="M187 157L188 158L187 157z"/>
<path style="fill:#96999c; stroke:none;" d="M188 157L187 160L190 158L188 157z"/>
<path style="fill:#f0f1f2; stroke:none;" d="M189.667 157.333L190.333 157.667L189.667 157.333z"/>
<path style="fill:#505459; stroke:none;" d="M192 157L193 158L192 157M194.333 157.667L194.667 158.333L194.333 157.667M197.333 157.667L197.667 158.333L197.333 157.667M200.333 157.667L200.667 158.333L200.333 157.667M207 157L207 164L208 164L207 157M224.667 157.333L225.333 157.667L224.667 157.333z"/>
<path style="fill:#6f7377; stroke:none;" d="M226 157L227 158L226 157M235.667 157.333L236.333 157.667L235.667 157.333z"/>
<path style="fill:#505459; stroke:none;" d="M237.667 157.333L238.333 157.667L237.667 157.333z"/>
<path style="fill:#6f7377; stroke:none;" d="M13 158L14 159L13 158z"/>
<path style="fill:#505459; stroke:none;" d="M33 158L33 159L36 159L33 158z"/>
<path style="fill:#6f7377; stroke:none;" d="M36 158L37 159L36 158z"/>
<path style="fill:#96999c; stroke:none;" d="M45 159L45 160L54 159L45 159z"/>
<path style="fill:#f0f1f2; stroke:none;" d="M63 158L64 159L63 158z"/>
<path style="fill:#505459; stroke:none;" d="M161 158L162 159L161 158M163.667 158.333L164.333 158.667L163.667 158.333z"/>
<path style="fill:#6f7377; stroke:none;" d="M165 158L166 159L165 158z"/>
<path style="fill:#f0f1f2; stroke:none;" d="M167 158L167 159L176 160L167 158z"/>
<path style="fill:#96999c; stroke:none;" d="M171.667 158.333L172.333 158.667L171.667 158.333z"/>
<path style="fill:#6f7377; stroke:none;" d="M173 158L174 159L173 158z"/>
<path style="fill:#505459; stroke:none;" d="M174 158L175 159L174 158z"/>
<path style="fill:#96999c; stroke:none;" d="M175.667 158.333L176.333 158.667L175.667 158.333z"/>
<path style="fill:#505459; stroke:none;" d="M176 159L176 160L179 160L176 159z"/>
<path style="fill:#6f7377; stroke:none;" d="M178 158L179 159L178 158M182.667 158.333L183.333 158.667L182.667 158.333z"/>
<path style="fill:#f0f1f2; stroke:none;" d="M185 158L186 160L187 160L188 158L185 158z"/>
<path style="fill:#505459; stroke:none;" d="M190 158L190 161L189 161L185 163C188.32 162.618 191.291 161.808 190 158z"/>
<path style="fill:#f0f1f2; stroke:none;" d="M199 158L199 169L200 169L199 158z"/>
<path style="fill:#505459; stroke:none;" d="M214 158L215 159L214 158M219.667 158.333L220.333 158.667L219.667 158.333z"/>
<path style="fill:#6f7377; stroke:none;" d="M221 158L222 159L221 158M231 158L232 159L231 158z"/>
<path style="fill:#505459; stroke:none;" d="M232.667 158.333L233.333 158.667L232.667 158.333z"/>
<path style="fill:#6f7377; stroke:none;" d="M10.6667 159.333L11.3333 159.667L10.6667 159.333z"/>
<path style="fill:#505459; stroke:none;" d="M41.6667 159.333L42.3333 159.667L41.6667 159.333z"/>
<path style="fill:#6f7377; stroke:none;" d="M43.6667 159.333L44.3333 159.667L43.6667 159.333M155 159L156 160L155 159z"/>
<path style="fill:#96999c; stroke:none;" d="M161 159L162 164L163 164L164 164L163 159L161 159z"/>
<path style="fill:#121212; stroke:none;" d="M163 159C164.632 163.765 171.975 167.042 174 161L163 159z"/>
<path style="fill:#505459; stroke:none;" d="M167.667 159.333L168.333 159.667L167.667 159.333z"/>
<path style="fill:#96999c; stroke:none;" d="M169.667 159.333L170.333 159.667L169.667 159.333z"/>
<path style="fill:#121212; stroke:none;" d="M177 159L176 162L177 159z"/>
<path style="fill:#505459; stroke:none;" d="M181 159L183 163L183 162L181 159z"/>
<path style="fill:#121212; stroke:none;" d="M182 159L181 160L181 161L181 162L184 159L182 159z"/>
<path style="fill:#505459; stroke:none;" d="M184.333 159.667L184.667 160.333L184.333 159.667z"/>
<path style="fill:#6f7377; stroke:none;" d="M189.333 159.667L189.667 160.333L189.333 159.667z"/>
<path style="fill:#505459; stroke:none;" d="M196 159L197 160L196 159z"/>
<path style="fill:#6f7377; stroke:none;" d="M200 159L201 160L200 159z"/>
<path style="fill:#505459; stroke:none;" d="M215.667 159.333L216.333 159.667L215.667 159.333z"/>
<path style="fill:#6f7377; stroke:none;" d="M217 159L218 160L217 159M227 159L228 160L227 159z"/>
<path style="fill:#505459; stroke:none;" d="M228.667 159.333L229.333 159.667L228.667 159.333M11 160L12 161L11 160M14 160L15 161L14 160M51 160L51 161L54 161L51 160z"/>
<path style="fill:#6f7377; stroke:none;" d="M54.6667 160.333L55.3333 160.667L54.6667 160.333z"/>
<path style="fill:#505459; stroke:none;" d="M155 160L156 161L155 160z"/>
<path style="fill:#6f7377; stroke:none;" d="M162 160L163 161L162 160z"/>
<path style="fill:#505459; stroke:none;" d="M172 160L173 161L172 160z"/>
<path style="fill:#96999c; stroke:none;" d="M173 160L174 161L173 160z"/>
<path style="fill:#6f7377; stroke:none;" d="M186 160L187 161L186 160z"/>
<path style="fill:#505459; stroke:none;" d="M194 160L195 161L194 160z"/>
<path style="fill:#96999c; stroke:none;" d="M195 160L194 163L195 160z"/>
<path style="fill:#f0f1f2; stroke:none;" d="M196 160L197 161L196 160z"/>
<path style="fill:#96999c; stroke:none;" d="M200 160L200 167L201 167L200 160z"/>
<path style="fill:#6f7377; stroke:none;" d="M222 160L223 161L222 160z"/>
<path style="fill:#505459; stroke:none;" d="M223.667 160.333L224.333 160.667L223.667 160.333M249 160L246 163C248.348 162.706 249.951 162.507 249 160z"/>
<path style="fill:#6f7377; stroke:none;" d="M11.6667 161.333L12.3333 161.667L11.6667 161.333z"/>
<path style="fill:#505459; stroke:none;" d="M15 161L16 162L15 161M60 161L60 162L63 162L60 161z"/>
<path style="fill:#6f7377; stroke:none;" d="M63 161L63 162L66 162L63 161z"/>
<path style="fill:#f0f1f2; stroke:none;" d="M77.6667 161.333L78.3333 161.667L77.6667 161.333M161 161L161 166L162 166L161 161z"/>
<path style="fill:#505459; stroke:none;" d="M174.333 161.667L174.667 162.333L174.333 161.667z"/>
<path style="fill:#6f7377; stroke:none;" d="M177 161L178 162L177 161M184 161L185 162L184 161M188 161L189 162L188 161M193 161L194 162L193 161z"/>
<path style="fill:#505459; stroke:none;" d="M193 163L195 168L196 168L196 162L197 162L196 171L198 161L193 163z"/>
<path style="fill:#6f7377; stroke:none;" d="M198 161L198 167L199 167L198 161M218 161L219 162L218 161z"/>
<path style="fill:#505459; stroke:none;" d="M219.667 161.333L220.333 161.667L219.667 161.333M18.6667 162.333L19.3333 162.667L18.6667 162.333M75 162L75 163L80 163L75 162z"/>
<path style="fill:#6f7377; stroke:none;" d="M80 162L80 163L83 163L80 162z"/>
<path style="fill:#505459; stroke:none;" d="M160.333 162.667L160.667 163.333L160.333 162.667M164 162L165 163L164 162z"/>
<path style="fill:#f0f1f2; stroke:none;" d="M175 162L174 165L175 162z"/>
<path style="fill:#6f7377; stroke:none;" d="M191 162L192 163L191 162z"/>
<path style="fill:#96999c; stroke:none;" d="M192.333 162.667L192.667 163.333L192.333 162.667z"/>
<path style="fill:#f0f1f2; stroke:none;" d="M193 162L194 163L193 162z"/>
<path style="fill:#121212; stroke:none;" d="M196 162L193 180L194 180C195.418 174.048 198.547 168.074 196 162z"/>
<path style="fill:#6f7377; stroke:none;" d="M213.667 162.333L214.333 162.667L213.667 162.333z"/>
<path style="fill:#505459; stroke:none;" d="M215.667 162.333L216.333 162.667L215.667 162.333z"/>
<path style="fill:#6f7377; stroke:none;" d="M13 163L14 164L13 163z"/>
<path style="fill:#505459; stroke:none;" d="M14 163L15 164L14 163z"/>
<path style="fill:#6f7377; stroke:none;" d="M15 163L16 164L15 163M21 163L22 164L21 163z"/>
<path style="fill:#505459; stroke:none;" d="M22 163L23 164L22 163M86 163L87 164L86 163z"/>
<path style="fill:#f0f1f2; stroke:none;" d="M164 163L165 164L164 163z"/>
<path style="fill:#96999c; stroke:none;" d="M165.333 163.667L165.667 164.333L165.333 163.667z"/>
<path style="fill:#505459; stroke:none;" d="M166 163L167 164L166 163z"/>
<path style="fill:#96999c; stroke:none;" d="M174 163L175 164L174 163z"/>
<path style="fill:#6f7377; stroke:none;" d="M177 163L177 164L180 165L180 164L180 163L177 163z"/>
<path style="fill:#505459; stroke:none;" d="M178 163L179 164L178 163M189 163L190 164L189 163z"/>
<path style="fill:#f0f1f2; stroke:none;" d="M191 163L192 164L191 163M208 163L209 164L208 163z"/>
<path style="fill:#6f7377; stroke:none;" d="M209.667 163.333L210.333 163.667L209.667 163.333z"/>
<path style="fill:#505459; stroke:none;" d="M211.667 163.333L212.333 163.667L211.667 163.333M13 164L14 165L13 164M19 164L20 165L19 164z"/>
<path style="fill:#6f7377; stroke:none;" d="M20 164L21 165L20 164M27 164L28 165L27 164z"/>
<path style="fill:#505459; stroke:none;" d="M28 164L29 165L28 164z"/>
<path style="fill:#6f7377; stroke:none;" d="M87.3333 164.667L87.6667 165.333L87.3333 164.667M105 164L105 165L112 165L105 164z"/>
<path style="fill:#505459; stroke:none;" d="M112 164L112 165L133 165L112 164z"/>
<path style="fill:#121212; stroke:none;" d="M106 165L106 171L98 171L98 172C108.895 172 134.028 177.05 138 164L106 165z"/>
<path style="fill:#6f7377; stroke:none;" d="M154 164L155 165L154 164M160.333 164.667L160.667 165.333L160.333 164.667z"/>
<path style="fill:#505459; stroke:none;" d="M162 164L163 165L162 164z"/>
<path style="fill:#121212; stroke:none;" d="M163 164L163 176L164 176L164 173C167.882 174.178 168.699 176.048 169 180C175.116 171.824 171.222 167.424 163 164z"/>
<path style="fill:#505459; stroke:none;" d="M164 164L165 165L164 164z"/>
<path style="fill:#f0f1f2; stroke:none;" d="M166 164L166 165L173 168L166 164z"/>
<path style="fill:#96999c; stroke:none;" d="M168 164L169 165L168 164z"/>
<path style="fill:#505459; stroke:none;" d="M169 164L170 165L169 164M173 164L174 165L173 164z"/>
<path style="fill:#f0f1f2; stroke:none;" d="M184 164L185 165L184 164z"/>
<path style="fill:#505459; stroke:none;" d="M185.667 164.333L186.333 164.667L185.667 164.333z"/>
<path style="fill:#6f7377; stroke:none;" d="M187 164L188 165L187 164z"/>
<path style="fill:#f0f1f2; stroke:none;" d="M189 164L190 165L189 164z"/>
<path style="fill:#6f7377; stroke:none;" d="M191 164L187 167L189 171L190 171L191 164z"/>
<path style="fill:#121212; stroke:none;" d="M192 164L191 176L194 164L192 164z"/>
<path style="fill:#6f7377; stroke:none;" d="M194 164L192 176L189 176L189 177L192 177C194.157 172.885 195.867 168.49 194 164z"/>
<path style="fill:#505459; stroke:none;" d="M12 165L13 166L12 165M22.6667 165.333L23.3333 165.667L22.6667 165.333z"/>
<path style="fill:#6f7377; stroke:none;" d="M24 165L25 166L24 165M31.6667 165.333L32.3333 165.667L31.6667 165.333z"/>
<path style="fill:#505459; stroke:none;" d="M33.6667 165.333L34.3333 165.667L33.6667 165.333M105 165L105 169L106 169L105 165M154 165L155 166L154 165z"/>
<path style="fill:#6f7377; stroke:none;" d="M166 165L167 166L166 165z"/>
<path style="fill:#96999c; stroke:none;" d="M167 165L168 166L167 165M170 165L171 166L170 165z"/>
<path style="fill:#6f7377; stroke:none;" d="M171.667 165.333L172.333 165.667L171.667 165.333z"/>
<path style="fill:#505459; stroke:none;" d="M174 165L175 166L174 165z"/>
<path style="fill:#6f7377; stroke:none;" d="M177 165L179 168L177 165M183 165L184 166L183 165z"/>
<path style="fill:#f0f1f2; stroke:none;" d="M188 165L189 166L188 165z"/>
<path style="fill:#6f7377; stroke:none;" d="M11 166L12 167L11 166z"/>
<path style="fill:#505459; stroke:none;" d="M28.6667 166.333L29.3333 166.667L28.6667 166.333z"/>
<path style="fill:#6f7377; stroke:none;" d="M30 166L31 167L30 166M39 166L40 167L39 166z"/>
<path style="fill:#505459; stroke:none;" d="M40 166L40 167L43 167L40 166M87 166L87 170L88 170L87 166M137 166L138 167L137 166z"/>
<path style="fill:#96999c; stroke:none;" d="M160 166L160 170L162 170L162 166L160 166z"/>
<path style="fill:#505459; stroke:none;" d="M168 166L169 167L168 166z"/>
<path style="fill:#96999c; stroke:none;" d="M169 166L170 167L169 166z"/>
<path style="fill:#121212; stroke:none;" d="M174 166L174 169L175 169L174 166z"/>
<path style="fill:#505459; stroke:none;" d="M181 166L182 167L181 166z"/>
<path style="fill:#121212; stroke:none;" d="M181 167L185 170L185 166L181 167z"/>
<path style="fill:#6f7377; stroke:none;" d="M185 166L186 167L185 166z"/>
<path style="fill:#505459; stroke:none;" d="M33.6667 167.333L34.3333 167.667L33.6667 167.333z"/>
<path style="fill:#6f7377; stroke:none;" d="M35.6667 167.333L36.3333 167.667L35.6667 167.333M45.6667 167.333L46.3333 167.667L45.6667 167.333z"/>
<path style="fill:#505459; stroke:none;" d="M47 167L47 168L50 168L47 167M170 167L171 168L170 167z"/>
<path style="fill:#96999c; stroke:none;" d="M171 167L172 168L171 167z"/>
<path style="fill:#f0f1f2; stroke:none;" d="M176 167L174 171L177 172L176 167z"/>
<path style="fill:#505459; stroke:none;" d="M185.333 167.667L185.667 168.333L185.333 167.667z"/>
<path style="fill:#96999c; stroke:none;" d="M198 167L195 180L191 179L191 180L192 182L196 182C197.242 176.891 201.257 172.043 198 167z"/>
<path style="fill:#6f7377; stroke:none;" d="M200.333 167.667L200.667 168.333L200.333 167.667z"/>
<path style="fill:#505459; stroke:none;" d="M10 168L10 172L11 172L10 168M41 168L41 169L44 169L41 168z"/>
<path style="fill:#6f7377; stroke:none;" d="M44 168L45 169L44 168M55.6667 168.333L56.3333 168.667L55.6667 168.333z"/>
<path style="fill:#505459; stroke:none;" d="M57 168L57 169L61 169L57 168M136 168L137 169L136 168z"/>
<path style="fill:#6f7377; stroke:none;" d="M153.333 168.667L153.667 169.333L153.333 168.667z"/>
<path style="fill:#505459; stroke:none;" d="M172 168L173 169L172 168M181 168L182 169L181 168M187 168L189 171L187 168M190 168L191 169L190 168M48 169L48 170L51 170L48 169z"/>
<path style="fill:#6f7377; stroke:none;" d="M51 169L52 170L51 169M64 169L64 170L67 170L64 169z"/>
<path style="fill:#505459; stroke:none;" d="M67 169L67 170L71 170L67 169z"/>
<path style="fill:#6f7377; stroke:none;" d="M105 169L106 170L105 169z"/>
<path style="fill:#f0f1f2; stroke:none;" d="M173 169L174 170L173 169z"/>
<path style="fill:#6f7377; stroke:none;" d="M178 169L179 170L178 169z"/>
<path style="fill:#505459; stroke:none;" d="M182 169L183 170L182 169M200 169L201 170L200 169z"/>
<path style="fill:#96999c; stroke:none;" d="M9 170L10 171L9 170z"/>
<path style="fill:#505459; stroke:none;" d="M58 170L58 171L61 171L58 170z"/>
<path style="fill:#6f7377; stroke:none;" d="M61.6667 170.333L62.3333 170.667L61.6667 170.333M80 170L80 171L85 171L80 170z"/>
<path style="fill:#505459; stroke:none;" d="M85 170L86 171L85 170z"/>
<path style="fill:#6f7377; stroke:none;" d="M86 170L87 171L86 170M102.667 170.333L103.333 170.667L102.667 170.333z"/>
<path style="fill:#505459; stroke:none;" d="M104.667 170.333L105.333 170.667L104.667 170.333M134 170L135 171L134 170M153.333 170.667L153.667 171.333L153.333 170.667z"/>
<path style="fill:#6f7377; stroke:none;" d="M160.333 170.667L160.667 171.333L160.333 170.667z"/>
<path style="fill:#f0f1f2; stroke:none;" d="M161 170C161.621 183.581 169.474 191.963 183 192L183 191C168.792 190.349 166.267 180.868 161 170z"/>
<path style="fill:#121212; stroke:none;" d="M177 170L180 174L177 170z"/>
<path style="fill:#505459; stroke:none;" d="M179 170L180 171L179 170M193 170L194 171L193 170M67 171L67 172L70 172L67 171z"/>
<path style="fill:#6f7377; stroke:none;" d="M70 171L70 172L73 172L70 171z"/>
<path style="fill:#f0f1f2; stroke:none;" d="M80 171L80 172L84 172L80 171z"/>
<path style="fill:#505459; stroke:none;" d="M92 171L92 172L121 173L92 171M131.667 171.333L132.333 171.667L131.667 171.333z"/>
<path style="fill:#f0f1f2; stroke:none;" d="M173 171L173 174L174 174L173 171z"/>
<path style="fill:#505459; stroke:none;" d="M175 171L176 172L175 171z"/>
<path style="fill:#6f7377; stroke:none;" d="M182 171L183 172L182 171z"/>
<path style="fill:#505459; stroke:none;" d="M183.667 171.333L184.333 171.667L183.667 171.333z"/>
<path style="fill:#6f7377; stroke:none;" d="M185 171L186 172L185 171z"/>
<path style="fill:#505459; stroke:none;" d="M189 171L190 172L189 171M194.333 171.667L194.667 172.333L194.333 171.667z"/>
<path style="fill:#6f7377; stroke:none;" d="M197 171L198 172L197 171z"/>
<path style="fill:#505459; stroke:none;" d="M81 172L81 173L85 173L81 172z"/>
<path style="fill:#6f7377; stroke:none;" d="M85 172L85 173L88 173L85 172M121 172L121 173L126 173L121 172z"/>
<path style="fill:#505459; stroke:none;" d="M160.333 172.667L160.667 173.333L160.333 172.667M162 172L163 173L162 172M172 172L173 173L172 172z"/>
<path style="fill:#6f7377; stroke:none;" d="M174 172L175 173L174 172z"/>
<path style="fill:#121212; stroke:none;" d="M175 172L170 187C174.107 183.479 178.35 177.155 175 172z"/>
<path style="fill:#96999c; stroke:none;" d="M176.667 172.333L177.333 172.667L176.667 172.333z"/>
<path style="fill:#6f7377; stroke:none;" d="M180 172L181 173L180 172z"/>
<path style="fill:#121212; stroke:none;" d="M182 172L190 184C192.136 178.344 187.507 172.87 182 172z"/>
<path style="fill:#505459; stroke:none;" d="M186 172L187 173L186 172z"/>
<path style="fill:#6f7377; stroke:none;" d="M199 172L200 173L199 172M10 173L11 174L10 173z"/>
<path style="fill:#505459; stroke:none;" d="M90 173L91 174L90 173z"/>
<path style="fill:#6f7377; stroke:none;" d="M162 173L163 174L162 173z"/>
<path style="fill:#505459; stroke:none;" d="M164 173L165 182L170 181C168.93 176.735 168.767 173.795 164 173z"/>
<path style="fill:#6f7377; stroke:none;" d="M172 173L173 174L172 173z"/>
<path style="fill:#505459; stroke:none;" d="M174 173L175 174L174 173M176 173L177 174L176 173z"/>
<path style="fill:#f0f1f2; stroke:none;" d="M177 173L177 178L178 178L181 175L181 174L177 173z"/>
<path style="fill:#505459; stroke:none;" d="M178 173L179 174L178 173z"/>
<path style="fill:#6f7377; stroke:none;" d="M187 173L188 174L187 173z"/>
<path style="fill:#f0f1f2; stroke:none;" d="M188 173L189 174L188 173z"/>
<path style="fill:#505459; stroke:none;" d="M189 173L190 174L189 173M192 173L193 174L192 173M196 173L194 177L196 173z"/>
<path style="fill:#f0f1f2; stroke:none;" d="M198.333 173.667L198.667 174.333L198.333 173.667z"/>
<path style="fill:#505459; stroke:none;" d="M199 173L200 174L199 173z"/>
<path style="fill:#96999c; stroke:none;" d="M11 174L12 175L11 174z"/>
<path style="fill:#6f7377; stroke:none;" d="M93 174L94 175L93 174M150 174L151 175L150 174z"/>
<path style="fill:#505459; stroke:none;" d="M151.667 174.333L152.333 174.667L151.667 174.333z"/>
<path style="fill:#96999c; stroke:none;" d="M162 174L163 175L162 174M172.667 174.333L173.333 174.667L172.667 174.333M177.333 174.667L177.667 175.333L177.333 174.667M188.667 174.333L189.333 174.667L188.667 174.333z"/>
<path style="fill:#505459; stroke:none;" d="M193 174L194 175L193 174z"/>
<path style="fill:#6f7377; stroke:none;" d="M13 175L14 176L13 175M94 175L95 176L94 175M138 175L138 176L143 176L138 175z"/>
<path style="fill:#505459; stroke:none;" d="M143 175L143 176L147 176L143 175z"/>
<path style="fill:#96999c; stroke:none;" d="M161.333 175.667L161.667 176.333L161.333 175.667z"/>
<path style="fill:#505459; stroke:none;" d="M171 175L172 176L171 175z"/>
<path style="fill:#f0f1f2; stroke:none;" d="M172 175L173 176L172 175z"/>
<path style="fill:#505459; stroke:none;" d="M173 175L174 176L173 175z"/>
<path style="fill:#96999c; stroke:none;" d="M179 175L178 177L179 175z"/>
<path style="fill:#6f7377; stroke:none;" d="M180 175L181 176L180 175z"/>
<path style="fill:#f0f1f2; stroke:none;" d="M182 175L187 181L182 175z"/>
<path style="fill:#6f7377; stroke:none;" d="M183 175L184 176L183 175z"/>
<path style="fill:#505459; stroke:none;" d="M188 175L189 176L188 175z"/>
<path style="fill:#f0f1f2; stroke:none;" d="M189 175L190 176L189 175z"/>
<path style="fill:#6f7377; stroke:none;" d="M196 175L197 176L196 175z"/>
<path style="fill:#96999c; stroke:none;" d="M15 176L16 177L15 176z"/>
<path style="fill:#6f7377; stroke:none;" d="M16 176L17 177L16 176z"/>
<path style="fill:#505459; stroke:none;" d="M108 176L108 177L120 177L108 176z"/>
<path style="fill:#96999c; stroke:none;" d="M171 176L171 178L173 176L171 176z"/>
<path style="fill:#121212; stroke:none;" d="M179 176L179 177L182 178L174 187L185 185L181 188L181 189C190.532 186.448 185.682 179.125 179 176z"/>
<path style="fill:#505459; stroke:none;" d="M181 176L182 177L181 176M184 176L185 177L184 176z"/>
<path style="fill:#f0f1f2; stroke:none;" d="M190 176L192 179L190 176z"/>
<path style="fill:#505459; stroke:none;" d="M192 176L193 177L192 176M198 176L199 177L198 176z"/>
<path style="fill:#96999c; stroke:none;" d="M18 177L19 178L18 177z"/>
<path style="fill:#505459; stroke:none;" d="M19 177L20 178L19 177z"/>
<path style="fill:#6f7377; stroke:none;" d="M161 177L162 178L161 177M163 177L164 178L163 177M172 177L173 178L172 177z"/>
<path style="fill:#505459; stroke:none;" d="M176 177L177 178L176 177z"/>
<path style="fill:#6f7377; stroke:none;" d="M178 177L179 178L178 177z"/>
<path style="fill:#505459; stroke:none;" d="M179 177L177 182L182 178L179 177M182 177L183 178L182 177z"/>
<path style="fill:#96999c; stroke:none;" d="M184 177L185 178L184 177z"/>
<path style="fill:#505459; stroke:none;" d="M189 177L190 178L189 177z"/>
<path style="fill:#96999c; stroke:none;" d="M191 177L192 178L191 177z"/>
<path style="fill:#6f7377; stroke:none;" d="M195 177L196 178L195 177z"/>
<path style="fill:#96999c; stroke:none;" d="M22 178L23 179L22 178z"/>
<path style="fill:#6f7377; stroke:none;" d="M23 178L24 179L23 178z"/>
<path style="fill:#505459; stroke:none;" d="M24.6667 178.333L25.3333 178.667L24.6667 178.333M161 178L162 179L161 178z"/>
<path style="fill:#96999c; stroke:none;" d="M162.333 178.667L162.667 179.333L162.333 178.667z"/>
<path style="fill:#505459; stroke:none;" d="M170 178L171 179L170 178z"/>
<path style="fill:#f0f1f2; stroke:none;" d="M171 178L172 179L171 178z"/>
<path style="fill:#505459; stroke:none;" d="M172 178L173 179L172 178z"/>
<path style="fill:#96999c; stroke:none;" d="M176.667 178.333L177.333 178.667L176.667 178.333z"/>
<path style="fill:#505459; stroke:none;" d="M183 178L184 179L183 178z"/>
<path style="fill:#96999c; stroke:none;" d="M185 178L186 179L185 178z"/>
<path style="fill:#505459; stroke:none;" d="M190 178L191 179L190 178M192 178L193 179L192 178M194 178L195 179L194 178z"/>
<path style="fill:#f0f1f2; stroke:none;" d="M196.333 178.667L196.667 179.333L196.333 178.667z"/>
<path style="fill:#6f7377; stroke:none;" d="M197 178L198 179L197 178z"/>
<path style="fill:#96999c; stroke:none;" d="M26.6667 179.333L27.3333 179.667L26.6667 179.333z"/>
<path style="fill:#6f7377; stroke:none;" d="M28 179L29 180L28 179z"/>
<path style="fill:#505459; stroke:none;" d="M29 179L30 180L29 179z"/>
<path style="fill:#96999c; stroke:none;" d="M170.667 179.333L171.333 179.667L170.667 179.333z"/>
<path style="fill:#505459; stroke:none;" d="M175 179L176 180L175 179z"/>
<path style="fill:#f0f1f2; stroke:none;" d="M176 179L177 180L176 179z"/>
<path style="fill:#6f7377; stroke:none;" d="M177 179L178 180L177 179M184 179L185 180L184 179M186 179L187 180L186 179M194 179L195 180L194 179z"/>
<path style="fill:#96999c; stroke:none;" d="M32 180L33 181L32 180z"/>
<path style="fill:#6f7377; stroke:none;" d="M33 180L34 181L33 180z"/>
<path style="fill:#505459; stroke:none;" d="M34.6667 180.333L35.3333 180.667L34.6667 180.333M162 180L163 181L162 180z"/>
<path style="fill:#f0f1f2; stroke:none;" d="M170 180L171 181L170 180z"/>
<path style="fill:#505459; stroke:none;" d="M171 180L172 181L171 180z"/>
<path style="fill:#96999c; stroke:none;" d="M175.667 180.333L176.333 180.667L175.667 180.333z"/>
<path style="fill:#6f7377; stroke:none;" d="M185 180L186 181L185 180z"/>
<path style="fill:#505459; stroke:none;" d="M187 180L189 182L187 180z"/>
<path style="fill:#6f7377; stroke:none;" d="M191 180L192 181L191 180z"/>
<path style="fill:#f0f1f2; stroke:none;" d="M192 180L193 181L192 180z"/>
<path style="fill:#6f7377; stroke:none;" d="M196 180L197 181L196 180z"/>
<path style="fill:#96999c; stroke:none;" d="M36.6667 181.333L37.3333 181.667L36.6667 181.333z"/>
<path style="fill:#6f7377; stroke:none;" d="M38 181L39 182L38 181z"/>
<path style="fill:#505459; stroke:none;" d="M39 181L40 182L39 181z"/>
<path style="fill:#96999c; stroke:none;" d="M163 181L164 182L163 181z"/>
<path style="fill:#121212; stroke:none;" d="M166 183L169 181L166 183z"/>
<path style="fill:#6f7377; stroke:none;" d="M169 181L171 183L169 181z"/>
<path style="fill:#96999c; stroke:none;" d="M170 181L171 182L170 181z"/>
<path style="fill:#505459; stroke:none;" d="M174 181L175 182L174 181z"/>
<path style="fill:#f0f1f2; stroke:none;" d="M175 181L176 182L175 181z"/>
<path style="fill:#6f7377; stroke:none;" d="M176 181L177 182L176 181z"/>
<path style="fill:#96999c; stroke:none;" d="M186 181L189 183L186 181z"/>
<path style="fill:#505459; stroke:none;" d="M191.333 181.667L191.667 182.333L191.333 181.667z"/>
<path style="fill:#f0f1f2; stroke:none;" d="M193 181L193 184L195 183L195 182L193 181z"/>
<path style="fill:#96999c; stroke:none;" d="M41.3333 182.667L41.6667 183.333L41.3333 182.667z"/>
<path style="fill:#6f7377; stroke:none;" d="M42.3333 182.667L42.6667 183.333L42.3333 182.667z"/>
<path style="fill:#505459; stroke:none;" d="M43.3333 182.667L43.6667 183.333L43.3333 182.667M163 182L164 183L163 182z"/>
<path style="fill:#96999c; stroke:none;" d="M169 182L167 184L167 185L169 182M174.667 182.333L175.333 182.667L174.667 182.333z"/>
<path style="fill:#6f7377; stroke:none;" d="M192 182L190 185L192 182z"/>
<path style="fill:#505459; stroke:none;" d="M195 182L196 183L195 182M245 183L245 184L249 183L245 183z"/>
<path style="fill:#6f7377; stroke:none;" d="M249 182L250 183L249 182z"/>
<path style="fill:#96999c; stroke:none;" d="M164 183L165 184L164 183M166 183L167 184L166 183z"/>
<path style="fill:#505459; stroke:none;" d="M168 183L169 184L168 183M173 183L174 184L173 183z"/>
<path style="fill:#f0f1f2; stroke:none;" d="M174 183L175 184L174 183z"/>
<path style="fill:#505459; stroke:none;" d="M175 183L176 184L175 183M187 183L186 188L190 183L187 183z"/>
<path style="fill:#f0f1f2; stroke:none;" d="M188 183L189 184L188 183z"/>
<path style="fill:#96999c; stroke:none;" d="M192 183L191 187L190 187L190 184L189 184C185.742 188.315 182.339 189.752 177 190L177 191C181.623 191.185 185.193 192.274 188 188L194 184L192 183M194 183L195 184L194 183z"/>
<path style="fill:#6f7377; stroke:none;" d="M247 183L248 184L247 183z"/>
<path style="fill:#96999c; stroke:none;" d="M248.667 183.333L249.333 183.667L248.667 183.333M36.6667 184.333L37.3333 184.667L36.6667 184.333z"/>
<path style="fill:#6f7377; stroke:none;" d="M38 184L39 185L38 184z"/>
<path style="fill:#505459; stroke:none;" d="M39 184L40 185L39 184z"/>
<path style="fill:#96999c; stroke:none;" d="M165 184L166 185L165 184z"/>
<path style="fill:#6f7377; stroke:none;" d="M169 184L170 185L169 184z"/>
<path style="fill:#96999c; stroke:none;" d="M173.667 184.333L174.333 184.667L173.667 184.333z"/>
<path style="fill:#505459; stroke:none;" d="M185 184L186 185L185 184M239 185L239 186L243 185L239 185z"/>
<path style="fill:#6f7377; stroke:none;" d="M243 184L244 185L243 184z"/>
<path style="fill:#96999c; stroke:none;" d="M244 184L244 185L247 185L244 184M33.6667 185.333L34.3333 185.667L33.6667 185.333z"/>
<path style="fill:#6f7377; stroke:none;" d="M35 185L36 186L35 185z"/>
<path style="fill:#505459; stroke:none;" d="M144 215L144 214C116.006 214 87.0278 210.271 60 202.706C53.8555 200.986 27.3141 195.227 39 186C34.1117 184.574 24.9308 190.091 30.3225 195.363C37.3012 202.186 51.8507 203.914 61 205.989C88.6221 212.254 115.733 215 144 215z"/>
<path style="fill:#6f7377; stroke:none;" d="M165 185L166 186L165 185z"/>
<path style="fill:#505459; stroke:none;" d="M172 185L171 187L172 185z"/>
<path style="fill:#f0f1f2; stroke:none;" d="M173 185L172 187L173 185z"/>
<path style="fill:#505459; stroke:none;" d="M174 185L175 186L174 185M182 188L185 185L182 188z"/>
<path style="fill:#f0f1f2; stroke:none;" d="M190.333 185.667L190.667 186.333L190.333 185.667z"/>
<path style="fill:#6f7377; stroke:none;" d="M241 185L242 186L241 185z"/>
<path style="fill:#96999c; stroke:none;" d="M242.667 185.333L243.333 185.667L242.667 185.333M137 217L137 216C108.023 216 79.1143 212.677 51 205.265C43.9924 203.418 14.0311 195.934 31 187C25.9316 185.936 13.1702 191.141 19.3225 197.613C26.3431 205 41.5468 206.511 51 208.65C80.0045 215.213 107.503 217.244 137 217z"/>
<path style="fill:#6f7377; stroke:none;" d="M140 216L140 215C110.655 215 82.527 210.84 54 204C47.0039 202.323 21.1623 196.88 33 187C27.3927 186.089 21.7877 192.48 27.2292 196.892C36.0454 204.039 52.1235 206.122 63 208.083C88.9877 212.771 113.55 216 140 216M166 186L167 187L166 186M169 186L170 187L169 186M173.333 186.667L173.667 187.333L173.333 186.667z"/>
<path style="fill:#505459; stroke:none;" d="M180 186L181 187L180 186z"/>
<path style="fill:#6f7377; stroke:none;" d="M179 187L179 188L183 187L179 187z"/>
<path style="fill:#505459; stroke:none;" d="M233 187L233 188L237 187L233 187z"/>
<path style="fill:#6f7377; stroke:none;" d="M237 186L238 187L237 186z"/>
<path style="fill:#96999c; stroke:none;" d="M238 186L238 187L241 187L238 186M167 187L168 188L167 187z"/>
<path style="fill:#6f7377; stroke:none;" d="M170.667 187.333L171.333 187.667L170.667 187.333z"/>
<path style="fill:#96999c; stroke:none;" d="M172.333 187.667L172.667 188.333L172.333 187.667z"/>
<path style="fill:#505459; stroke:none;" d="M173 188L179 190L179 189C177.04 188.347 176.446 188 179 188L173 188M191 187L192 188L191 187z"/>
<path style="fill:#6f7377; stroke:none;" d="M235 187L236 188L235 187z"/>
<path style="fill:#96999c; stroke:none;" d="M236.667 187.333L237.333 187.667L236.667 187.333z"/>
<path style="fill:#6f7377; stroke:none;" d="M168 188L169 189L168 188M175 188L176 189L175 188z"/>
<path style="fill:#121212; stroke:none;" d="M177 188L177 189L180 190L177 188z"/>
<path style="fill:#505459; stroke:none;" d="M180 188L180 190L182 190L180 188M183.667 188.333L184.333 188.667L183.667 188.333z"/>
<path style="fill:#6f7377; stroke:none;" d="M185 188L186 189L185 188z"/>
<path style="fill:#f0f1f2; stroke:none;" d="M188 188L187 190L188 188z"/>
<path style="fill:#505459; stroke:none;" d="M227 189L227 190L231 189L227 189z"/>
<path style="fill:#6f7377; stroke:none;" d="M231 188L232 189L231 188z"/>
<path style="fill:#96999c; stroke:none;" d="M232 188L232 189L235 189L232 188z"/>
<path style="fill:#6f7377; stroke:none;" d="M169 189L170 190L169 189z"/>
<path style="fill:#96999c; stroke:none;" d="M174 189L175 190L174 189z"/>
<path style="fill:#6f7377; stroke:none;" d="M182 189L183 190L182 189M188 189L189 190L188 189M229 189L230 190L229 189z"/>
<path style="fill:#96999c; stroke:none;" d="M230.667 189.333L231.333 189.667L230.667 189.333M171 190L172 191L171 190z"/>
<path style="fill:#f0f1f2; stroke:none;" d="M184 190L185 191L184 190z"/>
<path style="fill:#505459; stroke:none;" d="M221 191L221 192L225 191L221 191z"/>
<path style="fill:#6f7377; stroke:none;" d="M225 190L226 191L225 190z"/>
<path style="fill:#96999c; stroke:none;" d="M226 190L226 191L229 191L226 190z"/>
<path style="fill:#505459; stroke:none;" d="M172 191L173 192L172 191z"/>
<path style="fill:#96999c; stroke:none;" d="M173.667 191.333L174.333 191.667L173.667 191.333z"/>
<path style="fill:#505459; stroke:none;" d="M185 191L186 192L185 191z"/>
<path style="fill:#6f7377; stroke:none;" d="M223 191L224 192L223 191z"/>
<path style="fill:#96999c; stroke:none;" d="M224.667 191.333L225.333 191.667L224.667 191.333z"/>
<path style="fill:#505459; stroke:none;" d="M175.667 192.333L176.333 192.667L175.667 192.333z"/>
<path style="fill:#6f7377; stroke:none;" d="M177 192L177 193L181 193L177 192z"/>
<path style="fill:#505459; stroke:none;" d="M181.667 192.333L182.333 192.667L181.667 192.333M215 193L215 194L219 193L215 193z"/>
<path style="fill:#6f7377; stroke:none;" d="M219 192L220 193L219 192z"/>
<path style="fill:#96999c; stroke:none;" d="M220 192L220 193L223 193L220 192z"/>
<path style="fill:#6f7377; stroke:none;" d="M217 193L218 194L217 193z"/>
<path style="fill:#96999c; stroke:none;" d="M218.667 193.333L219.333 193.667L218.667 193.333z"/>
<path style="fill:#505459; stroke:none;" d="M173 194L174 195L173 194M209 195L209 196L213 195L209 195z"/>
<path style="fill:#6f7377; stroke:none;" d="M213 194L214 195L213 194z"/>
<path style="fill:#96999c; stroke:none;" d="M214 194L214 195L217 195L214 194z"/>
<path style="fill:#6f7377; stroke:none;" d="M211 195L212 196L211 195z"/>
<path style="fill:#96999c; stroke:none;" d="M212.667 195.333L213.333 195.667L212.667 195.333z"/>
<path style="fill:#505459; stroke:none;" d="M203 197L203 198L207 197L203 197z"/>
<path style="fill:#6f7377; stroke:none;" d="M207 196L208 197L207 196z"/>
<path style="fill:#96999c; stroke:none;" d="M208 196L208 197L211 197L208 196z"/>
<path style="fill:#6f7377; stroke:none;" d="M205 197L206 198L205 197z"/>
<path style="fill:#96999c; stroke:none;" d="M206.667 197.333L207.333 197.667L206.667 197.333z"/>
<path style="fill:#505459; stroke:none;" d="M197 199L197 200L201 199L197 199z"/>
<path style="fill:#6f7377; stroke:none;" d="M201 198L202 199L201 198z"/>
<path style="fill:#96999c; stroke:none;" d="M202 198L202 199L205 199L202 198z"/>
<path style="fill:#6f7377; stroke:none;" d="M199 199L200 200L199 199z"/>
<path style="fill:#96999c; stroke:none;" d="M200.667 199.333L201.333 199.667L200.667 199.333z"/>
<path style="fill:#505459; stroke:none;" d="M191 201L191 202L195 201L191 201z"/>
<path style="fill:#6f7377; stroke:none;" d="M195 200L196 201L195 200z"/>
<path style="fill:#96999c; stroke:none;" d="M196 200L196 201L199 201L196 200z"/>
<path style="fill:#6f7377; stroke:none;" d="M193 201L194 202L193 201z"/>
<path style="fill:#96999c; stroke:none;" d="M194.667 201.333L195.333 201.667L194.667 201.333z"/>
<path style="fill:#505459; stroke:none;" d="M185 203L185 204L189 203L185 203z"/>
<path style="fill:#6f7377; stroke:none;" d="M189 202L190 203L189 202z"/>
<path style="fill:#96999c; stroke:none;" d="M190 202L190 203L193 203L190 202z"/>
<path style="fill:#6f7377; stroke:none;" d="M187 203L188 204L187 203z"/>
<path style="fill:#96999c; stroke:none;" d="M188.667 203.333L189.333 203.667L188.667 203.333z"/>
<path style="fill:#505459; stroke:none;" d="M179 205L179 206L183 205L179 205z"/>
<path style="fill:#6f7377; stroke:none;" d="M183 204L184 205L183 204z"/>
<path style="fill:#96999c; stroke:none;" d="M184 204L184 205L187 205L184 204z"/>
<path style="fill:#6f7377; stroke:none;" d="M181 205L182 206L181 205z"/>
<path style="fill:#96999c; stroke:none;" d="M182.667 205.333L183.333 205.667L182.667 205.333z"/>
<path style="fill:#505459; stroke:none;" d="M173 207L173 208L177 207L173 207z"/>
<path style="fill:#6f7377; stroke:none;" d="M177 206L178 207L177 206z"/>
<path style="fill:#96999c; stroke:none;" d="M178.667 206.333L179.333 206.667L178.667 206.333z"/>
<path style="fill:#6f7377; stroke:none;" d="M175 207L176 208L175 207z"/>
<path style="fill:#96999c; stroke:none;" d="M176.667 207.333L177.333 207.667L176.667 207.333z"/>
<path style="fill:#505459; stroke:none;" d="M169.667 208.333L170.333 208.667L169.667 208.333z"/>
<path style="fill:#6f7377; stroke:none;" d="M171 208L172 209L171 208z"/>
<path style="fill:#96999c; stroke:none;" d="M172 208L173 209L172 208z"/>
<path style="fill:#505459; stroke:none;" d="M167 209L168 210L167 209z"/>
<path style="fill:#6f7377; stroke:none;" d="M168 209L169 210L168 209z"/>
<path style="fill:#96999c; stroke:none;" d="M169 209L170 210L169 209z"/>
<path style="fill:#505459; stroke:none;" d="M162.667 210.333L163.333 210.667L162.667 210.333z"/>
<path style="fill:#6f7377; stroke:none;" d="M164 210L165 211L164 210z"/>
<path style="fill:#96999c; stroke:none;" d="M165 210L166 211L165 210z"/>
<path style="fill:#505459; stroke:none;" d="M159 211L160 212L159 211z"/>
<path style="fill:#6f7377; stroke:none;" d="M160 211L161 212L160 211z"/>
<path style="fill:#96999c; stroke:none;" d="M161 211L162 212L161 211z"/>
<path style="fill:#505459; stroke:none;" d="M154 212L155 213L154 212z"/>
<path style="fill:#6f7377; stroke:none;" d="M155 212L156 213L155 212z"/>
<path style="fill:#96999c; stroke:none;" d="M156.667 212.333L157.333 212.667L156.667 212.333z"/>
<path style="fill:#505459; stroke:none;" d="M149.667 213.333L150.333 213.667L149.667 213.333z"/>
<path style="fill:#6f7377; stroke:none;" d="M151 213L152 214L151 213z"/>
<path style="fill:#96999c; stroke:none;" d="M152.667 213.333L153.333 213.667L152.667 213.333z"/>
<path style="fill:#6f7377; stroke:none;" d="M144.667 214.333L145.333 214.667L144.667 214.333z"/>
<path style="fill:#96999c; stroke:none;" d="M146.667 214.333L147.333 214.667L146.667 214.333M140 215L140 216L144 216L140 215z"/>
</svg>
