<?xml version="1.0" standalone="yes"?>
<svg xmlns="http://www.w3.org/2000/svg" width="250" height="250">
<path style="fill:#fbfbfc; stroke:none;" d="M0 0L0 250L250 250L250 0L0 0z"/>
<path style="fill:#adb2b7; stroke:none;" d="M190 32L190 35L191 35L192 35L190 32M193 32L193 33L199 33L193 32M200 33L201 38L200 33z"/>
<path style="fill:#fbfbfc; stroke:none;" d="M200 34L202 36L200 34z"/>
<path style="fill:#adb2b7; stroke:none;" d="M190 36L191 37L190 36M204 39L203 46C205.421 43.9543 205.547 41.6836 204 39M123 57L122 57L119 58L112 62L110 70L107 71L104 76L104 80C101.174 80 101.209 81.1416 101 84L102 84L112 67L113 67L104 91L109 86L125 81C118.451 86.9373 106.727 93.9933 98 94L99 90L96 91L102 86L102 85C97.7555 82.8893 90.2665 85.8428 93.2693 91.7014C94.6919 94.4769 98.6891 94.8542 99.4784 98.1644C99.9597 100.183 98.935 101.354 98 103L93 97L91 105L95 99L96 99L94 105L95 105L97 102L97 107L95 109L94 109L94 106L93 106L94 114L90 117L90 113C86.6055 113 89.4809 110.983 91 110L90 105L89 105L90 128C86.0331 124.572 83.9004 121.283 85 116C81.7231 117.958 80.9199 120.235 81 124L78 123L83 138L76 129L75 129L73 133L76 131L75 135L72 134L70 139L74 139L74 141L67 146L68 152C63.1221 148.904 66.5395 141.606 68 137C58.3318 144.32 53.6665 148.312 57 160L50 160L50 159L54 159C51.3991 150.656 44.0363 159.636 42 164L40 162L31 171L20 179L21 177C14.3519 181.27 -0.638814 192.705 11 199L7 205L5 200L4 200C4.98971 209.029 7.48049 213.594 17 216L17 215L13 212C36.7945 210.978 63.5896 203.998 84 191.691C91.011 187.464 98.0006 182.517 103.91 176.834C107.058 173.806 110.189 168.275 114.995 167.797C120.737 167.226 119.719 173.524 118.572 177C115.282 186.971 118.735 190.905 129 189L129 190L120 195L120 196L145 180L145 179L142 179L144.564 163.185L163 152.949L215 124L214 130L226 116L214 123L217 116L226 102L214 113C214.638 105.293 211.113 99.7923 221 98L218 92L218 97C215.315 97.212 212 98.5495 212 95L210 95L206 86L213 89L212 85L208 85L210 80L211 80L217 88L217 87L211 74L210 74L211 77C203.472 68.1667 202.381 62.0113 204 51C198.758 55.2624 198.679 59.9727 203 65L193 66L192 64L194 62L193 50C188.555 45.9434 179.296 43.1728 173.747 48.0131C169.918 51.3528 175.321 59.6498 170.789 64.7855C157.912 79.3781 124.66 82.3049 123 57z"/>
<path style="fill:#8b989e; stroke:none;" d="M186 46L187 47L186 46M188 47L189 48L188 47z"/>
<path style="fill:#adb2b7; stroke:none;" d="M170 50L170 54L171 54L170 50z"/>
<path style="fill:#8b989e; stroke:none;" d="M176 50L176 55L177 55L176 50z"/>
<path style="fill:#adb2b7; stroke:none;" d="M106 64L107 64C110.658 59.5774 114.878 54.3499 121 56L119 52C112.82 53.2494 108.368 58.3219 106 64z"/>
<path style="fill:#8b989e; stroke:none;" d="M177 56L178 64L179 64L177 56M120 60L122 65L123 65L120 60M199 60L199 62L201 62L199 60z"/>
<path style="fill:#adb2b7; stroke:none;" d="M170.333 61.6667L170.667 62.3333L170.333 61.6667M199.333 62.6667L199.667 63.3333L199.333 62.6667z"/>
<path style="fill:#788289; stroke:none;" d="M200 62L200 65L201 65L200 62z"/>
<path style="fill:#adb2b7; stroke:none;" d="M169 64L168 66L169 64z"/>
<path style="fill:#8b989e; stroke:none;" d="M201 64L202 65L201 64z"/>
<path style="fill:#fbfbfc; stroke:none;" d="M202 64L203 65L202 64z"/>
<path style="fill:#adb2b7; stroke:none;" d="M105 65L106 66L105 65z"/>
<path style="fill:#8b989e; stroke:none;" d="M179 65L178 67L179 65z"/>
<path style="fill:#546e79; stroke:none;" d="M201 65L202 66L201 65z"/>
<path style="fill:#8b989e; stroke:none;" d="M174 66L159 74L159 75L169 73L168 76C172.796 74.6758 175.53 71.0402 174 66z"/>
<path style="fill:#adb2b7; stroke:none;" d="M104 67L103 70L104 70L105 70L104 67z"/>
<path style="fill:#fbfbfc; stroke:none;" d="M201 67L199 68L199 69L201 67z"/>
<path style="fill:#8b989e; stroke:none;" d="M178 68L171 82L172 82C174.793 78.0692 179.639 73.0402 178 68M186 90L187 90C186.84 82.2357 183.568 75.9891 190 70C180.68 69.7958 184.937 84.8458 186 90z"/>
<path style="fill:#adb2b7; stroke:none;" d="M207 69L208 70L207 69z"/>
<path style="fill:#fbfbfc; stroke:none;" d="M202 70L203 71L202 70z"/>
<path style="fill:#adb2b7; stroke:none;" d="M102 71L101 74L102 74L102 71z"/>
<path style="fill:#fbfbfc; stroke:none;" d="M108 71L109 72L108 71z"/>
<path style="fill:#788289; stroke:none;" d="M170 71L169 73L170 71z"/>
<path style="fill:#fbfbfc; stroke:none;" d="M200 71L201 72L200 71z"/>
<path style="fill:#adb2b7; stroke:none;" d="M208 71L210 73L208 71z"/>
<path style="fill:#788289; stroke:none;" d="M133 77L133 78L137 78L140 83L137 79C145.277 81.5773 152.679 79.7164 161 78L161 79L143 84L143 85L164 83L165 83L172 75L168 76L169 73L133 77z"/>
<path style="fill:#fbfbfc; stroke:none;" d="M202 97L203 97C201.205 87.9812 188.427 76.6326 205 74C187.445 67.7227 198.375 91.2794 202 97z"/>
<path style="fill:#8b989e; stroke:none;" d="M206 73L207 74L206 73z"/>
<path style="fill:#adb2b7; stroke:none;" d="M100.333 75.6667L100.667 76.3333L100.333 75.6667z"/>
<path style="fill:#8b989e; stroke:none;" d="M131 75L132 78L136 77L136 76L131 75M156.667 75.3333L157.333 75.6667L156.667 75.3333z"/>
<path style="fill:#fbfbfc; stroke:none;" d="M205 75L205 76L206 78L207 78L205 75z"/>
<path style="fill:#8b989e; stroke:none;" d="M153.667 76.3333L154.333 76.6667L153.667 76.3333M166 76L167 77L166 76M171 76L172 77L171 76M193 76L194 77L193 76M129 77L130 78L129 77M138 77L138 78L149 78L138 77M170 77L171 78L170 77M133 78L134 79L133 78z"/>
<path style="fill:#546e79; stroke:none;" d="M135.667 78.3333L136.333 78.6667L135.667 78.3333M137 79C142.53 87.1734 153.441 82.3508 161 79L137 79z"/>
<path style="fill:#8b989e; stroke:none;" d="M169 78L170 79L169 78z"/>
<path style="fill:#fbfbfc; stroke:none;" d="M209 78L202 81L206 86L204 81L210 79L209 78M129 80L129 81L133 80L129 80z"/>
<path style="fill:#546e79; stroke:none;" d="M167 79L166 81L167 79z"/>
<path style="fill:#8b989e; stroke:none;" d="M168 79L169 80L168 79M192 79L192 83L193 83L192 79M167 80L168 81L167 80z"/>
<path style="fill:#546e79; stroke:none;" d="M145 84L145 85C152.236 85.571 159.545 86.9076 165 81L145 84z"/>
<path style="fill:#8b989e; stroke:none;" d="M166 81L167 82L166 81z"/>
<path style="fill:#fbfbfc; stroke:none;" d="M119 82L120 83L119 82z"/>
<path style="fill:#8b989e; stroke:none;" d="M128.333 82.6667L128.667 83.3333L128.333 82.6667z"/>
<path style="fill:#788289; stroke:none;" d="M129 82L130 83L129 82z"/>
<path style="fill:#8b989e; stroke:none;" d="M130.667 82.3333L131.333 82.6667L130.667 82.3333z"/>
<path style="fill:#fbfbfc; stroke:none;" d="M109 83L110 84L109 83z"/>
<path style="fill:#788289; stroke:none;" d="M127 83L125 86L127 83z"/>
<path style="fill:#8b989e; stroke:none;" d="M163 83L164 84L163 83M164 86L164 87L170 84L164 86M200 83L201 84L200 83z"/>
<path style="fill:#adb2b7; stroke:none;" d="M209 83L210 84L209 83z"/>
<path style="fill:#fbfbfc; stroke:none;" d="M111 84L112 85L111 84z"/>
<path style="fill:#8b989e; stroke:none;" d="M125 84L126 85L125 84M142 84L143 85L142 84z"/>
<path style="fill:#788289; stroke:none;" d="M160 84L161 85L160 84z"/>
<path style="fill:#8b989e; stroke:none;" d="M161 84L162 85L161 84M124 85L121 87L122 89L121 89L111 92L114 96L118 93L120 89L119 92L124 85M147 85L148 86L147 85z"/>
<path style="fill:#788289; stroke:none;" d="M148.667 85.3333L149.333 85.6667L148.667 85.3333M156.667 85.3333L157.333 85.6667L156.667 85.3333z"/>
<path style="fill:#8b989e; stroke:none;" d="M158 85L159 86L158 85M100.667 86.3333L101.333 86.6667L100.667 86.3333M114 86L115 87L114 86z"/>
<path style="fill:#788289; stroke:none;" d="M123 86L124 87L123 86z"/>
<path style="fill:#8b989e; stroke:none;" d="M203 86L205 88L203 86z"/>
<path style="fill:#788289; stroke:none;" d="M100 87L100 89L102 87L100 87z"/>
<path style="fill:#adb2b7; stroke:none;" d="M102 87L100 89L100 90L102 87z"/>
<path style="fill:#788289; stroke:none;" d="M122 87L123 88L122 87z"/>
<path style="fill:#8b989e; stroke:none;" d="M162 87L163 88L162 87z"/>
<path style="fill:#fbfbfc; stroke:none;" d="M180 87L177 104L178 104C180.75 98.8355 183.953 92.2184 180 87z"/>
<path style="fill:#8b989e; stroke:none;" d="M99 88L96 91L99 88M101 88L102 89L101 88z"/>
<path style="fill:#788289; stroke:none;" d="M120.667 88.3333L121.333 88.6667L120.667 88.3333z"/>
<path style="fill:#adb2b7; stroke:none;" d="M123 88L114 95L114 96L116 99L118 99L123 88z"/>
<path style="fill:#fbfbfc; stroke:none;" d="M124 88L124 91L125 91L124 88z"/>
<path style="fill:#8b989e; stroke:none;" d="M140 88C143.466 95.0862 145.858 102.438 137 106C134.795 102.506 130.076 100.486 127 104L137 106L135 122L134 122L135 116L134 116C132.075 124.319 130.422 130.516 133 139C137.967 138.348 149.112 140.645 149 134L153 136L151 133C157.823 135.537 163.181 131.181 168.715 127.383C179.335 120.092 186.839 110.674 197 103L194 100L181 115L183 110C171.554 116.489 167.264 129.294 153 133L153 132C166.967 127.89 181.533 112.329 184 98L183 98C179.715 109.071 166.78 121.428 157 127L162 122L162 121L159 117L148 127L150 109L149 109L142 124L141 124L141 122L140 122L139 133L138 133C141.701 117.453 144.826 103.541 143 88L140 88M144 88L145 89L144 88M157 88L158 89L157 88z"/>
<path style="fill:#fbfbfc; stroke:none;" d="M94 89L95 90L94 89z"/>
<path style="fill:#788289; stroke:none;" d="M119 89L117 92L119 89z"/>
<path style="fill:#8b989e; stroke:none;" d="M148 89L149 90L148 89M151 89L152 90L151 89z"/>
<path style="fill:#adb2b7; stroke:none;" d="M217 89L216 91L217 89z"/>
<path style="fill:#788289; stroke:none;" d="M186 90L186 97L187 97L186 90z"/>
<path style="fill:#fbfbfc; stroke:none;" d="M123 91L118 99L123 91z"/>
<path style="fill:#8b989e; stroke:none;" d="M208 91L209 92L208 91z"/>
<path style="fill:#adb2b7; stroke:none;" d="M91 92L92 93L91 92z"/>
<path style="fill:#788289; stroke:none;" d="M113 95L117 92L113 95M142 92L143 93L142 92z"/>
<path style="fill:#8b989e; stroke:none;" d="M185.333 92.6667L185.667 93.3333L185.333 92.6667z"/>
<path style="fill:#fbfbfc; stroke:none;" d="M119 93L120 94L119 93z"/>
<path style="fill:#788289; stroke:none;" d="M143 93L144 94L143 93z"/>
<path style="fill:#8b989e; stroke:none;" d="M115 94L116 95L115 94z"/>
<path style="fill:#fbfbfc; stroke:none;" d="M139 94L140 95L139 94z"/>
<path style="fill:#8b989e; stroke:none;" d="M141 94L142 95L141 94M210 94L211 95L210 94z"/>
<path style="fill:#adb2b7; stroke:none;" d="M91 95L92 96L91 95z"/>
<path style="fill:#fbfbfc; stroke:none;" d="M102 96L107 104L107 108L105 107L101 113L102 110C97.567 112.684 94.1179 114.719 93 120C97.4192 120.585 101.482 118.76 102 114L118 100C113.579 95.0889 108.25 94.1534 102 96z"/>
<path style="fill:#adb2b7; stroke:none;" d="M112 95L113 96L112 95z"/>
<path style="fill:#8b989e; stroke:none;" d="M139 95L139 97L141 95L139 95M184.333 95.6667L184.667 96.3333L184.333 95.6667z"/>
<path style="fill:#788289; stroke:none;" d="M138 96L139 97L138 96z"/>
<path style="fill:#546e79; stroke:none;" d="M185.333 96.6667L185.667 97.3333L185.333 96.6667z"/>
<path style="fill:#8b989e; stroke:none;" d="M211 96L212 97L211 96M132 98L132 99L138 98L132 98z"/>
<path style="fill:#788289; stroke:none;" d="M184 97L185 101L183 106L184 106L183 103C185.597 101.148 185.798 99.5957 184 97z"/>
<path style="fill:#8b989e; stroke:none;" d="M186.333 97.6667L186.667 98.3333L186.333 97.6667M116 104L116 105L131 98L116 104z"/>
<path style="fill:#788289; stroke:none;" d="M131 98L132 99L131 98z"/>
<path style="fill:#8b989e; stroke:none;" d="M95 99L95 102L96 102L95 99M156.333 99.6667L156.667 100.333L156.333 99.6667z"/>
<path style="fill:#adb2b7; stroke:none;" d="M88 100L89 101L88 100z"/>
<path style="fill:#788289; stroke:none;" d="M95 100L96 101L95 100z"/>
<path style="fill:#fbfbfc; stroke:none;" d="M121 100L122 101L121 100z"/>
<path style="fill:#546e79; stroke:none;" d="M184 100L185 101L184 100z"/>
<path style="fill:#788289; stroke:none;" d="M94.3333 101.667L94.6667 102.333L94.3333 101.667z"/>
<path style="fill:#fbfbfc; stroke:none;" d="M119 101L120 102L119 101z"/>
<path style="fill:#788289; stroke:none;" d="M145 101L141 116C144.739 113.166 146.695 105.354 145 101z"/>
<path style="fill:#8b989e; stroke:none;" d="M185 101L186 102L185 101M197 101L198 102L197 101M93 102L90 104L89 109L90 109L94 106L95 103L93 102z"/>
<path style="fill:#fbfbfc; stroke:none;" d="M96 102L94 109L95 109L97 107L96 102z"/>
<path style="fill:#8b989e; stroke:none;" d="M102 102L99 111L95 112L95 113L100 111L104 106L104 102L102 102z"/>
<path style="fill:#fbfbfc; stroke:none;" d="M117 102L118 103L117 102z"/>
<path style="fill:#adb2b7; stroke:none;" d="M104 103L100 111L102 110L101 113C104.536 111.927 105.54 110.675 105 107L107 108L107 107L104 103z"/>
<path style="fill:#8b989e; stroke:none;" d="M117 107L117 108L126 104L117 107z"/>
<path style="fill:#788289; stroke:none;" d="M126 103L127 104L126 103z"/>
<path style="fill:#546e79; stroke:none;" d="M183 103L184 104L183 103z"/>
<path style="fill:#8b989e; stroke:none;" d="M184.333 103.667L184.667 104.333L184.333 103.667z"/>
<path style="fill:#788289; stroke:none;" d="M193.667 103.333L194.333 103.667L193.667 103.333M93 104L94 105L93 104M103 104L104 105L103 104z"/>
<path style="fill:#546e79; stroke:none;" d="M193 104L194 105L193 104z"/>
<path style="fill:#788289; stroke:none;" d="M92 105L90 109L92 105M101 105L99 110L103 105L101 105z"/>
<path style="fill:#adb2b7; stroke:none;" d="M107 105L108 106L107 105z"/>
<path style="fill:#8b989e; stroke:none;" d="M113 107L116 105L113 107M152 105L153 106L152 105z"/>
<path style="fill:#fbfbfc; stroke:none;" d="M176 105L177 106L176 105z"/>
<path style="fill:#546e79; stroke:none;" d="M182.333 105.667L182.667 106.333L182.333 105.667z"/>
<path style="fill:#788289; stroke:none;" d="M192 105L186 112L189 112L190 111L189 109L192 105M136 106L137 107L136 106z"/>
<path style="fill:#8b989e; stroke:none;" d="M145.333 106.667L145.667 107.333L145.333 106.667M151 106L152 107L151 106z"/>
<path style="fill:#788289; stroke:none;" d="M181 106L180 112L181 112L182 110L181 108L183 107L181 106z"/>
<path style="fill:#8b989e; stroke:none;" d="M183 106L184 107L183 106z"/>
<path style="fill:#adb2b7; stroke:none;" d="M231 106L231 108L233 108L231 106z"/>
<path style="fill:#8b989e; stroke:none;" d="M102 107L103 108L102 107z"/>
<path style="fill:#fbfbfc; stroke:none;" d="M110 107L111 108L110 107z"/>
<path style="fill:#788289; stroke:none;" d="M112 107L113 108L112 107z"/>
<path style="fill:#8b989e; stroke:none;" d="M124 110L121 109L118 111L118 112L120 113L131 110C130.07 119.533 125.788 129.795 121 138L120 135L119 135L121 141L118 139L119 145L118 145L118 142L117 142L120 156L128 152C124.514 145.338 124.422 141.325 125 134L126 134L126 136L127 136L128 130L129 127L130 124L129 121C137.467 116.398 128.465 100.966 124 110z"/>
<path style="fill:#adb2b7; stroke:none;" d="M139 107L140 108L139 107z"/>
<path style="fill:#8b989e; stroke:none;" d="M150.333 107.667L150.667 108.333L150.333 107.667z"/>
<path style="fill:#546e79; stroke:none;" d="M91 108L92 109L91 108z"/>
<path style="fill:#8b989e; stroke:none;" d="M92 108L93 109L92 108z"/>
<path style="fill:#adb2b7; stroke:none;" d="M107 108L108 109L107 108z"/>
<path style="fill:#8b989e; stroke:none;" d="M110 108L108 112L110 108z"/>
<path style="fill:#788289; stroke:none;" d="M111 108L112 109L111 108z"/>
<path style="fill:#8b989e; stroke:none;" d="M115.667 108.333L116.333 108.667L115.667 108.333z"/>
<path style="fill:#546e79; stroke:none;" d="M181 108L182 109L181 108z"/>
<path style="fill:#8b989e; stroke:none;" d="M182 108L183 109L182 108M91 109L92 110L91 109z"/>
<path style="fill:#adb2b7; stroke:none;" d="M108 109L102 114L101 118L108 109z"/>
<path style="fill:#8b989e; stroke:none;" d="M114 109L115 110L114 109z"/>
<path style="fill:#788289; stroke:none;" d="M123 109L124 110L123 109z"/>
<path style="fill:#8b989e; stroke:none;" d="M144.333 109.667L144.667 110.333L144.333 109.667z"/>
<path style="fill:#546e79; stroke:none;" d="M189 109L190 110L189 109z"/>
<path style="fill:#fbfbfc; stroke:none;" d="M90 113L90 117L92 110C90.0144 110.377 86.3041 113.025 90 113M94 110L95 111L94 110z"/>
<path style="fill:#788289; stroke:none;" d="M98 110L99 111L98 110z"/>
<path style="fill:#fbfbfc; stroke:none;" d="M103 110L104 111L103 110z"/>
<path style="fill:#788289; stroke:none;" d="M108 110L109 111L108 110z"/>
<path style="fill:#8b989e; stroke:none;" d="M113 110L114 111L113 110z"/>
<path style="fill:#788289; stroke:none;" d="M136 110L134 122L135 122L136 110z"/>
<path style="fill:#546e79; stroke:none;" d="M180 110L181 111L180 110M188 110L189 111L188 110z"/>
<path style="fill:#adb2b7; stroke:none;" d="M230 111L230 112C238.15 114.5 230.207 119.235 226 121L226 122L232 121C229.824 123.925 224.333 131.78 230 133L228 136L231 135L231 136L143 174L143 175C155.466 174.456 166.663 166.987 178 162.449C199.218 153.955 223.299 147.439 243 136C238.064 142.976 230.691 148.362 223 152L223 153C236.827 148.623 247.959 137.806 248 123L236 135C244.245 126.378 248.876 107.37 230 111M84 111L85 112L84 111M99 111L100 112L99 111z"/>
<path style="fill:#788289; stroke:none;" d="M107 111L106 113L108 113L107 111z"/>
<path style="fill:#8b989e; stroke:none;" d="M111 111L108 115L111 111z"/>
<path style="fill:#788289; stroke:none;" d="M119 111L120 112L119 111z"/>
<path style="fill:#546e79; stroke:none;" d="M179 111L162 129C167.358 125.903 179.143 117.726 179 111M187 111C176.723 124.863 158.235 142.398 140 144L140 145C153.537 144.682 170.753 132.71 179.575 122.961C182.503 119.725 187.377 115.595 187 111z"/>
<path style="fill:#adb2b7; stroke:none;" d="M97.6667 112.333L98.3333 112.667L97.6667 112.333z"/>
<path style="fill:#fbfbfc; stroke:none;" d="M113 112L114 113L113 112z"/>
<path style="fill:#788289; stroke:none;" d="M117.667 112.333L118.333 112.667L117.667 112.333z"/>
<path style="fill:#8b989e; stroke:none;" d="M135 112L135 115L136 115L135 112z"/>
<path style="fill:#fbfbfc; stroke:none;" d="M151.333 112.667L151.667 113.333L151.333 112.667z"/>
<path style="fill:#788289; stroke:none;" d="M178 112L179 113L178 112z"/>
<path style="fill:#adb2b7; stroke:none;" d="M180 112L181 113L180 112z"/>
<path style="fill:#8b989e; stroke:none;" d="M225 118C228.157 116.034 231.978 112.761 233 118C238.113 110.934 228.191 113.618 225 118M92.6667 113.333L93.3333 113.667L92.6667 113.333M105 113L106 116L107 116L105 113z"/>
<path style="fill:#546e79; stroke:none;" d="M106 113L107 114L106 113z"/>
<path style="fill:#adb2b7; stroke:none;" d="M110 113L111 114L110 113z"/>
<path style="fill:#fbfbfc; stroke:none;" d="M111.667 113.333L112.333 113.667L111.667 113.333z"/>
<path style="fill:#8b989e; stroke:none;" d="M115 113L116 114L115 113z"/>
<path style="fill:#788289; stroke:none;" d="M116 113L117 114L116 113z"/>
<path style="fill:#fbfbfc; stroke:none;" d="M133 113L134 114L133 113z"/>
<path style="fill:#8b989e; stroke:none;" d="M143 113L144 114L143 113z"/>
<path style="fill:#788289; stroke:none;" d="M177 113L178 114L177 113M185 113L186 114L185 113z"/>
<path style="fill:#8b989e; stroke:none;" d="M187 113L188 114L187 113z"/>
<path style="fill:#fbfbfc; stroke:none;" d="M213 113L214 114L213 113z"/>
<path style="fill:#546e79; stroke:none;" d="M105 114L106 115L105 114z"/>
<path style="fill:#fbfbfc; stroke:none;" d="M110 114L111 115L110 114z"/>
<path style="fill:#788289; stroke:none;" d="M114.667 114.333L115.333 114.667L114.667 114.333M176 114L177 115L176 114z"/>
<path style="fill:#adb2b7; stroke:none;" d="M179 114L180 117L181 117L179 114z"/>
<path style="fill:#788289; stroke:none;" d="M184 114L185 115L184 114M186 114L187 115L186 114M221 123L229 120L229 118L234 117L234 115C228.17 113.712 223.471 117.93 221 123z"/>
<path style="fill:#fbfbfc; stroke:none;" d="M238 114L240 118L238 114z"/>
<path style="fill:#788289; stroke:none;" d="M104 115L106 117L106 115L104 115z"/>
<path style="fill:#8b989e; stroke:none;" d="M111 118L112 118L115 116L111 118z"/>
<path style="fill:#788289; stroke:none;" d="M175 115L176 116L175 115M177 115L178 116L177 115M183 115L184 116L183 115z"/>
<path style="fill:#8b989e; stroke:none;" d="M103.667 116.333L104.333 116.667L103.667 116.333z"/>
<path style="fill:#788289; stroke:none;" d="M112 116L113 117L112 116M131.333 116.667L131.667 117.333L131.333 116.667z"/>
<path style="fill:#546e79; stroke:none;" d="M141.333 116.667L141.667 117.333L141.333 116.667z"/>
<path style="fill:#8b989e; stroke:none;" d="M142 116L143 117L142 116z"/>
<path style="fill:#788289; stroke:none;" d="M174 116L175 117L174 116M176 116L177 117L176 116z"/>
<path style="fill:#8b989e; stroke:none;" d="M185 116L186 117L185 116M188 119L189 119L190 117L188 119M102 117L103 118L102 117z"/>
<path style="fill:#788289; stroke:none;" d="M110 117L111 118L110 117z"/>
<path style="fill:#8b989e; stroke:none;" d="M114 118L114 119L123 118L114 118z"/>
<path style="fill:#fbfbfc; stroke:none;" d="M132 117L133 118L132 117z"/>
<path style="fill:#788289; stroke:none;" d="M173 117L174 118L173 117M175 117L176 118L175 117M181.333 117.667L181.667 118.333L181.333 117.667z"/>
<path style="fill:#8b989e; stroke:none;" d="M184 117L185 118L184 117z"/>
<path style="fill:#fbfbfc; stroke:none;" d="M242 117L243 118L242 117z"/>
<path style="fill:#8b989e; stroke:none;" d="M101 118L102 119L101 118M105 122L110 118L105 122M123 118L121 135L122 135L123 132L122 129L124 130L123 127C126.271 124.341 125.643 120.911 123 118z"/>
<path style="fill:#788289; stroke:none;" d="M140 118L140 120L142 118L140 118M172 118L173 119L172 118M174 118L175 119L174 118M183 118L184 119L183 118z"/>
<path style="fill:#546e79; stroke:none;" d="M229 118L230 119L229 118z"/>
<path style="fill:#8b989e; stroke:none;" d="M231 118L232 119L231 118M89 119L89 121L91 121L89 119M100 119L101 120L100 119M113 119L114 120L113 119z"/>
<path style="fill:#788289; stroke:none;" d="M130 119L131 120L130 119z"/>
<path style="fill:#8b989e; stroke:none;" d="M141 119L142 120L141 119z"/>
<path style="fill:#788289; stroke:none;" d="M170 119L170 121L172 119L170 119M173 119L174 120L173 119M180 119L181 120L180 119M182 119L183 120L182 119z"/>
<path style="fill:#546e79; stroke:none;" d="M227 119L228 120L227 119z"/>
<path style="fill:#8b989e; stroke:none;" d="M229 119L230 120L229 119M243 119L239 129L240 129L243 119M111 120L112 121L111 120z"/>
<path style="fill:#fbfbfc; stroke:none;" d="M131 120L132 121L131 120z"/>
<path style="fill:#546e79; stroke:none;" d="M140 120L141 121L140 120z"/>
<path style="fill:#788289; stroke:none;" d="M179 120L180 121L179 120M181 120L182 121L181 120z"/>
<path style="fill:#8b989e; stroke:none;" d="M221 120L222 121L221 120M227 120L228 121L227 120z"/>
<path style="fill:#788289; stroke:none;" d="M90 121L91 122L90 121z"/>
<path style="fill:#8b989e; stroke:none;" d="M108 123L111 122L108 123z"/>
<path style="fill:#788289; stroke:none;" d="M129.333 121.667L129.667 122.333L129.333 121.667M139 121L139 124L140 124L141 121L139 121M169 121L170 122L169 121M171.667 121.333L172.333 121.667L171.667 121.333M178 121L179 122L178 121M180 121L181 122L180 121z"/>
<path style="fill:#8b989e; stroke:none;" d="M220 121L219 124L220 121M225 121L225 123L222 122L222 125L227 125C226.324 128.612 223.686 132.397 227 135L227 136L222 140L222 141L231 136L231 135L228 136L230 133C226.024 130.005 230.171 124.575 232 121L225 121z"/>
<path style="fill:#fbfbfc; stroke:none;" d="M233 130C236.721 127.482 238.597 125.657 238 121C232.694 122.097 230.834 124.936 233 130z"/>
<path style="fill:#788289; stroke:none;" d="M91.3333 122.667L91.6667 123.333L91.3333 122.667z"/>
<path style="fill:#8b989e; stroke:none;" d="M104 122L105 123L104 122z"/>
<path style="fill:#adb2b7; stroke:none;" d="M109 122L109 125L112 123L109 122z"/>
<path style="fill:#fbfbfc; stroke:none;" d="M111 122L112 123L111 122z"/>
<path style="fill:#8b989e; stroke:none;" d="M114 122L116 124L116 122L114 122z"/>
<path style="fill:#788289; stroke:none;" d="M116 122L117 123L116 122z"/>
<path style="fill:#8b989e; stroke:none;" d="M117 122L117 123L119 126L120 126L117 122z"/>
<path style="fill:#fbfbfc; stroke:none;" d="M130 122L131 123L130 122z"/>
<path style="fill:#788289; stroke:none;" d="M133 122L132 130L133 130L133 122M170 122L169 124L171 124L170 122M177 122L178 123L177 122z"/>
<path style="fill:#adb2b7; stroke:none;" d="M224 122L225 123L224 122z"/>
<path style="fill:#8b989e; stroke:none;" d="M87 139L104 124C98.1313 123.876 90.2762 134.427 87 139z"/>
<path style="fill:#fbfbfc; stroke:none;" d="M109 123L110 124L109 123z"/>
<path style="fill:#8b989e; stroke:none;" d="M112.333 123.667L112.667 124.333L112.333 123.667z"/>
<path style="fill:#788289; stroke:none;" d="M113.667 123.333L114.333 123.667L113.667 123.333z"/>
<path style="fill:#adb2b7; stroke:none;" d="M88 145C91.5958 151.271 97.8753 143.218 103 142L104 149C101.084 149.405 101.533 151.308 102 154L100 153L101 156C94.3746 156.873 92.1763 173.352 92 179L93 179L98 170L99 172L100 172L106 137C111.404 144.142 103.169 157.053 102 165L103 165C103.73 160.62 107.052 151.263 110 152L115 135L116 135L111 160L112 160L115 149L116 149L119 157C115.266 146.754 119.511 139.121 121 129L119 133L117 135L116 135L119 123C105.143 125.085 98.2373 137.09 88 145z"/>
<path style="fill:#788289; stroke:none;" d="M166 123L167 124L166 123M131 137L132 141L135 144C137.95 143.017 138.622 142.513 138 145C151.54 142.373 168.446 134.152 177 123C161.915 127.916 148.393 143.787 131 137z"/>
<path style="fill:#adb2b7; stroke:none;" d="M220 125L223 123L220 125z"/>
<path style="fill:#8b989e; stroke:none;" d="M91 124L92 125L91 124z"/>
<path style="fill:#fbfbfc; stroke:none;" d="M108 124L109 125L108 124z"/>
<path style="fill:#8b989e; stroke:none;" d="M110 124L107 128L108 128L110 124z"/>
<path style="fill:#788289; stroke:none;" d="M111 124L112 125L111 124z"/>
<path style="fill:#fbfbfc; stroke:none;" d="M121.333 124.667L121.667 125.333L121.333 124.667z"/>
<path style="fill:#788289; stroke:none;" d="M128.333 124.667L128.667 125.333L128.333 124.667z"/>
<path style="fill:#546e79; stroke:none;" d="M139 124L140 125L139 124z"/>
<path style="fill:#788289; stroke:none;" d="M168 124L169 125L168 124z"/>
<path style="fill:#8b989e; stroke:none;" d="M178 124L179 125L178 124M214 124L210 127L207 135L218 131L220 137L221 137L220 135L224 135L221 125L214 130L214 124z"/>
<path style="fill:#fbfbfc; stroke:none;" d="M219 124L220 125L219 124z"/>
<path style="fill:#8b989e; stroke:none;" d="M92.3333 125.667L92.6667 126.333L92.3333 125.667z"/>
<path style="fill:#788289; stroke:none;" d="M101 125L102 126L101 125z"/>
<path style="fill:#fbfbfc; stroke:none;" d="M106 125L107 126L106 125z"/>
<path style="fill:#788289; stroke:none;" d="M109 125L110 126L109 125M139 125L139 130L140 130L139 125M164 125L165 126L164 125M167 125L168 126L167 125z"/>
<path style="fill:#8b989e; stroke:none;" d="M177 125L178 126L177 125M192 125L174 136L174 137C180.875 135.423 189.435 130.365 194 125L192 125z"/>
<path style="fill:#788289; stroke:none;" d="M224 135L220 135L221 137L219 135L218 135L217 137L207 135L211 128L198 134L199 136L196 135L197 137L194 136L194 137L197 139L193 141L193 142L202 138L201 140L213 138C207.212 147.036 194.639 150.26 185 154L185 155L194 154L197 153L199 152L199 150L201 149C209.637 150.066 221.45 142.208 227 136L227 135L227 125C219.815 125.587 219.287 129.724 224 135z"/>
<path style="fill:#8b989e; stroke:none;" d="M82 126L82 128L84 126L82 126z"/>
<path style="fill:#fbfbfc; stroke:none;" d="M98 126L99 127L98 126z"/>
<path style="fill:#788289; stroke:none;" d="M108 126L109 127L108 126M119.333 126.667L119.667 127.333L119.333 126.667M163 126L164 127L163 126M166 126L167 127L166 126M241 126L242 127L241 126M80 127L81 128L80 127z"/>
<path style="fill:#546e79; stroke:none;" d="M81 127L82 128L81 127z"/>
<path style="fill:#8b989e; stroke:none;" d="M91.3333 127.667L91.6667 128.333L91.3333 127.667z"/>
<path style="fill:#788289; stroke:none;" d="M106 127L107 128L106 127z"/>
<path style="fill:#fbfbfc; stroke:none;" d="M120.333 127.667L120.667 128.333L120.333 127.667z"/>
<path style="fill:#788289; stroke:none;" d="M123 127L124 128L123 127M127.333 127.667L127.667 128.333L127.333 127.667M152 127L148 128L148 129C150.27 129.665 153.188 130.149 152 127z"/>
<path style="fill:#adb2b7; stroke:none;" d="M156 127L157 128L156 127z"/>
<path style="fill:#788289; stroke:none;" d="M162 127L163 128L162 127M164 127L165 128L164 127M174 127L175 128L174 127z"/>
<path style="fill:#8b989e; stroke:none;" d="M80 128L81 129L80 128M102 131L106 128L102 131M118.667 128.333L119.333 128.667L118.667 128.333z"/>
<path style="fill:#788289; stroke:none;" d="M153 132L153 133L162 128L153 132M163 128L164 129L163 128M173 128L174 129L173 128z"/>
<path style="fill:#8b989e; stroke:none;" d="M208 128L209 129L208 128z"/>
<path style="fill:#788289; stroke:none;" d="M118 129L119 130L118 129M122.333 129.667L122.667 130.333L122.333 129.667z"/>
<path style="fill:#546e79; stroke:none;" d="M160 129L161 130L160 129z"/>
<path style="fill:#8b989e; stroke:none;" d="M172 129L173 130L172 129M206 129L207 130L206 129z"/>
<path style="fill:#546e79; stroke:none;" d="M222 129L224 131L224 129L222 129z"/>
<path style="fill:#8b989e; stroke:none;" d="M117.667 130.333L118.333 130.667L117.667 130.333z"/>
<path style="fill:#788289; stroke:none;" d="M126 130L126 133L127 133L126 130z"/>
<path style="fill:#adb2b7; stroke:none;" d="M137 130L138 131L137 130z"/>
<path style="fill:#546e79; stroke:none;" d="M139 130L140 131L139 130z"/>
<path style="fill:#788289; stroke:none;" d="M170 130L169 132L170 130z"/>
<path style="fill:#8b989e; stroke:none;" d="M171 130L172 131L171 130M204.667 130.333L205.333 130.667L204.667 130.333M75 131L74 135L75 131z"/>
<path style="fill:#788289; stroke:none;" d="M101 131L102 132L101 131M117 131L118 132L117 131M131 131L131 136L132 136L131 131z"/>
<path style="fill:#adb2b7; stroke:none;" d="M138.333 131.667L138.667 132.333L138.333 131.667z"/>
<path style="fill:#788289; stroke:none;" d="M139 131L140 132L139 131z"/>
<path style="fill:#8b989e; stroke:none;" d="M170 131L171 132L170 131M202 131L203 132L202 131z"/>
<path style="fill:#788289; stroke:none;" d="M217 131L218 132L217 131M93 132L94 133L93 132M100 132L101 133L100 132z"/>
<path style="fill:#8b989e; stroke:none;" d="M116 132L116 134L118 132L116 132z"/>
<path style="fill:#fbfbfc; stroke:none;" d="M118 132L119 133L118 132z"/>
<path style="fill:#788289; stroke:none;" d="M121.333 132.667L121.667 133.333L121.333 132.667M140 132L143 135L140 132z"/>
<path style="fill:#8b989e; stroke:none;" d="M168 132L169 133L168 132M200 132L201 133L200 132z"/>
<path style="fill:#788289; stroke:none;" d="M208 132L209 133L208 132M214 132L215 133L214 132z"/>
<path style="fill:#adb2b7; stroke:none;" d="M215 135L219 132L215 135z"/>
<path style="fill:#8b989e; stroke:none;" d="M98 133L99 134L98 133z"/>
<path style="fill:#788289; stroke:none;" d="M99 133L100 134L99 133z"/>
<path style="fill:#adb2b7; stroke:none;" d="M139 133C141.204 136.492 144.029 136.882 148 137L148 136L139 133z"/>
<path style="fill:#8b989e; stroke:none;" d="M140 133L141 134L140 133z"/>
<path style="fill:#788289; stroke:none;" d="M151.667 133.333L152.333 133.667L151.667 133.333M166 133L167 134L166 133z"/>
<path style="fill:#8b989e; stroke:none;" d="M167 133L168 134L167 133M198.667 133.333L199.333 133.667L198.667 133.333z"/>
<path style="fill:#788289; stroke:none;" d="M73 134L74 135L73 134z"/>
<path style="fill:#8b989e; stroke:none;" d="M84 134L85 135L84 134z"/>
<path style="fill:#788289; stroke:none;" d="M92 134L93 135L92 134M98 134L99 135L98 134M116 134L117 135L116 134M120 134L120 137L121 137L120 134M125 134C124.392 138.814 122.447 144.783 127 148L128 152L120 157L121 158L131 152L125 134z"/>
<path style="fill:#8b989e; stroke:none;" d="M141 134L142 135L141 134z"/>
<path style="fill:#788289; stroke:none;" d="M149.667 134.333L150.333 134.667L149.667 134.333z"/>
<path style="fill:#adb2b7; stroke:none;" d="M152.667 134.333L153.333 134.667L152.667 134.333z"/>
<path style="fill:#8b989e; stroke:none;" d="M165 134L166 135L165 134M197 134L198 135L197 134z"/>
<path style="fill:#546e79; stroke:none;" d="M199 134L200 135L199 134z"/>
<path style="fill:#8b989e; stroke:none;" d="M231 134L232 135L231 134z"/>
<path style="fill:#adb2b7; stroke:none;" d="M68 135L69 136L68 135z"/>
<path style="fill:#fbfbfc; stroke:none;" d="M75 135L72 138L75 135z"/>
<path style="fill:#788289; stroke:none;" d="M91 135L92 136L91 135z"/>
<path style="fill:#8b989e; stroke:none;" d="M97 135L98 136L97 135M115 135L110 152C105.299 152.619 103.554 160.787 103 165L101 163L100 163L103 172C104.701 169.448 110.093 166.721 111 164C112.11 160.669 107.162 147.541 113 149L112 145L114 138L115 135z"/>
<path style="fill:#adb2b7; stroke:none;" d="M150 135L151 136L150 135z"/>
<path style="fill:#788289; stroke:none;" d="M163 135L164 136L163 135z"/>
<path style="fill:#8b989e; stroke:none;" d="M195 135L196 136L195 135z"/>
<path style="fill:#546e79; stroke:none;" d="M197.667 135.333L198.333 135.667L197.667 135.333z"/>
<path style="fill:#8b989e; stroke:none;" d="M216 135L216 137L218 135L216 135z"/>
<path style="fill:#fbfbfc; stroke:none;" d="M235 135L234 137L235 135z"/>
<path style="fill:#788289; stroke:none;" d="M90 136L91 137L90 136M96 136L97 137L96 136z"/>
<path style="fill:#8b989e; stroke:none;" d="M103 136L103 137L106 137L103 136M128 136C124.51 151.275 132.097 150.618 144 146L144 145L132 141L133 143L132 143L128 136z"/>
<path style="fill:#546e79; stroke:none;" d="M131 136L132 137L131 136z"/>
<path style="fill:#8b989e; stroke:none;" d="M162 136L163 137L162 136M193 136L194 137L193 136z"/>
<path style="fill:#546e79; stroke:none;" d="M195.667 136.333L196.333 136.667L195.667 136.333z"/>
<path style="fill:#8b989e; stroke:none;" d="M242 136L221 145L221 146L232 147C235.867 144.66 242.105 140.9 242 136M84 137L85 138L84 137z"/>
<path style="fill:#788289; stroke:none;" d="M89 137L90 138L89 137z"/>
<path style="fill:#8b989e; stroke:none;" d="M95 137L94 139L96 139L95 137M100.667 137.333L101.333 137.667L100.667 137.333M106 137L108 139L108 137L106 137z"/>
<path style="fill:#788289; stroke:none;" d="M119 137L119 140L120 140L119 137z"/>
<path style="fill:#8b989e; stroke:none;" d="M160 137L161 138L160 137M191 137L192 138L191 137z"/>
<path style="fill:#788289; stroke:none;" d="M192 137L193 138L192 137z"/>
<path style="fill:#546e79; stroke:none;" d="M146 167L143 168C147.757 173.091 152.365 170.239 158 168.061C169.72 163.53 181.086 158.03 193 154L193 153L185 155L185 154C194.077 151.517 209.035 147.144 213 138L201 140L202 138L201 138L193 142L193 141L197 139C192.417 136.207 188.194 140.005 184 142.219C174.638 147.161 165.434 152.445 156 157.244C151.354 159.607 146.252 161.217 146 167M198 137L199 138L198 137M202 137L203 138L202 137z"/>
<path style="fill:#8b989e; stroke:none;" d="M71 138L70 140L71 138z"/>
<path style="fill:#788289; stroke:none;" d="M88 138L89 139L88 138z"/>
<path style="fill:#8b989e; stroke:none;" d="M98 138L99 139L98 138z"/>
<path style="fill:#fbfbfc; stroke:none;" d="M100 139L100 140L104 138L100 139z"/>
<path style="fill:#788289; stroke:none;" d="M114 138L115 139L114 138z"/>
<path style="fill:#adb2b7; stroke:none;" d="M120 138L120 141L121 141L120 138z"/>
<path style="fill:#788289; stroke:none;" d="M157.667 138.333L158.333 138.667L157.667 138.333z"/>
<path style="fill:#8b989e; stroke:none;" d="M189 138L190 139L189 138z"/>
<path style="fill:#788289; stroke:none;" d="M190 138L191 139L190 138z"/>
<path style="fill:#8b989e; stroke:none;" d="M234 138L235 139L234 138z"/>
<path style="fill:#546e79; stroke:none;" d="M71 139L70 142L71 139z"/>
<path style="fill:#788289; stroke:none;" d="M72.3333 139.667L72.6667 140.333L72.3333 139.667z"/>
<path style="fill:#fbfbfc; stroke:none;" d="M73.3333 139.667L73.6667 140.333L73.3333 139.667z"/>
<path style="fill:#788289; stroke:none;" d="M87 139L88 140L87 139z"/>
<path style="fill:#8b989e; stroke:none;" d="M93 139L92 142L93 139z"/>
<path style="fill:#788289; stroke:none;" d="M107 139L107 144L108 144L107 139z"/>
<path style="fill:#8b989e; stroke:none;" d="M131 139L132 140L131 139z"/>
<path style="fill:#546e79; stroke:none;" d="M132 139L133 140L132 139z"/>
<path style="fill:#788289; stroke:none;" d="M156 139L157 140L156 139z"/>
<path style="fill:#8b989e; stroke:none;" d="M187 139L186 141L187 139z"/>
<path style="fill:#788289; stroke:none;" d="M188 139L189 140L188 139M70 140L71 141L70 140z"/>
<path style="fill:#8b989e; stroke:none;" d="M86 140L87 141L86 140M96 140L97 141L96 140z"/>
<path style="fill:#fbfbfc; stroke:none;" d="M98.6667 140.333L99.3333 140.667L98.6667 140.333z"/>
<path style="fill:#788289; stroke:none;" d="M118 140L118 145L119 145L118 140M154 140L155 141L154 140z"/>
<path style="fill:#8b989e; stroke:none;" d="M155 140L156 141L155 140z"/>
<path style="fill:#788289; stroke:none;" d="M187 140L188 141L187 140z"/>
<path style="fill:#adb2b7; stroke:none;" d="M69 141L70 142L69 141z"/>
<path style="fill:#788289; stroke:none;" d="M71 141L72 142L71 141z"/>
<path style="fill:#8b989e; stroke:none;" d="M85 141L86 142L85 141z"/>
<path style="fill:#788289; stroke:none;" d="M91 141L92 142L91 141z"/>
<path style="fill:#fbfbfc; stroke:none;" d="M97 141L98 142L97 141z"/>
<path style="fill:#546e79; stroke:none;" d="M133 141L134 142L133 141z"/>
<path style="fill:#788289; stroke:none;" d="M152 141L153 142L152 141z"/>
<path style="fill:#8b989e; stroke:none;" d="M153 141L154 142L153 141M184 141L185 142L184 141z"/>
<path style="fill:#788289; stroke:none;" d="M185 141L186 142L185 141z"/>
<path style="fill:#8b989e; stroke:none;" d="M220 141L221 142L220 141z"/>
<path style="fill:#fbfbfc; stroke:none;" d="M63 142L64 143L63 142z"/>
<path style="fill:#8b989e; stroke:none;" d="M69 142L70 143L69 142z"/>
<path style="fill:#788289; stroke:none;" d="M70 142L71 143L70 142z"/>
<path style="fill:#8b989e; stroke:none;" d="M78.3333 142.667L78.6667 143.333L78.3333 142.667z"/>
<path style="fill:#788289; stroke:none;" d="M84 142L85 143L84 142M90 142L91 143L90 142z"/>
<path style="fill:#8b989e; stroke:none;" d="M93 142L92 144L93 142z"/>
<path style="fill:#fbfbfc; stroke:none;" d="M96 142L97 143L96 142z"/>
<path style="fill:#8b989e; stroke:none;" d="M99 142L99 143L102 143L102 148L103 148L103 142L99 142z"/>
<path style="fill:#788289; stroke:none;" d="M100 142L101 143L100 142z"/>
<path style="fill:#546e79; stroke:none;" d="M134.667 142.333L135.333 142.667L134.667 142.333z"/>
<path style="fill:#788289; stroke:none;" d="M150 142L151 143L150 142z"/>
<path style="fill:#8b989e; stroke:none;" d="M182 142L183 143L182 142z"/>
<path style="fill:#788289; stroke:none;" d="M183 142L184 143L183 142z"/>
<path style="fill:#8b989e; stroke:none;" d="M219 142L220 143L219 142z"/>
<path style="fill:#788289; stroke:none;" d="M233 142L232 145L233 142z"/>
<path style="fill:#8b989e; stroke:none;" d="M82 143L83 144L82 143z"/>
<path style="fill:#788289; stroke:none;" d="M83 143L84 144L83 143M89 143L88 145L89 143z"/>
<path style="fill:#fbfbfc; stroke:none;" d="M95 143L96 144L95 143z"/>
<path style="fill:#788289; stroke:none;" d="M95 147L100 144L95 147z"/>
<path style="fill:#adb2b7; stroke:none;" d="M133 143L135 145L133 143z"/>
<path style="fill:#546e79; stroke:none;" d="M136 143L136 144L139 144L136 143z"/>
<path style="fill:#788289; stroke:none;" d="M148 143L149 144L148 143z"/>
<path style="fill:#8b989e; stroke:none;" d="M162 143L162 145L164 143L162 143M180 143L181 144L180 143z"/>
<path style="fill:#788289; stroke:none;" d="M181 143L182 144L181 143z"/>
<path style="fill:#8b989e; stroke:none;" d="M217 143L218 144L217 143z"/>
<path style="fill:#fbfbfc; stroke:none;" d="M62 144L60 150L61 150L62 144M71 144L70 147L71 147L71 144M76 144L77 145L76 144z"/>
<path style="fill:#788289; stroke:none;" d="M82 144L83 145L82 144z"/>
<path style="fill:#8b989e; stroke:none;" d="M89 144L90 145L89 144z"/>
<path style="fill:#fbfbfc; stroke:none;" d="M94 144L95 145L94 144z"/>
<path style="fill:#8b989e; stroke:none;" d="M96 144L97 145L96 144M98 144L99 145L98 144M106 144L108 146L108 144L106 144M146 144L147 145L146 144M178 144L179 145L178 144z"/>
<path style="fill:#788289; stroke:none;" d="M179 144L180 145L179 144z"/>
<path style="fill:#8b989e; stroke:none;" d="M215 144L216 145L215 144z"/>
<path style="fill:#fbfbfc; stroke:none;" d="M74 145L71 150L74 145z"/>
<path style="fill:#8b989e; stroke:none;" d="M80 145L79 147L80 145z"/>
<path style="fill:#788289; stroke:none;" d="M81 145L82 146L81 145M87 145L86 147L87 145z"/>
<path style="fill:#8b989e; stroke:none;" d="M90 145L89 147L90 145z"/>
<path style="fill:#fbfbfc; stroke:none;" d="M93 145L94 146L93 145z"/>
<path style="fill:#8b989e; stroke:none;" d="M95 145L96 146L95 145M97 145L98 146L97 145z"/>
<path style="fill:#788289; stroke:none;" d="M106.333 145.667L106.667 146.333L106.333 145.667M112.333 145.667L112.667 146.333L112.333 145.667M117 145L118 156L119 156L117 145z"/>
<path style="fill:#8b989e; stroke:none;" d="M160 145L161 146L160 145M176 145L177 146L176 145z"/>
<path style="fill:#788289; stroke:none;" d="M177 145L178 146L177 145z"/>
<path style="fill:#8b989e; stroke:none;" d="M213 145L214 146L213 145z"/>
<path style="fill:#788289; stroke:none;" d="M222 145L223 146L222 145M227 145L228 146L227 145M207 151L207 152L210 157C217.191 155.292 227.704 151.256 232 145L207 151M80 146L81 147L80 146z"/>
<path style="fill:#8b989e; stroke:none;" d="M87 146L88 147L87 146z"/>
<path style="fill:#adb2b7; stroke:none;" d="M90 146L91 147L90 146z"/>
<path style="fill:#fbfbfc; stroke:none;" d="M91 146L92 147L91 146z"/>
<path style="fill:#8b989e; stroke:none;" d="M94 146L90 149L90 152C84.7892 152.911 77.5113 159.314 75 164L88 152C91.404 151.414 94.08 149.707 94 146M158 146L159 147L158 146M167 150L167 151L176 147L167 150M211 146L212 147L211 146M219 146L220 147L219 146z"/>
<path style="fill:#788289; stroke:none;" d="M78.6667 147.333L79.3333 147.667L78.6667 147.333z"/>
<path style="fill:#8b989e; stroke:none;" d="M84 149L87 147L84 149M88 147L89 148L88 147z"/>
<path style="fill:#fbfbfc; stroke:none;" d="M90 147L91 148L90 147z"/>
<path style="fill:#788289; stroke:none;" d="M93 147L94 148L93 147z"/>
<path style="fill:#fbfbfc; stroke:none;" d="M103.333 147.667L103.667 148.333L103.333 147.667z"/>
<path style="fill:#8b989e; stroke:none;" d="M105 147L105 153C101.91 153.464 102.504 156.277 103 159L104 159L103 155L107 147L105 147M122 180L121 180C122.071 184.999 128.941 182.557 133 183L130 184L130 185L139 182L133 175C135.704 161.633 144.763 153.788 157 148C147.567 144.439 132.738 164.063 128.611 171C127.419 173.004 123.826 181.579 122 180z"/>
<path style="fill:#788289; stroke:none;" d="M174 147L175 148L174 147z"/>
<path style="fill:#8b989e; stroke:none;" d="M209 147L210 148L209 147M216.667 147.333L217.333 147.667L216.667 147.333M220 147L221 148L220 147M228 149L231 147L228 149M59 148L60 149L59 148M77 148L74 150L74 151L76 152L79 148L77 148z"/>
<path style="fill:#fbfbfc; stroke:none;" d="M89 148L90 149L89 148z"/>
<path style="fill:#8b989e; stroke:none;" d="M101.333 148.667L101.667 149.333L101.333 148.667z"/>
<path style="fill:#788289; stroke:none;" d="M111 148L110 155L111 155L111 148z"/>
<path style="fill:#546e79; stroke:none;" d="M126 148L127 149L126 148z"/>
<path style="fill:#788289; stroke:none;" d="M172 148L173 149L172 148z"/>
<path style="fill:#8b989e; stroke:none;" d="M206 148L207 149L206 148M211 149L211 150L216 149L211 149z"/>
<path style="fill:#788289; stroke:none;" d="M59.3333 149.667L59.6667 150.333L59.3333 149.667M76 149L77 150L76 149z"/>
<path style="fill:#8b989e; stroke:none;" d="M83 149L82 152L83 149z"/>
<path style="fill:#788289; stroke:none;" d="M91 149L92 150L91 149M105 149L106 150L105 149z"/>
<path style="fill:#8b989e; stroke:none;" d="M115 149L112 164L121 158L115 149z"/>
<path style="fill:#546e79; stroke:none;" d="M127 149L129 151L127 149z"/>
<path style="fill:#788289; stroke:none;" d="M170 149L171 150L170 149z"/>
<path style="fill:#546e79; stroke:none;" d="M201 149L202 150L201 149z"/>
<path style="fill:#8b989e; stroke:none;" d="M204 149L205 150L204 149M227 149L228 150L227 149M56 154L57 154L58 151L59 151L58 155L59 155L59 150L56 154z"/>
<path style="fill:#788289; stroke:none;" d="M75 150L76 151L75 150M82 150L83 151L82 150M90 150L91 151L90 150z"/>
<path style="fill:#8b989e; stroke:none;" d="M100 150L100 153L101 153L100 150z"/>
<path style="fill:#fbfbfc; stroke:none;" d="M102.333 150.667L102.667 151.333L102.333 150.667z"/>
<path style="fill:#788289; stroke:none;" d="M168 150L169 151L168 150z"/>
<path style="fill:#546e79; stroke:none;" d="M199 150L200 151L199 150z"/>
<path style="fill:#8b989e; stroke:none;" d="M201.667 150.333L202.333 150.667L201.667 150.333M207 150L207 151L210 151L207 150M225.667 150.333L226.333 150.667L225.667 150.333z"/>
<path style="fill:#adb2b7; stroke:none;" d="M52 151L51 153L52 151z"/>
<path style="fill:#546e79; stroke:none;" d="M58 151L57 154L58 151z"/>
<path style="fill:#fbfbfc; stroke:none;" d="M69 151L70 152L69 151z"/>
<path style="fill:#8b989e; stroke:none;" d="M72 151L73 152L72 151z"/>
<path style="fill:#788289; stroke:none;" d="M73 151L73 153L75 151L73 151M81 151L82 152L81 151M89 151L90 152L89 151M104.333 151.667L104.667 152.333L104.333 151.667z"/>
<path style="fill:#546e79; stroke:none;" d="M129 151L130 152L129 151z"/>
<path style="fill:#8b989e; stroke:none;" d="M165 151L166 152L165 151z"/>
<path style="fill:#788289; stroke:none;" d="M166 151L167 152L166 151z"/>
<path style="fill:#546e79; stroke:none;" d="M197 151L198 152L197 151z"/>
<path style="fill:#8b989e; stroke:none;" d="M199 151L200 152L199 151M203 152L203 153L207 152L203 152z"/>
<path style="fill:#546e79; stroke:none;" d="M216 154L220 152L216 154z"/>
<path style="fill:#8b989e; stroke:none;" d="M223.667 151.333L224.333 151.667L223.667 151.333z"/>
<path style="fill:#fbfbfc; stroke:none;" d="M68 152L67 155L68 152z"/>
<path style="fill:#546e79; stroke:none;" d="M72 152L73 153L72 152z"/>
<path style="fill:#788289; stroke:none;" d="M80 152L81 153L80 152M88 152L89 153L88 152z"/>
<path style="fill:#fbfbfc; stroke:none;" d="M101.333 152.667L101.667 153.333L101.333 152.667z"/>
<path style="fill:#8b989e; stroke:none;" d="M129 152L130 153L129 152M163 152L164 153L163 152z"/>
<path style="fill:#788289; stroke:none;" d="M164 152L165 153L164 152z"/>
<path style="fill:#546e79; stroke:none;" d="M194.667 152.333L195.333 152.667L194.667 152.333z"/>
<path style="fill:#8b989e; stroke:none;" d="M197 152L198 153L197 152z"/>
<path style="fill:#788289; stroke:none;" d="M205 152L206 153L205 152z"/>
<path style="fill:#546e79; stroke:none;" d="M143 179L169 171.863L211 156L210 152C193.067 153.488 175.691 165.417 160 171.536C154.578 173.651 146.46 173.944 143 179z"/>
<path style="fill:#8b989e; stroke:none;" d="M221.667 152.333L222.333 152.667L221.667 152.333M71.6667 153.333L72.3333 153.667L71.6667 153.333M78 153L74 159L78 153z"/>
<path style="fill:#788289; stroke:none;" d="M79 153L80 154L79 153z"/>
<path style="fill:#8b989e; stroke:none;" d="M99.3333 153.667L99.6667 154.333L99.3333 153.667M111 153L112 154L111 153M117 153L118 154L117 153z"/>
<path style="fill:#546e79; stroke:none;" d="M118.333 153.667L118.667 154.333L118.333 153.667M126 153L127 154L126 153z"/>
<path style="fill:#8b989e; stroke:none;" d="M127 153L128 154L127 153M162 153L163 154L162 153M194 153L195 154L194 153M201 153L202 154L201 153z"/>
<path style="fill:#788289; stroke:none;" d="M202 153L203 154L202 153z"/>
<path style="fill:#8b989e; stroke:none;" d="M219 153L217 154L217 155L219 153z"/>
<path style="fill:#adb2b7; stroke:none;" d="M220.667 153.333L221.333 153.667L220.667 153.333z"/>
<path style="fill:#788289; stroke:none;" d="M57 154L58 155L57 154z"/>
<path style="fill:#8b989e; stroke:none;" d="M70 154L71 155L70 154z"/>
<path style="fill:#788289; stroke:none;" d="M78 154L79 155L78 154z"/>
<path style="fill:#fbfbfc; stroke:none;" d="M100.333 154.667L100.667 155.333L100.333 154.667z"/>
<path style="fill:#8b989e; stroke:none;" d="M160 154L161 155L160 154z"/>
<path style="fill:#788289; stroke:none;" d="M161 154L162 155L161 154M191 154L192 155L191 154z"/>
<path style="fill:#8b989e; stroke:none;" d="M192 154L193 155L192 154M190 157L190 158L200 155L190 157z"/>
<path style="fill:#788289; stroke:none;" d="M200 154L201 155L200 154z"/>
<path style="fill:#adb2b7; stroke:none;" d="M219 154L220 155L219 154z"/>
<path style="fill:#8b989e; stroke:none;" d="M69 155L70 156L69 155z"/>
<path style="fill:#788289; stroke:none;" d="M84 155L85 156L84 155z"/>
<path style="fill:#8b989e; stroke:none;" d="M98.3333 155.667L98.6667 156.333L98.3333 155.667z"/>
<path style="fill:#788289; stroke:none;" d="M103.333 155.667L103.667 156.333L103.333 155.667z"/>
<path style="fill:#546e79; stroke:none;" d="M110 155L110 161L111 161L110 155M119.333 155.667L119.667 156.333L119.333 155.667z"/>
<path style="fill:#8b989e; stroke:none;" d="M124 155L125 156L124 155M143 165L159 156C153.297 154.436 145.5 160.111 143 165z"/>
<path style="fill:#788289; stroke:none;" d="M159 155L160 156L159 155M183 155L184 156L183 155M188.667 155.333L189.333 155.667L188.667 155.333M198 155L199 156L198 155z"/>
<path style="fill:#8b989e; stroke:none;" d="M215 155L216 156L215 155z"/>
<path style="fill:#adb2b7; stroke:none;" d="M216.667 155.333L217.333 155.667L216.667 155.333z"/>
<path style="fill:#fbfbfc; stroke:none;" d="M65 156L66 157L65 156z"/>
<path style="fill:#8b989e; stroke:none;" d="M68 156L69 157L68 156z"/>
<path style="fill:#788289; stroke:none;" d="M83 156L84 157L83 156z"/>
<path style="fill:#8b989e; stroke:none;" d="M123 156L124 157L123 156z"/>
<path style="fill:#788289; stroke:none;" d="M157 156L158 157L157 156M180.667 156.333L181.333 156.667L180.667 156.333M186 156L187 157L186 156z"/>
<path style="fill:#8b989e; stroke:none;" d="M187 156L188 157L187 156z"/>
<path style="fill:#788289; stroke:none;" d="M195 156L196 157L195 156z"/>
<path style="fill:#8b989e; stroke:none;" d="M212.667 156.333L213.333 156.667L212.667 156.333z"/>
<path style="fill:#adb2b7; stroke:none;" d="M214.667 156.333L215.333 156.667L214.667 156.333z"/>
<path style="fill:#fbfbfc; stroke:none;" d="M48 157L48 165L43 164C45.7297 167.107 49.5537 165.256 53 164L53 163L50 164L50 162L47 163L50 157L48 157z"/>
<path style="fill:#8b989e; stroke:none;" d="M67 157L68 158L67 157z"/>
<path style="fill:#788289; stroke:none;" d="M74 157L75 158L74 157z"/>
<path style="fill:#8b989e; stroke:none;" d="M97.3333 157.667L97.6667 158.333L97.3333 157.667z"/>
<path style="fill:#fbfbfc; stroke:none;" d="M99 157L100 158L99 157z"/>
<path style="fill:#788289; stroke:none;" d="M102 157L101 162L102 162L102 157z"/>
<path style="fill:#546e79; stroke:none;" d="M120 157L121 158L120 157z"/>
<path style="fill:#8b989e; stroke:none;" d="M118 162L118 163C126.539 165.892 121.781 171.488 120 178L122 179L123 179L122 175L132 162C129.556 154.269 122.751 159.143 118 162z"/>
<path style="fill:#788289; stroke:none;" d="M155 157L156 158L155 157M178 157L179 158L178 157M183.667 157.333L184.333 157.667L183.667 157.333z"/>
<path style="fill:#8b989e; stroke:none;" d="M185 157L186 158L185 157z"/>
<path style="fill:#788289; stroke:none;" d="M192.667 157.333L193.333 157.667L192.667 157.333M208 157L198 162L209 158L208 157z"/>
<path style="fill:#8b989e; stroke:none;" d="M209 157L208 159L209 157z"/>
<path style="fill:#adb2b7; stroke:none;" d="M209 158L209 159L213 158L209 158z"/>
<path style="fill:#8b989e; stroke:none;" d="M65 158L58 162L58 163L65 158z"/>
<path style="fill:#788289; stroke:none;" d="M73 158L74 159L73 158z"/>
<path style="fill:#8b989e; stroke:none;" d="M89 158L90 159L89 158z"/>
<path style="fill:#788289; stroke:none;" d="M152.667 158.333L153.333 158.667L152.667 158.333M181 158L182 159L181 158z"/>
<path style="fill:#8b989e; stroke:none;" d="M182 158L183 159L182 158M183 160L183 161L189 159L183 160z"/>
<path style="fill:#788289; stroke:none;" d="M189.667 158.333L190.333 158.667L189.667 158.333z"/>
<path style="fill:#8b989e; stroke:none;" d="M70 162L73 159L70 162M90 159L91 160L90 159M96.3333 159.667L96.6667 160.333L96.3333 159.667z"/>
<path style="fill:#fbfbfc; stroke:none;" d="M98 159L99 160L98 159z"/>
<path style="fill:#8b989e; stroke:none;" d="M101.333 159.667L101.667 160.333L101.333 159.667z"/>
<path style="fill:#788289; stroke:none;" d="M124 159L122 160L122 161L124 159M150.667 159.333L151.333 159.667L150.667 159.333M178 159L179 160L178 159z"/>
<path style="fill:#8b989e; stroke:none;" d="M179 159L180 160L179 159z"/>
<path style="fill:#788289; stroke:none;" d="M187 159L188 160L187 159z"/>
<path style="fill:#8b989e; stroke:none;" d="M206 159L207 160L206 159z"/>
<path style="fill:#adb2b7; stroke:none;" d="M207.667 159.333L208.333 159.667L207.667 159.333z"/>
<path style="fill:#788289; stroke:none;" d="M90 160L90 163L91 163L90 160M149 160L150 161L149 160M176 160L177 161L176 160z"/>
<path style="fill:#8b989e; stroke:none;" d="M177 160L178 161L177 160z"/>
<path style="fill:#788289; stroke:none;" d="M185 160L186 161L185 160z"/>
<path style="fill:#8b989e; stroke:none;" d="M200 161L200 162L205 161L200 161z"/>
<path style="fill:#adb2b7; stroke:none;" d="M205.667 160.333L206.333 160.667L205.667 160.333z"/>
<path style="fill:#8b989e; stroke:none;" d="M68 161L67 164L68 161z"/>
<path style="fill:#788289; stroke:none;" d="M69 161L70 162L69 161z"/>
<path style="fill:#fbfbfc; stroke:none;" d="M85 161L88 164L85 161z"/>
<path style="fill:#8b989e; stroke:none;" d="M95 161C91.4083 170.311 88.1734 175.183 80 181L80 178L79 178L80 183L77 181L78 184L76 183L77 189C84.2094 184.66 90.5706 182.241 91 173L93 174L95 161z"/>
<path style="fill:#fbfbfc; stroke:none;" d="M97 161L98 162L97 161z"/>
<path style="fill:#8b989e; stroke:none;" d="M102 161L103 162L102 161z"/>
<path style="fill:#788289; stroke:none;" d="M110 161L110 163L112 161L110 161M147 161L148 162L147 161M173 161L174 162L173 161z"/>
<path style="fill:#8b989e; stroke:none;" d="M174 161L175 162L174 161M162 169L162 170L182 162L162 169z"/>
<path style="fill:#788289; stroke:none;" d="M182.667 161.333L183.333 161.667L182.667 161.333z"/>
<path style="fill:#adb2b7; stroke:none;" d="M202.667 161.333L203.333 161.667L202.667 161.333z"/>
<path style="fill:#788289; stroke:none;" d="M67 162L68 163L67 162z"/>
<path style="fill:#fbfbfc; stroke:none;" d="M81 164L84 163L81 164z"/>
<path style="fill:#546e79; stroke:none;" d="M101 162L102 163L101 162M111 162L111 165L112 165L111 162z"/>
<path style="fill:#8b989e; stroke:none;" d="M133 162L134 163L133 162z"/>
<path style="fill:#788289; stroke:none;" d="M146 162L147 163L146 162M171 162L172 163L171 162M180 162L181 163L180 162M194.667 162.333L195.333 162.667L194.667 162.333z"/>
<path style="fill:#8b989e; stroke:none;" d="M196 162L196 163L199 163L196 162z"/>
<path style="fill:#adb2b7; stroke:none;" d="M199.667 162.333L200.333 162.667L199.667 162.333z"/>
<path style="fill:#8b989e; stroke:none;" d="M55.6667 163.333L56.3333 163.667L55.6667 163.333M65.3333 163.667L65.6667 164.333L65.3333 163.667z"/>
<path style="fill:#788289; stroke:none;" d="M66 163L67 164L66 163M74 163L75 164L74 163z"/>
<path style="fill:#8b989e; stroke:none;" d="M78 163L79 164L78 163z"/>
<path style="fill:#788289; stroke:none;" d="M89.3333 163.667L89.6667 164.333L89.3333 163.667M101.333 163.667L101.667 164.333L101.333 163.667z"/>
<path style="fill:#8b989e; stroke:none;" d="M117 163L118 164L117 163z"/>
<path style="fill:#788289; stroke:none;" d="M145 163L146 164L145 163M169 163L170 164L169 163M178 163L179 164L178 163z"/>
<path style="fill:#8b989e; stroke:none;" d="M193 163L192 165L193 163z"/>
<path style="fill:#adb2b7; stroke:none;" d="M194.667 163.333L195.333 163.667L194.667 163.333z"/>
<path style="fill:#fbfbfc; stroke:none;" d="M40 164L40 168L41 168L40 164z"/>
<path style="fill:#8b989e; stroke:none;" d="M53.6667 164.333L54.3333 164.667L53.6667 164.333M59 164L60 165L59 164z"/>
<path style="fill:#788289; stroke:none;" d="M64 164L65 165L64 164z"/>
<path style="fill:#8b989e; stroke:none;" d="M72 164L71 167L72 164z"/>
<path style="fill:#788289; stroke:none;" d="M73 164L74 165L73 164z"/>
<path style="fill:#8b989e; stroke:none;" d="M82.3333 164.667L82.6667 165.333L82.3333 164.667z"/>
<path style="fill:#788289; stroke:none;" d="M83 164L84 165L83 164z"/>
<path style="fill:#8b989e; stroke:none;" d="M84 164L85 165L84 164z"/>
<path style="fill:#788289; stroke:none;" d="M110 164L103 172L101 169L100 169L103 174C105.945 171.415 110.62 168.249 110 164M112 164L113 165L112 164M144 164L142 174L143 174L148 172L144 164z"/>
<path style="fill:#8b989e; stroke:none;" d="M167 164L168 165L167 164z"/>
<path style="fill:#788289; stroke:none;" d="M175 164L176 165L175 164M191 164L192 165L191 164z"/>
<path style="fill:#adb2b7; stroke:none;" d="M193 164L194 165L193 164z"/>
<path style="fill:#788289; stroke:none;" d="M59 167L59 168L64 166L59 167M71 165L72 166L71 165z"/>
<path style="fill:#8b989e; stroke:none;" d="M80 165L79 168L80 168L80 165z"/>
<path style="fill:#788289; stroke:none;" d="M81 165L82 166L81 165z"/>
<path style="fill:#fbfbfc; stroke:none;" d="M86 165L87 166L86 165z"/>
<path style="fill:#788289; stroke:none;" d="M88.3333 165.667L88.6667 166.333L88.3333 165.667M100 165L100 168L101 168L100 165z"/>
<path style="fill:#8b989e; stroke:none;" d="M111 165L112 166L111 165z"/>
<path style="fill:#adb2b7; stroke:none;" d="M144 165L144 167L146 165L144 165z"/>
<path style="fill:#788289; stroke:none;" d="M164 165L165 166L164 165M173 165L174 166L173 165M186 166L186 167L190 166L186 166z"/>
<path style="fill:#8b989e; stroke:none;" d="M190 165L191 166L190 165z"/>
<path style="fill:#adb2b7; stroke:none;" d="M191 165L192 166L191 165z"/>
<path style="fill:#8b989e; stroke:none;" d="M38.3333 166.667L38.6667 167.333L38.3333 166.667M62 166L63 167L62 166M69.3333 166.667L69.6667 167.333L69.3333 166.667z"/>
<path style="fill:#788289; stroke:none;" d="M70 166L71 167L70 166M80 166L81 167L80 166z"/>
<path style="fill:#fbfbfc; stroke:none;" d="M95 166L96 167L95 166z"/>
<path style="fill:#8b989e; stroke:none;" d="M110 166L111 167L110 166z"/>
<path style="fill:#788289; stroke:none;" d="M145 166L146 167L145 166M162 166L163 167L162 166M171 166L172 167L171 166M184 166L185 167L184 166z"/>
<path style="fill:#8b989e; stroke:none;" d="M188 166L189 167L188 166z"/>
<path style="fill:#adb2b7; stroke:none;" d="M189.667 166.333L190.333 166.667L189.667 166.333z"/>
<path style="fill:#8b989e; stroke:none;" d="M58 167L44 171L44 172C47.0636 172 59.7473 171.698 58 167M60 167L61 168L60 167z"/>
<path style="fill:#788289; stroke:none;" d="M68 167L69 168L68 167z"/>
<path style="fill:#8b989e; stroke:none;" d="M77 167L73 170L73 171L77 167z"/>
<path style="fill:#788289; stroke:none;" d="M78 167L79 168L78 167z"/>
<path style="fill:#8b989e; stroke:none;" d="M83 167L84 168L83 167z"/>
<path style="fill:#788289; stroke:none;" d="M87 167L88 168L87 167z"/>
<path style="fill:#8b989e; stroke:none;" d="M13 212C16.9335 216.473 21.3665 216.595 27 216L26 218L31 218L31 217L29 216L37 212L34 216L39 213L39 218L67 216L69 211C54.9035 215.419 62.7677 203.23 71 200L60 210L60 211L76 201L68 209L69 210L78 208L78 209L72 212L73 212L74 212L79 209L81 213L81 212L79 212L79 211L88 211L88 210L82 211L82 210L95 208L94 204L99 206L98 204L101 205L103 201L102 203L105 200L89 199L99 198L99 197L88 198L99 187L100 187L98 192L105 187L96 194L96 195L112 196L110 200L115 197L129 190C124.955 188.755 119.81 191.124 117.492 186.111C115.481 181.763 124.85 167.866 115.945 167.417C110.646 167.15 107.222 172.686 103.91 175.925C97.7264 181.972 90.3962 187.232 83 191.691C62.4987 204.053 36.7336 210.127 13 212M142 167L143 168L142 167z"/>
<path style="fill:#788289; stroke:none;" d="M159 167L160 168L159 167z"/>
<path style="fill:#8b989e; stroke:none;" d="M160 167L161 168L160 167z"/>
<path style="fill:#788289; stroke:none;" d="M169 167L170 168L169 167M179 167L180 168L179 167z"/>
<path style="fill:#8b989e; stroke:none;" d="M180.667 167.333L181.333 167.667L180.667 167.333z"/>
<path style="fill:#adb2b7; stroke:none;" d="M182.667 167.333L183.333 167.667L182.667 167.333z"/>
<path style="fill:#8b989e; stroke:none;" d="M184 167L185 168L184 167z"/>
<path style="fill:#adb2b7; stroke:none;" d="M185 167L185 168L188 168L185 167z"/>
<path style="fill:#8b989e; stroke:none;" d="M63 170L63 171L68 169L63 170M86.6667 168.333L87.3333 168.667L86.6667 168.333z"/>
<path style="fill:#546e79; stroke:none;" d="M100 168L101 169L100 168z"/>
<path style="fill:#8b989e; stroke:none;" d="M108 168L109 169L108 168z"/>
<path style="fill:#788289; stroke:none;" d="M156.667 168.333L157.333 168.667L156.667 168.333z"/>
<path style="fill:#8b989e; stroke:none;" d="M158 168L159 169L158 168z"/>
<path style="fill:#788289; stroke:none;" d="M166 168L167 169L166 168z"/>
<path style="fill:#8b989e; stroke:none;" d="M178 168L177 170L178 168z"/>
<path style="fill:#adb2b7; stroke:none;" d="M179 168L180 169L179 168z"/>
<path style="fill:#788289; stroke:none;" d="M86 169L87 170L86 169z"/>
<path style="fill:#8b989e; stroke:none;" d="M107 169L108 170L107 169z"/>
<path style="fill:#788289; stroke:none;" d="M154 169L155 170L154 169z"/>
<path style="fill:#8b989e; stroke:none;" d="M155 169L156 170L155 169z"/>
<path style="fill:#788289; stroke:none;" d="M163.667 169.333L164.333 169.667L163.667 169.333M176 169L177 170L176 169z"/>
<path style="fill:#adb2b7; stroke:none;" d="M178 169L179 170L178 169z"/>
<path style="fill:#8b989e; stroke:none;" d="M81 170L80 172L81 170M84 172L87 170L84 172M98 170L92 184L95 181L93 182L93 181L102 176L98 170z"/>
<path style="fill:#adb2b7; stroke:none;" d="M111 170L112 171L111 170z"/>
<path style="fill:#788289; stroke:none;" d="M152 170L153 171L152 170z"/>
<path style="fill:#8b989e; stroke:none;" d="M153 170L154 171L153 170M160 170L161 171L160 170z"/>
<path style="fill:#788289; stroke:none;" d="M161.667 170.333L162.333 170.667L161.667 170.333M174 170L169 171L169 172L175 171L174 170z"/>
<path style="fill:#8b989e; stroke:none;" d="M175 170L176 171L175 170z"/>
<path style="fill:#adb2b7; stroke:none;" d="M176.667 170.333L177.333 170.667L176.667 170.333z"/>
<path style="fill:#8b989e; stroke:none;" d="M58 174L63 172L58 174M71.6667 171.333L72.3333 171.667L71.6667 171.333z"/>
<path style="fill:#788289; stroke:none;" d="M149 171L150 172L149 171z"/>
<path style="fill:#8b989e; stroke:none;" d="M150 171L151 172L150 171M157.667 171.333L158.333 171.667L157.667 171.333z"/>
<path style="fill:#788289; stroke:none;" d="M159.667 171.333L160.333 171.667L159.667 171.333z"/>
<path style="fill:#adb2b7; stroke:none;" d="M174.667 171.333L175.333 171.667L174.667 171.333z"/>
<path style="fill:#8b989e; stroke:none;" d="M30 172L31 173L30 172M65 176L71 173L65 176z"/>
<path style="fill:#788289; stroke:none;" d="M84 172L80 179L81 179L84 172z"/>
<path style="fill:#546e79; stroke:none;" d="M101 172L103 175L101 172z"/>
<path style="fill:#8b989e; stroke:none;" d="M104 172L105 173L104 172z"/>
<path style="fill:#546e79; stroke:none;" d="M143.667 172.333L144.333 172.667L143.667 172.333z"/>
<path style="fill:#8b989e; stroke:none;" d="M147 172L148 173L147 172M154.667 172.333L155.333 172.667L154.667 172.333z"/>
<path style="fill:#788289; stroke:none;" d="M156.667 172.333L157.333 172.667L156.667 172.333M166 172L167 173L166 172z"/>
<path style="fill:#8b989e; stroke:none;" d="M167 172L168 173L167 172z"/>
<path style="fill:#adb2b7; stroke:none;" d="M168 172L168 173L173 173L168 172z"/>
<path style="fill:#8b989e; stroke:none;" d="M29 173L29 176L30 176L29 173M56.3333 173.667L56.6667 174.333L56.3333 173.667z"/>
<path style="fill:#788289; stroke:none;" d="M57 173L58 174L57 173z"/>
<path style="fill:#8b989e; stroke:none;" d="M79 173L80 174L79 173M84 173L85 174L84 173z"/>
<path style="fill:#788289; stroke:none;" d="M91 173L91 177L92 177L91 173z"/>
<path style="fill:#8b989e; stroke:none;" d="M103 173L104 174L103 173M143 173L144 174L143 173M152 173L153 174L152 173z"/>
<path style="fill:#788289; stroke:none;" d="M153 173L154 174L153 173z"/>
<path style="fill:#8b989e; stroke:none;" d="M165 173L166 174L165 173z"/>
<path style="fill:#adb2b7; stroke:none;" d="M166 173L167 174L166 173z"/>
<path style="fill:#788289; stroke:none;" d="M54.6667 174.333L55.3333 174.667L54.6667 174.333z"/>
<path style="fill:#8b989e; stroke:none;" d="M78 174L79 175L78 174M82 174L83 175L82 174M142 174L142 179L143 179L143 176L147 176L147 175L142 174M148.667 174.333L149.333 174.667L148.667 174.333z"/>
<path style="fill:#788289; stroke:none;" d="M150 174L151 175L150 174M164 174L165 175L164 174z"/>
<path style="fill:#adb2b7; stroke:none;" d="M165 174L166 175L165 174z"/>
<path style="fill:#8b989e; stroke:none;" d="M31 175L31 176L37 177L37 176L31 175M51.3333 175.667L51.6667 176.333L51.3333 175.667z"/>
<path style="fill:#788289; stroke:none;" d="M52 175L53 176L52 175z"/>
<path style="fill:#8b989e; stroke:none;" d="M53 175L54 176L53 175M63 175L61 178L63 175z"/>
<path style="fill:#788289; stroke:none;" d="M64 175L65 176L64 175z"/>
<path style="fill:#8b989e; stroke:none;" d="M77 175L78 176L77 175M81 175L82 176L81 175z"/>
<path style="fill:#788289; stroke:none;" d="M100 175L101 176L100 175M122.333 175.667L122.667 176.333L122.333 175.667M142 175L143 176L142 175M147 175L148 176L147 175z"/>
<path style="fill:#8b989e; stroke:none;" d="M162 175L160 176L160 177L162 175z"/>
<path style="fill:#adb2b7; stroke:none;" d="M163.667 175.333L164.333 175.667L163.667 175.333z"/>
<path style="fill:#8b989e; stroke:none;" d="M48.3333 176.667L48.6667 177.333L48.3333 176.667z"/>
<path style="fill:#788289; stroke:none;" d="M49.6667 176.333L50.3333 176.667L49.6667 176.333z"/>
<path style="fill:#8b989e; stroke:none;" d="M76 176L77 177L76 176M82 176L83 177L82 176z"/>
<path style="fill:#788289; stroke:none;" d="M99 176L93 182L99 176M143.667 176.333L144.333 176.667L143.667 176.333M156 176L156 177L160 177L156 176z"/>
<path style="fill:#adb2b7; stroke:none;" d="M162 176L163 177L162 176z"/>
<path style="fill:#8b989e; stroke:none;" d="M28 178L25 185L31 185L30 181L47 178L28 178z"/>
<path style="fill:#788289; stroke:none;" d="M47 177L48 178L47 177z"/>
<path style="fill:#8b989e; stroke:none;" d="M59 177L44 183L44 184C47.4905 183.299 59.8 181.512 59 177z"/>
<path style="fill:#788289; stroke:none;" d="M60 177L61 178L60 177z"/>
<path style="fill:#8b989e; stroke:none;" d="M75 177L76 178L75 177M81 177L82 178L81 177z"/>
<path style="fill:#546e79; stroke:none;" d="M91 177L91 184L92 184L91 177z"/>
<path style="fill:#788289; stroke:none;" d="M121 177L120 185L133 183L121 183L121 177z"/>
<path style="fill:#adb2b7; stroke:none;" d="M134 177L136 182L137 182L134 177z"/>
<path style="fill:#8b989e; stroke:none;" d="M154 177L155 178L154 177z"/>
<path style="fill:#adb2b7; stroke:none;" d="M155 177L156 178L155 177z"/>
<path style="fill:#8b989e; stroke:none;" d="M74 178L75 179L74 178z"/>
<path style="fill:#788289; stroke:none;" d="M90 178L77 189L77 184L76 184L66 198L74 194L75 190L79 192L81 191L80 189L83 190L84 187L88 187L91 185L90 178z"/>
<path style="fill:#8b989e; stroke:none;" d="M98 178L99 179L98 178z"/>
<path style="fill:#788289; stroke:none;" d="M152 178L153 179L152 178z"/>
<path style="fill:#adb2b7; stroke:none;" d="M153 178L154 179L153 178M29.3333 179.667L29.6667 180.333L29.3333 179.667z"/>
<path style="fill:#8b989e; stroke:none;" d="M73.3333 179.667L73.6667 180.333L73.3333 179.667z"/>
<path style="fill:#788289; stroke:none;" d="M79 179L80 180L79 179z"/>
<path style="fill:#8b989e; stroke:none;" d="M119 179L120 180L119 179M145 179L146 180L145 179z"/>
<path style="fill:#788289; stroke:none;" d="M146 179L146 180L151 180L146 179z"/>
<path style="fill:#8b989e; stroke:none;" d="M151 179L152 180L151 179z"/>
<path style="fill:#adb2b7; stroke:none;" d="M152 179L153 180L152 179z"/>
<path style="fill:#8b989e; stroke:none;" d="M21 180L18 184L21 180z"/>
<path style="fill:#adb2b7; stroke:none;" d="M31 180L32 181L31 180z"/>
<path style="fill:#8b989e; stroke:none;" d="M63.3333 180.667L63.6667 181.333L63.3333 180.667z"/>
<path style="fill:#788289; stroke:none;" d="M78.3333 180.667L78.6667 181.333L78.3333 180.667z"/>
<path style="fill:#adb2b7; stroke:none;" d="M146 180L146 181L152 181L146 180z"/>
<path style="fill:#8b989e; stroke:none;" d="M34 181L35 182L34 181M72 181C67.4207 186.573 62.8147 189.68 56 192L60 187L60 186L50 197L67 191L68 194L75 187L68 192L67 189L68 187L72 181z"/>
<path style="fill:#adb2b7; stroke:none;" d="M79.3333 181.667L79.6667 182.333L79.3333 181.667z"/>
<path style="fill:#8b989e; stroke:none;" d="M118 181L118 184L119 184L118 181M32 182L32 184L34 184L32 182M62.3333 182.667L62.6667 183.333L62.3333 182.667z"/>
<path style="fill:#788289; stroke:none;" d="M77.3333 182.667L77.6667 183.333L77.3333 182.667M92 182L93 183L92 182z"/>
<path style="fill:#8b989e; stroke:none;" d="M22 183L23 185L24 185L25 183L22 183M35 183L36 184L35 183M42 183L37 185L37 186L42 183z"/>
<path style="fill:#788289; stroke:none;" d="M43 183L44 184L43 183z"/>
<path style="fill:#8b989e; stroke:none;" d="M20 184L21 185L20 184M61 184L62 185L61 184z"/>
<path style="fill:#adb2b7; stroke:none;" d="M71 184L70 186L71 184z"/>
<path style="fill:#fbfbfc; stroke:none;" d="M72 184L73 185L72 184z"/>
<path style="fill:#546e79; stroke:none;" d="M89 184L88 186L89 184z"/>
<path style="fill:#8b989e; stroke:none;" d="M119 184L125 187L125 186L119 184M32 188L36 185L32 188z"/>
<path style="fill:#788289; stroke:none;" d="M36 185L37 186L36 185M60 185L61 186L60 185z"/>
<path style="fill:#fbfbfc; stroke:none;" d="M71 185L70 187L72 187L71 185z"/>
<path style="fill:#8b989e; stroke:none;" d="M75 185L76 186L75 185M89 185L90 186L89 185M125 185L125 186L129 186L125 185M14 186L12 189L14 186M16 187L16 188L31 188C26.8409 184.849 20.855 185.844 16 187z"/>
<path style="fill:#788289; stroke:none;" d="M30 186L30 187L33 187L30 186z"/>
<path style="fill:#546e79; stroke:none;" d="M86 186L87 187L86 186z"/>
<path style="fill:#8b989e; stroke:none;" d="M132 186L131 188L132 186z"/>
<path style="fill:#fbfbfc; stroke:none;" d="M38 187L39 188L38 187z"/>
<path style="fill:#788289; stroke:none;" d="M58 187L59 188L58 187M68 187L69 188L68 187z"/>
<path style="fill:#546e79; stroke:none;" d="M84 187L85 188L84 187z"/>
<path style="fill:#8b989e; stroke:none;" d="M86 187L87 188L86 187z"/>
<path style="fill:#788289; stroke:none;" d="M99 187L88 198C94.4319 197.867 101.996 194.89 107 200L110 200L112 196L96 195L99 187z"/>
<path style="fill:#adb2b7; stroke:none;" d="M104 187L98 193L99 194L104 187z"/>
<path style="fill:#546e79; stroke:none;" d="M82 188L83 189L82 188z"/>
<path style="fill:#8b989e; stroke:none;" d="M84 188L85 189L84 188z"/>
<path style="fill:#788289; stroke:none;" d="M67.3333 189.667L67.6667 190.333L67.3333 189.667z"/>
<path style="fill:#546e79; stroke:none;" d="M80.6667 189.333L81.3333 189.667L80.6667 189.333M74 193L78 192L76 190L74 193M79 190L80 191L79 190z"/>
<path style="fill:#8b989e; stroke:none;" d="M81 190L82 191L81 190z"/>
<path style="fill:#788289; stroke:none;" d="M66 191L50 197L52 193L42.8958 201.436L13 208L13 209C19.2186 209 31.7029 210.108 36 205L43 206L43 205L41 205L41 204L46 201L47 201L48 204L49 204C49.5694 199.618 54.5432 200.404 58 201L58 200L56 200L56 199L60 200L59 198L60 198L62 199L63 199L66 191z"/>
<path style="fill:#8b989e; stroke:none;" d="M79 191L80 192L79 191z"/>
<path style="fill:#546e79; stroke:none;" d="M96 191L91 196L96 191z"/>
<path style="fill:#788289; stroke:none;" d="M52 192L53 193L52 192z"/>
<path style="fill:#8b989e; stroke:none;" d="M77 192L78 193L77 192z"/>
<path style="fill:#546e79; stroke:none;" d="M66 193L62 197L62 198C65.2202 197.465 67.1244 196.428 66 193M72 193L70 194L70 195L72 193z"/>
<path style="fill:#8b989e; stroke:none;" d="M74 193L75 194L74 193M72 194L73 195L72 194M14 210C14.4858 206.282 20.1079 206.531 23.3889 205.694C31.7003 203.576 44.3837 205.118 48 196C40.9178 194.524 24.7529 197.557 18.0008 200.469C13.9035 202.236 8.81072 206.58 14 210M48 195L49 196L48 195M70 195L71 196L70 195z"/>
<path style="fill:#546e79; stroke:none;" d="M100 195L100 196L105 196L100 195z"/>
<path style="fill:#8b989e; stroke:none;" d="M68 196L69 197L68 196z"/>
<path style="fill:#adb2b7; stroke:none;" d="M118 196L119 197L118 196M89 199C92.4514 203.824 99.8587 199.837 105 200L101 205L113 201C104.097 197.101 98.3746 198.254 89 199z"/>
<path style="fill:#8b989e; stroke:none;" d="M105 197L106 198L105 197z"/>
<path style="fill:#788289; stroke:none;" d="M115 197L116 198L115 197z"/>
<path style="fill:#adb2b7; stroke:none;" d="M117 197L118 198L117 197z"/>
<path style="fill:#546e79; stroke:none;" d="M59.6667 198.333L60.3333 198.667L59.6667 198.333z"/>
<path style="fill:#8b989e; stroke:none;" d="M63 198L64 199L63 198M106.333 198.667L106.667 199.333L106.333 198.667z"/>
<path style="fill:#adb2b7; stroke:none;" d="M113 199L113 200L117 199L113 199z"/>
<path style="fill:#546e79; stroke:none;" d="M56 199L56 200L59 200L56 199z"/>
<path style="fill:#8b989e; stroke:none;" d="M60 199L61 200L60 199z"/>
<path style="fill:#546e79; stroke:none;" d="M48 202L48 203L56 201L48 202z"/>
<path style="fill:#8b989e; stroke:none;" d="M58 200L59 201L58 200z"/>
<path style="fill:#788289; stroke:none;" d="M59 211L71 200C65.1679 201.522 60.6592 205.089 59 211z"/>
<path style="fill:#546e79; stroke:none;" d="M46 201L41 204L41 205L48 204L46 201z"/>
<path style="fill:#788289; stroke:none;" d="M53 201L54 202L53 201z"/>
<path style="fill:#8b989e; stroke:none;" d="M54.6667 201.333L55.3333 201.667L54.6667 201.333z"/>
<path style="fill:#adb2b7; stroke:none;" d="M59 212L69 211L68 208L76 201L59 212z"/>
<path style="fill:#788289; stroke:none;" d="M100 204L103 201L100 204M51 202L52 203L51 202z"/>
<path style="fill:#8b989e; stroke:none;" d="M52 202L53 203L52 202z"/>
<path style="fill:#788289; stroke:none;" d="M96 203L97 204L96 203z"/>
<path style="fill:#adb2b7; stroke:none;" d="M2 204L3 205L2 204z"/>
<path style="fill:#8b989e; stroke:none;" d="M46 204L47 205L46 204z"/>
<path style="fill:#546e79; stroke:none;" d="M65 204L60 209L65 204z"/>
<path style="fill:#788289; stroke:none;" d="M94 204L94 207L98 206L98 205L94 204M98.6667 204.333L99.3333 204.667L98.6667 204.333z"/>
<path style="fill:#546e79; stroke:none;" d="M36.6667 205.333L37.3333 205.667L36.6667 205.333M39 205L40 206L39 205z"/>
<path style="fill:#8b989e; stroke:none;" d="M43 205L44 206L43 205z"/>
<path style="fill:#adb2b7; stroke:none;" d="M59 205L60 206L59 205z"/>
<path style="fill:#788289; stroke:none;" d="M93 205L94 206L93 205z"/>
<path style="fill:#adb2b7; stroke:none;" d="M99.6667 205.333L100.333 205.667L99.6667 205.333z"/>
<path style="fill:#8b989e; stroke:none;" d="M36.6667 206.333L37.3333 206.667L36.6667 206.333z"/>
<path style="fill:#adb2b7; stroke:none;" d="M50 206L50 207L52 208L43 213L43 214L52 215L52 214L49 213L49 212L56 211L57 211L59 213C57.5692 209.843 56.4927 208.867 53 209L55 207L50 206z"/>
<path style="fill:#788289; stroke:none;" d="M82 210L82 211L94 207L82 210z"/>
<path style="fill:#8b989e; stroke:none;" d="M96 206L97 207L96 206z"/>
<path style="fill:#adb2b7; stroke:none;" d="M97.6667 206.333L98.3333 206.667L97.6667 206.333z"/>
<path style="fill:#8b989e; stroke:none;" d="M31.6667 207.333L32.3333 207.667L31.6667 207.333z"/>
<path style="fill:#adb2b7; stroke:none;" d="M56 207L57 208L56 207M58 207L59 208L58 207z"/>
<path style="fill:#788289; stroke:none;" d="M66 214L66 215L70 210L72 212L78 209C72.4295 204.857 69.7216 210.38 66 214z"/>
<path style="fill:#adb2b7; stroke:none;" d="M95 207L96 208L95 207z"/>
<path style="fill:#8b989e; stroke:none;" d="M24 208L24 209L28 209L24 208z"/>
<path style="fill:#546e79; stroke:none;" d="M72 208L73 209L72 208z"/>
<path style="fill:#8b989e; stroke:none;" d="M91 208L92 209L91 208z"/>
<path style="fill:#adb2b7; stroke:none;" d="M92.6667 208.333L93.3333 208.667L92.6667 208.333z"/>
<path style="fill:#8b989e; stroke:none;" d="M15 209L15 210L19 210L15 209z"/>
<path style="fill:#adb2b7; stroke:none;" d="M41 209L41 210L44 211L41 209z"/>
<path style="fill:#788289; stroke:none;" d="M44 212L48 209L44 212z"/>
<path style="fill:#adb2b7; stroke:none;" d="M78 209L73 210L69 215L86 213L86 212L75 213L75 212L78 209z"/>
<path style="fill:#8b989e; stroke:none;" d="M89 209L90 210L89 209z"/>
<path style="fill:#adb2b7; stroke:none;" d="M90 209L91 210L90 209z"/>
<path style="fill:#fbfbfc; stroke:none;" d="M9 210L11 212L9 210z"/>
<path style="fill:#546e79; stroke:none;" d="M46 210L47 211L46 210z"/>
<path style="fill:#8b989e; stroke:none;" d="M55 210L54 212L55 210z"/>
<path style="fill:#546e79; stroke:none;" d="M70 210L69 214L70 214L70 210z"/>
<path style="fill:#adb2b7; stroke:none;" d="M88.6667 210.333L89.3333 210.667L88.6667 210.333M40 211L40 212L43 212L40 211z"/>
<path style="fill:#788289; stroke:none;" d="M79 211L79 212L82 212L79 211z"/>
<path style="fill:#adb2b7; stroke:none;" d="M87 211L88 212L87 211z"/>
<path style="fill:#788289; stroke:none;" d="M29 217L37 212L29 217z"/>
<path style="fill:#8b989e; stroke:none;" d="M70 212L71 213L70 212M75 212L76 213L75 212z"/>
<path style="fill:#788289; stroke:none;" d="M76 212L76 213L79 213L76 212z"/>
<path style="fill:#adb2b7; stroke:none;" d="M38 213L33 216L33 217L39 218L38 213M41 213L42 214L41 213z"/>
<path style="fill:#546e79; stroke:none;" d="M31.6667 215.333L32.3333 215.667L31.6667 215.333z"/>
<path style="fill:#adb2b7; stroke:none;" d="M41 215L42 216L41 215z"/>
<path style="fill:#788289; stroke:none;" d="M53 216L53 217L64 216L53 216z"/>
<path style="fill:#546e79; stroke:none;" d="M64 215L65 216L64 215z"/>
<path style="fill:#788289; stroke:none;" d="M65 215L66 216L65 215z"/>
<path style="fill:#adb2b7; stroke:none;" d="M67.6667 215.333L68.3333 215.667L67.6667 215.333M18 216L18 217L21 217L18 216z"/>
<path style="fill:#788289; stroke:none;" d="M23 216L23 217L27 217L23 216z"/>
<path style="fill:#546e79; stroke:none;" d="M30 216L31 217L30 216z"/>
<path style="fill:#788289; stroke:none;" d="M51 216L52 217L51 216z"/>
<path style="fill:#8b989e; stroke:none;" d="M63 216L64 217L63 216z"/>
<path style="fill:#adb2b7; stroke:none;" d="M57 218L57 219L67 217L57 218M22 217L22 218L26 218L22 217M31.6667 217.333L32.3333 217.667L31.6667 217.333z"/>
<path style="fill:#788289; stroke:none;" d="M43 217L43 218L50 218L43 217z"/>
<path style="fill:#adb2b7; stroke:none;" d="M52 217L52 218L55 218L52 217z"/>
<path style="fill:#8b989e; stroke:none;" d="M55 217L55 218L60 218L55 217z"/>
<path style="fill:#adb2b7; stroke:none;" d="M40 218L40 219L50 219L40 218z"/>
</svg>
