<?xml version="1.0" standalone="yes"?>
<svg xmlns="http://www.w3.org/2000/svg" width="250" height="250">
<path style="fill:#f8e1e4; stroke:none;" d="M0 0L0 250L51 250L51 249L39 248L41 244L41 247L45 247L45 243L45 242L37 240L36 240L32 242L32 241L36 235L29 227C32.294 224.575 32.6565 221.622 31 218L38 219L38 225L41 225C40.8683 221.314 44.5047 218.486 45.6667 215C47.4573 209.628 47.4713 199.655 47 194C45.9118 180.942 42.8038 168.297 41.6667 155.333C40.8931 146.515 43.4665 136.804 43.8333 128C44.2084 118.998 43.4359 109.256 44.6667 100.333C46.3953 87.8007 47.5679 74.4742 50.1667 62C51.3872 56.1415 54.3895 51.6001 51 46L56 44L55 41L56 41C59.8659 53.0985 56.533 69.0262 57.0185 82C57.272 88.7723 59.8071 95.1531 59.9815 102C60.591 125.939 57.1755 150.055 57 174C56.9242 184.344 54.996 194.571 55 205C55.0016 209.261 54.1891 214.593 59 216C59.9992 222.174 64.4468 222.997 70 222C71.1266 224.006 71.8734 224.006 73 222L77 223L77 222L75 221L77 219C74.985 219 70.888 217.548 75 217L75 216L70 211L71 211L73 215L76 213L76 212C71.7918 202.156 79.2808 194.289 87 189L86 195C83.1046 197.195 83.9384 199.803 85 203L80 202L78 210L81 209L81 212C77.7352 212.686 75.8716 216.097 80 217L80 218L78 219C85.1588 223.346 98.4274 222.208 106 219L106 217L102 217L101 216L102 214L99 215L96 194L98 195L99 190L96 191L96 186L95 186L95 188L94 188L94 183L96 183L99 166L100 166L102 182L105 181L105 182L102 183L102 184C106.099 187.746 107.507 192.543 107 198C109.794 198 110.015 201.892 108 203L112 222L116 222L116 223C112.508 224.057 111.568 225.418 111 229L112 229L112 226L113 226L114 232L112 230L111 230L111 234C107.077 234.542 108.066 238.484 110 241C106.405 240.53 107.013 237.103 107 234L106 234L106 242L105 242L105 237C102.338 237.144 101.364 237.819 101 235L100 235L99 241L101 240L101 241L89 242L89 241L96 241L96 233L95 233L94 238L93 238L93 232L92 232L92 239L91 239L91 232L90 232L88 239L87 239L88 232L82 232L81 229L78 229L73 239L69 239L70 242L57 234L52 250L196 250L191 237L189 237L188 242L169 241L171 236L165 233L168 233L169 233L173 235L167 228L158 230L157 230L156 227L154 229C152.995 225.984 152.179 224.295 155 225L155 222L155 221C150.684 221.453 139.987 220.394 139 225L138 225L137 222L135 228L133 227L132 230L129 225L126 227L125 227L125 233L124 233L120 221L170 221C168.817 216.6 168.048 212.81 171 209L169 201L171 194L169 188L170 188L172 193L175 192L167 171L168 171L174 180C173.5 174.012 172.382 167.452 177 163L180 167L180 168L177 168L177 169L176.299 182.985L179.829 203L180 225L176 225L176 226L183 229C184.203 225.09 184.976 223.371 189 222L190 209L190 208L188 207C195.087 193.522 188.024 170.728 188 156C187.991 150.261 188.235 141.82 185 137C189.048 129.173 185.343 110.96 184.285 102C182.579 87.538 185.786 73.1089 185.755 58.7145C185.737 49.8621 183.995 40.3219 188 32L190 47L191 47L191 44L194 45C189.75 50.2945 191.338 54.6866 191.925 61C193.009 72.6528 192.346 84.3997 193.715 96C198.535 136.857 199 178.938 199 220L211 224L210 226L213 227L210 228L210 229C216.515 228.64 219.219 225.049 221 219C219.101 216.892 219.002 216.046 221 214L219 197C228.011 209.14 220 231.042 220 245L219 245L219 235L216 234L215 238C211.218 236.036 208.816 236.158 205 238L207 233L203 231L205 228L209 228C205.093 225.331 198.906 225.157 199 231C192.574 233.142 194.789 242.358 198 243L198 244L196 248L210 248L210 249L201 249L201 250L250 250L250 0L0 0z"/>
<path style="fill:#e9b7bd; stroke:none;" d="M120 1L119 4L116 3L109 6L109 7L116 7L116 12L118 7L122 1L120 1M124 3L123 7L169 9L163 15L164 18C155.251 19.0207 145.331 27.2056 138 32L138 33L147 29L146 31L147 31L147 28L155 27L133 39L133 33C129.898 33.9483 129.134 34.7494 129 38L122 39L124 35C118.109 31.712 112.156 27.3282 112 20L119 20L119 19L101 13L104 8L84 8L74 8C74.7217 14.4805 78.8982 18.9254 85 21L85 20L81 15L98 9C100.23 15.5613 108.89 28.6483 115 32L115 33L67 23L55 36C66.2615 26.9282 67.9483 25.6127 82 30.0247C90.6006 32.7251 99.326 34.4289 108 36.8079C110.976 37.6241 115.879 36.976 117.397 40.2431C119.436 44.6327 118 52.2354 118 57C118 69.8624 117.015 83.3014 118.475 96.0895C119.07 101.306 117.197 109.886 122 113C121.984 89.5704 117.69 64.9411 124 42L130 42C127.916 49.8282 129.881 58.0554 129.981 66C130.17 80.8883 126.763 99.6645 131 114L133 114C138.385 101.238 135.334 79.0212 134.831 65C134.615 58.9839 133.334 50.5535 136.938 45.2137C141.312 38.7351 155.967 34.8539 163 31.7299C168.928 29.097 175.412 23.8729 182 25L175 6L150.576 4.23225L124 3z"/>
<path style="fill:#f8e1e4; stroke:none;" d="M169 8L170 9L169 8M99 9L100 10L99 9z"/>
<path style="fill:#e9b7bd; stroke:none;" d="M123 9L121 21L144 20L143 17L147 11C139.313 14.6148 134.685 20.6614 126 18L123 9z"/>
<path style="fill:#c38287; stroke:none;" d="M76 11L80 16L79 10L76 11z"/>
<path style="fill:#e9b7bd; stroke:none;" d="M150 10L151 16L159 13L150 10M118 13L117 15L118 13z"/>
<path style="fill:#f8e1e4; stroke:none;" d="M109 21L112 19L109 21M123.667 19.3333L124.333 19.6667L123.667 19.3333M167 21L167 22L172 22L167 21z"/>
<path style="fill:#e9b7bd; stroke:none;" d="M141 21L142 22L141 21M117 22L119 24L119 22L117 22z"/>
<path style="fill:#c38287; stroke:none;" d="M119.667 22.3333L120.333 22.6667L119.667 22.3333z"/>
<path style="fill:#665a5c; stroke:none;" d="M121 22L121 23L131 23L121 22z"/>
<path style="fill:#e9b7bd; stroke:none;" d="M131 22L130 30L131 30L131 22z"/>
<path style="fill:#f8e1e4; stroke:none;" d="M163 22L155 26L155 27C158.574 26.5661 162.414 26.0896 163 22z"/>
<path style="fill:#665a5c; stroke:none;" d="M119 23L119 29L120 29L119 23z"/>
<path style="fill:#302c2c; stroke:none;" d="M120 23L120 29L131 29L131 23L120 23z"/>
<path style="fill:#e9b7bd; stroke:none;" d="M160 24L161 25L160 24z"/>
<path style="fill:#c38287; stroke:none;" d="M173 24L174 25L173 24z"/>
<path style="fill:#665a5c; stroke:none;" d="M124 25L124 27L126 27L126 25L124 25z"/>
<path style="fill:#c38287; stroke:none;" d="M132 41L132 42C145.362 41.3068 159.744 31.0959 172 26C159.79 23.8611 143.687 38.2551 132 41z"/>
<path style="fill:#e9b7bd; stroke:none;" d="M183 25L190 32L183 25z"/>
<path style="fill:#f8e1e4; stroke:none;" d="M150 27L151 28L150 27z"/>
<path style="fill:#c38287; stroke:none;" d="M85.6667 29.3333L86.3333 29.6667L85.6667 29.3333z"/>
<path style="fill:#e9b7bd; stroke:none;" d="M119 29L120 30L119 29z"/>
<path style="fill:#c38287; stroke:none;" d="M120 29L120 30L130 30L120 29M92 31L93 32L92 31M96 32L96 33L100 33L96 32z"/>
<path style="fill:#e9b7bd; stroke:none;" d="M187 32C184.78 41.3232 185.866 50.4409 185.451 59.8302C184.845 73.5299 183.147 87.2434 184.09 101C184.815 111.593 188.53 127.006 185 137C190.135 147.177 188.235 162.87 188.343 174C188.39 178.916 190.174 183.595 190.176 188.588C190.178 193.49 186.122 204.585 190 208L190 209L189 222C184.718 222.916 183.705 224.803 183 229L176 226L176 225L180 225L179.794 197.715L176.573 182.985L177 169L177 168L180 168L180 167L177 167L177 163C171.659 166.373 173.082 174.458 174 180L168 171L167 171C168.138 177.384 176.509 187.197 172 193L170 188L169 188L171 194L169 201L171 209C167.494 212.019 168.394 217.101 170 221C154.073 221 135.404 216.447 120 221L124 233L125 233L125 227L126 227L127 229L129 225L132 230L133 227L135 228L137 222L138 225L139 225L139 222L155 221L155 222L153 223L155 225C152.374 225 153.209 226.763 154 229C156.288 228.058 156.658 227.437 157 230L158 230L159 228L167 228L173 235L169 233L168 233L165 233C166.551 235.862 167.766 236.652 171 236L169 241L188 242L192 237C191.102 250.539 199.978 249.028 210 249L210 248L196 248L198 244L198 243C194.442 239.06 195.324 234.389 199 231C200.353 225.519 204.561 225.88 209 228L205 228L203 231L207 233L205 238L215 238L216 234L219 235L219 245L220 245C220 232.824 229.077 206.338 219 197L221 214C218.626 215.78 218.626 217.22 221 219C218.655 224.43 216.183 228.306 210 229L210 228L213 227L210 226L211 224L199 220C199 178.697 197.751 137.2 193.83 96C192.943 86.6781 193.715 77.2973 192.83 68C192.049 59.7874 189.351 52.3062 194 45L191 44L191 47L190 47L187 32z"/>
<path style="fill:#c38287; stroke:none;" d="M101 33L102 34L101 33z"/>
<path style="fill:#e9b7bd; stroke:none;" d="M136 33L137 34L136 33z"/>
<path style="fill:#c38287; stroke:none;" d="M119 36L119 38L121 38L119 36z"/>
<path style="fill:#e9b7bd; stroke:none;" d="M192 36L193 37L192 36M54 37L55 38L54 37z"/>
<path style="fill:#c38287; stroke:none;" d="M131.333 38.6667L131.667 39.3333L131.333 38.6667z"/>
<path style="fill:#e9b7bd; stroke:none;" d="M193 38L194 45C198.737 44.004 195.282 40.2665 193 38M56 40L57 41L56 40z"/>
<path style="fill:#f8e1e4; stroke:none;" d="M121 40L122 41L121 40z"/>
<path style="fill:#e9b7bd; stroke:none;" d="M55 41L56 44L51 46L48.7454 68L44.3225 104L41.5394 155L46.6705 194.996L45.5926 213.015L41 225L38 225L38 219L31 218L33 220L29 227L36 235L34 237L32 241L32 242L36 240L37 240L45 242L45 243L43 244L43 245L45 247L41 247L41 244L39 248C52.6168 249.075 54.1787 247.676 57 234L70 242L69 239L73 239L78 229L81 229L82 232L88 232L87 239L88 239L90 232L91 232L91 239L92 239L92 232L93 232L93 238L94 238L95 233L96 233L96 241L89 241L89 242L101 240L99 241L99 240L100 235L101 235L101 238L105 237L105 242L106 242L106 234L107 234C107.013 237.218 106.408 240.549 110 241C108.212 238.615 106.916 232.979 111 234L111 230L112 230L114 232L113 226L112 226L112 229L111 229L116 223L116 222L112 222L108 203C109.83 201.319 109.571 198.417 107 198C108.255 192.904 106.623 186.797 102 184L102 183L105 182L105 181L102 182L100 166L99 166L96 183L94 183L94 188L95 188L95 186L96 186L96 191L99 190L97 192L98 195L96 194L96 195L99 215L102 214L102 217L106 217L106 219L86 221.278L80 218L80 217C77.5245 214.996 78.5307 213.536 81 212L81 209L78 210L80 202L85 203L86 195L87 189C78.8428 192.801 70.7935 203.01 76 212L76 213L73 215L71 211L70 211C70.5875 214.403 71.6494 215.272 75 216L75 217L72 217L77 219C75.6103 221.316 73.8723 221.374 77 222L77 223L73 222L70 222C64.6882 222.418 60.6373 221.546 59 216C49.3318 210.085 56.9071 183.633 57 174C57.2284 150.323 59.9954 126.69 59.9938 103.001C59.9933 94.3918 57.0425 86.5412 57.0008 78C56.9544 68.5106 61.1824 48.1092 55 41z"/>
<path style="fill:#c38287; stroke:none;" d="M120 44L120 48L121 48L120 44M131 56L131 61L132 61L131 56M188 65C186.154 108 193 150.02 193 193C193 202.464 195.549 213.8 193.471 223C192.561 227.031 188.35 232.678 192 236L195.687 224L196 208L190.17 105L188 65M120 107L121 108L120 107z"/>
<path style="fill:#e9b7bd; stroke:none;" d="M91 136L92 137L91 136M93 142L92 145L95 145L93 142M89 144L90 145L89 144M89 147L91 162L89 161L89 162L88 172L97 152L94 153L95 146L89 147M99 152L99 153C100.96 153.653 101.554 154 99 154L99 155L112 153L99 152M115 152L115 153L120 152L115 152M132 151L133 152L132 151M135 154L137 152L145 152C141.873 150.198 135.895 149.825 135 154M146 151L147 152L146 151M160 152L161 153L160 152M131 153L132 154L131 153M161 154L166 171L167 171L161 154M98 157L86 188L90 182L91 182L91 184L92 184L100 157L98 157M104 160L105 161L104 160M101 161L102 162L101 161M178 162L178 166L179 166L180 162L178 162M101 164L101 167L102 167L101 164M88 173L87 176L88 176L88 173M220.333 174.667L220.667 175.333L220.333 174.667M186 184L187 185L186 184M221 186L221 192L222 192L221 186M221 194L221 198L222 198L221 194z"/>
<path style="fill:#f8e1e4; stroke:none;" d="M82 199L83 200L82 199M220 200L221 201L220 200M76.3333 203.667L76.6667 204.333L76.3333 203.667z"/>
<path style="fill:#e9b7bd; stroke:none;" d="M31 208L32 209L31 208M96 208L97 209L96 208M134 208L135 209L134 208M72 209L73 210L72 209M58.3333 212.667L58.6667 213.333L58.3333 212.667M73.3333 212.667L73.6667 213.333L73.3333 212.667M89 212L90 213L89 212M33.3333 213.667L33.6667 214.333L33.3333 213.667M136 216L139 214L136 216M89 215L90 216L89 215M38 216L40 219L38 216z"/>
<path style="fill:#f8e1e4; stroke:none;" d="M57 217L58 218L57 217z"/>
<path style="fill:#e9b7bd; stroke:none;" d="M41.3333 218.667L41.6667 219.333L41.3333 218.667M39 221L40 222L39 221z"/>
<path style="fill:#f8e1e4; stroke:none;" d="M35 222L35 225L36 225L35 222M124 223L125 224L124 223M71 226L74 226L75 231L76 231L80 224L71 226M134 224L135 225L134 224z"/>
<path style="fill:#e9b7bd; stroke:none;" d="M182 224L183 225L182 224z"/>
<path style="fill:#f8e1e4; stroke:none;" d="M51 231L58 231C56.2394 225.57 51.3046 224.07 51 231M32 226L33 227L32 226M154 226L155 227L154 226z"/>
<path style="fill:#e9b7bd; stroke:none;" d="M76 227L77 228L76 227z"/>
<path style="fill:#f8e1e4; stroke:none;" d="M105.333 227.667L105.667 228.333L105.333 227.667z"/>
<path style="fill:#e9b7bd; stroke:none;" d="M129 227L129 231L130 231L129 227M182 227L183 228L182 227z"/>
<path style="fill:#f8e1e4; stroke:none;" d="M178 228L177 230L179 230L178 228z"/>
<path style="fill:#e9b7bd; stroke:none;" d="M133 229L134 230L133 229M144 229L144 232L143 232L143 230L142 230L137 236L138 241L130 238L129 238L128 241L126 239L122 241L122 242L156 242L156 239L153 238L141 241L142 234L143 236L144 236L144 229M166 229L167 233L168 233L166 229z"/>
<path style="fill:#f8e1e4; stroke:none;" d="M180 229L182 231L180 229z"/>
<path style="fill:#e9b7bd; stroke:none;" d="M152 230L155 235L152 230M154 230L155 231L154 230M158.333 230.667L158.667 231.333L158.333 230.667M161 230L162 231L161 230M163 230L164 231L163 230z"/>
<path style="fill:#f8e1e4; stroke:none;" d="M172.333 230.667L172.667 231.333L172.333 230.667z"/>
<path style="fill:#e9b7bd; stroke:none;" d="M133 231L134 232L133 231z"/>
<path style="fill:#f8e1e4; stroke:none;" d="M49 232L50 233L49 232M51 234L54 232L51 234M97 232L97 241L98 241L97 232M100 232L101 233L100 232z"/>
<path style="fill:#e9b7bd; stroke:none;" d="M114 232L115 233L114 232M128 232L128 235L129 235L128 232M130 232L130 235L131 235L130 232M149 232L149 237L150 237L149 232z"/>
<path style="fill:#f8e1e4; stroke:none;" d="M179.667 232.333L180.333 232.667L179.667 232.333z"/>
<path style="fill:#e9b7bd; stroke:none;" d="M81 233L82 234L81 233M125.333 233.667L125.667 234.333L125.333 233.667M147.333 233.667L147.667 234.333L147.333 233.667M159.333 233.667L159.667 234.333L159.333 233.667M162 233L163 234L162 233M75 234L76 235L75 234M78.3333 234.667L78.6667 235.333L78.3333 234.667M111 234L111 239L112 239L111 234M151 234L152 235L151 234z"/>
<path style="fill:#f8e1e4; stroke:none;" d="M70 235L71 236L70 235z"/>
<path style="fill:#e9b7bd; stroke:none;" d="M84 235L85 236L84 235M161 235L162 236L161 235z"/>
<path style="fill:#f8e1e4; stroke:none;" d="M178 235L179 236L178 235z"/>
<path style="fill:#e9b7bd; stroke:none;" d="M125 236L126 237L125 236M131 236L132 237L131 236z"/>
<path style="fill:#f8e1e4; stroke:none;" d="M139 236L139 241L140 241L139 236z"/>
<path style="fill:#e9b7bd; stroke:none;" d="M158 236L159 237L158 236z"/>
<path style="fill:#f8e1e4; stroke:none;" d="M176 236L177 237L176 236z"/>
<path style="fill:#e9b7bd; stroke:none;" d="M203 236L204 237L203 236M162 237L163 241L164 241L162 237z"/>
<path style="fill:#c38287; stroke:none;" d="M191 237L192 238L191 237z"/>
<path style="fill:#e9b7bd; stroke:none;" d="M83 238L84 239L83 238M102 238L102 242L103 242L102 238M120 238L120 242L121 242L120 238M144 238L145 239L144 238M159 238L162 241L159 238M168 238L169 239L168 238M77 239L78 240L77 239M123 239L124 240L123 239M166 239L167 240L166 239M214 239L215 240L214 239z"/>
<path style="fill:#f8e1e4; stroke:none;" d="M49 240L50 241L49 240z"/>
<path style="fill:#e9b7bd; stroke:none;" d="M111.333 240.667L111.667 241.333L111.333 240.667M199 240L200 241L199 240M73 241L73 242L77 242L73 241M85 241L86 242L85 241M87 241L88 242L87 241M117.667 241.333L118.333 241.667L117.667 241.333M158 241L159 242L158 241z"/>
<path style="fill:#f8e1e4; stroke:none;" d="M50 242L51 243L50 242z"/>
<path style="fill:#e9b7bd; stroke:none;" d="M199 242L200 243L199 242M35 243L36 244L35 243M39 243L40 244L39 243M34 245L34 246L38 247L38 246L34 245z"/>
<path style="fill:#f8e1e4; stroke:none;" d="M47 245L48 246L47 245z"/>
<path style="fill:#e9b7bd; stroke:none;" d="M200 245L201 246L200 245M205 245L206 246L205 245z"/>
</svg>
