<?xml version="1.0" standalone="yes"?>
<svg xmlns="http://www.w3.org/2000/svg" width="250" height="250">
<path style="fill:#f7f7f7; stroke:none;" d="M0 0L0 250L250 250L250 0L0 0z"/>
<path style="fill:#c2b58e; stroke:none;" d="M117 37L117 38L123 38L117 37M105 38L105 39L108 39L105 38z"/>
<path style="fill:#c95f45; stroke:none;" d="M56 66L56 67C68.0327 62.6145 80.6435 67.7012 92 72.2037C110.703 79.6189 128.194 89.8807 145 100.861C157.008 108.707 168.071 117.959 183 118C181.575 86.8213 151.036 44.3352 119 40L119 39C152.906 41.9602 181.422 84.8856 186 116C193.646 111.641 194.475 102.069 193.91 94C192.499 73.8487 178.906 58.5377 162 48.8727C124.266 27.3001 86.8849 40.5819 56 66z"/>
<path style="fill:#706d67; stroke:none;" d="M110 38L110 39L115 39L110 38z"/>
<path style="fill:#3d3433; stroke:none;" d="M115.667 38.3333L116.333 38.6667L115.667 38.3333z"/>
<path style="fill:#706d67; stroke:none;" d="M117.667 38.3333L118.333 38.6667L117.667 38.3333z"/>
<path style="fill:#c2b58e; stroke:none;" d="M130 38L130 39L133 39L130 38M100 39L100 40L103 40L100 39z"/>
<path style="fill:#706d67; stroke:none;" d="M119 39L120 40L119 39z"/>
<path style="fill:#3d3433; stroke:none;" d="M120 39L120 40C151.829 47.3669 180.204 85.9314 183 118C167.72 117.873 155.197 107.127 143 99C127.051 88.3721 109.81 79.1026 92 72C81.0566 67.6358 67.5505 62.1261 56 67L56 68C67.2412 65.4167 80.7874 71.2243 91 75.5787C108.508 83.0438 125.001 92.387 141 102.692C155.466 112.01 167.141 122 185 122C185.753 139.541 187.551 148.976 167 152C166.364 138.118 155.748 129.01 145 121.745C129.094 110.994 111.407 102.662 94 94.6914C80.3331 88.4335 65.3037 81.0422 50 81C54.7495 87.2671 71.555 89.2531 79 92.4275C106.76 104.264 155.022 121.376 164 153C132.761 159.058 100.908 160.179 70 151.421C58.8718 148.267 43.6608 142.859 38 132L37 132C41.0192 145.532 57.5215 151.819 70 155.116C101.972 163.563 130.736 160.55 163 158C158.001 186.043 118.097 196.997 94 197L94 198C115.049 198 136.486 193.802 153 179.699C160.652 173.164 162.036 162.827 168.513 156.702C172.412 153.015 180.9 151.392 186 150C185.561 155.518 184.914 163.126 181.91 167.896C178.685 173.019 170.954 176.68 166 179.999C151.856 189.475 137.294 199.671 120 202L120 203C143.339 201.982 159.156 184.388 179 175L168 191L191 166L184 168L189.013 149.209L200 140L199 150L200 150L204 131L203 131L203 133L202 133L202 103L201 103C201 118.58 204.443 135.392 189 144C188.999 137.296 186.161 128.524 187.734 122.09C188.718 118.065 192.619 115.093 193.943 111C197.235 100.826 195.17 89.9152 192 80L191 80C193.797 92.2296 197.608 107.014 186 116C183.212 84.0243 152.889 43.4506 120 39z"/>
<path style="fill:#706d67; stroke:none;" d="M123 39L124 40L123 39z"/>
<path style="fill:#c2b58e; stroke:none;" d="M136 39L136 40L139 40L136 39M97.6667 40.3333L98.3333 40.6667L97.6667 40.3333z"/>
<path style="fill:#706d67; stroke:none;" d="M122 40L123 41L122 40z"/>
<path style="fill:#c2b58e; stroke:none;" d="M140.667 40.3333L141.333 40.6667L140.667 40.3333M94 41L95 42L94 41z"/>
<path style="fill:#706d67; stroke:none;" d="M129 41L130 42L129 41z"/>
<path style="fill:#c2b58e; stroke:none;" d="M144.667 41.3333L145.333 41.6667L144.667 41.3333M91 42L92 43L91 42z"/>
<path style="fill:#706d67; stroke:none;" d="M128 42L129 43L128 42z"/>
<path style="fill:#c2b58e; stroke:none;" d="M147.667 42.3333L148.333 42.6667L147.667 42.3333M88.6667 43.3333L89.3333 43.6667L88.6667 43.3333z"/>
<path style="fill:#706d67; stroke:none;" d="M130 43L131 44L130 43M134 43L135 44L134 43z"/>
<path style="fill:#c2b58e; stroke:none;" d="M150 43L151 44L150 43M86 44L87 45L86 44z"/>
<path style="fill:#706d67; stroke:none;" d="M136 44L137 45L136 44z"/>
<path style="fill:#c2b58e; stroke:none;" d="M153 44L154 45L153 44M84 45L85 46L84 45z"/>
<path style="fill:#706d67; stroke:none;" d="M134 45L135 46L134 45z"/>
<path style="fill:#c2b58e; stroke:none;" d="M155 45L156 46L155 45M82 46L83 47L82 46z"/>
<path style="fill:#706d67; stroke:none;" d="M136 46L137 47L136 46z"/>
<path style="fill:#c2b58e; stroke:none;" d="M157 46L158 47L157 46M80 47L81 48L80 47M159 47L160 48L159 47M78 48L79 49L78 48z"/>
<path style="fill:#706d67; stroke:none;" d="M139 48L140 49L139 48z"/>
<path style="fill:#c2b58e; stroke:none;" d="M161 48L162 49L161 48M76 49L77 50L76 49z"/>
<path style="fill:#706d67; stroke:none;" d="M144 49L145 50L144 49z"/>
<path style="fill:#c2b58e; stroke:none;" d="M163 49L164 50L163 49z"/>
<path style="fill:#706d67; stroke:none;" d="M142 50L143 51L142 50z"/>
<path style="fill:#c2b58e; stroke:none;" d="M164 50L165 51L164 50M73 51L74 52L73 51z"/>
<path style="fill:#706d67; stroke:none;" d="M143 51L144 52L143 51z"/>
<path style="fill:#c2b58e; stroke:none;" d="M166 51L167 52L166 51M72 52L73 53L72 52z"/>
<path style="fill:#706d67; stroke:none;" d="M145 52L146 53L145 52M148 52L149 53L148 52z"/>
<path style="fill:#c2b58e; stroke:none;" d="M167 52L168 53L167 52M70 53L71 54L70 53z"/>
<path style="fill:#706d67; stroke:none;" d="M146 53L147 54L146 53z"/>
<path style="fill:#c2b58e; stroke:none;" d="M169 53L170 54L169 53M69 54L70 55L69 54z"/>
<path style="fill:#706d67; stroke:none;" d="M147 54L148 55L147 54z"/>
<path style="fill:#c2b58e; stroke:none;" d="M170 54L171 55L170 54M66 56L67 57L66 56M173 56L174 57L173 56M65 57L66 58L65 57M174 57L175 58L174 57M64 58L65 59L64 58M175 58L176 59L175 58M63 59L64 60L63 59M176 59L177 60L176 59M62 60L63 61L62 60M61 61L62 62L61 61M178 61L179 62L178 61M179 62L180 63L179 62M58 64L59 65L58 64z"/>
<path style="fill:#706d67; stroke:none;" d="M157 64L158 65L157 64z"/>
<path style="fill:#c2b58e; stroke:none;" d="M181 64L182 65L181 64z"/>
<path style="fill:#706d67; stroke:none;" d="M59 65L60 66L59 65M70 65L71 66L70 65M158 65L159 66L158 65z"/>
<path style="fill:#c2b58e; stroke:none;" d="M182 65L183 66L182 65z"/>
<path style="fill:#706d67; stroke:none;" d="M162 66L163 67L162 66z"/>
<path style="fill:#c2b58e; stroke:none;" d="M183 66L184 67L183 66M54 68L54 69L57 69L54 68z"/>
<path style="fill:#706d67; stroke:none;" d="M57 67L57 68L64 68L57 67z"/>
<path style="fill:#c2b58e; stroke:none;" d="M184 67L185 68L184 67z"/>
<path style="fill:#706d67; stroke:none;" d="M55 68L56 69L55 68z"/>
<path style="fill:#c2b58e; stroke:none;" d="M66 68L66 69L69 69L66 68z"/>
<path style="fill:#706d67; stroke:none;" d="M69 68L70 69L69 68M82 68L83 69L82 68z"/>
<path style="fill:#c2b58e; stroke:none;" d="M185 68L187 70L185 68M71.6667 69.3333L72.3333 69.6667L71.6667 69.3333z"/>
<path style="fill:#706d67; stroke:none;" d="M73 69L74 70L73 69M161 69L162 70L161 69M185 69L186 70L185 69z"/>
<path style="fill:#c2b58e; stroke:none;" d="M75.6667 70.3333L76.3333 70.6667L75.6667 70.3333z"/>
<path style="fill:#706d67; stroke:none;" d="M77 70L78 71L77 70M162 70L163 71L162 70M186 70L187 71L186 70z"/>
<path style="fill:#c2b58e; stroke:none;" d="M78.6667 71.3333L79.3333 71.6667L78.6667 71.3333z"/>
<path style="fill:#706d67; stroke:none;" d="M80 71L81 72L80 71M90 71L91 72L90 71z"/>
<path style="fill:#c2b58e; stroke:none;" d="M187 71L189 73L187 71M81.6667 72.3333L82.3333 72.6667L81.6667 72.3333z"/>
<path style="fill:#706d67; stroke:none;" d="M83 72L84 73L83 72M187 72L188 73L187 72z"/>
<path style="fill:#c2b58e; stroke:none;" d="M84 73L85 74L84 73z"/>
<path style="fill:#706d67; stroke:none;" d="M85.6667 73.3333L86.3333 73.6667L85.6667 73.3333M95 73L96 74L95 73M164 73L165 74L164 73M188 73L190 78L191 78L188 73z"/>
<path style="fill:#c2b58e; stroke:none;" d="M86.6667 74.3333L87.3333 74.6667L86.6667 74.3333z"/>
<path style="fill:#706d67; stroke:none;" d="M88 74L89 75L88 74M168 74L169 75L168 74z"/>
<path style="fill:#c2b58e; stroke:none;" d="M189 74L190 75L189 74M89 75L90 76L89 75z"/>
<path style="fill:#706d67; stroke:none;" d="M90 75L91 76L90 75z"/>
<path style="fill:#c2b58e; stroke:none;" d="M92 76L93 77L92 76z"/>
<path style="fill:#706d67; stroke:none;" d="M93 76L94 77L93 76M166 76L167 77L166 76z"/>
<path style="fill:#c2b58e; stroke:none;" d="M190 76L191 77L190 76M94 77L95 78L94 77z"/>
<path style="fill:#706d67; stroke:none;" d="M95 77L96 78L95 77M170 77L171 78L170 77z"/>
<path style="fill:#c2b58e; stroke:none;" d="M191 77L195.91 103L188.321 122L189 143C207.56 137.073 198.258 109.769 201 95L200 95L200 97L199 97L200 92L198 93L198 92C198.041 86.5432 194.685 80.9363 191 77M96 78L97 79L96 78z"/>
<path style="fill:#706d67; stroke:none;" d="M97 78L98 79L97 78z"/>
<path style="fill:#3d3433; stroke:none;" d="M190 78L191 79L190 78z"/>
<path style="fill:#c2b58e; stroke:none;" d="M98 79L99 80L98 79z"/>
<path style="fill:#706d67; stroke:none;" d="M99.6667 79.3333L100.333 79.6667L99.6667 79.3333M108 79L109 80L108 79M168 79L169 80L168 79M190.667 79.3333L191.333 79.6667L190.667 79.3333z"/>
<path style="fill:#c2b58e; stroke:none;" d="M46 80L47 81L46 80z"/>
<path style="fill:#706d67; stroke:none;" d="M46 83L53 84L53 83L50 81L55 81C51.4755 79.5247 48.1441 79.6928 46 83z"/>
<path style="fill:#c2b58e; stroke:none;" d="M55 80L55 81L58 81L55 80M100.667 80.3333L101.333 80.6667L100.667 80.3333z"/>
<path style="fill:#706d67; stroke:none;" d="M102 80L103 81L102 80M110 80L111 81L110 80M58.6667 81.3333L59.3333 81.6667L58.6667 81.3333z"/>
<path style="fill:#c2b58e; stroke:none;" d="M60.6667 81.3333L61.3333 81.6667L60.6667 81.3333M103 81L103 82L109 85L109 84L103 81z"/>
<path style="fill:#706d67; stroke:none;" d="M104 81L105 82L104 81M112 81L113 82L112 81M169 81L170 82L169 81M192 81L193 82L192 81z"/>
<path style="fill:#c2b58e; stroke:none;" d="M45 82L44 85L45 82z"/>
<path style="fill:#706d67; stroke:none;" d="M62 82L63 83L62 82z"/>
<path style="fill:#c2b58e; stroke:none;" d="M63.6667 82.3333L64.3333 82.6667L63.6667 82.3333z"/>
<path style="fill:#706d67; stroke:none;" d="M106 82L107 83L106 82M114 82L115 83L114 82M173 82L174 83L173 82z"/>
<path style="fill:#c95f45; stroke:none;" d="M164 153C160.848 137.771 149.786 129.314 137 121.601C118.737 110.584 99.574 101.159 80 92.7191C72.9904 89.6966 52.5169 79.0417 45.3935 84.6181C41.1987 87.9019 39.88 96.1142 38.6296 101C33.9871 119.141 33.7631 134.95 52 144.677C83.5184 161.488 130.141 161.76 164 153z"/>
<path style="fill:#706d67; stroke:none;" d="M65.6667 83.3333L66.3333 83.6667L65.6667 83.3333z"/>
<path style="fill:#c2b58e; stroke:none;" d="M67.6667 83.3333L68.3333 83.6667L67.6667 83.3333z"/>
<path style="fill:#706d67; stroke:none;" d="M108 83L109 84L108 83M116 83L117 84L116 83M56 84L57 85L56 84M68.6667 84.3333L69.3333 84.6667L68.6667 84.3333z"/>
<path style="fill:#c2b58e; stroke:none;" d="M70 84L71 85L70 84z"/>
<path style="fill:#706d67; stroke:none;" d="M109 84L110 85L109 84M174 84L175 85L174 84M193 84L194 85L193 84M71.6667 85.3333L72.3333 85.6667L71.6667 85.3333z"/>
<path style="fill:#c2b58e; stroke:none;" d="M73 85L74 86L73 85M110.667 85.3333L111.333 85.6667L110.667 85.3333z"/>
<path style="fill:#706d67; stroke:none;" d="M192 85L193 86L192 85z"/>
<path style="fill:#c2b58e; stroke:none;" d="M43 86L44 87L43 86z"/>
<path style="fill:#706d67; stroke:none;" d="M63 86L64 87L63 86M74 86L75 87L74 86z"/>
<path style="fill:#c2b58e; stroke:none;" d="M75 86L76 87L75 86M112 86L113 87L112 86z"/>
<path style="fill:#706d67; stroke:none;" d="M113 86L114 87L113 86M66 87L67 88L66 87M77 87L78 88L77 87z"/>
<path style="fill:#c2b58e; stroke:none;" d="M78 87L79 88L78 87M114 87L115 88L114 87z"/>
<path style="fill:#706d67; stroke:none;" d="M115 87L116 88L115 87M194.333 87.6667L194.667 88.3333L194.333 87.6667z"/>
<path style="fill:#c2b58e; stroke:none;" d="M42 88L43 89L42 88M80 88L81 89L80 88M116 88L117 89L116 88z"/>
<path style="fill:#706d67; stroke:none;" d="M117 88L118 89L117 88M82 89L83 90L82 89z"/>
<path style="fill:#c2b58e; stroke:none;" d="M83 89L84 90L83 89M118 89L121 94L118 94L111 96L111 102L111 103C133.428 112.34 161.536 127.09 168 152C172.666 150.921 181.968 149.351 184.972 145.301C188.617 140.388 185.301 127.449 184 122C175.265 123.899 167.336 119.449 160 115.139C145.821 106.808 132.961 95.9933 118 89z"/>
<path style="fill:#706d67; stroke:none;" d="M119 89L120 90L119 89z"/>
<path style="fill:#c2b58e; stroke:none;" d="M41.3333 90.6667L41.6667 91.3333L41.3333 90.6667z"/>
<path style="fill:#706d67; stroke:none;" d="M74 90L75 91L74 90M84 90L85 91L84 90z"/>
<path style="fill:#c2b58e; stroke:none;" d="M85 90L86 91L85 90z"/>
<path style="fill:#706d67; stroke:none;" d="M121 90L122 91L121 90M177 90L178 91L177 90M193 90L194 91L193 90M87 91L88 92L87 91z"/>
<path style="fill:#c2b58e; stroke:none;" d="M88 91L89 92L88 91M116 91L117 92L116 91z"/>
<path style="fill:#f7f7f7; stroke:none;" d="M120 91L121 92L120 91z"/>
<path style="fill:#706d67; stroke:none;" d="M122 91L123 92L122 91M198.333 91.6667L198.667 92.3333L198.333 91.6667M79 92L80 93L79 92M89 92L90 93L89 92z"/>
<path style="fill:#c2b58e; stroke:none;" d="M90 92L91 93L90 92z"/>
<path style="fill:#706d67; stroke:none;" d="M124 92L125 93L124 92M195 92L195 98L196 98L195 92z"/>
<path style="fill:#c2b58e; stroke:none;" d="M40.3333 93.6667L40.6667 94.3333L40.3333 93.6667z"/>
<path style="fill:#706d67; stroke:none;" d="M81 93L82 94L81 93M91 93L92 94L91 93z"/>
<path style="fill:#c2b58e; stroke:none;" d="M92 93L93 94L92 93M117 93L118 94L117 93z"/>
<path style="fill:#706d67; stroke:none;" d="M126 93L127 94L126 93M199 93L199 97L200 97L199 93M93 94L94 95L93 94z"/>
<path style="fill:#c2b58e; stroke:none;" d="M94 94L94 95L98 96L98 95L94 94M112 94L113 95L112 94M115 94L116 95L115 94z"/>
<path style="fill:#f7f7f7; stroke:none;" d="M121 94L121 97L122 97L121 94z"/>
<path style="fill:#706d67; stroke:none;" d="M127 94L128 95L127 94M95 95L96 96L95 95M129 95L130 96L129 95z"/>
<path style="fill:#c2b58e; stroke:none;" d="M39.3333 96.6667L39.6667 97.3333L39.3333 96.6667z"/>
<path style="fill:#706d67; stroke:none;" d="M88 96L89 97L88 96M98 96L99 97L98 96z"/>
<path style="fill:#c2b58e; stroke:none;" d="M99 96L100 97L99 96z"/>
<path style="fill:#f7f7f7; stroke:none;" d="M114 96L112 98L115 101L118 99L114 96z"/>
<path style="fill:#706d67; stroke:none;" d="M131 96L132 97L131 96M90 97L91 98L90 97M100 97L101 98L100 97z"/>
<path style="fill:#c2b58e; stroke:none;" d="M101 97L102 98L101 97z"/>
<path style="fill:#706d67; stroke:none;" d="M132 97L133 98L132 97M200 97L201 98L200 97M102 98L103 99L102 98z"/>
<path style="fill:#c2b58e; stroke:none;" d="M103 98L104 99L103 98z"/>
<path style="fill:#f7f7f7; stroke:none;" d="M120 98L121 99L120 98z"/>
<path style="fill:#706d67; stroke:none;" d="M134 98L135 99L134 98z"/>
<path style="fill:#3d3433; stroke:none;" d="M200 98L200 101L201 101L200 98z"/>
<path style="fill:#c2b58e; stroke:none;" d="M38 99L38 102L39 102L38 99z"/>
<path style="fill:#706d67; stroke:none;" d="M104 99L105 100L104 99z"/>
<path style="fill:#c2b58e; stroke:none;" d="M105 99L106 100L105 99M201 99L202 100L201 99z"/>
<path style="fill:#706d67; stroke:none;" d="M106 100L107 101L106 100z"/>
<path style="fill:#c2b58e; stroke:none;" d="M107 100L108 101L107 100z"/>
<path style="fill:#f7f7f7; stroke:none;" d="M117 100L118 101L117 100z"/>
<path style="fill:#706d67; stroke:none;" d="M137 100L138 101L137 100z"/>
<path style="fill:#c95f45; stroke:none;" d="M201 100L202 101L201 100z"/>
<path style="fill:#706d67; stroke:none;" d="M108 101L109 102L108 101z"/>
<path style="fill:#c2b58e; stroke:none;" d="M109 101L110 102L109 101z"/>
<path style="fill:#706d67; stroke:none;" d="M139 101L140 102L139 101M146 101L147 102L146 101M200 101L200 109L201 109L202 101L200 101M110 102L111 103L110 102M140 102L141 103L140 102z"/>
<path style="fill:#c2b58e; stroke:none;" d="M202.333 102.667L202.667 103.333L202.333 102.667z"/>
<path style="fill:#706d67; stroke:none;" d="M112 103L113 104L112 103z"/>
<path style="fill:#f7f7f7; stroke:none;" d="M117 103L118 104L117 103z"/>
<path style="fill:#706d67; stroke:none;" d="M142 103L143 104L142 103M195 103L195 107L196 107L195 103z"/>
<path style="fill:#c2b58e; stroke:none;" d="M37.3333 104.667L37.6667 105.333L37.3333 104.667z"/>
<path style="fill:#706d67; stroke:none;" d="M105 104L106 105L105 104M114 104L115 105L114 104M143 104L144 105L143 104M193 104L194 105L193 104z"/>
<path style="fill:#c95f45; stroke:none;" d="M202 104L202 130L203 130C205.159 121.839 205.791 111.888 202 104z"/>
<path style="fill:#706d67; stroke:none;" d="M116 105L117 106L116 105M145 105L146 106L145 105M118 106L119 107L118 106M146 106L147 107L146 106M120 107L121 108L120 107M148 107L149 108L148 107z"/>
<path style="fill:#c2b58e; stroke:none;" d="M203.333 107.667L203.667 108.333L203.333 107.667z"/>
<path style="fill:#706d67; stroke:none;" d="M149 108L150 109L149 108z"/>
<path style="fill:#c2b58e; stroke:none;" d="M36 109L36 112L37 112L36 109z"/>
<path style="fill:#706d67; stroke:none;" d="M151 109L152 110L151 109M194.333 109.667L194.667 110.333L194.333 109.667M152 110L153 111L152 110M127 111L128 112L127 111M154 111L155 112L154 111M129 112L130 113L129 112M155 112L156 113L155 112M163 112L164 113L163 112M193.333 112.667L193.667 113.333L193.333 112.667z"/>
<path style="fill:#c2b58e; stroke:none;" d="M204 112L204 117L205 117L204 112z"/>
<path style="fill:#706d67; stroke:none;" d="M131 113L132 114L131 113M157 113L158 114L157 113M132 114L133 115L132 114M158 114L159 115L158 114M134 115L135 116L134 115M160 115L161 116L160 115M187 115L188 116L187 115M192 115L193 116L192 115M200 115L200 128L201 128L200 115M136 116L137 117L136 116M162 116L163 117L162 116M191 116L192 117L191 116M190 117L191 118L190 117M139 118L140 119L139 118M165 118L166 119L165 118M141 119L142 120L141 119M167 119L168 120L167 119M188 119L189 120L188 119M170 120L171 121L170 120M187 120L187 125L188 125L187 120M144 121L145 122L144 121M172.667 121.333L173.333 121.667L172.667 121.333M177 122L177 123L183 123L177 122M184.333 122.667L184.667 123.333L184.333 122.667M147 123L148 124L147 123M148 124L149 125L148 124M150 125L151 126L150 125z"/>
<path style="fill:#c2b58e; stroke:none;" d="M204 125L204 132L205 132L204 125z"/>
<path style="fill:#706d67; stroke:none;" d="M151 126L152 127L151 126M185 127L185 132L186 132L185 127M203 127L202 133L203 133L203 127M188 128L188 134L189 134L188 128M36 130L36 133L37 133L36 130M156 130L157 131L156 130M157 131L158 132L157 131M158 132L159 133L158 132z"/>
<path style="fill:#c2b58e; stroke:none;" d="M36 133L37 134L36 133z"/>
<path style="fill:#706d67; stroke:none;" d="M38 133L39 134L38 133M159 133L160 134L159 133M203.333 133.667L203.667 134.333L203.333 133.667M37 134L38 135L37 134z"/>
<path style="fill:#c95f45; stroke:none;" d="M37 135C41.8075 158.292 55.1253 184.851 79 193.301C99.8706 200.687 123.41 194.945 142 184.28C151.665 178.736 161.801 169.704 163 158C118.229 159.922 73.2124 168.479 37 135z"/>
<path style="fill:#706d67; stroke:none;" d="M39 135L40 136L39 135M199.333 135.667L199.667 136.333L199.333 135.667z"/>
<path style="fill:#c2b58e; stroke:none;" d="M203.333 135.667L203.667 136.333L203.333 135.667z"/>
<path style="fill:#706d67; stroke:none;" d="M38 136L39 137L38 136M161 136L162 137L161 136M202 136L201 144L202 144L202 136z"/>
<path style="fill:#c2b58e; stroke:none;" d="M37.3333 137.667L37.6667 138.333L37.3333 137.667z"/>
<path style="fill:#706d67; stroke:none;" d="M41 137L42 138L41 137M162 137L163 138L162 137M198 137L199 138L198 137M197 138L198 139L197 138M163 139L164 140L163 139M196 139L197 140L196 139M45 140L46 141L45 140M194 140L195 141L194 140M199 140L193 146C195.485 144.671 200.446 143.248 199 140z"/>
<path style="fill:#c2b58e; stroke:none;" d="M202.333 140.667L202.667 141.333L202.333 140.667M38.3333 141.667L38.6667 142.333L38.3333 141.667z"/>
<path style="fill:#706d67; stroke:none;" d="M164 141L165 142L164 141M193 141L194 142L193 141M48 142L49 143L48 142M165.333 142.667L165.667 143.333L165.333 142.667M191 142L192 143L191 142z"/>
<path style="fill:#c2b58e; stroke:none;" d="M198 142C188.318 149.448 188.571 155.831 185 167L190 164L191 164L191 167L192 167L199 153L197 153L198 142z"/>
<path style="fill:#706d67; stroke:none;" d="M189.667 143.333L190.333 143.667L189.667 143.333M46 144L47 145L46 144z"/>
<path style="fill:#c2b58e; stroke:none;" d="M201.333 144.667L201.667 145.333L201.333 144.667M39.3333 145.667L39.6667 146.333L39.3333 145.667z"/>
<path style="fill:#706d67; stroke:none;" d="M166.333 145.667L166.667 146.333L166.333 145.667M200.333 145.667L200.667 146.333L200.333 145.667M184 146L185 147L184 146M191 146L192 147L191 146M198 146L197 153C199.643 151.004 199.432 148.863 198 146M58 147L59 148L58 147M181.667 147.333L182.333 147.667L181.667 147.333M189.667 147.333L190.333 147.667L189.667 147.333z"/>
<path style="fill:#c2b58e; stroke:none;" d="M200.333 147.667L200.667 148.333L200.333 147.667M40.3333 148.667L40.6667 149.333L40.3333 148.667z"/>
<path style="fill:#706d67; stroke:none;" d="M179 148L180 149L179 148M188 148L188 153L189 153L188 148M63 149L64 150L63 149M176.667 149.333L177.333 149.667L176.667 149.333M66 150L67 151L66 150M167.333 150.667L167.667 151.333L167.333 150.667M173 150L174 151L173 150M183 150L183 151L185 155L186 155L183 150z"/>
<path style="fill:#c2b58e; stroke:none;" d="M185 150L186 151L185 150z"/>
<path style="fill:#706d67; stroke:none;" d="M195 150L196 151L195 150z"/>
<path style="fill:#c2b58e; stroke:none;" d="M41 151L42 152L41 151z"/>
<path style="fill:#706d67; stroke:none;" d="M70 151L71 152L70 151M170 151L171 152L170 151M181 151L182 152L181 151z"/>
<path style="fill:#c2b58e; stroke:none;" d="M86 198L83 197L61 181L60 181C56.8055 184.479 53.909 188.161 51.1551 192C34.4047 215.353 60.4287 223.435 78 230.4C108.103 242.334 142.423 244.38 172 229.219C190.372 219.802 194.932 211.585 191.464 192C190.333 185.612 190.602 181.23 185 177L185 176L187 174C174.384 184.173 166.597 199.334 153.907 209.211C133.635 224.99 90.3326 224.777 80 197C110.264 207.238 134.647 201.213 161 183.645C174.76 174.472 184.633 168.776 185 151C163.925 154.626 160.87 175.895 143 186.547C133.041 192.484 120.645 197.094 109 197.91C101.574 198.431 93.091 196.208 86 198M199 151L200 152L199 151z"/>
<path style="fill:#706d67; stroke:none;" d="M73 152L74 153L73 152M178.667 152.333L179.333 152.667L178.667 152.333M78 153L79 154L78 153M175.667 153.333L176.333 153.667L175.667 153.333M196 153L195 155L196 153z"/>
<path style="fill:#c2b58e; stroke:none;" d="M42 154L43 155L42 154z"/>
<path style="fill:#706d67; stroke:none;" d="M82.6667 154.333L83.3333 154.667L82.6667 154.333M172.667 154.333L173.333 154.667L172.667 154.333M187 154L187 159L188 159L187 154M71 155L72 156L71 155M88.6667 155.333L89.3333 155.667L88.6667 155.333M169.667 155.333L170.333 155.667L169.667 155.333z"/>
<path style="fill:#c2b58e; stroke:none;" d="M43 156L44 157L43 156z"/>
<path style="fill:#706d67; stroke:none;" d="M75 156L76 157L75 156M96.6667 156.333L97.3333 156.667L96.6667 156.333M167.333 156.667L167.667 157.333L167.333 156.667M79 157L80 158L79 157M107 157L107 158L110 158L107 157M132 157L133 158L132 157M184 157L184 160L185 160L184 157M193 157L194 158L193 157z"/>
<path style="fill:#c2b58e; stroke:none;" d="M44 158L45 159L44 158z"/>
<path style="fill:#706d67; stroke:none;" d="M84 158L85 159L84 158M90 159L91 160L90 159M166.333 159.667L166.667 160.333L166.333 159.667z"/>
<path style="fill:#c2b58e; stroke:none;" d="M45 160L46 161L45 160z"/>
<path style="fill:#706d67; stroke:none;" d="M186 160L186 163L187 163L186 160M192 160L193 161L192 160M111 161L112 162L111 161M131 161L132 162L131 161z"/>
<path style="fill:#c2b58e; stroke:none;" d="M46 162L47 163L46 162z"/>
<path style="fill:#706d67; stroke:none;" d="M183 162L183 165L184 165L183 162M190 162L191 164L192 164L193 162L190 162M165 163L166 164L165 163M185.333 164.667L185.667 165.333L185.333 164.667M190.333 164.667L190.667 165.333L190.333 164.667z"/>
<path style="fill:#c2b58e; stroke:none;" d="M48 165L49 166L48 165z"/>
<path style="fill:#706d67; stroke:none;" d="M164 165L165 166L164 165M182.333 166.667L182.667 167.333L182.333 166.667M187 166L187 167L190 167L187 166z"/>
<path style="fill:#c2b58e; stroke:none;" d="M49 167L50 168L49 167z"/>
<path style="fill:#706d67; stroke:none;" d="M163 167L164 168L163 167M184 167L184 168L187 168L184 167M190 167L191 168L190 167z"/>
<path style="fill:#c2b58e; stroke:none;" d="M50 168L51 169L50 168M189.333 168.667L189.667 169.333L189.333 168.667z"/>
<path style="fill:#706d67; stroke:none;" d="M181 169L182 170L181 169z"/>
<path style="fill:#c2b58e; stroke:none;" d="M51 170L52 171L51 170z"/>
<path style="fill:#706d67; stroke:none;" d="M161 170L162 171L161 170M180 170L181 171L180 170M183 175L179 182L175 186L189 170C185.542 170.705 183.677 171.458 183 175z"/>
<path style="fill:#c2b58e; stroke:none;" d="M52 171L53 172L52 171z"/>
<path style="fill:#706d67; stroke:none;" d="M178 171L179 172L178 171z"/>
<path style="fill:#c2b58e; stroke:none;" d="M188 171L189 172L188 171M53 172L54 173L53 172M187 172L188 173L187 172z"/>
<path style="fill:#706d67; stroke:none;" d="M159 173L160 174L159 173M175 173L176 174L175 173z"/>
<path style="fill:#c2b58e; stroke:none;" d="M54 174L55 175L54 174z"/>
<path style="fill:#706d67; stroke:none;" d="M158 174L159 175L158 174z"/>
<path style="fill:#c95f45; stroke:none;" d="M182 174L183 175L182 174z"/>
<path style="fill:#c2b58e; stroke:none;" d="M55 175L56 176L55 175z"/>
<path style="fill:#706d67; stroke:none;" d="M153 175L154 176L153 175M157 175L158 176L157 175M172 175L173 176L172 175z"/>
<path style="fill:#c95f45; stroke:none;" d="M106 204L106 205C133.549 205.018 165.436 204.01 179 175C168.554 178.329 159.51 187.133 150 192.573C136.193 200.47 121.799 204 106 204z"/>
<path style="fill:#c2b58e; stroke:none;" d="M56 176L57 177L56 176z"/>
<path style="fill:#706d67; stroke:none;" d="M152 176L153 177L152 176M156 176L157 177L156 176M171 176L172 177L171 176z"/>
<path style="fill:#c2b58e; stroke:none;" d="M57.3333 177.667L57.6667 178.333L57.3333 177.667z"/>
<path style="fill:#706d67; stroke:none;" d="M155 177L156 178L155 177M169 177L170 178L169 177M154 178L155 179L154 178M168 178L169 179L168 178z"/>
<path style="fill:#c2b58e; stroke:none;" d="M58 179L59 180L58 179z"/>
<path style="fill:#706d67; stroke:none;" d="M153 179L154 180L153 179M166 179L167 180L166 179M176 179L177 180L176 179z"/>
<path style="fill:#c2b58e; stroke:none;" d="M59 180L60 181L59 180z"/>
<path style="fill:#706d67; stroke:none;" d="M165 180L166 181L165 180M150 181L151 182L150 181M175 181L176 182L175 181z"/>
<path style="fill:#c95f45; stroke:none;" d="M178 181L179 182L178 181z"/>
<path style="fill:#706d67; stroke:none;" d="M149 182L150 183L149 182M162 182L163 183L162 182z"/>
<path style="fill:#c95f45; stroke:none;" d="M177 182L178 183L177 182z"/>
<path style="fill:#706d67; stroke:none;" d="M141 184L142 185L141 184M146 184L147 185L146 184M159 184L160 185L159 184M173 184L174 185L173 184M139 185L140 186L139 185M144 185L145 186L144 185M172 185L173 186L172 185M143 186L144 187L143 186M156 186L157 187L156 186M160 186L161 187L160 186M174 186L175 187L174 186M141 187L142 188L141 187M154 187L155 188L154 187M172 187L173 188L172 187M139 188L140 189L139 188M153 188L154 189L153 188M171 188L172 189L171 188M70 189L71 190L70 189M137 189L138 190L137 189M151 189L152 190L151 189M170 189L171 190L170 189M72 190L73 191L72 190M135 190L136 191L135 190M150 190L151 191L150 190M143 204L139 203L139 205L118 205.7L80 197C88.5816 230.929 142.971 222.118 160.325 203.086C164.305 198.721 169.043 196.204 170 190L143 204M73.6667 191.333L74.3333 191.667L73.6667 191.333M133 191L134 192L133 191M148 191L149 192L148 191M75.6667 192.333L76.3333 192.667L75.6667 192.333M130 192L131 193L130 192M146 192L147 193L146 192M150 192L151 193L150 192M78 193L79 194L78 193z"/>
<path style="fill:#3d3433; stroke:none;" d="M79 193L80 194L79 193z"/>
<path style="fill:#706d67; stroke:none;" d="M120 193L121 194L120 193M127 193L128 194L127 193M144 193L145 194L144 193M80 194L81 195L80 194z"/>
<path style="fill:#3d3433; stroke:none;" d="M81 194L82 195L81 194z"/>
<path style="fill:#706d67; stroke:none;" d="M82 194L83 195L82 194M116 194L117 195L116 194M124.667 194.333L125.333 194.667L124.667 194.333M142 194L143 195L142 194M83 195L84 196L83 195z"/>
<path style="fill:#3d3433; stroke:none;" d="M84 195L84 196L93 197L93 196L84 195z"/>
<path style="fill:#706d67; stroke:none;" d="M87 195L88 196L87 195M111 195L112 196L111 195M120.667 195.333L121.333 195.667L120.667 195.333M140 195L141 196L140 195z"/>
<path style="fill:#f7f7f7; stroke:none;" d="M83 196L84 197L83 196z"/>
<path style="fill:#706d67; stroke:none;" d="M86 196L87 197L86 196M91 197L91 198L96 197L91 197M101 196L101 197L105 197L101 196M116.667 196.333L117.333 196.667L116.667 196.333M138 196L139 197L138 196z"/>
<path style="fill:#f7f7f7; stroke:none;" d="M86 197L87 198L86 197z"/>
<path style="fill:#706d67; stroke:none;" d="M109 197L109 198L113 198L109 197M135.667 197.333L136.333 197.667L135.667 197.333M133 198L134 199L133 198M130.667 199.333L131.333 199.667L130.667 199.333M127 200L128 201L127 200M123 201L124 202L123 201M117 202L117 203L120 204L117 202z"/>
<path style="fill:#3d3433; stroke:none;" d="M103 203L103 204L119 204L103 203M141.667 203.333L142.333 203.667L141.667 203.333M137.667 204.333L138.333 204.667L137.667 204.333z"/>
</svg>
