<?xml version="1.0" standalone="yes"?>
<svg xmlns="http://www.w3.org/2000/svg" width="250" height="250">
<path style="fill:#bda796; stroke:none;" d="M0 0L2 9C-2.43477 11.4102 0.151892 20.9597 3 24L0 32L1 32L2 28L3 28L3 30L4 30C3.87345 26.1138 3.10482 19.7459 8 19L6 21L7 22L8 20L11 21L11 20L9 16L10 16L10 18L11 18L1 16L2 6L4 10L7 8L8 11L11 9L11 8L7 7L12 2L12 1C9.83198 0.283966 8.969 -0.293793 9 2L0 0z"/>
<path style="fill:#d0c5be; stroke:none;" d="M7 0L7 2L9 2L7 0M12 2L7 7L11 8L11 9L8 11L7 8L4 10L2 6L1 16L11 18L10 18L10 16L9 16L11 20L11 21L7 22L6 21L8 19C2.76643 19.9509 3.5512 25.6816 4 30L3 30L3 28L2 28C0.796519 31.963 0.388917 33.6677 3 37L0 36C0 41.5991 -2.37224 64.8488 3 66L3 67L0 67C0 75.7966 1 85.1515 1 92C1 95.9575 -1.82762 98.2345 2 99L3 103L3 104L0 105L4 110L0 110L2 118L1 118L1 116L0 116C0.727702 118.624 2.22741 120.883 3 117L4 117L3.81867 130.101L9 139L8 139L8 136L7 136L10 141L11 148L7 146L7 151L8 151L9 148L10 148L10 154L9 154L9 152L8 152L13 156L13 157L10 160L11 160L18 159L17 150L28 155L28 154L25 153L25 152L28 152L31 149L29 136L30 136L29 140L33 139L32 129L36 131C35.7129 134.008 36.0327 135.134 39 136L40 147L42 146L43 152C45.6946 153.617 45.6348 155.659 43 155L47 166L44 164L44 169L45 169L45 167L46 167C43.9507 182.578 43.6206 196.191 49 211L48 211L47 209L42 211L48 232L43 232L43 233L52 235L48 237L53 241L53 243L43 244L46 249L66 250L54 247L54 246L66 245L67 243L67 242L65 242L65 241L68 232L62 227L66 230L67 230L63 224L64 207L65 188L48 169L50 168L48 164L64 182L65 182C64.3248 178.72 59.0056 170.736 64 170L54 152L62 162L63 162L63 155L68 165C72.042 164.468 83.4013 156.36 84 161L90 158L94 161L95 161L98 157L81 157L99 155C96.268 136.84 84.7534 128.993 68 128L69 121L73 113C75.8264 113 75.7905 111.858 76 109L79 110C77.8665 105.019 74.4054 101.027 73.3796 96C70.7889 83.3021 71.2966 70.5655 72.8156 58C73.5717 51.7453 72.2873 45.6624 75.9946 40.044C83.6594 28.4278 104.274 32.8583 106 17L103 16L105 10L102 3L105 0L34 0L12 2z"/>
<path style="fill:#bda796; stroke:none;" d="M15 0L16 1L15 0M105 0L102 3L105 10L103 16L106 17L103 26L111 21C105.843 13.9392 104.27 7.8094 109 0L105 0z"/>
<path style="fill:#a57d62; stroke:none;" d="M107 0L108 1L107 0M109 0L109 2L111 2L109 0z"/>
<path style="fill:#493328; stroke:none;" d="M110 0C110 3.32442 103.464 6.11668 110 9L107 11L112 21C104.707 24.3152 105.334 31.0019 107 38L108 38L110 23L111 23C111 29.6929 110.144 35.6957 117 39C121.07 32.1492 118.204 28.3116 118.054 21C117.93 14.9519 119.596 7.88097 121 2L110 0z"/>
<path style="fill:#895a42; stroke:none;" d="M112.667 0.333328L113.333 0.666672L112.667 0.333328M118 0L118 1L121 2L117 39C110.956 34.5996 111 29.9707 111 23L110 23L108 38L107 38L106 24L90 34L90 35L95 40L98 37L99 37L99 40L102 40L102 37L107 45L103 44L101 75L102 75L105 46L106 46L109 58L110 58L109 46L107 47L107 46L108 43L115 49L108 38C113.993 44.2561 115.295 43.1942 122 45L123 45L122 34C125.368 38.7893 130.361 40.5467 136 39C130.655 33.4965 134.673 26.8781 140 23L133 16L134 12L141 13L138 10L139 6L145 4C140.014 -1.91585 139.115 1.99393 136 6L136 7L139 7L139 8L132 7L134 6L134 5L131 4L134 3L134 2L130 3L130 0L118 0z"/>
<path style="fill:#a57d62; stroke:none;" d="M129 2L134 2L134 3L131 4L138 6L138 0L129 2z"/>
<path style="fill:#bda796; stroke:none;" d="M133.667 0.333328L134.333 0.666672L133.667 0.333328z"/>
<path style="fill:#a57d62; stroke:none;" d="M142 0L144 5L145 5L146 2L142 0z"/>
<path style="fill:#bda796; stroke:none;" d="M143 0L143 1L146 2L146 4L141 8L153 9L154 1L143 0z"/>
<path style="fill:#d0c5be; stroke:none;" d="M144 0L145 1L144 0z"/>
<path style="fill:#a57d62; stroke:none;" d="M150 0L150 1L154 1L153 8L154 8L156 0L150 0z"/>
<path style="fill:#493328; stroke:none;" d="M156 0L145 25L149 21L152 22L157 12L156 16C161.24 14.121 163.717 9.23036 165 4L161 4L161 3L163 0L156 0z"/>
<path style="fill:#895a42; stroke:none;" d="M163 0C163.849 7.03351 162.84 12.2573 156 16L157 12L152 19L167 9L170 0L163 0z"/>
<path style="fill:#a57d62; stroke:none;" d="M168 0L169 1L168 0z"/>
<path style="fill:#bda796; stroke:none;" d="M170 0L168 11L171 10L173 0L170 0z"/>
<path style="fill:#a57d62; stroke:none;" d="M171 0L172 1L171 0z"/>
<path style="fill:#d0c5be; stroke:none;" d="M171 10L165 10C163.761 18.0047 155.09 20.865 149 25L149 26L176.243 44.1327L177 58L173 100L168 101L168 102L173 103L169 122L169 123C173.254 123.334 173.993 125.074 175 129L168 129C173.996 144.685 204.562 127.085 210 144L225 150C225.357 159.313 229.543 174.79 224 183L225 188L222 204L220 204C220.48 208.318 214.269 217.96 219 219L219 220C216.277 220.169 208.549 222.644 215 224L213 226L213 227L217 233L202 232L202 233L216 235L216 236L210 237L210 238L218 242L211 246L219 249L219 241L223 237C225.583 239.105 232.285 241.784 233 237L237 240L238 240L239 237L237 238L240 234C230.2 234.581 220.523 235.018 222 223L250 225L250 0L186 0C180.338 0 164.755 0.121643 171 10z"/>
<path style="fill:#bda796; stroke:none;" d="M103 1L104 2L103 1z"/>
<path style="fill:#895a42; stroke:none;" d="M108 1L109 2L108 1z"/>
<path style="fill:#493328; stroke:none;" d="M138 2L138 3L142 3L138 2z"/>
<path style="fill:#a57d62; stroke:none;" d="M170 1L171 2L170 1z"/>
<path style="fill:#bda796; stroke:none;" d="M14 2L15 3L14 2M16 2L17 3L16 2z"/>
<path style="fill:#895a42; stroke:none;" d="M107 2L108 3L107 2M155 2L156 3L155 2z"/>
<path style="fill:#d0c5be; stroke:none;" d="M4 3L5 4L4 3M6 3L7 4L6 3z"/>
<path style="fill:#bda796; stroke:none;" d="M10 3L12 6L10 3M25.3333 3.66667L25.6667 4.33333L25.3333 3.66667z"/>
<path style="fill:#a57d62; stroke:none;" d="M106 3L105 5L106 3M147 3L148 4L147 3z"/>
<path style="fill:#895a42; stroke:none;" d="M161 3L162 4L161 3z"/>
<path style="fill:#a57d62; stroke:none;" d="M162 3L163 4L162 3M169 3L170 4L169 3z"/>
<path style="fill:#895a42; stroke:none;" d="M106 4L106 8L107 8L106 4z"/>
<path style="fill:#a57d62; stroke:none;" d="M129 4L133 9L129 4M168 4L169 5L168 4z"/>
<path style="fill:#bda796; stroke:none;" d="M245 4L246 5L245 4M48 5L49 6L48 5z"/>
<path style="fill:#a57d62; stroke:none;" d="M142 5L139 7C141.049 7.2421 142.868 7.31567 142 5z"/>
<path style="fill:#895a42; stroke:none;" d="M154 5L153 9L154 5z"/>
<path style="fill:#a57d62; stroke:none;" d="M167 5L169 10L167 5z"/>
<path style="fill:#bda796; stroke:none;" d="M248 5L249 6L248 5M14 6L15 7L14 6z"/>
<path style="fill:#a57d62; stroke:none;" d="M105 6L106 7L105 6z"/>
<path style="fill:#493328; stroke:none;" d="M132 6L132 7L139 8L132 6z"/>
<path style="fill:#a57d62; stroke:none;" d="M144 9L144 10L147 12L144 11C144.923 15.4828 144.164 17.8981 140 20L137 14C141.411 13.6566 142.514 12.2908 143 8L138 9L138 10L141 13L134 12L133 16L140 23C128.458 24.9237 135.362 38.5537 135 40L139 40L139 39L137 38C144.197 38.8846 141 63.3587 141 69L142 69L145 53L152 57L140 94L141 94C143.567 82.903 161.16 58.7411 148 52L156 47L157 74L154 75L156 77L154 85L151 85L149 100C154.671 105.27 152.094 114.166 154 121L151 122L145 117L148 122L143 150C139.229 151.19 138.431 153.172 138 157L145 159L143 157L143 156L148 154L148 141L154 124L153 126L154 126L155 125L156 126C154.569 131.307 155.674 134.572 160 138L160 125L156 126L157 123L153 122L156 119L160 121L159 110L162 116L163 116L162 109L167 121L164 117L163 117C164.346 121.395 166.761 121.4 171 121L171 120L168 119L170 115L169 113L160 102L168 104L160 97L160 93L171 91C168.402 87.4381 164.006 88.92 160 89L160 88C165.076 86.461 170.398 82.6418 173 78L162 78L159 47L156 43L155 43L155 45L154 45L155 39L154 39L154 42L153 42L149 38L147 44L148 50C141.063 44.6251 141.079 31.544 150 28L149 32L150 32C150.653 30.0399 151 29.446 151 32L152 32C150.496 27.8151 148.099 26.4453 144 25L141 34L139 30L138 30L136 33C137.264 27.7622 139.395 24.6332 145 24L153 9L144 9z"/>
<path style="fill:#d0c5be; stroke:none;" d="M0.666667 8.33333L1.33333 8.66667L0.666667 8.33333z"/>
<path style="fill:#a57d62; stroke:none;" d="M106 8L105 12L109 8L106 8z"/>
<path style="fill:#493328; stroke:none;" d="M139.667 8.33333L140.333 8.66667L139.667 8.33333z"/>
<path style="fill:#895a42; stroke:none;" d="M141 8L142 9L141 8z"/>
<path style="fill:#a57d62; stroke:none;" d="M165 8L164 11L165 11L165 8z"/>
<path style="fill:#bda796; stroke:none;" d="M101 9L102 10L101 9z"/>
<path style="fill:#895a42; stroke:none;" d="M108.667 9.33333L109.333 9.66667L108.667 9.33333M142 9L142 10L147 12L142 9z"/>
<path style="fill:#bda796; stroke:none;" d="M165.667 9.33333L166.333 9.66667L165.667 9.33333z"/>
<path style="fill:#d0c5be; stroke:none;" d="M0 10L1 11L0 10z"/>
<path style="fill:#895a42; stroke:none;" d="M107 10L108 11L107 10z"/>
<path style="fill:#bda796; stroke:none;" d="M141 10L142 11L141 10z"/>
<path style="fill:#895a42; stroke:none;" d="M152 10L153 11L152 10M159 10L158 14L159 14L159 10z"/>
<path style="fill:#bda796; stroke:none;" d="M6 11L7 12L6 11M22 11L22 14L20 12L12 16L24 13L27 14L27 13L22 11z"/>
<path style="fill:#895a42; stroke:none;" d="M105 12L112 20L107 11L105 12M108.667 11.3333L109.333 11.6667L108.667 11.3333z"/>
<path style="fill:#bda796; stroke:none;" d="M143 11L137 14L140 20C144.646 18.5895 145.963 14.937 143 11M148.333 11.6667L148.667 12.3333L148.333 11.6667z"/>
<path style="fill:#895a42; stroke:none;" d="M154 11L155 12L154 11z"/>
<path style="fill:#bda796; stroke:none;" d="M164 11C162.94 14.688 158.323 20.5726 154 19L153 19L152 22L152 23C156.696 21.0537 165.952 17.2196 164 11z"/>
<path style="fill:#a57d62; stroke:none;" d="M163 12L163 15L164 15L163 12z"/>
<path style="fill:#d0c5be; stroke:none;" d="M1 13L2 14L1 13z"/>
<path style="fill:#bda796; stroke:none;" d="M4 13L5 14L4 13z"/>
<path style="fill:#a57d62; stroke:none;" d="M105 13L107 17L108 17L105 13z"/>
<path style="fill:#895a42; stroke:none;" d="M150 14L151 15L150 14z"/>
<path style="fill:#d0c5be; stroke:none;" d="M140 15L141 16L140 15z"/>
<path style="fill:#895a42; stroke:none;" d="M149 15L150 16L149 15z"/>
<path style="fill:#a57d62; stroke:none;" d="M160 17L163 15L160 17z"/>
<path style="fill:#895a42; stroke:none;" d="M148 16L149 17L148 16z"/>
<path style="fill:#d0c5be; stroke:none;" d="M7 17L8 18L7 17z"/>
<path style="fill:#bda796; stroke:none;" d="M43 17L44 18L43 17z"/>
<path style="fill:#895a42; stroke:none;" d="M147 17L148 18L147 17M149.333 17.6667L149.667 18.3333L149.333 17.6667z"/>
<path style="fill:#a57d62; stroke:none;" d="M158.667 17.3333L159.333 17.6667L158.667 17.3333z"/>
<path style="fill:#895a42; stroke:none;" d="M146 18L147 19L146 18z"/>
<path style="fill:#a57d62; stroke:none;" d="M156.667 18.3333L157.333 18.6667L156.667 18.3333z"/>
<path style="fill:#d0c5be; stroke:none;" d="M1.66667 19.3333L2.33333 19.6667L1.66667 19.3333z"/>
<path style="fill:#bda796; stroke:none;" d="M12 19L13 20L12 19M29 19L30 20L29 19z"/>
<path style="fill:#a57d62; stroke:none;" d="M109.667 19.3333L110.333 19.6667L109.667 19.3333M152 19L153 20L152 19M154 19L154 21L156 19L154 19z"/>
<path style="fill:#d0c5be; stroke:none;" d="M0 20L0 25L3 24L0 20z"/>
<path style="fill:#bda796; stroke:none;" d="M14 20L15 21L14 20z"/>
<path style="fill:#a57d62; stroke:none;" d="M111 20L112 21L111 20z"/>
<path style="fill:#895a42; stroke:none;" d="M152.333 20.6667L152.667 21.3333L152.333 20.6667z"/>
<path style="fill:#d0c5be; stroke:none;" d="M2 21L3 22L2 21z"/>
<path style="fill:#a57d62; stroke:none;" d="M109 21L110 22L109 21z"/>
<path style="fill:#895a42; stroke:none;" d="M110 21L111 22L110 21M149 21L145 25L145 26L151 21L149 21z"/>
<path style="fill:#a57d62; stroke:none;" d="M153 21L154 22L153 21z"/>
<path style="fill:#bda796; stroke:none;" d="M9 22L5 23L8 26L10 23L9 22M25 22L26 23L25 22z"/>
<path style="fill:#a57d62; stroke:none;" d="M107 22L108 23L107 22z"/>
<path style="fill:#895a42; stroke:none;" d="M108 22L109 23L108 22z"/>
<path style="fill:#a57d62; stroke:none;" d="M150.667 22.3333L151.333 22.6667L150.667 22.3333z"/>
<path style="fill:#bda796; stroke:none;" d="M31 23L32 24L31 23z"/>
<path style="fill:#895a42; stroke:none;" d="M106 23L107 24L106 23z"/>
<path style="fill:#bda796; stroke:none;" d="M143 23C138.638 25.8083 136.794 27.7423 136 33L138 30L139 30L141 34L143 23M149 23L148 27L149 27L150 27L151 23L149 23M11.6667 24.3333L12.3333 24.6667L11.6667 24.3333z"/>
<path style="fill:#895a42; stroke:none;" d="M144 24L145 25L144 24z"/>
<path style="fill:#a57d62; stroke:none;" d="M148 24L149 25L148 24z"/>
<path style="fill:#d0c5be; stroke:none;" d="M2 26L3 27L2 26z"/>
<path style="fill:#bda796; stroke:none;" d="M101 26L100 28L101 26z"/>
<path style="fill:#a57d62; stroke:none;" d="M102 26L103 27L102 26z"/>
<path style="fill:#bda796; stroke:none;" d="M12.6667 27.3333L13.3333 27.6667L12.6667 27.3333z"/>
<path style="fill:#a57d62; stroke:none;" d="M101 27L102 28L101 27z"/>
<path style="fill:#bda796; stroke:none;" d="M145 27L146 28L145 27M150 27L151 28L150 27z"/>
<path style="fill:#d0c5be; stroke:none;" d="M0.333333 28.6667L0.666667 29.3333L0.333333 28.6667z"/>
<path style="fill:#bda796; stroke:none;" d="M97 28L98 29L97 28z"/>
<path style="fill:#a57d62; stroke:none;" d="M78 37L90 59L87 50L88 50L102 82L103 82L100.213 64L103 44L107 45C106.218 41.2864 105.794 38.3296 102 37L102 40L99 37L98 37L95 40L90 35L90 34L101 29C93.9462 27.0382 84.4097 34.3668 78 37z"/>
<path style="fill:#bda796; stroke:none;" d="M148 50L147 44L149 38L152 39L148 28C141.22 32.614 140.337 46.07 148 50z"/>
<path style="fill:#895a42; stroke:none;" d="M149.333 28.6667L149.667 29.3333L149.333 28.6667z"/>
<path style="fill:#bda796; stroke:none;" d="M151.333 28.6667L151.667 29.3333L151.333 28.6667M12 29L13 34L14 34L12 29M33 29L34 30L33 29M93 29L93 30L96 30L93 29M31 30L32 31L31 30M91 30L92 31L91 30z"/>
<path style="fill:#895a42; stroke:none;" d="M97 30L98 31L97 30M150 30L153 42L154 42L150 30z"/>
<path style="fill:#bda796; stroke:none;" d="M152 30C152.911 35.3571 154.168 44.0465 159 47C157.512 54.1925 156.405 67.4478 165 70L164 48L166 48L165 39C172.678 45.7802 181.21 57.0452 170 66L170 67L174 67L169 72L169 73L174 72L174 73L163 78L163 79L173 78L160 88L160 89L171 91L160 93L160 97L168 104L160 102L169 115C174.237 113.262 173 107.69 173 103L168 102L168 101L173 100L177.001 58L176.817 44.1327L158 32L158 33C161.368 35.8844 161.366 37.8913 160 42C157.784 36.6777 158.486 31.8137 152 30M5 31L6 32L5 31M28 31L28 33L30 33L30 31L28 31M36 31L37 32L36 31M88.6667 31.3333L89.3333 31.6667L88.6667 31.3333M87 32L88 33L87 32z"/>
<path style="fill:#a57d62; stroke:none;" d="M157 32L160 42C162.198 37.3199 161.581 34.572 157 32z"/>
<path style="fill:#bda796; stroke:none;" d="M85.6667 33.3333L86.3333 33.6667L85.6667 33.3333z"/>
<path style="fill:#895a42; stroke:none;" d="M142 33L141 37L142 37L142 33z"/>
<path style="fill:#a57d62; stroke:none;" d="M150 33L150 36L151 36L150 33M152.333 33.6667L152.667 34.3333L152.333 33.6667z"/>
<path style="fill:#bda796; stroke:none;" d="M83 34L84 35L83 34z"/>
<path style="fill:#493328; stroke:none;" d="M122 34L123 35L122 34z"/>
<path style="fill:#bda796; stroke:none;" d="M0 35L0 36L3 37L0 35M22 35L20 37L20 38L21 40L25 37L22 35M80.6667 35.3333L81.3333 35.6667L80.6667 35.3333z"/>
<path style="fill:#a57d62; stroke:none;" d="M121 35L122 43L125 37L121 35M153 35L153 38L154 38L153 35z"/>
<path style="fill:#bda796; stroke:none;" d="M13 36L14 37L13 36M78.6667 36.3333L79.3333 36.6667L78.6667 36.3333z"/>
<path style="fill:#895a42; stroke:none;" d="M89 36L90 37L89 36M139 36L140 37L139 36z"/>
<path style="fill:#bda796; stroke:none;" d="M77 37L78 38L77 37z"/>
<path style="fill:#895a42; stroke:none;" d="M138 37L137 39L139 39L138 37z"/>
<path style="fill:#bda796; stroke:none;" d="M140 37L141 38L140 37z"/>
<path style="fill:#a57d62; stroke:none;" d="M151 37L152 38L151 37M76 38L77 39L76 38z"/>
<path style="fill:#895a42; stroke:none;" d="M77 38C70.2327 56.0702 71.5278 78.3408 74.9244 97C75.979 102.794 79.9571 107.021 80 113L81 113L83 107L90 109L79 118L77 118L78 112L69 127L69 128C73.3344 127.655 77.5006 127.532 79 123L89 123L86 124L89 134L92 134L94 142L95 143L97 142L98 149L101 149L100 152L105 157L102 156C101.751 167.649 94.3922 169.993 84 170L82 205L82 206L84 226L78 225L79 185L65 179L65 180L68 181C57.6327 195.25 67.8594 221.47 68 237L75 236L75 237L72 237L72 238L77 238L78 226L83 226L83 241L68 240L67 250L83 244L83 250L93 250L95 240C97.2021 246.284 105.581 244.459 111 244.845C125.705 245.891 146.361 248.261 160 242L161 250L168 250C167.843 237.428 164.373 226.638 180 226L180 225L168 225L170 191L169 191L167.973 202.856L161 215L156 215L156 216L161 216L161 235L157 235L159 227L138 226L138 225L145 224L145 223L129 225L128 225L113 223L113 224L128 225L128 226L95 226L96 223L93 223L97 215L95 210L94 210L91 215L87 180L90 177L91 177L91 193L92 193L92 175C99.2896 175 115.44 171.948 121.581 176.028C127.274 179.81 124.84 187.038 133 189L135 188L138 186L140 214L127 189L130 201L137 215L105 215L105 216C113.648 216 122.355 215.701 130.996 216.019C133.634 216.116 138.282 218.408 140.436 216.343C144.076 212.852 141.011 201.469 140.424 197C139.948 193.373 140.701 188.874 138.686 185.665C133.377 177.208 120.09 172.385 121 161L118 162L121 172L113 167L117 164L115 158L112 157L113 154C102.883 145.564 104.954 134.348 100 124L96 126L98 128L95 132L95 129L93 130L95 128L94 119L87 118L87 120L81 119L81 116L93 117C91.5539 111.313 96.4167 109.701 101 108L101 107L80 105L80 104L92 103L92 100L88 95L94 96L84 87L97 90C94.4217 84.7086 88.6898 79.5965 83 78L83 79L93 86L93 87C86.1258 85.3717 78.25 83.8009 75 77L82 78L82 77L77 73L97 78L98 78C94.8818 72.6626 88.3157 73.7344 83 75L73 65L74 65L77 70L76 65L82 66C83.0618 71.011 87.9588 70.2877 92 69C90.5407 64.3221 86.4825 62.4191 82 61L78 42L79 42L90 64L91 64L91 60L92 60L103 91L104 91L104 81L98.8333 73L88 50L87 50L91 60L79 38L77 38z"/>
<path style="fill:#a57d62; stroke:none;" d="M96 38L97 39L96 38M108 38C108.71 42.5955 110.829 45.0314 115 47L115 49L112 50L112 51L115 50L116 56L119 57L117 83L116 83L116 80L115 80L114 90C125.327 82.5155 120.973 56.7008 124 45L121 43C114.947 47.5747 112.917 41.6202 108 38z"/>
<path style="fill:#bda796; stroke:none;" d="M124 38C123.182 50.8938 132.752 59.5449 137 71L138 71L136 46L136 45L133 44L133 41L137 41L137 40L124 38z"/>
<path style="fill:#a57d62; stroke:none;" d="M126 38L127 39L126 38z"/>
<path style="fill:#bda796; stroke:none;" d="M139 38L141 47L142 47L139 38M5 39L6 40L5 39M14 39L13 41L14 39z"/>
<path style="fill:#a57d62; stroke:none;" d="M128.667 39.3333L129.333 39.6667L128.667 39.3333M165 39L166 48L164 48L164 65L165 65L167 55L168 55L168 64L169 64L170 58L172 56L173 56C172.105 61.371 169.289 67.0723 165 66L165 70L171 68L167 71L168 75L164 76L164 77L174 73L174 72L169 73L169 72L174 67L170 67L170 66C182.228 59.7779 172.805 44.0146 165 39z"/>
<path style="fill:#bda796; stroke:none;" d="M75 40L76 41L75 40z"/>
<path style="fill:#d0c5be; stroke:none;" d="M133 41L136 45L136 46L138 71L137 71L125 45L124 45C124.352 62.0491 129.721 78.9629 130.91 96C131.514 104.647 130.638 114.677 139 120C133.321 104.649 139.313 84.8747 140.83 69C141.761 59.2597 139.6 49.578 140 40L133 41z"/>
<path style="fill:#a57d62; stroke:none;" d="M75.3333 41.6667L75.6667 42.3333L75.3333 41.6667z"/>
<path style="fill:#bda796; stroke:none;" d="M82 41L83 42L82 41M74.3333 42.6667L74.6667 43.3333L74.3333 42.6667z"/>
<path style="fill:#493328; stroke:none;" d="M78 42L82 61C85.8905 62.8192 91.8403 64.9555 90 70L94 73L76 65L77 70L74 65L73 65C74.9578 77.5395 93.8698 71.0864 100 82L101 82L92 60L91 60L91 64L90 64L78 42z"/>
<path style="fill:#bda796; stroke:none;" d="M152 42L153 43L152 42z"/>
<path style="fill:#895a42; stroke:none;" d="M154 42L154 45L155 45L154 42z"/>
<path style="fill:#bda796; stroke:none;" d="M3 43L4 44L3 43M21 43L22 44L21 43z"/>
<path style="fill:#493328; stroke:none;" d="M108 43C108.792 46.8714 109.912 48.8167 114 49L108 43z"/>
<path style="fill:#bda796; stroke:none;" d="M0 44L1 45L0 44M23 44L25 46L25 44L23 44z"/>
<path style="fill:#a57d62; stroke:none;" d="M74 44L74 50L75 50L74 44M115 44L116 45L115 44M117 44L118 45L117 44z"/>
<path style="fill:#bda796; stroke:none;" d="M1 45L2 46L1 45M26 45L26 46L29 46L26 45M73 45L73 55L74 55L73 45z"/>
<path style="fill:#a57d62; stroke:none;" d="M107.333 45.6667L107.667 46.3333L107.333 45.6667z"/>
<path style="fill:#bda796; stroke:none;" d="M153 45L154 46L153 45M3 46L4 47L3 46z"/>
<path style="fill:#493328; stroke:none;" d="M105 46C104.41 59.5239 102.162 70.2079 103.837 83.9961C104.449 89.0279 103.296 95.9619 108 99L108 67L110 67L112 90L113 90C115.988 77.4507 112.306 56.6307 105 46z"/>
<path style="fill:#895a42; stroke:none;" d="M123 46C121.979 58.9392 123.906 80.1126 114 90L115 88L114 88L111 98L112 98C116.765 90.6974 121.27 83.9228 122 75L123 75L123 78L124 78L123 69L124 69L124 72L125 72L123 46z"/>
<path style="fill:#bda796; stroke:none;" d="M0 47L1 48L0 47z"/>
<path style="fill:#895a42; stroke:none;" d="M97 47L97 48L100 48L100 47L97 47z"/>
<path style="fill:#a57d62; stroke:none;" d="M108 47L109 56L110 56L111 52L111 51L108 47z"/>
<path style="fill:#895a42; stroke:none;" d="M152 48L152 49L155 48L156 57L154 56C156.039 62.2951 156.567 72.4138 150 76L151 67L150 67L144 85L143 85L141 94L140 94L152 57L145 53C142.519 69.8601 138.838 84.0184 141 101L140 101L140 97L139 97L137 113L138 113L139 111C143.531 121.171 143.518 125.018 141 136L135 136L136 134L132 136L132 137L137 137L137 138L133 139L133 140L137 140C133.84 148.581 126.675 156.1 129 165L138 165L138 167L131 167L131 168L136 171L139 164L133 158L138 157L143 150L148 122C145.029 120.515 143.541 117.135 147 118L147 117L147 116L144 117L149 102L150 102C148.446 108.308 145.984 118.47 154 121C153.153 114.685 155.218 103.658 149 100L151 85L154 85L154 75L157 74L156 47L152 48z"/>
<path style="fill:#bda796; stroke:none;" d="M173 47L174 48L173 47M7.66667 48.3333L8.33333 48.6667L7.66667 48.3333z"/>
<path style="fill:#895a42; stroke:none;" d="M109 48L110 49L109 48z"/>
<path style="fill:#493328; stroke:none;" d="M150 50L156 57L155 48L150 50z"/>
<path style="fill:#bda796; stroke:none;" d="M1 49L2 50L1 49z"/>
<path style="fill:#895a42; stroke:none;" d="M86 49L87 50L86 49z"/>
<path style="fill:#bda796; stroke:none;" d="M90 49C90.9857 55.2363 93.623 63.2958 99 67L93 55L90 49z"/>
<path style="fill:#895a42; stroke:none;" d="M110 49L110 51L112 51L110 49M112 49L113 50L112 49M150 49L151 50L150 49z"/>
<path style="fill:#bda796; stroke:none;" d="M0 50L1 51L0 50z"/>
<path style="fill:#895a42; stroke:none;" d="M97 50L98 51L97 50z"/>
<path style="fill:#bda796; stroke:none;" d="M109 52L116 83L117 83L119 57L116 56L115 50L109 52z"/>
<path style="fill:#895a42; stroke:none;" d="M149 50L148 52L150 52L149 50z"/>
<path style="fill:#bda796; stroke:none;" d="M4 51L5 52L4 51M124 51L124 54L125 54L124 51z"/>
<path style="fill:#895a42; stroke:none;" d="M150 52L151 53L150 52M173 52L173 56L174 56L173 52z"/>
<path style="fill:#a57d62; stroke:none;" d="M124 54L125 55L124 54z"/>
<path style="fill:#895a42; stroke:none;" d="M151 54L152 55L151 54z"/>
<path style="fill:#bda796; stroke:none;" d="M6.66667 55.3333L7.33333 55.6667L6.66667 55.3333z"/>
<path style="fill:#a57d62; stroke:none;" d="M73.3333 55.6667L73.6667 56.3333L73.3333 55.6667z"/>
<path style="fill:#895a42; stroke:none;" d="M152 55L153 56L152 55M167 55L166 67C170.455 64.0314 172.16 61.2827 173 56L172 56L169 64L168 64L167 55z"/>
<path style="fill:#bda796; stroke:none;" d="M0 56L1 57L0 56M2 56L3 57L2 56M67 56L68 57L67 56M73 57L72 62L73 62L73 57z"/>
<path style="fill:#493328; stroke:none;" d="M79 57L82 60L79 57z"/>
<path style="fill:#a57d62; stroke:none;" d="M110 57L112 67L113 67L110 57z"/>
<path style="fill:#493328; stroke:none;" d="M123 57L124 58L123 57z"/>
<path style="fill:#bda796; stroke:none;" d="M125 57L125 61L126 61L125 57z"/>
<path style="fill:#493328; stroke:none;" d="M90.3333 58.6667L90.6667 59.3333L90.3333 58.6667z"/>
<path style="fill:#bda796; stroke:none;" d="M170 58L171 59L170 58M3 59L4 60L3 59M7 59L8 60L7 59M65 59L66 60L65 59z"/>
<path style="fill:#895a42; stroke:none;" d="M110.333 59.6667L110.667 60.3333L110.333 59.6667z"/>
<path style="fill:#bda796; stroke:none;" d="M119 59L120 60L119 59z"/>
<path style="fill:#493328; stroke:none;" d="M155 59L150 76C155.687 74.1307 156.825 64.1148 155 59z"/>
<path style="fill:#a57d62; stroke:none;" d="M73 60L74 61L73 60M79 60L81 62L79 60M175 60L176 61L175 60z"/>
<path style="fill:#bda796; stroke:none;" d="M4 61L5 62L4 61z"/>
<path style="fill:#493328; stroke:none;" d="M77 61L89 69L89 68L77 61z"/>
<path style="fill:#895a42; stroke:none;" d="M79 61L80 62L79 61z"/>
<path style="fill:#a57d62; stroke:none;" d="M125 61L125 70L126 70L125 61z"/>
<path style="fill:#895a42; stroke:none;" d="M153 61L154 62L153 61z"/>
<path style="fill:#bda796; stroke:none;" d="M20 62L19 64L20 62z"/>
<path style="fill:#a57d62; stroke:none;" d="M82 62L86 65L86 64L82 62z"/>
<path style="fill:#895a42; stroke:none;" d="M111 62L111 65L112 65L111 62z"/>
<path style="fill:#bda796; stroke:none;" d="M126 62L123 83L125 82C125 91.9807 123.223 106.048 128 115C113.324 114.228 122.306 93.7168 123 85L122 85L113 112L112 112L113 106L112 106L109 113C114.359 112.541 118.569 116.119 117 121L141 122L139 118L138 118L139 120L138 120C126.883 102.255 133.799 80.5784 126 62M71 63L72 64L71 63z"/>
<path style="fill:#895a42; stroke:none;" d="M152 63L153 64L152 63z"/>
<path style="fill:#bda796; stroke:none;" d="M11 64L12 65L11 64z"/>
<path style="fill:#a57d62; stroke:none;" d="M71 64L71 70L72 70L71 64z"/>
<path style="fill:#895a42; stroke:none;" d="M82.6667 64.3333L83.3333 64.6667L82.6667 64.3333z"/>
<path style="fill:#a57d62; stroke:none;" d="M86.6667 65.3333L87.3333 65.6667L86.6667 65.3333z"/>
<path style="fill:#895a42; stroke:none;" d="M108 65L109 66L108 65M151 65L152 66L151 65z"/>
<path style="fill:#bda796; stroke:none;" d="M0 66L0 67L3 67L0 66M70.3333 66.6667L70.6667 67.3333L70.3333 66.6667z"/>
<path style="fill:#a57d62; stroke:none;" d="M80.6667 66.3333L81.3333 66.6667L80.6667 66.3333M82 67L82 68L85 69L82 67z"/>
<path style="fill:#895a42; stroke:none;" d="M84 67L85 68L84 67M108 67L108 99L105 98L106 101L109 99L110 99L110 103L111 103L111 83L112 83L112 87L113 87L110 67L108 67M112.333 67.6667L112.667 68.3333L112.333 67.6667z"/>
<path style="fill:#bda796; stroke:none;" d="M98 68L99 69L98 68z"/>
<path style="fill:#a57d62; stroke:none;" d="M113 68L113 72L114 72L113 68z"/>
<path style="fill:#895a42; stroke:none;" d="M163 70L166 75L162 75L162 78L166 78L166 77L164 76L168 75L167 71L171 68L163 70z"/>
<path style="fill:#a57d62; stroke:none;" d="M87 69L88 70L87 69z"/>
<path style="fill:#493328; stroke:none;" d="M123 69L123 75L124 75L123 69M166 71L169 70L166 71z"/>
<path style="fill:#bda796; stroke:none;" d="M71 70L71 76L72 76L71 70z"/>
<path style="fill:#a57d62; stroke:none;" d="M88 70L88 71L91 71L88 70z"/>
<path style="fill:#895a42; stroke:none;" d="M89 71L89 72L94 73L89 71z"/>
<path style="fill:#bda796; stroke:none;" d="M140 71L140 74L141 74L140 71z"/>
<path style="fill:#a57d62; stroke:none;" d="M164 71L165 72L164 71M72 72L72 77L73 77L72 72z"/>
<path style="fill:#895a42; stroke:none;" d="M113 72L113 75L114 75L113 72z"/>
<path style="fill:#a57d62; stroke:none;" d="M124 72L125 73L124 72M126 72L127 94L128 94C129.383 87.6417 128.68 77.9707 126 72z"/>
<path style="fill:#bda796; stroke:none;" d="M163 72L164 73L163 72z"/>
<path style="fill:#a57d62; stroke:none;" d="M77 73L79 76L77 73M114 73L114 79L115 79L114 73z"/>
<path style="fill:#bda796; stroke:none;" d="M159 74L159 75L163 74L159 74z"/>
<path style="fill:#a57d62; stroke:none;" d="M83.6667 74.3333L84.3333 74.6667L83.6667 74.3333M140 74L140 78L141 78L140 74z"/>
<path style="fill:#493328; stroke:none;" d="M163 76L166 75L163 76z"/>
<path style="fill:#bda796; stroke:none;" d="M79.6667 75.3333L80.3333 75.6667L79.6667 75.3333z"/>
<path style="fill:#a57d62; stroke:none;" d="M80 76L80 77C86.8353 79.1426 92.7857 84.2741 97 90L84 87L94 96L88 95L92 100L92 103L80 104L80 105L90 107L90 106L88 106L88 105L93 106L93 103L97 104L95 105L95 106L102 103L95 103C99.1455 96.1359 95.613 92.8622 89 90L89 89L100 92L90 80C95.1693 81.9599 99.588 84.938 102 90L103 90C102.293 86.0346 101.231 81.8792 97 81L98 78L90 77L90 76L95 76L80 76z"/>
<path style="fill:#493328; stroke:none;" d="M122 75L109 108C116.074 102.865 125.588 83.801 122 75z"/>
<path style="fill:#bda796; stroke:none;" d="M0 76L1 77L0 76M90 76L90 77L97 79L90 76z"/>
<path style="fill:#a57d62; stroke:none;" d="M96 76L97 77L96 76z"/>
<path style="fill:#bda796; stroke:none;" d="M161 76L160 78L161 76z"/>
<path style="fill:#895a42; stroke:none;" d="M166.667 76.3333L167.333 76.6667L166.667 76.3333z"/>
<path style="fill:#bda796; stroke:none;" d="M71 77L72 78L71 77z"/>
<path style="fill:#493328; stroke:none;" d="M75 77C77.0656 84.1813 86.2958 85.9958 93 87C88.1719 80.7406 82.7678 78.0083 75 77z"/>
<path style="fill:#895a42; stroke:none;" d="M102 77L102 80L103 80L102 77z"/>
<path style="fill:#a57d62; stroke:none;" d="M149 77L150 78L149 77M123 78L124 79L123 78z"/>
<path style="fill:#bda796; stroke:none;" d="M139 78L139 82L140 82L139 78M89 79L90 80L89 79M97.3333 79.6667L97.6667 80.3333L97.3333 79.6667z"/>
<path style="fill:#895a42; stroke:none;" d="M98 79L99 80L98 79M114 79L114 85L115 85L114 79M161 79L152 95C154.818 95 153.027 97.6437 152 96L151 96L157 102C156.073 92.5586 159.392 91.0741 164 84L159 86L164 82L161 79z"/>
<path style="fill:#a57d62; stroke:none;" d="M72 80L73 81L72 80z"/>
<path style="fill:#bda796; stroke:none;" d="M90 80L100 92L89 89L89 90C94.9972 93.6987 98.1369 95.9155 95 103L102 103L88 105L88 106L105 106L95 110L95 115C106.945 117.818 102.353 134.115 107 143L113 141L111 144L122 161L126 160L130 155L134 141L129 141L129 140L133 139L133 138L129 136L131 137L130 135L133 136C133.553 132.001 132.447 130.065 129 128L125 135L124 135L119 132L119 131L127 131L127 130C116.289 128.287 118.168 126.531 112.162 118.259C110.65 116.177 107.887 114.895 107.269 112.231C106.427 108.599 108.832 104.892 108 101L105 103C104.912 92.499 101.145 82.6189 90 80M72 81L73 98L74 98L72 81z"/>
<path style="fill:#895a42; stroke:none;" d="M122 81L123 82L122 81z"/>
<path style="fill:#a57d62; stroke:none;" d="M122 82L122 85L123 85L122 82z"/>
<path style="fill:#d0c5be; stroke:none;" d="M124 82C121.574 89.672 113.134 116.566 128 115L124 82z"/>
<path style="fill:#a57d62; stroke:none;" d="M139 82L139 87L140 87L139 82M73 83L74 84L73 83M111 83L110 99L111 99L111 83z"/>
<path style="fill:#895a42; stroke:none;" d="M121.333 84.6667L121.667 85.3333L121.333 84.6667z"/>
<path style="fill:#493328; stroke:none;" d="M144 84L144 87L146 86L146 85L144 84z"/>
<path style="fill:#bda796; stroke:none;" d="M156 84L157 85L156 84z"/>
<path style="fill:#a57d62; stroke:none;" d="M73.3333 85.6667L73.6667 86.3333L73.3333 85.6667M121.333 86.6667L121.667 87.3333L121.333 86.6667z"/>
<path style="fill:#895a42; stroke:none;" d="M120.333 87.6667L120.667 88.3333L120.333 87.6667z"/>
<path style="fill:#bda796; stroke:none;" d="M155 87L156 88L155 87M70 88L71 89L70 88M0 89L1 90L0 89z"/>
<path style="fill:#493328; stroke:none;" d="M75 89C76.0287 96.5957 78.8777 102.706 87 104L87 101L75 89M81 89L82 90L81 89z"/>
<path style="fill:#a57d62; stroke:none;" d="M120 89L119 93L120 93L120 89z"/>
<path style="fill:#895a42; stroke:none;" d="M119 90L120 91L119 90z"/>
<path style="fill:#bda796; stroke:none;" d="M138 90L138 95L139 95L138 90M0 91L0 94L1 94L0 91z"/>
<path style="fill:#a57d62; stroke:none;" d="M103.333 91.6667L103.667 92.3333L103.333 91.6667z"/>
<path style="fill:#895a42; stroke:none;" d="M104.333 92.6667L104.667 93.3333L104.333 92.6667M118 93L119 94L118 93z"/>
<path style="fill:#a57d62; stroke:none;" d="M74 94L74 99L75 99L74 94M104.333 94.6667L104.667 95.3333L104.333 94.6667M118 94L117 98L118 98L118 94z"/>
<path style="fill:#493328; stroke:none;" d="M153 94L152 98L153 98L153 94z"/>
<path style="fill:#895a42; stroke:none;" d="M117 95L118 96L117 95z"/>
<path style="fill:#a57d62; stroke:none;" d="M138 95L138 99L139 99L138 95z"/>
<path style="fill:#493328; stroke:none;" d="M140 96L140 101L141 101L140 96z"/>
<path style="fill:#bda796; stroke:none;" d="M0 97L1 98L0 97z"/>
<path style="fill:#895a42; stroke:none;" d="M116 98L117 99L116 98z"/>
<path style="fill:#bda796; stroke:none;" d="M0 99C0.0642364 101.993 -0.0539126 103.346 3 104L3 103L2 99L0 99M74 99L75 100L74 99z"/>
<path style="fill:#a57d62; stroke:none;" d="M105 99L105 103L106 103L105 99M109 99L109 104L110 104L109 99M116.333 99.6667L116.667 100.333L116.333 99.6667z"/>
<path style="fill:#bda796; stroke:none;" d="M137 99L137 105L138 105L137 99M151 99L156 103L151 99z"/>
<path style="fill:#a57d62; stroke:none;" d="M75.3333 100.667L75.6667 101.333L75.3333 100.667M107 100L108 101L107 100z"/>
<path style="fill:#895a42; stroke:none;" d="M115 100L114 104L115 104L115 100z"/>
<path style="fill:#a57d62; stroke:none;" d="M154 100L155 101L154 100z"/>
<path style="fill:#493328; stroke:none;" d="M139 101L140 102L139 101z"/>
<path style="fill:#a57d62; stroke:none;" d="M155 101L156 102L155 101z"/>
<path style="fill:#bda796; stroke:none;" d="M159 101L160 102L159 101M75 102L76 103L75 102z"/>
<path style="fill:#493328; stroke:none;" d="M149 102L144 117L147 116L150 120L149 102z"/>
<path style="fill:#bda796; stroke:none;" d="M76 103L77 104L76 103M93.6667 103.333L94.3333 103.667L93.6667 103.333z"/>
<path style="fill:#a57d62; stroke:none;" d="M115 103L116 104L115 103z"/>
<path style="fill:#bda796; stroke:none;" d="M156.667 103.333L157.333 103.667L156.667 103.333z"/>
<path style="fill:#a57d62; stroke:none;" d="M77 104L79 106L77 104z"/>
<path style="fill:#895a42; stroke:none;" d="M93 105L93 106L97 105L93 105M109.333 104.667L109.667 105.333L109.333 104.667z"/>
<path style="fill:#a57d62; stroke:none;" d="M113 104L112 112L113 112L115 104L113 104z"/>
<path style="fill:#bda796; stroke:none;" d="M158 104L163 107L163 106L158 104M77 105L78 106L77 105z"/>
<path style="fill:#a57d62; stroke:none;" d="M108 105L108 108L109 108L108 105M137 105L138 106L137 105z"/>
<path style="fill:#493328; stroke:none;" d="M139 105L139 110L140 110L139 105z"/>
<path style="fill:#bda796; stroke:none;" d="M0 106L0 110L4 110L0 106M78 106L79 107L78 106z"/>
<path style="fill:#a57d62; stroke:none;" d="M98 106L98 107L101 108L95 109L95 110L105 106L98 106z"/>
<path style="fill:#895a42; stroke:none;" d="M111 106L112 107L111 106z"/>
<path style="fill:#bda796; stroke:none;" d="M76 107L77 108L76 107M79 107L79 110L76 109L76 113L79 107z"/>
<path style="fill:#493328; stroke:none;" d="M83 107L81 113L79 111L77 118L79 118L90 109L83 107z"/>
<path style="fill:#a57d62; stroke:none;" d="M91 107L91 108L96 108L91 107M110.333 107.667L110.667 108.333L110.333 107.667M80.3333 108.667L80.6667 109.333L80.3333 108.667z"/>
<path style="fill:#895a42; stroke:none;" d="M108 108L110 115L110 108L108 108z"/>
<path style="fill:#a57d62; stroke:none;" d="M167 108L172 114C171.7 110.136 170.911 108.652 167 108M107 109L107 115L108 115L107 109z"/>
<path style="fill:#895a42; stroke:none;" d="M162 109L167 121C166.781 115.99 165.965 112.271 162 109z"/>
<path style="fill:#bda796; stroke:none;" d="M1 110L2 111L1 110M4 110L5 111L4 110z"/>
<path style="fill:#a57d62; stroke:none;" d="M79 110L80 111L79 110M94 110L93 117L89 118L89 119L94 119L93 130L95 129L95 130L94 131L95 132L96 126L100 124C103.013 134.012 102.421 148.16 113 154L112 157L115 158L117 163L118 163L121 161C118.671 172.365 133.593 178.088 138.686 186.464C141.797 191.58 140.996 202.088 141 208L142 208L141 186C147.089 184.943 146.351 178.132 147 173L146 173C145.629 174.998 145.354 176.996 145.031 179C142.764 193.061 130.511 171.928 127 169L127 172L126 172C123.25 165.939 118.266 144.9 111 144L113 141L107 143C103.615 134.106 106.761 116.602 95 115L94 110M109 110L110 111L109 110z"/>
<path style="fill:#d0c5be; stroke:none;" d="M130 110L129 115L130 110z"/>
<path style="fill:#bda796; stroke:none;" d="M159 110L160 121L156 119L153 122L157 123L156 126L160 125L160 138C156.413 133.992 155.098 131.375 156 126L155 125L153 126L154 124C146.27 125.546 153.252 142.313 148 141L148 154L143 156L143 157L157 165L165 139L166 139L164 147L167 147L167 148L165 151L179 143L169 151L169 152L189 142L180 149L180 150C186.457 147.32 192.391 141.566 199.999 142.978C205.848 144.062 208.693 149.329 215 149L215 150L213 150L213 151C215.777 153.272 214.144 155.947 213 159L220 158C218.488 160.164 216.362 163.443 220 164L218 172L219 172L221 168L222 168L224 176L220 178L219 185L214 183L214 184L217 185L217 186L212 189L215 190C215 187.217 216.535 187.682 219 188L217 190L219 192L217 193L214 192L214 193C215.96 193.653 216.554 194 214 194L214 195L219 195L219 198L212 200L212 201L219 204L214 203L215 206L219 205L210 214L209 221C209.866 226.161 212.147 228.204 217 230L217 231L197 232L197 233L206 235L205 238L211 239L216 236L216 235L202 233L202 232L217 233C217.351 229.418 216.444 228.087 213 227L213 226L215 224L212 221L219 220L219 219L216 219L220 204L222 204L225 188L224 183C230.285 177.478 225.685 157.47 225 150L210 144C209.009 138.789 202.849 137.019 198 136.301C188.365 134.874 173.868 139.059 168 129L163 127L163 125L175 129L175 124L173 122L169 123L169 122L171 122L171 121C161.911 121.032 164.779 114.033 159 110M0 111L1 118L2 118L0 111z"/>
<path style="fill:#a57d62; stroke:none;" d="M78 111L79 112L78 111z"/>
<path style="fill:#bda796; stroke:none;" d="M136.333 111.667L136.667 112.333L136.333 111.667z"/>
<path style="fill:#493328; stroke:none;" d="M138 111L142 124L122 123L122 124L127 124L127 129L128 129L128 124L140 131L140 132L135 135L135 136L141 136C144.046 126.47 145.91 118.523 138 111z"/>
<path style="fill:#bda796; stroke:none;" d="M4.33333 112.667L4.66667 113.333L4.33333 112.667z"/>
<path style="fill:#a57d62; stroke:none;" d="M109 113L108 115L108 116L114 124L115 124L142 122L142 121L117 121L119 119C116.663 114.948 113.722 112.959 109 113z"/>
<path style="fill:#bda796; stroke:none;" d="M73 113L71 120L72 120L73 113M75 113L76 114L75 113z"/>
<path style="fill:#a57d62; stroke:none;" d="M137.333 113.667L137.667 114.333L137.333 113.667z"/>
<path style="fill:#895a42; stroke:none;" d="M167 113L168 114L167 113z"/>
<path style="fill:#bda796; stroke:none;" d="M67 114L68 115L67 114M71 114L72 115L71 114z"/>
<path style="fill:#a57d62; stroke:none;" d="M87 114L88 116L89 116L90 114L87 114z"/>
<path style="fill:#895a42; stroke:none;" d="M138.333 114.667L138.667 115.333L138.333 114.667M168 114L169 115L168 114z"/>
<path style="fill:#bda796; stroke:none;" d="M54 115L54 120L55 120L54 115z"/>
<path style="fill:#a57d62; stroke:none;" d="M74 115L75 116L74 115z"/>
<path style="fill:#bda796; stroke:none;" d="M137.333 115.667L137.667 116.333L137.333 115.667M167 115L168 116L167 115M68 116L69 117L68 116z"/>
<path style="fill:#493328; stroke:none;" d="M81 116L81 119L90 118L81 116z"/>
<path style="fill:#a57d62; stroke:none;" d="M138.333 116.667L138.667 117.333L138.333 116.667z"/>
<path style="fill:#493328; stroke:none;" d="M165 116L166 117L165 116z"/>
<path style="fill:#bda796; stroke:none;" d="M168 116L168 119L170 119L170 116L168 116M3 117L1 118L0 118L0 188C0 193.783 -2.9004 209.626 5 210L4 213C8.4964 214.908 28.3896 220.984 32.1636 217.164C34.6136 214.685 31.1329 208.109 31.0185 205C30.5399 191.988 31.9367 178.933 31.7446 166C31.6394 158.916 28.7291 147.041 37 144L39.8958 155.83L40.3048 179L41 191L41 195L41 196C34.7846 201.461 40.208 224.642 42 232L38 232L38 233L45 235L46 238L46 240L44 241C45.8061 242.551 46.1628 242.863 44 244L44 245L53 243L53 241L48 237L52 235L43 233L43 232L48 232L42 211L48 211L49 211L46 167L45 167L45 169L44 169L44 164L47 166L43 155C45.6526 155.018 44.9083 153.094 43 152L42 146L40 147L39 136L36 131L32 129L33 139L29 140L30 136L29 136C27.2143 140.96 28.9102 144.382 31 149L25 152L25 153L28 154L28 155L17 150L18 159L11 160L10 160L13 157L13 156L8 152L9 152L9 154L10 154L10 148L9 148L8 151L7 151L7 146L11 148L10 141L7 136L8 136L8 139L9 139L3.95833 128.967L3 117M70 117L71 118L70 117z"/>
<path style="fill:#a57d62; stroke:none;" d="M73 117L74 118L73 117z"/>
<path style="fill:#895a42; stroke:none;" d="M139.333 117.667L139.667 118.333L139.333 117.667z"/>
<path style="fill:#a57d62; stroke:none;" d="M127 118L128 119L127 118M85.6667 119.333L86.3333 119.667L85.6667 119.333z"/>
<path style="fill:#895a42; stroke:none;" d="M140 119L141 120L140 119z"/>
<path style="fill:#bda796; stroke:none;" d="M146 119L147 120L146 119M170 119L171 120L170 119z"/>
<path style="fill:#a57d62; stroke:none;" d="M71 120L68 128L71 127L71 120z"/>
<path style="fill:#493328; stroke:none;" d="M73 120L74 121L73 120z"/>
<path style="fill:#a57d62; stroke:none;" d="M79.6667 120.333L80.3333 120.667L79.6667 120.333M140 120L141 121L140 120z"/>
<path style="fill:#bda796; stroke:none;" d="M54 121L55 122L54 121M69.6667 121.333L70.3333 121.667L69.6667 121.333M151 121L152 122L151 121M68 122L69 123L68 122z"/>
<path style="fill:#a57d62; stroke:none;" d="M72 122L71 126L75 123L72 122z"/>
<path style="fill:#493328; stroke:none;" d="M79 123L78 127C83.2363 127.17 85.7852 128.918 89 133L90 133L89 123L79 123z"/>
<path style="fill:#bda796; stroke:none;" d="M100 122L101 123L100 122z"/>
<path style="fill:#895a42; stroke:none;" d="M115 122L117 128L125 126L127 130L128 130L127 124L122 124L122 123L138 123L115 122M141 122L140 124L142 124L141 122z"/>
<path style="fill:#bda796; stroke:none;" d="M69.3333 123.667L69.6667 124.333L69.3333 123.667z"/>
<path style="fill:#493328; stroke:none;" d="M116 123L117 124L116 123M118 123L118 124L121 124L118 123z"/>
<path style="fill:#895a42; stroke:none;" d="M148 123L149 124L148 123z"/>
<path style="fill:#a57d62; stroke:none;" d="M173 123L174 124L173 123z"/>
<path style="fill:#895a42; stroke:none;" d="M128 124L137 134L140 132L128 124z"/>
<path style="fill:#a57d62; stroke:none;" d="M165 124C163.5 126.247 163.614 126.726 166 128L165 124z"/>
<path style="fill:#bda796; stroke:none;" d="M64 125L65 126L64 125z"/>
<path style="fill:#a57d62; stroke:none;" d="M115 125L116 126L115 125z"/>
<path style="fill:#895a42; stroke:none;" d="M166 125L168 129L168 125L166 125z"/>
<path style="fill:#a57d62; stroke:none;" d="M168 125L168 129L172 129L172 128L168 125z"/>
<path style="fill:#bda796; stroke:none;" d="M68 126L69 127L68 126z"/>
<path style="fill:#a57d62; stroke:none;" d="M92 126L92 134L93 134L94 132L94 131L92 126M116 127C118.501 130.855 122.808 129.751 127 130L125 126L116 127z"/>
<path style="fill:#bda796; stroke:none;" d="M27 127L28 128L27 127M32 127L33 128L32 127M63 127L64 128L63 127z"/>
<path style="fill:#a57d62; stroke:none;" d="M73 127L74 128L73 127z"/>
<path style="fill:#bda796; stroke:none;" d="M74.6667 127.333L75.3333 127.667L74.6667 127.333z"/>
<path style="fill:#a57d62; stroke:none;" d="M76 127L76 128L89 133C85.4193 128.195 81.8398 127.053 76 127z"/>
<path style="fill:#895a42; stroke:none;" d="M83.6667 127.333L84.3333 127.667L83.6667 127.333z"/>
<path style="fill:#a57d62; stroke:none;" d="M128 129L133 130C131.45 127.786 130.003 126.886 128 129z"/>
<path style="fill:#bda796; stroke:none;" d="M156 127L157 128L156 127M70.6667 128.333L71.3333 128.667L70.6667 128.333M80 128L80 129L83 129L80 128z"/>
<path style="fill:#895a42; stroke:none;" d="M85 128L86 129L85 128z"/>
<path style="fill:#bda796; stroke:none;" d="M49 129L50 130L49 129M83 129L84 130L83 129z"/>
<path style="fill:#895a42; stroke:none;" d="M86 129L87 130L86 129z"/>
<path style="fill:#a57d62; stroke:none;" d="M166 129L167 130L166 129z"/>
<path style="fill:#bda796; stroke:none;" d="M84.6667 130.333L85.3333 130.667L84.6667 130.333z"/>
<path style="fill:#895a42; stroke:none;" d="M87 130L88 131L87 130z"/>
<path style="fill:#a57d62; stroke:none;" d="M127 130L127 133L128 133L127 130z"/>
<path style="fill:#d0c5be; stroke:none;" d="M130 130L131 131L130 130z"/>
<path style="fill:#a57d62; stroke:none;" d="M133 130L134 135L138 133L138 132L133 130z"/>
<path style="fill:#bda796; stroke:none;" d="M158 130L159 131L158 130z"/>
<path style="fill:#d0c5be; stroke:none;" d="M163 130L166 134L163 130M2 131L3 132L2 131z"/>
<path style="fill:#bda796; stroke:none;" d="M38 131L36 132L37 135L38 135L38 131M42 131L43 132L42 131M86 131L87 132L86 131z"/>
<path style="fill:#d0c5be; stroke:none;" d="M119 131L119 132L124 135L125 135L127 131L119 131z"/>
<path style="fill:#bda796; stroke:none;" d="M6 132L7 133L6 132M18 132L18 133L22 135L18 132M87 132L88 133L87 132M40 133L39 135L41 135L40 133M88 133L89 134L88 133z"/>
<path style="fill:#493328; stroke:none;" d="M90 133L91 134L90 133z"/>
<path style="fill:#a57d62; stroke:none;" d="M118 133L119 134L118 133z"/>
<path style="fill:#d0c5be; stroke:none;" d="M128 133L129 134L128 133z"/>
<path style="fill:#bda796; stroke:none;" d="M23 134L24 135L23 134M89 134L90 135L89 134z"/>
<path style="fill:#493328; stroke:none;" d="M91.3333 134.667L91.6667 135.333L91.3333 134.667z"/>
<path style="fill:#d0c5be; stroke:none;" d="M3 135L4 136L3 135z"/>
<path style="fill:#bda796; stroke:none;" d="M11 135L12 136L11 135M19 135L20 136L19 135M25 137L28 136L25 137z"/>
<path style="fill:#a57d62; stroke:none;" d="M90 135L92 137L90 135M93 135L94 136L93 135z"/>
<path style="fill:#d0c5be; stroke:none;" d="M125 135L119 136L129 144L125 135z"/>
<path style="fill:#a57d62; stroke:none;" d="M126.333 135.667L126.667 136.333L126.333 135.667z"/>
<path style="fill:#d0c5be; stroke:none;" d="M128 135L129 136L128 135z"/>
<path style="fill:#a57d62; stroke:none;" d="M130 135L131 137L129 136L137 138L137 137L130 135M133 135L134 136L133 135z"/>
<path style="fill:#bda796; stroke:none;" d="M23 136L24 137L23 136M90 136L91 137L90 136z"/>
<path style="fill:#a57d62; stroke:none;" d="M96 136L97 137L96 136z"/>
<path style="fill:#bda796; stroke:none;" d="M125 136L126 137L125 136M91 137L92 138L91 137z"/>
<path style="fill:#a57d62; stroke:none;" d="M94 137L100 143L94 137z"/>
<path style="fill:#493328; stroke:none;" d="M137 139L138 140L140 137L137 139z"/>
<path style="fill:#d0c5be; stroke:none;" d="M4 138L7 145L4 138z"/>
<path style="fill:#bda796; stroke:none;" d="M11 138L12 139L11 138M19 138L20 139L19 138z"/>
<path style="fill:#a57d62; stroke:none;" d="M92 138L93 139L92 138z"/>
<path style="fill:#d0c5be; stroke:none;" d="M36 139L37 140L36 139z"/>
<path style="fill:#bda796; stroke:none;" d="M92 139L93 140L92 139z"/>
<path style="fill:#a57d62; stroke:none;" d="M126 139L127 140L126 139M129 140L129 141L134 141L129 154C135.252 151.405 135.412 145.88 137 140L129 140M165 139L157 165L155 164L155 165L158 166C159.142 161.081 160.187 156.498 166 157L166 158L162 158L164 162L177 166L177 165L174 163L175 162C179.704 164.198 183.208 162.192 187 159L191 162C187.293 155.956 175.593 157.158 169 157L169 156L196 152L192 157L198 159L199 158L200 158L199 155L206 152L206 149L207 149L203 162L213 156L212 154L212 153L214 156L215 156C215.5 153.087 216.123 151.683 213 151L213 150L215 150L215 149C209.144 148.954 206.413 144.114 200.996 142.778C193.091 140.828 186.25 146.22 180 150L180 149L189 142L169 152L169 151L179 143L165 151L167 147L164 147L164 146L165 139z"/>
<path style="fill:#bda796; stroke:none;" d="M21 140L20 143L21 140z"/>
<path style="fill:#a57d62; stroke:none;" d="M93 140L94 141L93 140z"/>
<path style="fill:#493328; stroke:none;" d="M94 140L95 141L94 140M95 141L96 142L95 141z"/>
<path style="fill:#a57d62; stroke:none;" d="M189 141L189 142L192 142L189 141z"/>
<path style="fill:#bda796; stroke:none;" d="M23 142L24 143L23 142M94 142L95 143L94 142z"/>
<path style="fill:#493328; stroke:none;" d="M96 142L98 148L99 148L96 142M137 142L138 143L137 142z"/>
<path style="fill:#a57d62; stroke:none;" d="M181 142L182 143L181 142M203 142L204 143L203 142z"/>
<path style="fill:#bda796; stroke:none;" d="M95 143L96 147L97 147L95 143z"/>
<path style="fill:#895a42; stroke:none;" d="M145 143L146 144L145 143z"/>
<path style="fill:#bda796; stroke:none;" d="M213 143L213 146L216 145L216 144L213 143M19 144L19 146L21 146L21 144L19 144M27 144L28 145L27 144z"/>
<path style="fill:#a57d62; stroke:none;" d="M32 145L34 147L34 148C30.6192 150.574 31.1155 154.15 32 158L33 158L33 150L35 150C38.732 165.528 38.6175 183.636 34 199L36 199L35 207L34 212L33 212L32 209L31 209C35.8826 223.961 12.8632 215.767 4 213L5 210L0 209L2 212L2 213L0 219L33 221L36 216L35 220L35 221L42 232C41.2027 221.994 35.0646 204.795 41 196L41 195L39 194L39 193L41 193L41 191L40.5401 178L37 144L32 145z"/>
<path style="fill:#895a42; stroke:none;" d="M96 144L97 145L96 144z"/>
<path style="fill:#bda796; stroke:none;" d="M108.667 144.333L109.333 144.667L108.667 144.333z"/>
<path style="fill:#a57d62; stroke:none;" d="M96 145L97 146L96 145M209.333 145.667L209.667 146.333L209.333 145.667z"/>
<path style="fill:#bda796; stroke:none;" d="M26 146L27 149L30 148L30 147L26 146z"/>
<path style="fill:#895a42; stroke:none;" d="M32 146L32 148L34 148L34 146L32 146M97 146L98 147L97 146M191 146L192 147L191 146z"/>
<path style="fill:#bda796; stroke:none;" d="M193 146L194 147L193 146z"/>
<path style="fill:#a57d62; stroke:none;" d="M97 147L98 148L97 147z"/>
<path style="fill:#895a42; stroke:none;" d="M194 147L191 151L194 147z"/>
<path style="fill:#bda796; stroke:none;" d="M11 148L12 149L11 148M19 148L20 149L19 148M97 148L98 149L97 148z"/>
<path style="fill:#493328; stroke:none;" d="M99 148L100 149L99 148z"/>
<path style="fill:#a57d62; stroke:none;" d="M116 148L117 149L116 148z"/>
<path style="fill:#bda796; stroke:none;" d="M13 149L11 155L13 149M22 149L24 151L24 149L22 149M25.3333 149.667L25.6667 150.333L25.3333 149.667M80 149L82 151L80 149M98 149L99 155C94.0699 155 84.4129 153.094 81 157L98 157L95 161L94 161L90 158L84 161L83 158C79.956 159.362 68.817 168.332 68 162L67 162L67 166L64 166L65 169L56 154L57 154L59 158L60 158L54 152C55.2501 159.013 59.1665 164.902 64 170C59.233 170.602 62.0957 175.396 65 177L64 174L78 166L78 167L75 168L75 169C84.4202 166.436 109.343 165.611 98 149z"/>
<path style="fill:#493328; stroke:none;" d="M100.333 149.667L100.667 150.333L100.333 149.667z"/>
<path style="fill:#895a42; stroke:none;" d="M204 149L205 150L204 149M206 149L206 152L199 155L200 157L200 158L199 158L198 156L198 159L192 157L196 152L169 156L169 157C176.225 157.481 185.91 156.35 191 162L187 159C182.957 161.534 179.762 163.398 175 162L174 163L177 165L177 166L164 162L162 158L166 158L166 157C158.186 155.227 157.881 167.89 148 168L147 175L162 175L162 189L163 189L163 177L168 183L169 183L170 169L177 167L184 194L185 194C183.78 184.938 180.277 177.172 183 168L200 170C200 166.699 220.175 156.331 212 153L213 156L203 162L206 149z"/>
<path style="fill:#d0c5be; stroke:none;" d="M5 150L6 151L5 150z"/>
<path style="fill:#895a42; stroke:none;" d="M33 150L32 194L33 212L34 212C33.4563 208.738 31.7831 206.196 35 207L36 199L34 199C39.5122 185.208 39.269 164.08 35 150L33 150z"/>
<path style="fill:#a57d62; stroke:none;" d="M99 150L100 151L99 150z"/>
<path style="fill:#895a42; stroke:none;" d="M185 150L186 151L185 150M196 151L196 152L201 151L196 151z"/>
<path style="fill:#bda796; stroke:none;" d="M21 151L22 152L21 151M50 151L51 152L50 151M85 151L86 152L85 151z"/>
<path style="fill:#493328; stroke:none;" d="M101 151L105 157L101 151z"/>
<path style="fill:#a57d62; stroke:none;" d="M158.333 151.667L158.667 152.333L158.333 151.667z"/>
<path style="fill:#895a42; stroke:none;" d="M162.333 151.667L162.667 152.333L162.333 151.667M183 154L183 155L190 152L183 154z"/>
<path style="fill:#a57d62; stroke:none;" d="M100 152C99.779 154.56 99.9539 157.548 99.1273 159.995C95.8983 169.558 83.6313 164.066 77 169C88.3081 172.343 109.603 168.031 100 152z"/>
<path style="fill:#d0c5be; stroke:none;" d="M217 152L216 154L218 154L217 152z"/>
<path style="fill:#bda796; stroke:none;" d="M65 153L66 154L65 153z"/>
<path style="fill:#895a42; stroke:none;" d="M209 153L208 157L209 153z"/>
<path style="fill:#a57d62; stroke:none;" d="M56 154C57.0743 160.023 60.1605 165.263 65 169L56 154z"/>
<path style="fill:#895a42; stroke:none;" d="M101 154L102 155L101 154M161 154L162 155L161 154z"/>
<path style="fill:#d0c5be; stroke:none;" d="M3 155L4 156L3 155z"/>
<path style="fill:#bda796; stroke:none;" d="M63 155L63 161L68 161L65 155L63 155z"/>
<path style="fill:#a57d62; stroke:none;" d="M129 155L130 156L129 155M148 155L149 156L148 155z"/>
<path style="fill:#d0c5be; stroke:none;" d="M21 156L22 157L21 156z"/>
<path style="fill:#bda796; stroke:none;" d="M71 158L71 159L75 160L72 160L75 162L76 156L71 158M78.6667 156.333L79.3333 156.667L78.6667 156.333z"/>
<path style="fill:#a57d62; stroke:none;" d="M127 156L128 157L127 156M188 156L189 157L188 156z"/>
<path style="fill:#d0c5be; stroke:none;" d="M28.3333 157.667L28.6667 158.333L28.3333 157.667z"/>
<path style="fill:#a57d62; stroke:none;" d="M126 157L128 161L126 157z"/>
<path style="fill:#493328; stroke:none;" d="M133 158L139 164L144 160L133 158z"/>
<path style="fill:#895a42; stroke:none;" d="M139.667 157.333L140.333 157.667L139.667 157.333M206 157L207 158L206 157z"/>
<path style="fill:#a57d62; stroke:none;" d="M213 157L214 158L213 157z"/>
<path style="fill:#d0c5be; stroke:none;" d="M26 158L27 159L26 158z"/>
<path style="fill:#bda796; stroke:none;" d="M94 158L95 159L94 158z"/>
<path style="fill:#493328; stroke:none;" d="M103 158L107 161L103 158M126 158L127 159L126 158z"/>
<path style="fill:#895a42; stroke:none;" d="M142 158L143 159L142 158z"/>
<path style="fill:#a57d62; stroke:none;" d="M199 168L198 174L199 174L200 171L203 174L204 174L204 170L208 171L210 166L209 171L213 171L213 172L207 172L207 173L210 173L199 179L199 189L198 189L198 187L197 187L197 192L200 193C199.146 195.697 199.149 196.386 202 197L202 198L199 198L199 199L203 200L203 204C200.374 204 201.209 205.763 202 208L198 205C198.983 207.95 199.487 208.622 197 208L203 222L196 219L196 228L196 229C193.574 233.913 200.388 234.53 204 235L204 234L197 233L197 232L217 231L217 230L209 221C211.995 219.418 212.086 216.472 210 214C214.74 212.427 218.175 210.116 219 205L214 203L219 204L212 201L212 200L219 198L219 195L214 195L214 194C216.529 193.494 216.529 193.506 214 193L214 192L217 193L219 192L219 188C216.384 187.617 215 187.287 215 190L212 189L217 186L217 185L214 184L214 183L219 185L220 178L224 176L222 168L221 168L219 172L218 172L220 164C215.812 164 218.833 160.042 220 158C211.14 158.229 206.275 163.6 199 168z"/>
<path style="fill:#d0c5be; stroke:none;" d="M13.6667 159.333L14.3333 159.667L13.6667 159.333M16 160L16 161L23 163L21 159L16 160z"/>
<path style="fill:#a57d62; stroke:none;" d="M31 159L32 160L31 159z"/>
<path style="fill:#bda796; stroke:none;" d="M60 159L61 160L60 159z"/>
<path style="fill:#895a42; stroke:none;" d="M139 163L148 163C148.14 157.447 141.031 160.106 139 163z"/>
<path style="fill:#a57d62; stroke:none;" d="M146 159L147 160L146 159M156 159L157 160L156 159M220 159L221 160L220 159z"/>
<path style="fill:#d0c5be; stroke:none;" d="M4 160L5 161L4 160z"/>
<path style="fill:#bda796; stroke:none;" d="M61 160L62 161L61 160z"/>
<path style="fill:#d0c5be; stroke:none;" d="M80 160L79 162L80 160M122 161L139 181C136.34 175.023 129.573 159.237 122 161z"/>
<path style="fill:#493328; stroke:none;" d="M145 160L146 161L145 160z"/>
<path style="fill:#a57d62; stroke:none;" d="M148 160L149 161L148 160z"/>
<path style="fill:#895a42; stroke:none;" d="M180 160L181 161L180 160z"/>
<path style="fill:#a57d62; stroke:none;" d="M197 160L197 163L198 163L197 160z"/>
<path style="fill:#d0c5be; stroke:none;" d="M8 161L9 164L10 164L8 161M14 161L15 168L16 168L15 165L17 168L18 168L14 161M27 161L28 162L27 161z"/>
<path style="fill:#a57d62; stroke:none;" d="M63 161L64 162L63 161z"/>
<path style="fill:#895a42; stroke:none;" d="M64 161C65.1266 163.006 65.8734 163.006 67 161L64 161z"/>
<path style="fill:#a57d62; stroke:none;" d="M65 161L66 162L65 161M67 161L68 162L67 161z"/>
<path style="fill:#d0c5be; stroke:none;" d="M92 161L93 162L92 161M96 161L97 162L96 161z"/>
<path style="fill:#bda796; stroke:none;" d="M127 161L128 162L127 161z"/>
<path style="fill:#493328; stroke:none;" d="M147 161L148 162L147 161z"/>
<path style="fill:#a57d62; stroke:none;" d="M149 161L150 162L149 161z"/>
<path style="fill:#895a42; stroke:none;" d="M173.667 161.333L174.333 161.667L173.667 161.333z"/>
<path style="fill:#493328; stroke:none;" d="M199 161L198 168L199 168L202 166L201 161L199 161z"/>
<path style="fill:#a57d62; stroke:none;" d="M31.3333 162.667L31.6667 163.333L31.3333 162.667z"/>
<path style="fill:#bda796; stroke:none;" d="M46 162L48 164L46 162M62 162L62 163L63 165L64 165L62 162M121 162L126 172L129 170L121 162z"/>
<path style="fill:#a57d62; stroke:none;" d="M128 162L129 163L128 162M137 177L139 178L140 178C138.105 170.288 140.213 168.972 143 162C134.404 162 137.49 175.04 137 177z"/>
<path style="fill:#bda796; stroke:none;" d="M140 180L139 180L138 177L137 177L139 181L130 171C130.877 173.94 139.62 188.937 141 182L145 184C145.046 178.513 149.654 169.241 147.383 164.323C145.076 159.328 139.109 166.822 138.139 169.285C136.908 172.412 139.502 176.796 140 180z"/>
<path style="fill:#a57d62; stroke:none;" d="M147 162L148 163L147 162z"/>
<path style="fill:#493328; stroke:none;" d="M149 162L149 168L156 168L149 162z"/>
<path style="fill:#895a42; stroke:none;" d="M150 162L151 163L150 162z"/>
<path style="fill:#a57d62; stroke:none;" d="M151 162L152 163L151 162M185 162L188 165L185 162z"/>
<path style="fill:#d0c5be; stroke:none;" d="M18.6667 163.333L19.3333 163.667L18.6667 163.333M26 163L27 164L26 163M63 163L64 164L63 163z"/>
<path style="fill:#a57d62; stroke:none;" d="M65 163L67 166L67 163L65 163z"/>
<path style="fill:#493328; stroke:none;" d="M113 167L121 172L119 163L113 167z"/>
<path style="fill:#bda796; stroke:none;" d="M128.333 163.667L128.667 164.333L128.333 163.667z"/>
<path style="fill:#a57d62; stroke:none;" d="M148 163L148 168L149 168L148 163z"/>
<path style="fill:#895a42; stroke:none;" d="M152 163L153 164L152 163z"/>
<path style="fill:#a57d62; stroke:none;" d="M153 163L154 164L153 163z"/>
<path style="fill:#895a42; stroke:none;" d="M213 163L210 166L213 163z"/>
<path style="fill:#d0c5be; stroke:none;" d="M5 164L6 165L5 164M21.6667 164.333L22.3333 164.667L21.6667 164.333z"/>
<path style="fill:#bda796; stroke:none;" d="M48 164L50 168L65 188L66 181L59 176L63 181C58.6538 177.938 52.7432 173.559 52 168L59 175L48 164z"/>
<path style="fill:#d0c5be; stroke:none;" d="M64.3333 164.667L64.6667 165.333L64.3333 164.667z"/>
<path style="fill:#493328; stroke:none;" d="M130 164L138 167L138 165L130 164z"/>
<path style="fill:#d0c5be; stroke:none;" d="M143 164L143 166L145 164L143 164z"/>
<path style="fill:#895a42; stroke:none;" d="M149 164L149 167L150 167L149 164M154 164L155 165L154 164z"/>
<path style="fill:#a57d62; stroke:none;" d="M181 164L182 165L181 164z"/>
<path style="fill:#d0c5be; stroke:none;" d="M11.6667 165.333L12.3333 165.667L11.6667 165.333M19 165L21 168L19 165z"/>
<path style="fill:#bda796; stroke:none;" d="M129 165L130 166L129 165z"/>
<path style="fill:#a57d62; stroke:none;" d="M162 168L162 169L170 169C167.587 165.423 165.544 166.022 162 168M179 165L180 166L179 165z"/>
<path style="fill:#bda796; stroke:none;" d="M47 166L48 167L47 166z"/>
<path style="fill:#a57d62; stroke:none;" d="M69 168L69 169L78 167L69 168M130 166L131 167L130 166z"/>
<path style="fill:#895a42; stroke:none;" d="M208 166L208 171L204 170L204 174L203 174L203 171L200 171L199 179C202.949 180.351 213.112 173.741 207 173L207 172L213 172L213 171L209 171L210 166L208 166z"/>
<path style="fill:#d0c5be; stroke:none;" d="M10 167L11 168L10 167M66.3333 167.667L66.6667 168.333L66.3333 167.667z"/>
<path style="fill:#bda796; stroke:none;" d="M130 167L132 170L130 167z"/>
<path style="fill:#d0c5be; stroke:none;" d="M142 178L144 178C145.785 166.399 137.385 166.924 142 178z"/>
<path style="fill:#a57d62; stroke:none;" d="M174 167L175 168L174 167M177 167L180 169L177 167z"/>
<path style="fill:#895a42; stroke:none;" d="M216 167L213 171L216 167z"/>
<path style="fill:#a57d62; stroke:none;" d="M52 168C52.264 173.95 57.8463 178.597 63 181L52 168M131 168L132 169L131 168M183 168C177.567 181.047 187.241 195.945 189 209L189.259 181.17L189.33 171.133L183 168M192 168L192 169L196 169L192 168z"/>
<path style="fill:#895a42; stroke:none;" d="M210 168L210 169L213 169L210 168z"/>
<path style="fill:#a57d62; stroke:none;" d="M31 169L31 204L32 204L31 169z"/>
<path style="fill:#bda796; stroke:none;" d="M60 169L61 170L60 169z"/>
<path style="fill:#a57d62; stroke:none;" d="M67 169L68 170L67 169z"/>
<path style="fill:#895a42; stroke:none;" d="M67 170L67 171L80 171C76.1065 168.34 71.3905 168.702 67 170z"/>
<path style="fill:#a57d62; stroke:none;" d="M132.667 169.333L133.333 169.667L132.667 169.333M147 169L147 172L148 172L147 169z"/>
<path style="fill:#493328; stroke:none;" d="M170 169L170 204L188 212C186.914 198.35 176.515 182.496 180 169L170 169z"/>
<path style="fill:#bda796; stroke:none;" d="M189 169L192 216L193 216C195.397 199.995 195.78 185.365 194 169L189 169z"/>
<path style="fill:#d0c5be; stroke:none;" d="M194 169L195 194L196 194L199 170L194 169z"/>
<path style="fill:#bda796; stroke:none;" d="M197.667 169.333L198.333 169.667L197.667 169.333z"/>
<path style="fill:#493328; stroke:none;" d="M65 179L79 185L80 206C86.5349 202.081 84 177.625 84 170C73.999 170.583 68.4357 168.121 65 179z"/>
<path style="fill:#bda796; stroke:none;" d="M129 170L130 171L129 170z"/>
<path style="fill:#a57d62; stroke:none;" d="M134 170L135 171L134 170z"/>
<path style="fill:#d0c5be; stroke:none;" d="M20 171L23 174L20 171z"/>
<path style="fill:#a57d62; stroke:none;" d="M66 171L66 174L67 174L66 171z"/>
<path style="fill:#bda796; stroke:none;" d="M135 171L136 172L135 171M186 171L186 175L187 175L186 171M198 171L199 172L198 171z"/>
<path style="fill:#d0c5be; stroke:none;" d="M24 172L26 175L24 172z"/>
<path style="fill:#a57d62; stroke:none;" d="M186 172L187 173L186 172z"/>
<path style="fill:#493328; stroke:none;" d="M121 173L122 174L121 173z"/>
<path style="fill:#a57d62; stroke:none;" d="M64 174L64 176L66 176L64 174z"/>
<path style="fill:#895a42; stroke:none;" d="M66.3333 174.667L66.6667 175.333L66.3333 174.667z"/>
<path style="fill:#bda796; stroke:none;" d="M198 174L199 175L198 174z"/>
<path style="fill:#a57d62; stroke:none;" d="M206 174L207 175L206 174z"/>
<path style="fill:#d0c5be; stroke:none;" d="M27 175L28 176L27 175z"/>
<path style="fill:#bda796; stroke:none;" d="M47 175L46 180L47 180L47 178L48 178L47 184L48 184L49 182L50 187L54 188L47 175z"/>
<path style="fill:#493328; stroke:none;" d="M92 175C92 180.443 88.9087 196.636 96 197C98.6591 201.101 102.696 199.579 107 199.17C115.093 198.4 122.965 199.834 131 200C129.983 194.663 126.723 179.347 122.298 176.028C116.637 171.782 99.0101 175 92 175z"/>
<path style="fill:#895a42; stroke:none;" d="M137 175L138 176L137 175z"/>
<path style="fill:#493328; stroke:none;" d="M147 175L145 203C148.991 203 156.448 204.355 159.852 201.892C164.893 198.244 162 180.73 162 175L147 175z"/>
<path style="fill:#895a42; stroke:none;" d="M216 175L217 176L216 175M65 176L66 177L65 176M138 176L140 179L138 176M146 176L146 179L147 179L146 176z"/>
<path style="fill:#a57d62; stroke:none;" d="M203 176L204 177L203 176z"/>
<path style="fill:#895a42; stroke:none;" d="M213.667 176.333L214.333 176.667L213.667 176.333z"/>
<path style="fill:#a57d62; stroke:none;" d="M64.3333 177.667L64.6667 178.333L64.3333 177.667z"/>
<path style="fill:#895a42; stroke:none;" d="M68.3333 177.667L68.6667 178.333L68.3333 177.667z"/>
<path style="fill:#a57d62; stroke:none;" d="M90 177L87 180L91 215L94 210L95 210C96.1561 216.658 103.654 215 109 215L109 214L97 214L97 201L107 201L107 200L92.6034 198.397L90 177M163 177L160 210L159 210L156 203L157 215L161 215L168.397 202.856L170 179L169 179L169 183L168 183L166 177L163 177M199 177L200 178L199 177z"/>
<path style="fill:#895a42; stroke:none;" d="M211.667 178.333L212.333 178.667L211.667 178.333z"/>
<path style="fill:#bda796; stroke:none;" d="M64 179L65 180L64 179z"/>
<path style="fill:#a57d62; stroke:none;" d="M126 179L127 180L126 179M129 179L129 184L130 184L129 179M139 179L140 180L139 179z"/>
<path style="fill:#bda796; stroke:none;" d="M198 179L198 183L199 183L198 179z"/>
<path style="fill:#a57d62; stroke:none;" d="M65 180L66 181L65 180M140 180L141 181L140 180z"/>
<path style="fill:#895a42; stroke:none;" d="M199 180L200 181L199 180M200 188L207 181L210 181C204.909 179.512 202.114 183.959 200 188z"/>
<path style="fill:#493328; stroke:none;" d="M66.6667 181.333L67.3333 181.667L66.6667 181.333M132 181L133 184L134 184L132 181z"/>
<path style="fill:#a57d62; stroke:none;" d="M220 181L221 182L220 181M141 182L143 184L141 182z"/>
<path style="fill:#d0c5be; stroke:none;" d="M64.3333 183.667L64.6667 184.333L64.3333 183.667z"/>
<path style="fill:#a57d62; stroke:none;" d="M65 183L65 187L66 187L65 183M127 183L128 184L127 183z"/>
<path style="fill:#895a42; stroke:none;" d="M141 183L144 185L144 184L141 183M199 183L200 184L199 183M145 184L145 187L146 187L145 184z"/>
<path style="fill:#bda796; stroke:none;" d="M197 184L197 187L198 187L197 184z"/>
<path style="fill:#d0c5be; stroke:none;" d="M64 186L65 187L64 186z"/>
<path style="fill:#a57d62; stroke:none;" d="M134 186L133 189L127 187L136 207L137 207L136 198L133 197L134 186z"/>
<path style="fill:#493328; stroke:none;" d="M136 186L139 204L140 204L138 186L136 186z"/>
<path style="fill:#bda796; stroke:none;" d="M141 186L142 214C145.749 215.179 154.048 216.834 155 212C152.146 212 153.33 210.314 154 208L156 215L157 215C157 203.32 154.576 204.307 144 203L145 186L141 186z"/>
<path style="fill:#895a42; stroke:none;" d="M198 186L198 189L199 189L198 186z"/>
<path style="fill:#a57d62; stroke:none;" d="M219 187L220 188L219 187z"/>
<path style="fill:#bda796; stroke:none;" d="M45 188L46 189L45 188M55 188L56 189L55 188z"/>
<path style="fill:#895a42; stroke:none;" d="M136.333 189.667L136.667 190.333L136.333 189.667M201 189L202 190L201 189z"/>
<path style="fill:#bda796; stroke:none;" d="M54 190L55 191L54 190M135 190L133 197L139 212L140 212L135 190z"/>
<path style="fill:#a57d62; stroke:none;" d="M144 190L145 191L144 190z"/>
<path style="fill:#bda796; stroke:none;" d="M196 190L197 191L196 190z"/>
<path style="fill:#895a42; stroke:none;" d="M197.667 190.333L198.333 190.667L197.667 190.333z"/>
<path style="fill:#a57d62; stroke:none;" d="M136 191L136 195L137 195L136 191M144 192L144 196L145 196L144 192z"/>
<path style="fill:#bda796; stroke:none;" d="M196 192L197 193L196 192z"/>
<path style="fill:#895a42; stroke:none;" d="M197 192L192 224L194 223L194 224L192 227L192 217L191 217L189 226C191.885 228.484 192.69 230.076 190 233L189 243L192 242L191 246L195 248L193 245L205 245L205 244L204 239L203 239L197 241L194 236L201 238L205 235C201.207 234.507 194.663 234.034 196 229L196 228L196 219L203 222L197 208C199.294 208.031 198.716 207.168 198 205L202 208C200.995 204.984 200.179 203.295 203 204L203 200L199 199L199 198L202 198L202 197L199 197L199 192L197 192z"/>
<path style="fill:#bda796; stroke:none;" d="M52 193L53 194L52 193z"/>
<path style="fill:#a57d62; stroke:none;" d="M196 193L196 196L197 196L196 193z"/>
<path style="fill:#bda796; stroke:none;" d="M211 193L212 194L211 193z"/>
<path style="fill:#895a42; stroke:none;" d="M91 194C91.3401 198.365 92.6353 199.66 97 200L96 197L91 194M94 194L96 196L94 194z"/>
<path style="fill:#bda796; stroke:none;" d="M209.333 194.667L209.667 195.333L209.333 194.667z"/>
<path style="fill:#895a42; stroke:none;" d="M184 195L188 213L190 213C189.551 207.506 188.618 198.469 184 195M144 196L145 197L144 196M162 196L163 197L162 196z"/>
<path style="fill:#d0c5be; stroke:none;" d="M135 197L136 198L135 197z"/>
<path style="fill:#895a42; stroke:none;" d="M137 197L138 198L137 197z"/>
<path style="fill:#a57d62; stroke:none;" d="M144.333 197.667L144.667 198.333L144.333 197.667z"/>
<path style="fill:#bda796; stroke:none;" d="M208.667 197.333L209.333 197.667L208.667 197.333z"/>
<path style="fill:#895a42; stroke:none;" d="M134 198L135 199L134 198z"/>
<path style="fill:#a57d62; stroke:none;" d="M137 198L137 201L138 201L137 198z"/>
<path style="fill:#895a42; stroke:none;" d="M104 199L104 200L121 200L104 199z"/>
<path style="fill:#a57d62; stroke:none;" d="M121 199L122 200L121 199z"/>
<path style="fill:#895a42; stroke:none;" d="M122 199L122 200L125 200L122 199M144 199L144 203L145 203L144 199z"/>
<path style="fill:#bda796; stroke:none;" d="M97 201L97 214L136 215C131.627 194.082 113.702 200.989 97 201z"/>
<path style="fill:#a57d62; stroke:none;" d="M125 200L125 201L130 201L125 200z"/>
<path style="fill:#493328; stroke:none;" d="M132 200L133 201L132 200z"/>
<path style="fill:#a57d62; stroke:none;" d="M131 201L132 202L131 201z"/>
<path style="fill:#895a42; stroke:none;" d="M161 201L158 203L159 210L160 210L161 201z"/>
<path style="fill:#a57d62; stroke:none;" d="M195 201L196 202L195 201z"/>
<path style="fill:#895a42; stroke:none;" d="M95 202L96 203L95 202M138 202L139 203L138 202M157 202L158 203L157 202z"/>
<path style="fill:#bda796; stroke:none;" d="M206 204L213 204L206 204z"/>
<path style="fill:#895a42; stroke:none;" d="M35 203L36 204L35 203z"/>
<path style="fill:#a57d62; stroke:none;" d="M132 203L133 204L132 203M138 203L139 204L138 203M147 203L147 204L153 204L147 203M0 204L1 205L0 204M169 204L169 205L172 205L169 204z"/>
<path style="fill:#895a42; stroke:none;" d="M172.667 204.333L173.333 204.667L172.667 204.333z"/>
<path style="fill:#a57d62; stroke:none;" d="M195 204L196 205L195 204z"/>
<path style="fill:#d0c5be; stroke:none;" d="M43 205L44 206L43 205z"/>
<path style="fill:#a57d62; stroke:none;" d="M133.333 205.667L133.667 206.333L133.333 205.667z"/>
<path style="fill:#d0c5be; stroke:none;" d="M144 205L144 207L146 207L146 205L144 205z"/>
<path style="fill:#bda796; stroke:none;" d="M169 205L169 219L170 219L170 206L178 212L180 210L181 210L187 213C182.446 208.398 175.456 205.335 169 205z"/>
<path style="fill:#a57d62; stroke:none;" d="M174 205L175 206L174 205z"/>
<path style="fill:#895a42; stroke:none;" d="M175 205L175 206L179 207L179 206L175 205z"/>
<path style="fill:#a57d62; stroke:none;" d="M31.3333 206.667L31.6667 207.333L31.3333 206.667z"/>
<path style="fill:#bda796; stroke:none;" d="M64 206L65 207L64 206z"/>
<path style="fill:#a57d62; stroke:none;" d="M81 206L82 207L81 206z"/>
<path style="fill:#bda796; stroke:none;" d="M82 206C78.2519 210.662 79 216.296 79 222L83 222L82 206z"/>
<path style="fill:#a57d62; stroke:none;" d="M83 206L83 213L84 213L83 206z"/>
<path style="fill:#d0c5be; stroke:none;" d="M155.333 206.667L155.667 207.333L155.333 206.667M170 206L169 224L190 224C188.039 215.857 187.14 215.082 181 210L180 210L178 212L170 206z"/>
<path style="fill:#a57d62; stroke:none;" d="M176 206L177 207L176 206M64 207L64 211L65 211L64 207z"/>
<path style="fill:#d0c5be; stroke:none;" d="M128 207L129 208L128 207z"/>
<path style="fill:#a57d62; stroke:none;" d="M139 207L139 210L140 210L139 207M178 207L178 208L181 209L178 207z"/>
<path style="fill:#895a42; stroke:none;" d="M180 207L180 208L186 211L186 210L180 207z"/>
<path style="fill:#a57d62; stroke:none;" d="M195 207L196 208L195 207M79.3333 208.667L79.6667 209.333L79.3333 208.667z"/>
<path style="fill:#d0c5be; stroke:none;" d="M132 208L133 209L132 208z"/>
<path style="fill:#a57d62; stroke:none;" d="M137 208L137 211L138 211L137 208z"/>
<path style="fill:#d0c5be; stroke:none;" d="M154 208L153 213L155 215L156 215L154 208z"/>
<path style="fill:#bda796; stroke:none;" d="M213 210L216 208L213 210z"/>
<path style="fill:#d0c5be; stroke:none;" d="M81 209L80 212L81 209z"/>
<path style="fill:#a57d62; stroke:none;" d="M142 209L142 213L143 213L142 209z"/>
<path style="fill:#d0c5be; stroke:none;" d="M144 212L149 211C146.953 208.739 145.514 209.64 144 212M151 209L152 212L151 209z"/>
<path style="fill:#a57d62; stroke:none;" d="M182 209L183 210L182 209M194.333 209.667L194.667 210.333L194.333 209.667M184 210L185 211L184 210z"/>
<path style="fill:#bda796; stroke:none;" d="M47 211L48 212L47 211z"/>
<path style="fill:#a57d62; stroke:none;" d="M135.333 211.667L135.667 212.333L135.333 211.667M138 211L140 214L138 211z"/>
<path style="fill:#895a42; stroke:none;" d="M186 211L187 212L186 211z"/>
<path style="fill:#a57d62; stroke:none;" d="M190 211L190 214L191 214L190 211z"/>
<path style="fill:#bda796; stroke:none;" d="M0.666667 212.333L1.33333 212.667L0.666667 212.333z"/>
<path style="fill:#a57d62; stroke:none;" d="M187 212L188 213L187 212M193.333 212.667L193.667 213.333L193.333 212.667M64 213L64 226L65 226L64 213z"/>
<path style="fill:#d0c5be; stroke:none;" d="M81 213L82 214L81 213M143 213L144 214L143 213z"/>
<path style="fill:#bda796; stroke:none;" d="M188 213L188 216L189 216L188 213z"/>
<path style="fill:#493328; stroke:none;" d="M189.333 213.667L189.667 214.333L189.333 213.667z"/>
<path style="fill:#bda796; stroke:none;" d="M205 213L204 218L208 214L205 213z"/>
<path style="fill:#895a42; stroke:none;" d="M34 214L35 215L34 214z"/>
<path style="fill:#bda796; stroke:none;" d="M46 214L50 221L55 222C52.9824 217.204 51.3356 214.601 46 214z"/>
<path style="fill:#a57d62; stroke:none;" d="M83 214L84 215L83 214M136 214L137 215L136 214M142.333 214.667L142.667 215.333L142.333 214.667z"/>
<path style="fill:#d0c5be; stroke:none;" d="M144 214L145 215L144 214M152 214L153 215L152 214z"/>
<path style="fill:#895a42; stroke:none;" d="M190 214L189 216L191 216L190 214z"/>
<path style="fill:#d0c5be; stroke:none;" d="M80 215L81 216L80 215z"/>
<path style="fill:#493328; stroke:none;" d="M93 223L96 223L95 226L128 226L128 225L113 224L113 223L159 224L159 225L138 225L138 226L159 227L157 235L161 235L161 216C144.238 216 127.796 216.397 111 215.985C102.695 215.782 94.1248 212.033 93 223z"/>
<path style="fill:#a57d62; stroke:none;" d="M138 215L138 217L140 217L138 215z"/>
<path style="fill:#895a42; stroke:none;" d="M143 215L144 216L143 215z"/>
<path style="fill:#a57d62; stroke:none;" d="M144 215L145 216L144 215z"/>
<path style="fill:#895a42; stroke:none;" d="M145 215L146 216L145 215z"/>
<path style="fill:#a57d62; stroke:none;" d="M146 215L146 216L149 216L146 215z"/>
<path style="fill:#895a42; stroke:none;" d="M149 215L150 216L149 215z"/>
<path style="fill:#a57d62; stroke:none;" d="M150 215L150 216L156 216L150 215M162 215L163 234L166 233C165.963 229.95 166.454 225.516 163 225L164 215L162 215M191 215L192 223L193 223L191 215z"/>
<path style="fill:#895a42; stroke:none;" d="M35 216L34 225L0 224L0 233L33 228L30 227L30 226L34 226C34.3044 229.829 35.2052 231.173 39 232L35 221L35 220L35 216z"/>
<path style="fill:#a57d62; stroke:none;" d="M189 216L190 217L189 216z"/>
<path style="fill:#493328; stroke:none;" d="M190.333 216.667L190.667 217.333L190.333 216.667z"/>
<path style="fill:#a57d62; stroke:none;" d="M168 217L168 225L169 225L168 217z"/>
<path style="fill:#bda796; stroke:none;" d="M189 217L189 223L190 223L189 217M59 218L59 219L63 221L59 218z"/>
<path style="fill:#a57d62; stroke:none;" d="M78 218L78 221L79 221L78 218z"/>
<path style="fill:#493328; stroke:none;" d="M0 219C0.692545 227.684 26.1747 224.999 34 225C31.3122 216.902 7.50842 220.788 0 219z"/>
<path style="fill:#895a42; stroke:none;" d="M1 219L1 220L7 220L1 219z"/>
<path style="fill:#d0c5be; stroke:none;" d="M81 219L82 220L81 219z"/>
<path style="fill:#493328; stroke:none;" d="M191 219L191 226L192 226L191 219z"/>
<path style="fill:#895a42; stroke:none;" d="M17 220L17 221L20 221L17 220M21 220L21 221L32 221L21 220z"/>
<path style="fill:#bda796; stroke:none;" d="M63 221L64 222L63 221z"/>
<path style="fill:#a57d62; stroke:none;" d="M79 222L79 223L83 223L79 222z"/>
<path style="fill:#bda796; stroke:none;" d="M62 223L63 224L62 223z"/>
<path style="fill:#493328; stroke:none;" d="M78 223L78 225L84 226C83.2708 222.597 81.1942 223.013 78 223z"/>
<path style="fill:#a57d62; stroke:none;" d="M128.333 223.667L128.667 224.333L128.333 223.667z"/>
<path style="fill:#895a42; stroke:none;" d="M146 223L149 225L149 224L146 223z"/>
<path style="fill:#a57d62; stroke:none;" d="M193 223L192 227L193 227L193 223z"/>
<path style="fill:#bda796; stroke:none;" d="M196 224L197 227L205 223L196 224M222 223L222 224L232 225L232 224L222 223M234 223L234 224L250 226L234 223M54.6667 224.333L55.3333 224.667L54.6667 224.333M63 224L64 225L63 224z"/>
<path style="fill:#a57d62; stroke:none;" d="M89 224L84 247L88 246L87 244C93.4249 242.121 91.4921 228.709 89 224M143 224L143 225L147 225L143 224M149 224L149 225L157 225L149 224z"/>
<path style="fill:#895a42; stroke:none;" d="M157.667 224.333L158.333 224.667L157.667 224.333z"/>
<path style="fill:#bda796; stroke:none;" d="M169 224L170 225L169 224z"/>
<path style="fill:#a57d62; stroke:none;" d="M170.667 224.333L171.333 224.667L170.667 224.333z"/>
<path style="fill:#bda796; stroke:none;" d="M172 224L172 225L186 225L172 224z"/>
<path style="fill:#a57d62; stroke:none;" d="M186.667 224.333L187.333 224.667L186.667 224.333z"/>
<path style="fill:#bda796; stroke:none;" d="M188.667 224.333L189.333 224.667L188.667 224.333z"/>
<path style="fill:#a57d62; stroke:none;" d="M222 224C225.151 228.86 233.769 227 239 227L239 226L233 226L233 225L235 225L235 224L232 226L224 224L225 226L222 224z"/>
<path style="fill:#895a42; stroke:none;" d="M223 224L223 226L225 226L223 224z"/>
<path style="fill:#493328; stroke:none;" d="M235 224L237 226L235 224z"/>
<path style="fill:#895a42; stroke:none;" d="M236 224L238 226L236 224z"/>
<path style="fill:#a57d62; stroke:none;" d="M237 224L238 225L237 224M239 224L239 225L244 225L244 224L239 224z"/>
<path style="fill:#493328; stroke:none;" d="M131 225L132 226L131 225M172 225L173 226L172 225z"/>
<path style="fill:#a57d62; stroke:none;" d="M174 226L174 227L181 229L193 229L181 225L174 226z"/>
<path style="fill:#493328; stroke:none;" d="M181.667 225.333L182.333 225.667L181.667 225.333z"/>
<path style="fill:#895a42; stroke:none;" d="M183 225L186 227L183 225z"/>
<path style="fill:#493328; stroke:none;" d="M185 225L185 226L189 226L185 225z"/>
<path style="fill:#895a42; stroke:none;" d="M231 225L232 226L231 225M233 225L233 226L236 226L233 225z"/>
<path style="fill:#493328; stroke:none;" d="M238 225L239 226L238 225z"/>
<path style="fill:#895a42; stroke:none;" d="M239 225L244 232C244.186 227.936 246.158 227.293 250 227L239 225z"/>
<path style="fill:#a57d62; stroke:none;" d="M30 226L30 227L33 228C20.8499 230.893 0.0129215 225.278 0 242L20 240L19 242L31 241L31 239C34.7199 241.227 35.6145 243.763 36 248L41 248L41 247C39.4077 243.171 44.2946 243.873 47 244L44 241L46 238L45 235L44 234L40 235L34 226L30 226M65 226L66 227L65 226M78 228L82 227L82 234L78 233L78 229L77 229L77 238L67 237L67 246L68 246L68 240L83 241L83 226L78 228z"/>
<path style="fill:#895a42; stroke:none;" d="M163 226L164 227L163 226z"/>
<path style="fill:#a57d62; stroke:none;" d="M170.667 226.333L171.333 226.667L170.667 226.333z"/>
<path style="fill:#895a42; stroke:none;" d="M181.667 226.333L182.333 226.667L181.667 226.333z"/>
<path style="fill:#bda796; stroke:none;" d="M221 226C221.311 235.467 232.454 235.201 240 234L237 238L239 237L238 240L237 240L233 237C233 241.974 225.372 238.582 223 237L219 241L219 249L214 248L214 249L214 250L250 250L248 236L250 234L250 233L250 227L244 228L248 235L241 233C239.859 224.365 227.592 227.224 221 226z"/>
<path style="fill:#493328; stroke:none;" d="M242 226L242 228L244 226L242 226z"/>
<path style="fill:#bda796; stroke:none;" d="M62 227L68 232L63 230L65 228L62 227z"/>
<path style="fill:#a57d62; stroke:none;" d="M66 227L67 228L66 227z"/>
<path style="fill:#bda796; stroke:none;" d="M78 233L82 234L82 227C78.6787 228.099 78.2626 229.59 78 233z"/>
<path style="fill:#a57d62; stroke:none;" d="M113 227L113 228L118 228L118 227L113 227M120 227L120 228L126 229L126 230L119 231L119 232L127 232L127 233L105 234L105 235L143 235L143 233L137 233L137 232L142 232L145 227L120 227M168 227L168 234L169 234L168 227z"/>
<path style="fill:#bda796; stroke:none;" d="M169 227L169 231L190 232L188 241L171 246L169 234L168 234L168 250L186 250L193 229L192 228L181 229L169 227z"/>
<path style="fill:#a57d62; stroke:none;" d="M244 227L244 228L249 228L244 227M63 228L65 230L65 228L63 228z"/>
<path style="fill:#bda796; stroke:none;" d="M66 228L67 229L66 228z"/>
<path style="fill:#895a42; stroke:none;" d="M198 228L199 229L198 228M200 228L201 229L200 228z"/>
<path style="fill:#a57d62; stroke:none;" d="M239 228L240 229L239 228M243 228L243 231L244 231L243 228z"/>
<path style="fill:#493328; stroke:none;" d="M63 229L64 230L63 229z"/>
<path style="fill:#a57d62; stroke:none;" d="M67.3333 229.667L67.6667 230.333L67.3333 229.667M240 229L241 230L240 229z"/>
<path style="fill:#493328; stroke:none;" d="M36.6667 230.333L37.3333 230.667L36.6667 230.333z"/>
<path style="fill:#a57d62; stroke:none;" d="M42 230L43 231L42 230M192.333 230.667L192.667 231.333L192.333 230.667M241 230L242 231L241 230z"/>
<path style="fill:#d0c5be; stroke:none;" d="M247 230L248 231L247 230M249 230L248 233L249 230M169 231L171 246C178.789 247.508 181.397 244.511 188 241L186 239L186 238L190 232L169 231z"/>
<path style="fill:#a57d62; stroke:none;" d="M241 232L241 233L248 235L241 232z"/>
<path style="fill:#895a42; stroke:none;" d="M133 232L134 233L133 232z"/>
<path style="fill:#a57d62; stroke:none;" d="M191 232L192 233L191 232z"/>
<path style="fill:#895a42; stroke:none;" d="M245 233L246 234L245 233M34 234L34 237L36 237L36 234L34 234M40.6667 234.333L41.3333 234.667L40.6667 234.333z"/>
<path style="fill:#bda796; stroke:none;" d="M67 234L68 235L67 234z"/>
<path style="fill:#a57d62; stroke:none;" d="M96 234L97 242L155 243L155 242L124 237.664L97 236L97 235L104 235L96 234M190 234L191 235L190 234z"/>
<path style="fill:#bda796; stroke:none;" d="M54.6667 235.333L55.3333 235.667L54.6667 235.333z"/>
<path style="fill:#a57d62; stroke:none;" d="M67 235L68 236L67 235z"/>
<path style="fill:#493328; stroke:none;" d="M69 235L70 236L69 235M71 236L71 237L75 237L71 236z"/>
<path style="fill:#bda796; stroke:none;" d="M97 235L97 236L156 243C158.251 233.085 149.189 235 142 235L97 235z"/>
<path style="fill:#a57d62; stroke:none;" d="M156 235L157 236L156 235M162.333 235.667L162.667 236.333L162.333 235.667z"/>
<path style="fill:#493328; stroke:none;" d="M192.667 235.333L193.333 235.667L192.667 235.333z"/>
<path style="fill:#a57d62; stroke:none;" d="M205.333 235.667L205.667 236.333L205.333 235.667M248 235L250 237L250 235L248 235z"/>
<path style="fill:#bda796; stroke:none;" d="M67 236L68 237L67 236z"/>
<path style="fill:#d0c5be; stroke:none;" d="M136 236L136 237L147 237L147 236L136 236z"/>
<path style="fill:#a57d62; stroke:none;" d="M157 236L158 237L157 236M167 236L167 240L168 240L167 236z"/>
<path style="fill:#493328; stroke:none;" d="M194 236L194 237L201 238L201 236L194 236z"/>
<path style="fill:#bda796; stroke:none;" d="M225 236L225 237L229 239L225 236z"/>
<path style="fill:#895a42; stroke:none;" d="M32 237L33 238L32 237z"/>
<path style="fill:#bda796; stroke:none;" d="M39 239L42 239L41 237L39 239M66 237L67 238L66 237z"/>
<path style="fill:#a57d62; stroke:none;" d="M189 237L189 240L190 240L189 237M194 237L194 238L197 241L210 239L210 238L194 237z"/>
<path style="fill:#bda796; stroke:none;" d="M67 238L68 239L67 238z"/>
<path style="fill:#493328; stroke:none;" d="M192 238L195 242L192 238z"/>
<path style="fill:#895a42; stroke:none;" d="M199 238L200 239L199 238M31 239L31 241L19 242L20 240L0 242L0 250L42 249L42 248L36 248C35.7967 243.638 35.2976 240.686 31 239z"/>
<path style="fill:#bda796; stroke:none;" d="M66 239L67 240L66 239z"/>
<path style="fill:#493328; stroke:none;" d="M204 239L204 240L207 240L204 239z"/>
<path style="fill:#895a42; stroke:none;" d="M206 240L206 241L211 241L211 239L206 240z"/>
<path style="fill:#a57d62; stroke:none;" d="M211 239L212 240L211 239z"/>
<path style="fill:#bda796; stroke:none;" d="M212 239L213 240L212 239M218 239L219 240L218 239z"/>
<path style="fill:#493328; stroke:none;" d="M94 240C92.6434 242.609 90.5778 247.601 94.321 249.4C99.282 251.786 108.562 250 114 250L161 250L160 242C145.183 246.847 126.459 246.365 111 244.718C104.391 244.014 99.0055 245.157 94 240z"/>
<path style="fill:#a57d62; stroke:none;" d="M204 240C203.069 242.792 202.123 243.425 205 244L205 245L193 245L193 246L210 245L204 240z"/>
<path style="fill:#493328; stroke:none;" d="M211 240L212 241L211 240z"/>
<path style="fill:#895a42; stroke:none;" d="M212.667 240.333L213.333 240.667L212.667 240.333z"/>
<path style="fill:#bda796; stroke:none;" d="M209 241L210 245L207 246L213 248L213 247L211 246L218 242L215 240L209 241M65.6667 241.333L66.3333 241.667L65.6667 241.333z"/>
<path style="fill:#895a42; stroke:none;" d="M87 241L88 242L87 241z"/>
<path style="fill:#a57d62; stroke:none;" d="M156.333 241.667L156.667 242.333L156.333 241.667M167.333 242.667L167.667 243.333L167.333 242.667M191 242L188 244L188 245L193 245L191 242z"/>
<path style="fill:#bda796; stroke:none;" d="M39 247L51 250C49.4499 247.786 48.0029 246.886 46 249L43 243L39 247M65 243L66 245L65 245L54 246L54 247L67 250L65 243z"/>
<path style="fill:#a57d62; stroke:none;" d="M211 243L212 244L211 243z"/>
<path style="fill:#bda796; stroke:none;" d="M37 244L38 245L37 244z"/>
<path style="fill:#493328; stroke:none;" d="M72 250L83 250L83 244C78.2686 244.475 74.3261 245.665 72 250z"/>
<path style="fill:#895a42; stroke:none;" d="M189 244L190 245L189 244z"/>
<path style="fill:#493328; stroke:none;" d="M187 245L187 250L201 248L187 245z"/>
<path style="fill:#bda796; stroke:none;" d="M205 245L206 246L205 245z"/>
<path style="fill:#a57d62; stroke:none;" d="M218 245L219 246L218 245M186.333 246.667L186.667 247.333L186.333 246.667z"/>
<path style="fill:#895a42; stroke:none;" d="M197 246L197 247L210 249L197 246z"/>
<path style="fill:#a57d62; stroke:none;" d="M2 247L3 248L2 247M208.667 247.333L209.333 247.667L208.667 247.333M42 248L44 250L42 248z"/>
<path style="fill:#d0c5be; stroke:none;" d="M47 248L48 249L47 248z"/>
<path style="fill:#a57d62; stroke:none;" d="M66 248L67 249L66 248M85 248L86 249L85 248z"/>
<path style="fill:#895a42; stroke:none;" d="M186 248L187 249L186 248z"/>
<path style="fill:#a57d62; stroke:none;" d="M201 249L201 250L206 249L201 249z"/>
<path style="fill:#493328; stroke:none;" d="M210 248L211 249L210 248z"/>
<path style="fill:#895a42; stroke:none;" d="M211 248L211 249L214 249L211 248z"/>
<path style="fill:#493328; stroke:none;" d="M38 249L38 250L43 250L38 249z"/>
<path style="fill:#bda796; stroke:none;" d="M63 249L64 250L63 249z"/>
<path style="fill:#a57d62; stroke:none;" d="M186 249L187 250L186 249M199 249L200 250L199 249z"/>
<path style="fill:#bda796; stroke:none;" d="M200 249L201 250L200 249M205 249L205 250L208 250L205 249z"/>
<path style="fill:#a57d62; stroke:none;" d="M208.667 249.333L209.333 249.667L208.667 249.333z"/>
<path style="fill:#bda796; stroke:none;" d="M210 249L210 250L213 250L210 249z"/>
<path style="fill:#a57d62; stroke:none;" d="M213 249L214 250L213 249M215 249L216 250L215 249z"/>
</svg>
