<svg width="24" height="24" viewBox="0 0 24 24" fill="none" xmlns="http://www.w3.org/2000/svg">
<path fill-rule="evenodd" clip-rule="evenodd" d="M12.0005 7.90663C14.9024 7.90675 17.6932 8.99347 19.7963 10.9422C19.9547 11.0926 20.2078 11.0907 20.3638 10.9379L21.8776 9.44886C21.9566 9.37136 22.0007 9.26638 22 9.15715C21.9993 9.04792 21.954 8.94345 21.8741 8.86685C16.3542 3.71105 7.64597 3.71105 2.12607 8.86685C2.04611 8.94339 2.00075 9.04783 2.00001 9.15706C1.99927 9.26629 2.04323 9.3713 2.12215 9.44886L3.63643 10.9379C3.7923 11.0909 4.04563 11.0928 4.2039 10.9422C6.30724 8.99334 9.09843 7.90662 12.0005 7.90663ZM11.9982 12.7462C13.5926 12.7461 15.1301 13.3237 16.3119 14.3667C16.4717 14.5148 16.7235 14.5116 16.8794 14.3595L18.3915 12.8705C18.4711 12.7924 18.5153 12.6864 18.5141 12.5763C18.513 12.4662 18.4666 12.3611 18.3853 12.2846C14.7864 9.02183 9.21305 9.02183 5.61414 12.2846C5.53284 12.3611 5.48646 12.4662 5.48539 12.5764C5.48433 12.6865 5.52866 12.7925 5.60846 12.8705L7.12012 14.3595C7.27595 14.5116 7.52775 14.5148 7.6876 14.3667C8.86865 13.3244 10.4049 12.7469 11.9982 12.7462ZM15.029 16.015C15.0314 16.1254 14.9868 16.2318 14.906 16.3092L12.2903 18.8818C12.2137 18.9574 12.1091 19 12.0001 19C11.891 19 11.7864 18.9574 11.7098 18.8818L9.09372 16.3092C9.0129 16.2318 8.96844 16.1253 8.97084 16.0149C8.97324 15.9045 9.02227 15.7999 9.10637 15.7259C10.7768 14.3489 13.2233 14.3489 14.8937 15.7259C14.9778 15.8 15.0267 15.9046 15.029 16.015Z" fill="#A6A6A6"/>
</svg>
