<svg width="24" height="24" viewBox="0 0 24 24" fill="none" xmlns="http://www.w3.org/2000/svg">
<path fill-rule="evenodd" clip-rule="evenodd" d="M16.518 6.06011C16.4068 3.66094 14.4269 1.75 12.0009 1.75C9.51522 1.7393 7.48716 3.73949 7.46112 6.22434H7.25778C4.49177 6.22434 2.25 8.46484 2.25 11.2293V16.7453C2.25 19.5098 4.49177 21.7503 7.25778 21.7503H16.7422C19.5082 21.7503 21.75 19.5098 21.75 16.7453V11.2293C21.75 8.46484 19.5082 6.22434 16.7422 6.22434H16.5218L16.518 6.06011ZM15.0229 7.72434V9.30504L15.0297 9.40681C15.0794 9.77288 15.3932 10.055 15.7729 10.055C16.1871 10.055 16.5229 9.71925 16.5229 9.30504V7.72434H16.7422C18.68 7.72434 20.25 9.29345 20.25 11.2293V16.7453C20.25 18.6812 18.68 20.2503 16.7422 20.2503H7.25778C5.32 20.2503 3.75 18.6812 3.75 16.7453V11.2293C3.75 9.29345 5.32 7.72434 7.25778 7.72434H7.4609L7.4609 9.30504L7.46775 9.40681C7.51741 9.77288 7.8312 10.055 8.2109 10.055C8.62511 10.055 8.9609 9.71925 8.9609 9.30504V7.72434H15.0229ZM15.0225 6.22434C14.9965 4.57713 13.6535 3.25 11.9977 3.24999C10.3872 3.24307 9.0656 4.49535 8.9668 6.07878L8.96196 6.22434H15.0225Z" fill="#EBA352"/>
</svg>
