<svg width="24" height="24" viewBox="0 0 24 24" fill="none" xmlns="http://www.w3.org/2000/svg">
<path fill-rule="evenodd" clip-rule="evenodd" d="M20.339 7.6593C21.009 8.1783 21.42 8.9493 21.49 9.7883L21.5 9.9893V18.0983C21.5 20.1883 19.849 21.8883 17.78 21.9983H15.79C14.839 21.9793 14.07 21.2393 14 20.3093L13.99 20.1683V17.3093C13.99 16.9983 13.759 16.7393 13.45 16.6883L13.36 16.6783H10.689C10.37 16.6883 10.11 16.9183 10.07 17.2183L10.06 17.3093V20.1593C10.06 20.2183 10.049 20.2883 10.04 20.3383L10.03 20.3593L10.019 20.4283C9.9 21.2793 9.2 21.9283 8.33 21.9893L8.2 21.9983H6.41C4.32 21.9983 2.61 20.3593 2.5 18.2983V9.9893C2.509 9.1383 2.88 8.3483 3.5 7.7983L9.73 2.7883C11 1.7793 12.78 1.7393 14.089 2.6683L14.25 2.7883L20.339 7.6593ZM20.099 18.2583L20.11 18.0983V9.9983C20.099 9.5693 19.92 9.1683 19.61 8.8693L19.48 8.7583L13.38 3.8783C12.62 3.2683 11.54 3.2393 10.74 3.7683L10.589 3.8783L4.509 8.7793C4.16 9.0383 3.95 9.4283 3.9 9.8383L3.889 9.9983V18.0983C3.889 19.4283 4.929 20.5183 6.25 20.5983H8.2C8.42 20.5983 8.61 20.4493 8.639 20.2393L8.66 20.0593L8.67 20.0083V17.3093C8.67 16.2393 9.49 15.3693 10.54 15.2883H13.36C14.429 15.2883 15.299 16.1093 15.38 17.1593V20.1683C15.38 20.3783 15.53 20.5593 15.73 20.5983H17.589C18.929 20.5983 20.019 19.5693 20.099 18.2583Z" fill="#333335"/>
</svg>
