<svg width="27" height="24" viewBox="0 0 27 24" fill="none" xmlns="http://www.w3.org/2000/svg">
<path fill-rule="evenodd" clip-rule="evenodd" d="M16.5253 3.00005L7.45618 3C4.28665 3 2 5.56151 2 8.85897V15.141C2 18.4385 4.28665 21 7.45618 21H16.5168C18.0392 20.9829 19.4802 20.3421 20.5126 19.2266C21.5449 18.111 22.0786 16.6183 21.9893 15.0959L21.9906 8.85897C22.0786 7.38171 21.5449 5.88895 20.5126 4.77344C19.4802 3.65794 18.0392 3.01705 16.5253 3.00005ZM7.45618 4.52843L16.5084 4.52838C17.6073 4.54072 18.6532 5.00592 19.4026 5.81562C20.152 6.62533 20.5393 7.70887 20.4745 8.81389L20.4732 15.141C20.5393 16.2911 20.152 17.3747 19.4026 18.1844C18.6532 18.9941 17.6073 19.4593 16.5084 19.4716L7.45618 19.4716C5.16279 19.4716 3.51744 17.6284 3.51744 15.141V8.85897C3.51744 6.37155 5.16279 4.52843 7.45618 4.52843ZM18.024 8.63837C17.7622 8.30886 17.2847 8.25555 16.9576 8.5193L12.8583 11.8242L12.7408 11.9068C12.2575 12.2095 11.6228 12.1816 11.1598 11.8181L7.03057 8.51731L6.93763 8.4536C6.61736 8.26727 6.20142 8.34031 5.96461 8.64086C5.70412 8.97146 5.75904 9.45216 6.08726 9.71453L10.2217 13.0195L10.383 13.1375C11.4231 13.8459 12.8013 13.8067 13.7988 13.0236L17.9058 9.71255L17.9882 9.63551C18.24 9.36261 18.2621 8.93792 18.024 8.63837Z" fill="#A6A6A6"/>
<rect x="15" width="12" height="12" rx="6" fill="#F3643F"/>
<path d="M22.736 7.24C22.736 6.536 22.376 6.048 21.656 5.768V5.76C22.288 5.456 22.6 4.976 22.6 4.328C22.6 3.856 22.408 3.464 22.032 3.136C21.656 2.808 21.144 2.648 20.504 2.648C19.44 2.648 18.696 3.224 18.408 4.056L19.264 4.448C19.52 3.848 19.928 3.544 20.488 3.544C21.192 3.544 21.6 3.92 21.6 4.432C21.6 4.688 21.496 4.912 21.28 5.096C21.072 5.28 20.808 5.368 20.488 5.368H19.872V6.256H20.544C20.888 6.256 21.168 6.352 21.384 6.544C21.608 6.728 21.72 6.96 21.72 7.224C21.72 7.48 21.608 7.704 21.376 7.896C21.144 8.08 20.864 8.176 20.528 8.176C19.896 8.176 19.44 7.864 19.168 7.248L18.32 7.664C18.696 8.6 19.424 9.072 20.512 9.072C21.16 9.072 21.688 8.896 22.104 8.544C22.528 8.184 22.736 7.752 22.736 7.24Z" fill="white"/>
</svg>
