<svg width="24" height="24" viewBox="0 0 24 24" fill="none" xmlns="http://www.w3.org/2000/svg">
<path opacity="0.35" d="M2 10.1254C2 8.6814 2 7.95938 2.21822 7.40783C2.41018 6.92267 2.71647 6.52823 3.0932 6.28103C3.52148 6 4.08214 6 5.20345 6H16.8847C18.006 6 18.5667 6 18.9949 6.28103C19.3717 6.52823 19.678 6.92267 19.8699 7.40783C20.0881 7.95938 20.0881 8.6814 20.0881 10.1254V13.8746C20.0881 15.3186 20.0881 16.0406 19.8699 16.5922C19.678 17.0773 19.3717 17.4718 18.9949 17.719C18.5667 18 18.006 18 16.8847 18H5.20345C4.08214 18 3.52148 18 3.0932 17.719C2.71647 17.4718 2.41018 17.0773 2.21822 16.5922C2 16.0406 2 15.3186 2 13.8746V10.1254Z" fill="#272727"/>
<path opacity="0.35" fill-rule="evenodd" clip-rule="evenodd" d="M16.8847 6.9669H5.20345C4.63041 6.9669 4.24578 6.96765 3.94958 6.99882C3.66215 7.02906 3.52472 7.08306 3.43406 7.14254C3.1986 7.29704 3.00717 7.54357 2.8872 7.8468C2.84101 7.96355 2.79908 8.14053 2.77559 8.51069C2.75139 8.89214 2.75081 9.38747 2.75081 10.1254V13.8746C2.75081 14.6125 2.75139 15.1079 2.77559 15.4893C2.79908 15.8595 2.84101 16.0365 2.8872 16.1532C3.00717 16.4564 3.1986 16.703 3.43406 16.8575C3.52472 16.9169 3.66215 16.9709 3.94958 17.0012C4.24578 17.0323 4.63041 17.0331 5.20345 17.0331H16.8847C17.4577 17.0331 17.8424 17.0323 18.1386 17.0012C18.426 16.9709 18.5634 16.9169 18.6541 16.8575C18.8895 16.703 19.081 16.4564 19.2009 16.1532C19.2471 16.0365 19.2891 15.8595 19.3126 15.4893C19.3368 15.1079 19.3373 14.6125 19.3373 13.8746V10.1254C19.3373 9.38747 19.3368 8.89214 19.3126 8.51069C19.2891 8.14053 19.2471 7.96355 19.2009 7.8468C19.081 7.54357 18.8895 7.29704 18.6541 7.14254C18.5634 7.08306 18.426 7.02906 18.1386 6.99882C17.8424 6.96765 17.4577 6.9669 16.8847 6.9669ZM2.21822 7.40783C2 7.95938 2 8.6814 2 10.1254V13.8746C2 15.3186 2 16.0406 2.21822 16.5922C2.41018 17.0773 2.71647 17.4718 3.0932 17.719C3.52148 18 4.08214 18 5.20345 18H16.8847C18.006 18 18.5667 18 18.9949 17.719C19.3717 17.4718 19.678 17.0773 19.8699 16.5922C20.0881 16.0406 20.0881 15.3186 20.0881 13.8746V10.1254C20.0881 8.6814 20.0881 7.95938 19.8699 7.40783C19.678 6.92267 19.3717 6.52823 18.9949 6.28103C18.5667 6 18.006 6 16.8847 6H5.20345C4.08214 6 3.52148 6 3.0932 6.28103C2.71647 6.52823 2.41018 6.92267 2.21822 7.40783Z" fill="#272727"/>
<path opacity="0.4" d="M20.9062 9.88275V14.118C21.5679 13.7593 21.9981 12.9249 21.9981 12.0004C21.9981 11.0759 21.5679 10.2415 20.9062 9.88275" fill="#272727"/>
<path d="M3.64062 10.1771C3.64062 9.45511 3.64062 9.0941 3.74974 8.81833C3.84571 8.57575 3.99886 8.37852 4.18722 8.25492C4.40137 8.11441 4.6817 8.11441 5.24235 8.11441H16.8383C17.3989 8.11441 17.6793 8.11441 17.8934 8.25492C18.0818 8.37852 18.2349 8.57575 18.3309 8.81833C18.44 9.0941 18.44 9.45511 18.44 10.1771V13.8164C18.44 14.5384 18.44 14.8994 18.3309 15.1752C18.2349 15.4178 18.0818 15.615 17.8934 15.7386C17.6793 15.8791 17.3989 15.8791 16.8383 15.8791H5.24235C4.6817 15.8791 4.40137 15.8791 4.18722 15.7386C3.99886 15.615 3.84571 15.4178 3.74974 15.1752C3.64062 14.8994 3.64062 14.5384 3.64062 13.8164V10.1771Z" fill="#272727"/>
</svg>
