<svg width="24" height="24" viewBox="0 0 24 24" fill="none" xmlns="http://www.w3.org/2000/svg">
<path fill-rule="evenodd" clip-rule="evenodd" d="M20.8235 6H19.6471C18.9973 6 18.4706 6.50368 18.4706 7.125V16.875C18.4706 17.4963 18.9973 18 19.6471 18H20.8235C21.4733 18 22 17.4963 22 16.875V7.125C22 6.50368 21.4733 6 20.8235 6ZM14.1624 8.62237H15.3389C15.9886 8.62237 16.5154 9.12605 16.5154 9.74737V16.8724C16.5154 17.4937 15.9886 17.9974 15.3389 17.9974H14.1624C13.5127 17.9974 12.986 17.4937 12.986 16.8724V9.74737C12.986 9.12605 13.5127 8.62237 14.1624 8.62237ZM9.83755 11.2447H8.66109C8.01135 11.2447 7.48463 11.7484 7.48463 12.3697V16.8697C7.48463 17.4911 8.01135 17.9947 8.66109 17.9947H9.83755C10.4873 17.9947 11.014 17.4911 11.014 16.8697V12.3697C11.014 11.7484 10.4873 11.2447 9.83755 11.2447ZM4.35292 13.4913H3.17646C2.52672 13.4913 2 13.995 2 14.6163V16.8663C2 17.4877 2.52672 17.9913 3.17646 17.9913H4.35292C5.00266 17.9913 5.52938 17.4877 5.52938 16.8663V14.6163C5.52938 13.995 5.00266 13.4913 4.35292 13.4913Z" fill="#A6A6A6"/>
</svg>
